<?xml version="1.0" encoding="utf-8" standalone="no"?>
<!DOCTYPE svg PUBLIC "-//W3C//DTD SVG 1.1//EN"
  "http://www.w3.org/Graphics/SVG/1.1/DTD/svg11.dtd">
<svg xmlns:xlink="http://www.w3.org/1999/xlink" width="576pt" height="324pt" viewBox="0 0 576 324" xmlns="http://www.w3.org/2000/svg" version="1.1">
 <metadata>
  <rdf:RDF xmlns:dc="http://purl.org/dc/elements/1.1/" xmlns:cc="http://creativecommons.org/ns#" xmlns:rdf="http://www.w3.org/1999/02/22-rdf-syntax-ns#">
   <cc:Work>
    <dc:type rdf:resource="http://purl.org/dc/dcmitype/StillImage"/>
    <dc:date>2025-12-29T01:51:21.244048</dc:date>
    <dc:format>image/svg+xml</dc:format>
    <dc:creator>
     <cc:Agent>
      <dc:title>Matplotlib v3.7.5, https://matplotlib.org/</dc:title>
     </cc:Agent>
    </dc:creator>
   </cc:Work>
  </rdf:RDF>
 </metadata>
 <defs>
  <style type="text/css">*{stroke-linejoin: round; stroke-linecap: butt}</style>
 </defs>
 <g id="figure_1">
  <g id="patch_1">
   <path d="M 0 324 
L 576 324 
L 576 0 
L 0 0 
z
" style="fill: #ffffff"/>
  </g>
  <g id="axes_1">
   <g id="patch_2">
    <path d="M 38.27 282.04 
L 565.2 282.04 
L 565.2 26.88 
L 38.27 26.88 
z
" style="fill: #ffffff"/>
   </g>
   <g id="matplotlib.axis_1">
    <g id="xtick_1">
     <g id="line2d_1">
      <path d="M 62.221364 282.04 
L 62.221364 26.88 
" clip-path="url(#pee988a18bb)" style="fill: none; stroke: #b0b0b0; stroke-opacity: 0.3; stroke-width: 0.8; stroke-linecap: square"/>
     </g>
     <g id="line2d_2">
      <defs>
       <path id="mb3f01b16f0" d="M 0 0 
L 0 3.5 
" style="stroke: #000000; stroke-width: 0.8"/>
      </defs>
      <g>
       <use xlink:href="#mb3f01b16f0" x="62.221364" y="282.04" style="stroke: #000000; stroke-width: 0.8"/>
      </g>
     </g>
     <g id="text_1">
      <!-- 0.0 -->
      <g transform="translate(54.269801 296.638438) scale(0.1 -0.1)">
       <defs>
        <path id="DejaVuSans-30" d="M 2034 4250 
Q 1547 4250 1301 3770 
Q 1056 3291 1056 2328 
Q 1056 1369 1301 889 
Q 1547 409 2034 409 
Q 2525 409 2770 889 
Q 3016 1369 3016 2328 
Q 3016 3291 2770 3770 
Q 2525 4250 2034 4250 
z
M 2034 4750 
Q 2819 4750 3233 4129 
Q 3647 3509 3647 2328 
Q 3647 1150 3233 529 
Q 2819 -91 2034 -91 
Q 1250 -91 836 529 
Q 422 1150 422 2328 
Q 422 3509 836 4129 
Q 1250 4750 2034 4750 
z
" transform="scale(0.015625)"/>
        <path id="DejaVuSans-2e" d="M 684 794 
L 1344 794 
L 1344 0 
L 684 0 
L 684 794 
z
" transform="scale(0.015625)"/>
       </defs>
       <use xlink:href="#DejaVuSans-30"/>
       <use xlink:href="#DejaVuSans-2e" x="63.623047"/>
       <use xlink:href="#DejaVuSans-30" x="95.410156"/>
      </g>
     </g>
    </g>
    <g id="xtick_2">
     <g id="line2d_3">
      <path d="M 122.099773 282.04 
L 122.099773 26.88 
" clip-path="url(#pee988a18bb)" style="fill: none; stroke: #b0b0b0; stroke-opacity: 0.3; stroke-width: 0.8; stroke-linecap: square"/>
     </g>
     <g id="line2d_4">
      <g>
       <use xlink:href="#mb3f01b16f0" x="122.099773" y="282.04" style="stroke: #000000; stroke-width: 0.8"/>
      </g>
     </g>
     <g id="text_2">
      <!-- 2.5 -->
      <g transform="translate(114.14821 296.638438) scale(0.1 -0.1)">
       <defs>
        <path id="DejaVuSans-32" d="M 1228 531 
L 3431 531 
L 3431 0 
L 469 0 
L 469 531 
Q 828 903 1448 1529 
Q 2069 2156 2228 2338 
Q 2531 2678 2651 2914 
Q 2772 3150 2772 3378 
Q 2772 3750 2511 3984 
Q 2250 4219 1831 4219 
Q 1534 4219 1204 4116 
Q 875 4013 500 3803 
L 500 4441 
Q 881 4594 1212 4672 
Q 1544 4750 1819 4750 
Q 2544 4750 2975 4387 
Q 3406 4025 3406 3419 
Q 3406 3131 3298 2873 
Q 3191 2616 2906 2266 
Q 2828 2175 2409 1742 
Q 1991 1309 1228 531 
z
" transform="scale(0.015625)"/>
        <path id="DejaVuSans-35" d="M 691 4666 
L 3169 4666 
L 3169 4134 
L 1269 4134 
L 1269 2991 
Q 1406 3038 1543 3061 
Q 1681 3084 1819 3084 
Q 2600 3084 3056 2656 
Q 3513 2228 3513 1497 
Q 3513 744 3044 326 
Q 2575 -91 1722 -91 
Q 1428 -91 1123 -41 
Q 819 9 494 109 
L 494 744 
Q 775 591 1075 516 
Q 1375 441 1709 441 
Q 2250 441 2565 725 
Q 2881 1009 2881 1497 
Q 2881 1984 2565 2268 
Q 2250 2553 1709 2553 
Q 1456 2553 1204 2497 
Q 953 2441 691 2322 
L 691 4666 
z
" transform="scale(0.015625)"/>
       </defs>
       <use xlink:href="#DejaVuSans-32"/>
       <use xlink:href="#DejaVuSans-2e" x="63.623047"/>
       <use xlink:href="#DejaVuSans-35" x="95.410156"/>
      </g>
     </g>
    </g>
    <g id="xtick_3">
     <g id="line2d_5">
      <path d="M 181.978182 282.04 
L 181.978182 26.88 
" clip-path="url(#pee988a18bb)" style="fill: none; stroke: #b0b0b0; stroke-opacity: 0.3; stroke-width: 0.8; stroke-linecap: square"/>
     </g>
     <g id="line2d_6">
      <g>
       <use xlink:href="#mb3f01b16f0" x="181.978182" y="282.04" style="stroke: #000000; stroke-width: 0.8"/>
      </g>
     </g>
     <g id="text_3">
      <!-- 5.0 -->
      <g transform="translate(174.026619 296.638438) scale(0.1 -0.1)">
       <use xlink:href="#DejaVuSans-35"/>
       <use xlink:href="#DejaVuSans-2e" x="63.623047"/>
       <use xlink:href="#DejaVuSans-30" x="95.410156"/>
      </g>
     </g>
    </g>
    <g id="xtick_4">
     <g id="line2d_7">
      <path d="M 241.856591 282.04 
L 241.856591 26.88 
" clip-path="url(#pee988a18bb)" style="fill: none; stroke: #b0b0b0; stroke-opacity: 0.3; stroke-width: 0.8; stroke-linecap: square"/>
     </g>
     <g id="line2d_8">
      <g>
       <use xlink:href="#mb3f01b16f0" x="241.856591" y="282.04" style="stroke: #000000; stroke-width: 0.8"/>
      </g>
     </g>
     <g id="text_4">
      <!-- 7.5 -->
      <g transform="translate(233.905028 296.638438) scale(0.1 -0.1)">
       <defs>
        <path id="DejaVuSans-37" d="M 525 4666 
L 3525 4666 
L 3525 4397 
L 1831 0 
L 1172 0 
L 2766 4134 
L 525 4134 
L 525 4666 
z
" transform="scale(0.015625)"/>
       </defs>
       <use xlink:href="#DejaVuSans-37"/>
       <use xlink:href="#DejaVuSans-2e" x="63.623047"/>
       <use xlink:href="#DejaVuSans-35" x="95.410156"/>
      </g>
     </g>
    </g>
    <g id="xtick_5">
     <g id="line2d_9">
      <path d="M 301.735 282.04 
L 301.735 26.88 
" clip-path="url(#pee988a18bb)" style="fill: none; stroke: #b0b0b0; stroke-opacity: 0.3; stroke-width: 0.8; stroke-linecap: square"/>
     </g>
     <g id="line2d_10">
      <g>
       <use xlink:href="#mb3f01b16f0" x="301.735" y="282.04" style="stroke: #000000; stroke-width: 0.8"/>
      </g>
     </g>
     <g id="text_5">
      <!-- 10.0 -->
      <g transform="translate(290.602188 296.638438) scale(0.1 -0.1)">
       <defs>
        <path id="DejaVuSans-31" d="M 794 531 
L 1825 531 
L 1825 4091 
L 703 3866 
L 703 4441 
L 1819 4666 
L 2450 4666 
L 2450 531 
L 3481 531 
L 3481 0 
L 794 0 
L 794 531 
z
" transform="scale(0.015625)"/>
       </defs>
       <use xlink:href="#DejaVuSans-31"/>
       <use xlink:href="#DejaVuSans-30" x="63.623047"/>
       <use xlink:href="#DejaVuSans-2e" x="127.246094"/>
       <use xlink:href="#DejaVuSans-30" x="159.033203"/>
      </g>
     </g>
    </g>
    <g id="xtick_6">
     <g id="line2d_11">
      <path d="M 361.613409 282.04 
L 361.613409 26.88 
" clip-path="url(#pee988a18bb)" style="fill: none; stroke: #b0b0b0; stroke-opacity: 0.3; stroke-width: 0.8; stroke-linecap: square"/>
     </g>
     <g id="line2d_12">
      <g>
       <use xlink:href="#mb3f01b16f0" x="361.613409" y="282.04" style="stroke: #000000; stroke-width: 0.8"/>
      </g>
     </g>
     <g id="text_6">
      <!-- 12.5 -->
      <g transform="translate(350.480597 296.638438) scale(0.1 -0.1)">
       <use xlink:href="#DejaVuSans-31"/>
       <use xlink:href="#DejaVuSans-32" x="63.623047"/>
       <use xlink:href="#DejaVuSans-2e" x="127.246094"/>
       <use xlink:href="#DejaVuSans-35" x="159.033203"/>
      </g>
     </g>
    </g>
    <g id="xtick_7">
     <g id="line2d_13">
      <path d="M 421.491818 282.04 
L 421.491818 26.88 
" clip-path="url(#pee988a18bb)" style="fill: none; stroke: #b0b0b0; stroke-opacity: 0.3; stroke-width: 0.8; stroke-linecap: square"/>
     </g>
     <g id="line2d_14">
      <g>
       <use xlink:href="#mb3f01b16f0" x="421.491818" y="282.04" style="stroke: #000000; stroke-width: 0.8"/>
      </g>
     </g>
     <g id="text_7">
      <!-- 15.0 -->
      <g transform="translate(410.359006 296.638438) scale(0.1 -0.1)">
       <use xlink:href="#DejaVuSans-31"/>
       <use xlink:href="#DejaVuSans-35" x="63.623047"/>
       <use xlink:href="#DejaVuSans-2e" x="127.246094"/>
       <use xlink:href="#DejaVuSans-30" x="159.033203"/>
      </g>
     </g>
    </g>
    <g id="xtick_8">
     <g id="line2d_15">
      <path d="M 481.370227 282.04 
L 481.370227 26.88 
" clip-path="url(#pee988a18bb)" style="fill: none; stroke: #b0b0b0; stroke-opacity: 0.3; stroke-width: 0.8; stroke-linecap: square"/>
     </g>
     <g id="line2d_16">
      <g>
       <use xlink:href="#mb3f01b16f0" x="481.370227" y="282.04" style="stroke: #000000; stroke-width: 0.8"/>
      </g>
     </g>
     <g id="text_8">
      <!-- 17.5 -->
      <g transform="translate(470.237415 296.638438) scale(0.1 -0.1)">
       <use xlink:href="#DejaVuSans-31"/>
       <use xlink:href="#DejaVuSans-37" x="63.623047"/>
       <use xlink:href="#DejaVuSans-2e" x="127.246094"/>
       <use xlink:href="#DejaVuSans-35" x="159.033203"/>
      </g>
     </g>
    </g>
    <g id="xtick_9">
     <g id="line2d_17">
      <path d="M 541.248636 282.04 
L 541.248636 26.88 
" clip-path="url(#pee988a18bb)" style="fill: none; stroke: #b0b0b0; stroke-opacity: 0.3; stroke-width: 0.8; stroke-linecap: square"/>
     </g>
     <g id="line2d_18">
      <g>
       <use xlink:href="#mb3f01b16f0" x="541.248636" y="282.04" style="stroke: #000000; stroke-width: 0.8"/>
      </g>
     </g>
     <g id="text_9">
      <!-- 20.0 -->
      <g transform="translate(530.115824 296.638438) scale(0.1 -0.1)">
       <use xlink:href="#DejaVuSans-32"/>
       <use xlink:href="#DejaVuSans-30" x="63.623047"/>
       <use xlink:href="#DejaVuSans-2e" x="127.246094"/>
       <use xlink:href="#DejaVuSans-30" x="159.033203"/>
      </g>
     </g>
    </g>
    <g id="text_10">
     <!-- Time (min) -->
     <g transform="translate(274.582656 310.316563) scale(0.1 -0.1)">
      <defs>
       <path id="DejaVuSans-54" d="M -19 4666 
L 3928 4666 
L 3928 4134 
L 2272 4134 
L 2272 0 
L 1638 0 
L 1638 4134 
L -19 4134 
L -19 4666 
z
" transform="scale(0.015625)"/>
       <path id="DejaVuSans-69" d="M 603 3500 
L 1178 3500 
L 1178 0 
L 603 0 
L 603 3500 
z
M 603 4863 
L 1178 4863 
L 1178 4134 
L 603 4134 
L 603 4863 
z
" transform="scale(0.015625)"/>
       <path id="DejaVuSans-6d" d="M 3328 2828 
Q 3544 3216 3844 3400 
Q 4144 3584 4550 3584 
Q 5097 3584 5394 3201 
Q 5691 2819 5691 2113 
L 5691 0 
L 5113 0 
L 5113 2094 
Q 5113 2597 4934 2840 
Q 4756 3084 4391 3084 
Q 3944 3084 3684 2787 
Q 3425 2491 3425 1978 
L 3425 0 
L 2847 0 
L 2847 2094 
Q 2847 2600 2669 2842 
Q 2491 3084 2119 3084 
Q 1678 3084 1418 2786 
Q 1159 2488 1159 1978 
L 1159 0 
L 581 0 
L 581 3500 
L 1159 3500 
L 1159 2956 
Q 1356 3278 1631 3431 
Q 1906 3584 2284 3584 
Q 2666 3584 2933 3390 
Q 3200 3197 3328 2828 
z
" transform="scale(0.015625)"/>
       <path id="DejaVuSans-65" d="M 3597 1894 
L 3597 1613 
L 953 1613 
Q 991 1019 1311 708 
Q 1631 397 2203 397 
Q 2534 397 2845 478 
Q 3156 559 3463 722 
L 3463 178 
Q 3153 47 2828 -22 
Q 2503 -91 2169 -91 
Q 1331 -91 842 396 
Q 353 884 353 1716 
Q 353 2575 817 3079 
Q 1281 3584 2069 3584 
Q 2775 3584 3186 3129 
Q 3597 2675 3597 1894 
z
M 3022 2063 
Q 3016 2534 2758 2815 
Q 2500 3097 2075 3097 
Q 1594 3097 1305 2825 
Q 1016 2553 972 2059 
L 3022 2063 
z
" transform="scale(0.015625)"/>
       <path id="DejaVuSans-20" transform="scale(0.015625)"/>
       <path id="DejaVuSans-28" d="M 1984 4856 
Q 1566 4138 1362 3434 
Q 1159 2731 1159 2009 
Q 1159 1288 1364 580 
Q 1569 -128 1984 -844 
L 1484 -844 
Q 1016 -109 783 600 
Q 550 1309 550 2009 
Q 550 2706 781 3412 
Q 1013 4119 1484 4856 
L 1984 4856 
z
" transform="scale(0.015625)"/>
       <path id="DejaVuSans-6e" d="M 3513 2113 
L 3513 0 
L 2938 0 
L 2938 2094 
Q 2938 2591 2744 2837 
Q 2550 3084 2163 3084 
Q 1697 3084 1428 2787 
Q 1159 2491 1159 1978 
L 1159 0 
L 581 0 
L 581 3500 
L 1159 3500 
L 1159 2956 
Q 1366 3272 1645 3428 
Q 1925 3584 2291 3584 
Q 2894 3584 3203 3211 
Q 3513 2838 3513 2113 
z
" transform="scale(0.015625)"/>
       <path id="DejaVuSans-29" d="M 513 4856 
L 1013 4856 
Q 1481 4119 1714 3412 
Q 1947 2706 1947 2009 
Q 1947 1309 1714 600 
Q 1481 -109 1013 -844 
L 513 -844 
Q 928 -128 1133 580 
Q 1338 1288 1338 2009 
Q 1338 2731 1133 3434 
Q 928 4138 513 4856 
z
" transform="scale(0.015625)"/>
      </defs>
      <use xlink:href="#DejaVuSans-54"/>
      <use xlink:href="#DejaVuSans-69" x="57.958984"/>
      <use xlink:href="#DejaVuSans-6d" x="85.742188"/>
      <use xlink:href="#DejaVuSans-65" x="183.154297"/>
      <use xlink:href="#DejaVuSans-20" x="244.677734"/>
      <use xlink:href="#DejaVuSans-28" x="276.464844"/>
      <use xlink:href="#DejaVuSans-6d" x="315.478516"/>
      <use xlink:href="#DejaVuSans-69" x="412.890625"/>
      <use xlink:href="#DejaVuSans-6e" x="440.673828"/>
      <use xlink:href="#DejaVuSans-29" x="504.052734"/>
     </g>
    </g>
   </g>
   <g id="matplotlib.axis_2">
    <g id="ytick_1">
     <g id="line2d_19">
      <path d="M 38.27 271.53011 
L 565.2 271.53011 
" clip-path="url(#pee988a18bb)" style="fill: none; stroke: #b0b0b0; stroke-opacity: 0.3; stroke-width: 0.8; stroke-linecap: square"/>
     </g>
     <g id="line2d_20">
      <defs>
       <path id="mc610e994b5" d="M 0 0 
L -3.5 0 
" style="stroke: #000000; stroke-width: 0.8"/>
      </defs>
      <g>
       <use xlink:href="#mc610e994b5" x="38.27" y="271.53011" style="stroke: #000000; stroke-width: 0.8"/>
      </g>
     </g>
     <g id="text_11">
      <!-- 1 -->
      <g transform="translate(24.9075 275.329329) scale(0.1 -0.1)">
       <use xlink:href="#DejaVuSans-31"/>
      </g>
     </g>
    </g>
    <g id="ytick_2">
     <g id="line2d_21">
      <path d="M 38.27 238.236978 
L 565.2 238.236978 
" clip-path="url(#pee988a18bb)" style="fill: none; stroke: #b0b0b0; stroke-opacity: 0.3; stroke-width: 0.8; stroke-linecap: square"/>
     </g>
     <g id="line2d_22">
      <g>
       <use xlink:href="#mc610e994b5" x="38.27" y="238.236978" style="stroke: #000000; stroke-width: 0.8"/>
      </g>
     </g>
     <g id="text_12">
      <!-- 2 -->
      <g transform="translate(24.9075 242.036196) scale(0.1 -0.1)">
       <use xlink:href="#DejaVuSans-32"/>
      </g>
     </g>
    </g>
    <g id="ytick_3">
     <g id="line2d_23">
      <path d="M 38.27 204.943845 
L 565.2 204.943845 
" clip-path="url(#pee988a18bb)" style="fill: none; stroke: #b0b0b0; stroke-opacity: 0.3; stroke-width: 0.8; stroke-linecap: square"/>
     </g>
     <g id="line2d_24">
      <g>
       <use xlink:href="#mc610e994b5" x="38.27" y="204.943845" style="stroke: #000000; stroke-width: 0.8"/>
      </g>
     </g>
     <g id="text_13">
      <!-- 3 -->
      <g transform="translate(24.9075 208.743064) scale(0.1 -0.1)">
       <defs>
        <path id="DejaVuSans-33" d="M 2597 2516 
Q 3050 2419 3304 2112 
Q 3559 1806 3559 1356 
Q 3559 666 3084 287 
Q 2609 -91 1734 -91 
Q 1441 -91 1130 -33 
Q 819 25 488 141 
L 488 750 
Q 750 597 1062 519 
Q 1375 441 1716 441 
Q 2309 441 2620 675 
Q 2931 909 2931 1356 
Q 2931 1769 2642 2001 
Q 2353 2234 1838 2234 
L 1294 2234 
L 1294 2753 
L 1863 2753 
Q 2328 2753 2575 2939 
Q 2822 3125 2822 3475 
Q 2822 3834 2567 4026 
Q 2313 4219 1838 4219 
Q 1578 4219 1281 4162 
Q 984 4106 628 3988 
L 628 4550 
Q 988 4650 1302 4700 
Q 1616 4750 1894 4750 
Q 2613 4750 3031 4423 
Q 3450 4097 3450 3541 
Q 3450 3153 3228 2886 
Q 3006 2619 2597 2516 
z
" transform="scale(0.015625)"/>
       </defs>
       <use xlink:href="#DejaVuSans-33"/>
      </g>
     </g>
    </g>
    <g id="ytick_4">
     <g id="line2d_25">
      <path d="M 38.27 171.650712 
L 565.2 171.650712 
" clip-path="url(#pee988a18bb)" style="fill: none; stroke: #b0b0b0; stroke-opacity: 0.3; stroke-width: 0.8; stroke-linecap: square"/>
     </g>
     <g id="line2d_26">
      <g>
       <use xlink:href="#mc610e994b5" x="38.27" y="171.650712" style="stroke: #000000; stroke-width: 0.8"/>
      </g>
     </g>
     <g id="text_14">
      <!-- 4 -->
      <g transform="translate(24.9075 175.449931) scale(0.1 -0.1)">
       <defs>
        <path id="DejaVuSans-34" d="M 2419 4116 
L 825 1625 
L 2419 1625 
L 2419 4116 
z
M 2253 4666 
L 3047 4666 
L 3047 1625 
L 3713 1625 
L 3713 1100 
L 3047 1100 
L 3047 0 
L 2419 0 
L 2419 1100 
L 313 1100 
L 313 1709 
L 2253 4666 
z
" transform="scale(0.015625)"/>
       </defs>
       <use xlink:href="#DejaVuSans-34"/>
      </g>
     </g>
    </g>
    <g id="ytick_5">
     <g id="line2d_27">
      <path d="M 38.27 138.35758 
L 565.2 138.35758 
" clip-path="url(#pee988a18bb)" style="fill: none; stroke: #b0b0b0; stroke-opacity: 0.3; stroke-width: 0.8; stroke-linecap: square"/>
     </g>
     <g id="line2d_28">
      <g>
       <use xlink:href="#mc610e994b5" x="38.27" y="138.35758" style="stroke: #000000; stroke-width: 0.8"/>
      </g>
     </g>
     <g id="text_15">
      <!-- 5 -->
      <g transform="translate(24.9075 142.156799) scale(0.1 -0.1)">
       <use xlink:href="#DejaVuSans-35"/>
      </g>
     </g>
    </g>
    <g id="ytick_6">
     <g id="line2d_29">
      <path d="M 38.27 105.064447 
L 565.2 105.064447 
" clip-path="url(#pee988a18bb)" style="fill: none; stroke: #b0b0b0; stroke-opacity: 0.3; stroke-width: 0.8; stroke-linecap: square"/>
     </g>
     <g id="line2d_30">
      <g>
       <use xlink:href="#mc610e994b5" x="38.27" y="105.064447" style="stroke: #000000; stroke-width: 0.8"/>
      </g>
     </g>
     <g id="text_16">
      <!-- 6 -->
      <g transform="translate(24.9075 108.863666) scale(0.1 -0.1)">
       <defs>
        <path id="DejaVuSans-36" d="M 2113 2584 
Q 1688 2584 1439 2293 
Q 1191 2003 1191 1497 
Q 1191 994 1439 701 
Q 1688 409 2113 409 
Q 2538 409 2786 701 
Q 3034 994 3034 1497 
Q 3034 2003 2786 2293 
Q 2538 2584 2113 2584 
z
M 3366 4563 
L 3366 3988 
Q 3128 4100 2886 4159 
Q 2644 4219 2406 4219 
Q 1781 4219 1451 3797 
Q 1122 3375 1075 2522 
Q 1259 2794 1537 2939 
Q 1816 3084 2150 3084 
Q 2853 3084 3261 2657 
Q 3669 2231 3669 1497 
Q 3669 778 3244 343 
Q 2819 -91 2113 -91 
Q 1303 -91 875 529 
Q 447 1150 447 2328 
Q 447 3434 972 4092 
Q 1497 4750 2381 4750 
Q 2619 4750 2861 4703 
Q 3103 4656 3366 4563 
z
" transform="scale(0.015625)"/>
       </defs>
       <use xlink:href="#DejaVuSans-36"/>
      </g>
     </g>
    </g>
    <g id="ytick_7">
     <g id="line2d_31">
      <path d="M 38.27 71.771314 
L 565.2 71.771314 
" clip-path="url(#pee988a18bb)" style="fill: none; stroke: #b0b0b0; stroke-opacity: 0.3; stroke-width: 0.8; stroke-linecap: square"/>
     </g>
     <g id="line2d_32">
      <g>
       <use xlink:href="#mc610e994b5" x="38.27" y="71.771314" style="stroke: #000000; stroke-width: 0.8"/>
      </g>
     </g>
     <g id="text_17">
      <!-- 7 -->
      <g transform="translate(24.9075 75.570533) scale(0.1 -0.1)">
       <use xlink:href="#DejaVuSans-37"/>
      </g>
     </g>
    </g>
    <g id="ytick_8">
     <g id="line2d_33">
      <path d="M 38.27 38.478182 
L 565.2 38.478182 
" clip-path="url(#pee988a18bb)" style="fill: none; stroke: #b0b0b0; stroke-opacity: 0.3; stroke-width: 0.8; stroke-linecap: square"/>
     </g>
     <g id="line2d_34">
      <g>
       <use xlink:href="#mc610e994b5" x="38.27" y="38.478182" style="stroke: #000000; stroke-width: 0.8"/>
      </g>
     </g>
     <g id="text_18">
      <!-- 8 -->
      <g transform="translate(24.9075 42.277401) scale(0.1 -0.1)">
       <defs>
        <path id="DejaVuSans-38" d="M 2034 2216 
Q 1584 2216 1326 1975 
Q 1069 1734 1069 1313 
Q 1069 891 1326 650 
Q 1584 409 2034 409 
Q 2484 409 2743 651 
Q 3003 894 3003 1313 
Q 3003 1734 2745 1975 
Q 2488 2216 2034 2216 
z
M 1403 2484 
Q 997 2584 770 2862 
Q 544 3141 544 3541 
Q 544 4100 942 4425 
Q 1341 4750 2034 4750 
Q 2731 4750 3128 4425 
Q 3525 4100 3525 3541 
Q 3525 3141 3298 2862 
Q 3072 2584 2669 2484 
Q 3125 2378 3379 2068 
Q 3634 1759 3634 1313 
Q 3634 634 3220 271 
Q 2806 -91 2034 -91 
Q 1263 -91 848 271 
Q 434 634 434 1313 
Q 434 1759 690 2068 
Q 947 2378 1403 2484 
z
M 1172 3481 
Q 1172 3119 1398 2916 
Q 1625 2713 2034 2713 
Q 2441 2713 2670 2916 
Q 2900 3119 2900 3481 
Q 2900 3844 2670 4047 
Q 2441 4250 2034 4250 
Q 1625 4250 1398 4047 
Q 1172 3844 1172 3481 
z
" transform="scale(0.015625)"/>
       </defs>
       <use xlink:href="#DejaVuSans-38"/>
      </g>
     </g>
    </g>
    <g id="text_19">
     <!-- Level L -->
     <g transform="translate(18.827813 172.035) rotate(-90) scale(0.1 -0.1)">
      <defs>
       <path id="DejaVuSans-4c" d="M 628 4666 
L 1259 4666 
L 1259 531 
L 3531 531 
L 3531 0 
L 628 0 
L 628 4666 
z
" transform="scale(0.015625)"/>
       <path id="DejaVuSans-76" d="M 191 3500 
L 800 3500 
L 1894 563 
L 2988 3500 
L 3597 3500 
L 2284 0 
L 1503 0 
L 191 3500 
z
" transform="scale(0.015625)"/>
       <path id="DejaVuSans-6c" d="M 603 4863 
L 1178 4863 
L 1178 0 
L 603 0 
L 603 4863 
z
" transform="scale(0.015625)"/>
      </defs>
      <use xlink:href="#DejaVuSans-4c"/>
      <use xlink:href="#DejaVuSans-65" x="53.962891"/>
      <use xlink:href="#DejaVuSans-76" x="115.486328"/>
      <use xlink:href="#DejaVuSans-65" x="174.666016"/>
      <use xlink:href="#DejaVuSans-6c" x="236.189453"/>
      <use xlink:href="#DejaVuSans-20" x="263.972656"/>
      <use xlink:href="#DejaVuSans-4c" x="295.759766"/>
     </g>
    </g>
   </g>
   <g id="line2d_35">
    <path d="M 62.221364 38.478182 
L 65.098404 45.230005 
L 67.975445 51.301189 
L 70.852486 56.800858 
L 73.729526 61.786295 
L 76.606567 66.309389 
L 79.004101 69.777894 
L 82.360648 74.228324 
L 84.278675 76.542437 
L 87.635223 80.154559 
L 91.471277 83.971108 
L 94.348318 86.609738 
L 97.704865 89.390213 
L 101.54092 92.34826 
L 104.897467 94.699574 
L 108.254014 96.764384 
L 112.569575 99.100306 
L 115.446616 100.288218 
L 124.077738 103.493601 
L 129.83182 105.664963 
L 133.188367 106.785724 
L 139.901462 108.873675 
L 143.258009 109.917164 
L 147.57357 111.36527 
L 151.409625 112.516469 
L 154.766172 113.201259 
L 178.741511 117.075657 
L 182.098059 117.385796 
L 182.577565 117.653523 
L 185.934113 120.49227 
L 192.647208 125.408666 
L 198.880796 129.39278 
L 204.634877 132.472587 
L 210.388959 135.380964 
L 214.225013 137.258697 
L 217.58156 138.680796 
L 223.335642 141.199651 
L 228.610216 143.468048 
L 231.00775 144.51826 
L 238.679858 148.159951 
L 242.515913 149.753412 
L 247.790487 151.622448 
L 251.147035 152.575616 
L 261.696184 154.970995 
L 270.806813 156.475201 
L 278.478921 158.218584 
L 281.835469 158.911488 
L 288.548564 160.050217 
L 292.864125 160.915349 
L 301.01574 162.454773 
L 302.933767 162.906751 
L 310.605875 164.713091 
L 312.523903 165.188658 
L 318.277984 166.674411 
L 327.868119 168.842227 
L 337.937762 170.417097 
L 342.73283 171.437324 
L 347.048391 172.378694 
L 354.240992 173.855398 
L 361.433594 175.861161 
L 366.708169 177.147953 
L 372.46225 178.370365 
L 376.777811 178.991877 
L 383.011399 179.917866 
L 386.847453 180.714969 
L 392.601535 182.071499 
L 395.478575 182.606924 
L 407.466245 184.677234 
L 423.769475 186.82485 
L 428.085036 186.900127 
L 435.757145 186.909251 
L 441.511226 187.263658 
L 459.252977 189.549534 
L 465.007058 190.361993 
L 471.240647 191.240445 
L 473.158674 191.691646 
L 479.871769 193.205303 
L 492.338945 195.66288 
L 495.695492 196.343566 
L 500.011053 197.028949 
L 507.203655 198.112065 
L 509.601189 198.719477 
L 518.232311 200.97365 
L 523.986392 202.093968 
L 527.822447 203.009996 
L 532.138008 204.212362 
L 535.974062 205.305756 
L 539.810116 206.385394 
L 541.248636 206.847899 
L 541.248636 206.847899 
" clip-path="url(#pee988a18bb)" style="fill: none; stroke: #1f77b4; stroke-width: 2; stroke-linecap: square"/>
   </g>
   <g id="line2d_36">
    <path d="M 62.221364 38.478182 
L 65.577911 46.243246 
L 68.934459 53.351897 
L 72.291006 59.907133 
L 75.647553 66.053276 
L 80.442621 74.178378 
L 83.799169 79.232536 
L 87.635223 84.6303 
L 94.827825 94.259239 
L 98.663879 98.996198 
L 102.97944 103.840671 
L 108.254014 109.336023 
L 112.569575 113.310289 
L 116.40563 116.422444 
L 118.803164 118.230603 
L 121.200698 119.904241 
L 124.557245 122.03856 
L 133.667874 126.935591 
L 147.094064 133.144541 
L 149.971104 134.250773 
L 155.725186 136.275951 
L 162.438281 138.452725 
L 169.151375 140.846695 
L 174.905457 142.24046 
L 181.618552 144.006339 
L 182.098059 144.149623 
L 182.577565 144.523397 
L 185.454606 147.582214 
L 191.208687 153.206818 
L 193.606221 155.261586 
L 200.319316 160.713969 
L 204.634877 163.931861 
L 210.388959 167.794006 
L 214.70452 170.379087 
L 223.815148 175.540863 
L 237.241338 183.096868 
L 250.667528 189.282658 
L 256.421609 191.831737 
L 261.216677 193.91474 
L 270.806813 197.421597 
L 275.122374 198.910387 
L 278.958428 200.303655 
L 289.987084 204.911141 
L 295.261658 207.066275 
L 298.138699 208.052678 
L 302.45426 209.375513 
L 308.687848 211.463826 
L 322.593545 216.375777 
L 324.991079 217.178487 
L 330.265653 219.146498 
L 334.581214 220.606413 
L 340.335296 222.203117 
L 348.966418 224.473338 
L 354.720499 226.064335 
L 358.556553 227.19464 
L 368.626196 230.546805 
L 374.859784 232.895072 
L 380.134358 234.473096 
L 401.712164 240.769878 
L 405.068711 241.693155 
L 412.740819 243.914819 
L 417.535887 245.154511 
L 422.330955 246.018139 
L 428.085036 246.94328 
L 446.785801 249.618693 
L 452.060375 250.635355 
L 457.33495 251.671497 
L 461.650511 252.609632 
L 476.515221 255.294537 
L 481.310289 256.182051 
L 484.18733 256.413923 
L 488.502891 256.542577 
L 495.695492 256.905311 
L 512.47823 257.835054 
L 518.711818 258.109576 
L 524.945406 258.304135 
L 538.851102 259.689233 
L 541.248636 260.061013 
L 541.248636 260.061013 
" clip-path="url(#pee988a18bb)" style="fill: none; stroke: #ff7f0e; stroke-width: 2; stroke-linecap: square"/>
   </g>
   <g id="line2d_37">
    <path d="M 62.221364 38.478182 
L 65.098404 45.273333 
L 68.454952 52.722917 
L 70.852486 57.610483 
L 74.209033 63.865198 
L 78.045087 70.472622 
L 81.401635 75.69763 
L 85.237689 81.340659 
L 89.55325 87.274351 
L 93.868811 92.858707 
L 97.225359 96.799064 
L 102.499933 102.634555 
L 105.376974 105.553729 
L 108.254014 108.051474 
L 112.569575 111.466822 
L 122.159711 118.894334 
L 127.913792 122.812892 
L 133.667874 126.408781 
L 144.217023 132.979471 
L 147.094064 134.496145 
L 149.491598 135.534174 
L 158.602226 138.95566 
L 172.98743 143.774856 
L 176.343977 144.598766 
L 182.098059 145.850453 
L 182.577565 146.188771 
L 185.454606 148.945912 
L 189.770167 152.728796 
L 195.044742 157.092029 
L 200.798823 161.360278 
L 205.114384 164.231282 
L 219.499587 173.258632 
L 225.253669 176.680259 
L 238.679858 183.867577 
L 240.597886 184.778906 
L 256.901116 191.635413 
L 261.696184 193.049934 
L 264.573225 193.855251 
L 275.122374 197.770509 
L 281.355962 200.565233 
L 289.987084 204.672401 
L 294.782152 206.811704 
L 300.056726 208.956369 
L 307.249328 211.656713 
L 313.003409 213.981488 
L 315.88045 215.088464 
L 320.196011 216.79706 
L 328.347626 219.769531 
L 342.73283 224.564804 
L 357.59754 229.480704 
L 384.929426 238.822685 
L 394.999069 242.655436 
L 398.835123 243.741773 
L 406.986738 245.541821 
L 428.564543 249.31674 
L 454.457909 255.453672 
L 457.814457 255.98131 
L 464.527552 257.114394 
L 470.281633 258.515508 
L 473.63818 259.557187 
L 481.789796 262.061478 
L 488.502891 263.850697 
L 502.888094 267.286465 
L 505.285628 267.559419 
L 520.150338 268.90893 
L 525.424913 269.483609 
L 529.260967 269.87445 
L 535.015048 270.441818 
L 541.248636 270.381164 
L 541.248636 270.381164 
" clip-path="url(#pee988a18bb)" style="fill: none; stroke: #2ca02c; stroke-width: 2; stroke-linecap: square"/>
   </g>
   <g id="line2d_38">
    <path d="M 62.221364 38.478182 
L 65.098404 45.294541 
L 67.495938 50.635256 
L 70.852486 57.461592 
L 74.68854 64.762968 
L 78.524594 71.540855 
L 83.799169 80.294299 
L 87.635223 86.044581 
L 90.99177 90.640289 
L 95.307331 95.96489 
L 101.54092 103.18966 
L 106.815494 108.51435 
L 109.692535 111.204128 
L 113.528589 114.430767 
L 118.323657 118.272465 
L 122.639218 121.287436 
L 127.913792 124.685982 
L 134.147381 128.36005 
L 137.503928 130.099535 
L 140.380969 131.356018 
L 144.69653 133.07933 
L 149.491598 134.941612 
L 158.602226 138.090013 
L 164.356308 139.754003 
L 167.712855 140.742755 
L 173.466936 142.024448 
L 176.823484 142.663288 
L 182.098059 143.768551 
L 182.577565 144.105503 
L 186.41362 147.806552 
L 189.29066 150.331479 
L 193.126714 153.46393 
L 197.921782 157.064002 
L 201.757836 159.96434 
L 204.634877 162.017177 
L 216.14304 169.568753 
L 221.417614 172.55928 
L 223.815148 173.804968 
L 227.651203 175.739881 
L 232.44627 178.283533 
L 236.761831 180.348686 
L 240.597886 181.934072 
L 247.790487 184.79522 
L 251.147035 186.053456 
L 255.462596 187.777288 
L 267.450265 192.746345 
L 269.368292 193.517506 
L 272.245333 194.553213 
L 279.437935 196.902946 
L 282.314975 197.904388 
L 288.548564 199.9465 
L 292.384618 201.263834 
L 300.056726 204.071999 
L 304.851794 205.594258 
L 309.167355 207.059256 
L 317.31897 209.829107 
L 319.716504 210.596827 
L 322.114038 211.24002 
L 328.827133 212.937714 
L 344.17135 217.960211 
L 348.966418 219.592502 
L 350.884445 220.074866 
L 354.720499 221.094278 
L 358.556553 222.221458 
L 361.913101 223.237531 
L 367.187675 224.991466 
L 374.859784 227.401484 
L 379.654852 229.056328 
L 385.88844 231.32313 
L 394.519562 234.298984 
L 402.671177 237.32259 
L 406.986738 238.602056 
L 410.343286 239.448802 
L 414.17934 240.495406 
L 419.933421 241.882878 
L 429.523557 244.162004 
L 437.195665 246.093857 
L 440.072706 246.87962 
L 442.949747 247.579933 
L 450.621855 249.308441 
L 453.978402 250.086347 
L 456.375936 250.688215 
L 460.691497 251.535234 
L 471.720153 253.243405 
L 476.994728 253.94278 
L 483.707823 255.108556 
L 496.174999 257.455546 
L 508.162669 259.078042 
L 511.519216 259.539085 
L 515.35527 259.939568 
L 519.670831 260.436393 
L 523.506886 260.924758 
L 533.097021 261.859329 
L 536.453569 262.020559 
L 541.248636 262.402023 
L 541.248636 262.402023 
" clip-path="url(#pee988a18bb)" style="fill: none; stroke: #d62728; stroke-width: 2; stroke-linecap: square"/>
   </g>
   <g id="line2d_39">
    <path d="M 62.221364 38.478182 
L 65.577911 46.361773 
L 68.934459 53.544334 
L 71.811499 59.173385 
L 75.168047 65.212815 
L 77.565581 69.186208 
L 80.922128 74.290443 
L 85.717196 81.057512 
L 89.55325 86.086299 
L 95.786838 93.521303 
L 99.143386 97.121273 
L 105.376974 103.172085 
L 110.172042 107.346547 
L 114.487603 110.777533 
L 122.639218 116.909006 
L 126.954779 119.620875 
L 132.229353 123.024473 
L 135.585901 125.193558 
L 138.942448 127.205488 
L 143.258009 129.411652 
L 148.532584 131.768537 
L 156.684199 135.269522 
L 159.56124 136.355324 
L 162.438281 137.349863 
L 174.42595 141.415861 
L 179.221018 142.959705 
L 182.098059 143.72811 
L 182.577565 144.1058 
L 185.454606 147.135576 
L 191.208687 152.664559 
L 193.126714 154.256343 
L 204.634877 162.953691 
L 208.470931 165.37451 
L 216.14304 170.292316 
L 221.417614 173.401548 
L 225.253669 175.19878 
L 237.720845 180.803836 
L 242.036406 183.100957 
L 248.749501 187.009495 
L 252.106048 188.702295 
L 264.573225 194.478882 
L 276.560894 200.575956 
L 281.835469 203.103126 
L 288.069057 205.958442 
L 291.425604 207.291829 
L 296.220672 209.021513 
L 299.577219 210.191248 
L 308.208342 213.619415 
L 311.085382 214.518286 
L 342.253323 223.376814 
L 348.007404 224.656038 
L 350.884445 225.343366 
L 359.03606 227.663263 
L 365.269648 229.404639 
L 369.585209 230.575008 
L 372.46225 231.462912 
L 377.257318 233.248589 
L 383.011399 235.374108 
L 386.847453 236.43179 
L 391.642521 237.597069 
L 394.519562 238.283894 
L 412.261313 243.029866 
L 416.576874 244.048156 
L 424.728489 246.054725 
L 447.744814 251.361705 
L 452.539882 252.494477 
L 457.814457 253.66838 
L 465.007058 255.506559 
L 473.63818 257.023417 
L 476.515221 257.512331 
L 486.105357 259.09972 
L 490.420918 259.505516 
L 494.736479 259.980697 
L 502.408587 261.004872 
L 510.560202 261.66732 
L 515.35527 262.227272 
L 526.383926 263.441772 
L 529.260967 263.75622 
L 539.330609 265.53518 
L 541.248636 265.966287 
L 541.248636 265.966287 
" clip-path="url(#pee988a18bb)" style="fill: none; stroke: #9467bd; stroke-width: 2; stroke-linecap: square"/>
   </g>
   <g id="line2d_40">
    <path d="M 38.27 188.297279 
L 565.2 188.297279 
" clip-path="url(#pee988a18bb)" style="fill: none; stroke-dasharray: 5.55,2.4; stroke-dashoffset: 0; stroke: #1f77b4; stroke-width: 1.5"/>
   </g>
   <g id="line2d_41">
    <path d="M 181.978182 282.04 
L 181.978182 26.88 
" clip-path="url(#pee988a18bb)" style="fill: none; stroke-dasharray: 1.5,2.475; stroke-dashoffset: 0; stroke: #1f77b4; stroke-opacity: 0.5; stroke-width: 1.5"/>
   </g>
   <g id="patch_3">
    <path d="M 38.27 282.04 
L 38.27 26.88 
" style="fill: none; stroke: #000000; stroke-width: 0.8; stroke-linejoin: miter; stroke-linecap: square"/>
   </g>
   <g id="patch_4">
    <path d="M 565.2 282.04 
L 565.2 26.88 
" style="fill: none; stroke: #000000; stroke-width: 0.8; stroke-linejoin: miter; stroke-linecap: square"/>
   </g>
   <g id="patch_5">
    <path d="M 38.27 282.04 
L 565.2 282.04 
" style="fill: none; stroke: #000000; stroke-width: 0.8; stroke-linejoin: miter; stroke-linecap: square"/>
   </g>
   <g id="patch_6">
    <path d="M 38.27 26.88 
L 565.2 26.88 
" style="fill: none; stroke: #000000; stroke-width: 0.8; stroke-linejoin: miter; stroke-linecap: square"/>
   </g>
   <g id="text_20">
    <!-- Spatial heterogeneity in Level -->
    <g transform="translate(211.940312 20.88) scale(0.12 -0.12)">
     <defs>
      <path id="DejaVuSans-53" d="M 3425 4513 
L 3425 3897 
Q 3066 4069 2747 4153 
Q 2428 4238 2131 4238 
Q 1616 4238 1336 4038 
Q 1056 3838 1056 3469 
Q 1056 3159 1242 3001 
Q 1428 2844 1947 2747 
L 2328 2669 
Q 3034 2534 3370 2195 
Q 3706 1856 3706 1288 
Q 3706 609 3251 259 
Q 2797 -91 1919 -91 
Q 1588 -91 1214 -16 
Q 841 59 441 206 
L 441 856 
Q 825 641 1194 531 
Q 1563 422 1919 422 
Q 2459 422 2753 634 
Q 3047 847 3047 1241 
Q 3047 1584 2836 1778 
Q 2625 1972 2144 2069 
L 1759 2144 
Q 1053 2284 737 2584 
Q 422 2884 422 3419 
Q 422 4038 858 4394 
Q 1294 4750 2059 4750 
Q 2388 4750 2728 4690 
Q 3069 4631 3425 4513 
z
" transform="scale(0.015625)"/>
      <path id="DejaVuSans-70" d="M 1159 525 
L 1159 -1331 
L 581 -1331 
L 581 3500 
L 1159 3500 
L 1159 2969 
Q 1341 3281 1617 3432 
Q 1894 3584 2278 3584 
Q 2916 3584 3314 3078 
Q 3713 2572 3713 1747 
Q 3713 922 3314 415 
Q 2916 -91 2278 -91 
Q 1894 -91 1617 61 
Q 1341 213 1159 525 
z
M 3116 1747 
Q 3116 2381 2855 2742 
Q 2594 3103 2138 3103 
Q 1681 3103 1420 2742 
Q 1159 2381 1159 1747 
Q 1159 1113 1420 752 
Q 1681 391 2138 391 
Q 2594 391 2855 752 
Q 3116 1113 3116 1747 
z
" transform="scale(0.015625)"/>
      <path id="DejaVuSans-61" d="M 2194 1759 
Q 1497 1759 1228 1600 
Q 959 1441 959 1056 
Q 959 750 1161 570 
Q 1363 391 1709 391 
Q 2188 391 2477 730 
Q 2766 1069 2766 1631 
L 2766 1759 
L 2194 1759 
z
M 3341 1997 
L 3341 0 
L 2766 0 
L 2766 531 
Q 2569 213 2275 61 
Q 1981 -91 1556 -91 
Q 1019 -91 701 211 
Q 384 513 384 1019 
Q 384 1609 779 1909 
Q 1175 2209 1959 2209 
L 2766 2209 
L 2766 2266 
Q 2766 2663 2505 2880 
Q 2244 3097 1772 3097 
Q 1472 3097 1187 3025 
Q 903 2953 641 2809 
L 641 3341 
Q 956 3463 1253 3523 
Q 1550 3584 1831 3584 
Q 2591 3584 2966 3190 
Q 3341 2797 3341 1997 
z
" transform="scale(0.015625)"/>
      <path id="DejaVuSans-74" d="M 1172 4494 
L 1172 3500 
L 2356 3500 
L 2356 3053 
L 1172 3053 
L 1172 1153 
Q 1172 725 1289 603 
Q 1406 481 1766 481 
L 2356 481 
L 2356 0 
L 1766 0 
Q 1100 0 847 248 
Q 594 497 594 1153 
L 594 3053 
L 172 3053 
L 172 3500 
L 594 3500 
L 594 4494 
L 1172 4494 
z
" transform="scale(0.015625)"/>
      <path id="DejaVuSans-68" d="M 3513 2113 
L 3513 0 
L 2938 0 
L 2938 2094 
Q 2938 2591 2744 2837 
Q 2550 3084 2163 3084 
Q 1697 3084 1428 2787 
Q 1159 2491 1159 1978 
L 1159 0 
L 581 0 
L 581 4863 
L 1159 4863 
L 1159 2956 
Q 1366 3272 1645 3428 
Q 1925 3584 2291 3584 
Q 2894 3584 3203 3211 
Q 3513 2838 3513 2113 
z
" transform="scale(0.015625)"/>
      <path id="DejaVuSans-72" d="M 2631 2963 
Q 2534 3019 2420 3045 
Q 2306 3072 2169 3072 
Q 1681 3072 1420 2755 
Q 1159 2438 1159 1844 
L 1159 0 
L 581 0 
L 581 3500 
L 1159 3500 
L 1159 2956 
Q 1341 3275 1631 3429 
Q 1922 3584 2338 3584 
Q 2397 3584 2469 3576 
Q 2541 3569 2628 3553 
L 2631 2963 
z
" transform="scale(0.015625)"/>
      <path id="DejaVuSans-6f" d="M 1959 3097 
Q 1497 3097 1228 2736 
Q 959 2375 959 1747 
Q 959 1119 1226 758 
Q 1494 397 1959 397 
Q 2419 397 2687 759 
Q 2956 1122 2956 1747 
Q 2956 2369 2687 2733 
Q 2419 3097 1959 3097 
z
M 1959 3584 
Q 2709 3584 3137 3096 
Q 3566 2609 3566 1747 
Q 3566 888 3137 398 
Q 2709 -91 1959 -91 
Q 1206 -91 779 398 
Q 353 888 353 1747 
Q 353 2609 779 3096 
Q 1206 3584 1959 3584 
z
" transform="scale(0.015625)"/>
      <path id="DejaVuSans-67" d="M 2906 1791 
Q 2906 2416 2648 2759 
Q 2391 3103 1925 3103 
Q 1463 3103 1205 2759 
Q 947 2416 947 1791 
Q 947 1169 1205 825 
Q 1463 481 1925 481 
Q 2391 481 2648 825 
Q 2906 1169 2906 1791 
z
M 3481 434 
Q 3481 -459 3084 -895 
Q 2688 -1331 1869 -1331 
Q 1566 -1331 1297 -1286 
Q 1028 -1241 775 -1147 
L 775 -588 
Q 1028 -725 1275 -790 
Q 1522 -856 1778 -856 
Q 2344 -856 2625 -561 
Q 2906 -266 2906 331 
L 2906 616 
Q 2728 306 2450 153 
Q 2172 0 1784 0 
Q 1141 0 747 490 
Q 353 981 353 1791 
Q 353 2603 747 3093 
Q 1141 3584 1784 3584 
Q 2172 3584 2450 3431 
Q 2728 3278 2906 2969 
L 2906 3500 
L 3481 3500 
L 3481 434 
z
" transform="scale(0.015625)"/>
      <path id="DejaVuSans-79" d="M 2059 -325 
Q 1816 -950 1584 -1140 
Q 1353 -1331 966 -1331 
L 506 -1331 
L 506 -850 
L 844 -850 
Q 1081 -850 1212 -737 
Q 1344 -625 1503 -206 
L 1606 56 
L 191 3500 
L 800 3500 
L 1894 763 
L 2988 3500 
L 3597 3500 
L 2059 -325 
z
" transform="scale(0.015625)"/>
     </defs>
     <use xlink:href="#DejaVuSans-53"/>
     <use xlink:href="#DejaVuSans-70" x="63.476562"/>
     <use xlink:href="#DejaVuSans-61" x="126.953125"/>
     <use xlink:href="#DejaVuSans-74" x="188.232422"/>
     <use xlink:href="#DejaVuSans-69" x="227.441406"/>
     <use xlink:href="#DejaVuSans-61" x="255.224609"/>
     <use xlink:href="#DejaVuSans-6c" x="316.503906"/>
     <use xlink:href="#DejaVuSans-20" x="344.287109"/>
     <use xlink:href="#DejaVuSans-68" x="376.074219"/>
     <use xlink:href="#DejaVuSans-65" x="439.453125"/>
     <use xlink:href="#DejaVuSans-74" x="500.976562"/>
     <use xlink:href="#DejaVuSans-65" x="540.185547"/>
     <use xlink:href="#DejaVuSans-72" x="601.708984"/>
     <use xlink:href="#DejaVuSans-6f" x="640.572266"/>
     <use xlink:href="#DejaVuSans-67" x="701.753906"/>
     <use xlink:href="#DejaVuSans-65" x="765.230469"/>
     <use xlink:href="#DejaVuSans-6e" x="826.753906"/>
     <use xlink:href="#DejaVuSans-65" x="890.132812"/>
     <use xlink:href="#DejaVuSans-69" x="951.65625"/>
     <use xlink:href="#DejaVuSans-74" x="979.439453"/>
     <use xlink:href="#DejaVuSans-79" x="1018.648438"/>
     <use xlink:href="#DejaVuSans-20" x="1077.828125"/>
     <use xlink:href="#DejaVuSans-69" x="1109.615234"/>
     <use xlink:href="#DejaVuSans-6e" x="1137.398438"/>
     <use xlink:href="#DejaVuSans-20" x="1200.777344"/>
     <use xlink:href="#DejaVuSans-4c" x="1232.564453"/>
     <use xlink:href="#DejaVuSans-65" x="1286.527344"/>
     <use xlink:href="#DejaVuSans-76" x="1348.050781"/>
     <use xlink:href="#DejaVuSans-65" x="1407.230469"/>
     <use xlink:href="#DejaVuSans-6c" x="1468.753906"/>
    </g>
   </g>
   <g id="legend_1">
    <g id="patch_7">
     <path d="M 464.794866 119.132147 
L 559.369 119.132147 
Q 561.035 119.132147 561.035 117.466147 
L 561.035 32.711 
Q 561.035 31.045 559.369 31.045 
L 464.794866 31.045 
Q 463.128866 31.045 463.128866 32.711 
L 463.128866 117.466147 
Q 463.128866 119.132147 464.794866 119.132147 
z
" style="fill: #ffffff; opacity: 0.8; stroke: #cccccc; stroke-linejoin: miter"/>
    </g>
    <g id="line2d_42">
     <path d="M 466.460866 37.790998 
L 474.790866 37.790998 
L 483.120866 37.790998 
" style="fill: none; stroke: #1f77b4; stroke-width: 2; stroke-linecap: square"/>
    </g>
    <g id="text_21">
     <!-- V1 -->
     <g transform="translate(489.784866 40.706498) scale(0.0833 -0.0833)">
      <defs>
       <path id="DejaVuSans-56" d="M 1831 0 
L 50 4666 
L 709 4666 
L 2188 738 
L 3669 4666 
L 4325 4666 
L 2547 0 
L 1831 0 
z
" transform="scale(0.015625)"/>
      </defs>
      <use xlink:href="#DejaVuSans-56"/>
      <use xlink:href="#DejaVuSans-31" x="68.408203"/>
     </g>
    </g>
    <g id="line2d_43">
     <path d="M 466.460866 50.017877 
L 474.790866 50.017877 
L 483.120866 50.017877 
" style="fill: none; stroke: #ff7f0e; stroke-width: 2; stroke-linecap: square"/>
    </g>
    <g id="text_22">
     <!-- dlPFC -->
     <g transform="translate(489.784866 52.933377) scale(0.0833 -0.0833)">
      <defs>
       <path id="DejaVuSans-64" d="M 2906 2969 
L 2906 4863 
L 3481 4863 
L 3481 0 
L 2906 0 
L 2906 525 
Q 2725 213 2448 61 
Q 2172 -91 1784 -91 
Q 1150 -91 751 415 
Q 353 922 353 1747 
Q 353 2572 751 3078 
Q 1150 3584 1784 3584 
Q 2172 3584 2448 3432 
Q 2725 3281 2906 2969 
z
M 947 1747 
Q 947 1113 1208 752 
Q 1469 391 1925 391 
Q 2381 391 2643 752 
Q 2906 1113 2906 1747 
Q 2906 2381 2643 2742 
Q 2381 3103 1925 3103 
Q 1469 3103 1208 2742 
Q 947 2381 947 1747 
z
" transform="scale(0.015625)"/>
       <path id="DejaVuSans-50" d="M 1259 4147 
L 1259 2394 
L 2053 2394 
Q 2494 2394 2734 2622 
Q 2975 2850 2975 3272 
Q 2975 3691 2734 3919 
Q 2494 4147 2053 4147 
L 1259 4147 
z
M 628 4666 
L 2053 4666 
Q 2838 4666 3239 4311 
Q 3641 3956 3641 3272 
Q 3641 2581 3239 2228 
Q 2838 1875 2053 1875 
L 1259 1875 
L 1259 0 
L 628 0 
L 628 4666 
z
" transform="scale(0.015625)"/>
       <path id="DejaVuSans-46" d="M 628 4666 
L 3309 4666 
L 3309 4134 
L 1259 4134 
L 1259 2759 
L 3109 2759 
L 3109 2228 
L 1259 2228 
L 1259 0 
L 628 0 
L 628 4666 
z
" transform="scale(0.015625)"/>
       <path id="DejaVuSans-43" d="M 4122 4306 
L 4122 3641 
Q 3803 3938 3442 4084 
Q 3081 4231 2675 4231 
Q 1875 4231 1450 3742 
Q 1025 3253 1025 2328 
Q 1025 1406 1450 917 
Q 1875 428 2675 428 
Q 3081 428 3442 575 
Q 3803 722 4122 1019 
L 4122 359 
Q 3791 134 3420 21 
Q 3050 -91 2638 -91 
Q 1578 -91 968 557 
Q 359 1206 359 2328 
Q 359 3453 968 4101 
Q 1578 4750 2638 4750 
Q 3056 4750 3426 4639 
Q 3797 4528 4122 4306 
z
" transform="scale(0.015625)"/>
      </defs>
      <use xlink:href="#DejaVuSans-64"/>
      <use xlink:href="#DejaVuSans-6c" x="63.476562"/>
      <use xlink:href="#DejaVuSans-50" x="91.259766"/>
      <use xlink:href="#DejaVuSans-46" x="151.5625"/>
      <use xlink:href="#DejaVuSans-43" x="209.082031"/>
     </g>
    </g>
    <g id="line2d_44">
     <path d="M 466.460866 62.244755 
L 474.790866 62.244755 
L 483.120866 62.244755 
" style="fill: none; stroke: #2ca02c; stroke-width: 2; stroke-linecap: square"/>
    </g>
    <g id="text_23">
     <!-- aINS -->
     <g transform="translate(489.784866 65.160255) scale(0.0833 -0.0833)">
      <defs>
       <path id="DejaVuSans-49" d="M 628 4666 
L 1259 4666 
L 1259 0 
L 628 0 
L 628 4666 
z
" transform="scale(0.015625)"/>
       <path id="DejaVuSans-4e" d="M 628 4666 
L 1478 4666 
L 3547 763 
L 3547 4666 
L 4159 4666 
L 4159 0 
L 3309 0 
L 1241 3903 
L 1241 0 
L 628 0 
L 628 4666 
z
" transform="scale(0.015625)"/>
      </defs>
      <use xlink:href="#DejaVuSans-61"/>
      <use xlink:href="#DejaVuSans-49" x="61.279297"/>
      <use xlink:href="#DejaVuSans-4e" x="90.771484"/>
      <use xlink:href="#DejaVuSans-53" x="165.576172"/>
     </g>
    </g>
    <g id="line2d_45">
     <path d="M 466.460866 74.471633 
L 474.790866 74.471633 
L 483.120866 74.471633 
" style="fill: none; stroke: #d62728; stroke-width: 2; stroke-linecap: square"/>
    </g>
    <g id="text_24">
     <!-- IPS -->
     <g transform="translate(489.784866 77.387133) scale(0.0833 -0.0833)">
      <use xlink:href="#DejaVuSans-49"/>
      <use xlink:href="#DejaVuSans-50" x="29.492188"/>
      <use xlink:href="#DejaVuSans-53" x="89.794922"/>
     </g>
    </g>
    <g id="line2d_46">
     <path d="M 466.460866 86.698511 
L 474.790866 86.698511 
L 483.120866 86.698511 
" style="fill: none; stroke: #9467bd; stroke-width: 2; stroke-linecap: square"/>
    </g>
    <g id="text_25">
     <!-- PCC -->
     <g transform="translate(489.784866 89.614011) scale(0.0833 -0.0833)">
      <use xlink:href="#DejaVuSans-50"/>
      <use xlink:href="#DejaVuSans-43" x="60.302734"/>
      <use xlink:href="#DejaVuSans-43" x="130.126953"/>
     </g>
    </g>
    <g id="line2d_47">
     <path d="M 466.460866 98.925389 
L 474.790866 98.925389 
L 483.120866 98.925389 
" style="fill: none; stroke-dasharray: 5.55,2.4; stroke-dashoffset: 0; stroke: #1f77b4; stroke-width: 1.5"/>
    </g>
    <g id="text_26">
     <!-- LOC threshold -->
     <g transform="translate(489.784866 101.840889) scale(0.0833 -0.0833)">
      <defs>
       <path id="DejaVuSans-4f" d="M 2522 4238 
Q 1834 4238 1429 3725 
Q 1025 3213 1025 2328 
Q 1025 1447 1429 934 
Q 1834 422 2522 422 
Q 3209 422 3611 934 
Q 4013 1447 4013 2328 
Q 4013 3213 3611 3725 
Q 3209 4238 2522 4238 
z
M 2522 4750 
Q 3503 4750 4090 4092 
Q 4678 3434 4678 2328 
Q 4678 1225 4090 567 
Q 3503 -91 2522 -91 
Q 1538 -91 948 565 
Q 359 1222 359 2328 
Q 359 3434 948 4092 
Q 1538 4750 2522 4750 
z
" transform="scale(0.015625)"/>
       <path id="DejaVuSans-73" d="M 2834 3397 
L 2834 2853 
Q 2591 2978 2328 3040 
Q 2066 3103 1784 3103 
Q 1356 3103 1142 2972 
Q 928 2841 928 2578 
Q 928 2378 1081 2264 
Q 1234 2150 1697 2047 
L 1894 2003 
Q 2506 1872 2764 1633 
Q 3022 1394 3022 966 
Q 3022 478 2636 193 
Q 2250 -91 1575 -91 
Q 1294 -91 989 -36 
Q 684 19 347 128 
L 347 722 
Q 666 556 975 473 
Q 1284 391 1588 391 
Q 1994 391 2212 530 
Q 2431 669 2431 922 
Q 2431 1156 2273 1281 
Q 2116 1406 1581 1522 
L 1381 1569 
Q 847 1681 609 1914 
Q 372 2147 372 2553 
Q 372 3047 722 3315 
Q 1072 3584 1716 3584 
Q 2034 3584 2315 3537 
Q 2597 3491 2834 3397 
z
" transform="scale(0.015625)"/>
      </defs>
      <use xlink:href="#DejaVuSans-4c"/>
      <use xlink:href="#DejaVuSans-4f" x="52.087891"/>
      <use xlink:href="#DejaVuSans-43" x="130.798828"/>
      <use xlink:href="#DejaVuSans-20" x="200.623047"/>
      <use xlink:href="#DejaVuSans-74" x="232.410156"/>
      <use xlink:href="#DejaVuSans-68" x="271.619141"/>
      <use xlink:href="#DejaVuSans-72" x="334.998047"/>
      <use xlink:href="#DejaVuSans-65" x="373.861328"/>
      <use xlink:href="#DejaVuSans-73" x="435.384766"/>
      <use xlink:href="#DejaVuSans-68" x="487.484375"/>
      <use xlink:href="#DejaVuSans-6f" x="550.863281"/>
      <use xlink:href="#DejaVuSans-6c" x="612.044922"/>
      <use xlink:href="#DejaVuSans-64" x="639.828125"/>
     </g>
    </g>
    <g id="line2d_48">
     <path d="M 466.460866 111.152267 
L 474.790866 111.152267 
L 483.120866 111.152267 
" style="fill: none; stroke-dasharray: 1.5,2.475; stroke-dashoffset: 0; stroke: #1f77b4; stroke-opacity: 0.5; stroke-width: 1.5"/>
    </g>
    <g id="text_27">
     <!-- Anesthesia start -->
     <g transform="translate(489.784866 114.067767) scale(0.0833 -0.0833)">
      <defs>
       <path id="DejaVuSans-41" d="M 2188 4044 
L 1331 1722 
L 3047 1722 
L 2188 4044 
z
M 1831 4666 
L 2547 4666 
L 4325 0 
L 3669 0 
L 3244 1197 
L 1141 1197 
L 716 0 
L 50 0 
L 1831 4666 
z
" transform="scale(0.015625)"/>
      </defs>
      <use xlink:href="#DejaVuSans-41"/>
      <use xlink:href="#DejaVuSans-6e" x="68.408203"/>
      <use xlink:href="#DejaVuSans-65" x="131.787109"/>
      <use xlink:href="#DejaVuSans-73" x="193.310547"/>
      <use xlink:href="#DejaVuSans-74" x="245.410156"/>
      <use xlink:href="#DejaVuSans-68" x="284.619141"/>
      <use xlink:href="#DejaVuSans-65" x="347.998047"/>
      <use xlink:href="#DejaVuSans-73" x="409.521484"/>
      <use xlink:href="#DejaVuSans-69" x="461.621094"/>
      <use xlink:href="#DejaVuSans-61" x="489.404297"/>
      <use xlink:href="#DejaVuSans-20" x="550.683594"/>
      <use xlink:href="#DejaVuSans-73" x="582.470703"/>
      <use xlink:href="#DejaVuSans-74" x="634.570312"/>
      <use xlink:href="#DejaVuSans-61" x="673.779297"/>
      <use xlink:href="#DejaVuSans-72" x="735.058594"/>
      <use xlink:href="#DejaVuSans-74" x="776.171875"/>
     </g>
    </g>
   </g>
  </g>
 </g>
 <defs>
  <clipPath id="pee988a18bb">
   <rect x="38.27" y="26.88" width="526.93" height="255.16"/>
  </clipPath>
 </defs>
</svg>
