<?xml version="1.0" encoding="utf-8" standalone="no"?>
<!DOCTYPE svg PUBLIC "-//W3C//DTD SVG 1.1//EN"
  "http://www.w3.org/Graphics/SVG/1.1/DTD/svg11.dtd">
<svg xmlns:xlink="http://www.w3.org/1999/xlink" width="432pt" height="432pt" viewBox="0 0 432 432" xmlns="http://www.w3.org/2000/svg" version="1.1">
 <metadata>
  <rdf:RDF xmlns:dc="http://purl.org/dc/elements/1.1/" xmlns:cc="http://creativecommons.org/ns#" xmlns:rdf="http://www.w3.org/1999/02/22-rdf-syntax-ns#">
   <cc:Work>
    <dc:type rdf:resource="http://purl.org/dc/dcmitype/StillImage"/>
    <dc:date>2025-12-31T13:09:16.853542</dc:date>
    <dc:format>image/svg+xml</dc:format>
    <dc:creator>
     <cc:Agent>
      <dc:title>Matplotlib v3.7.5, https://matplotlib.org/</dc:title>
     </cc:Agent>
    </dc:creator>
   </cc:Work>
  </rdf:RDF>
 </metadata>
 <defs>
  <style type="text/css">*{stroke-linejoin: round; stroke-linecap: butt}</style>
 </defs>
 <g id="figure_1">
  <g id="patch_1">
   <path d="M 0 432 
L 432 432 
L 432 0 
L 0 0 
z
" style="fill: #ffffff"/>
  </g>
  <g id="axes_1">
   <g id="patch_2">
    <path d="M 54 384.48 
L 388.8 384.48 
L 388.8 51.84 
L 54 51.84 
z
" style="fill: #ffffff"/>
   </g>
   <g id="QuadMesh_1">
    <path d="M 54 384.48 
L 69.942857 384.48 
L 69.942857 368.64 
L 54 368.64 
L 54 384.48 
" clip-path="url(#p790e5e8974)" style="fill: #fde725"/>
    <path d="M 69.942857 384.48 
L 85.885714 384.48 
L 85.885714 368.64 
L 69.942857 368.64 
L 69.942857 384.48 
" clip-path="url(#p790e5e8974)" style="fill: #fde725"/>
    <path d="M 85.885714 384.48 
L 101.828571 384.48 
L 101.828571 368.64 
L 85.885714 368.64 
L 85.885714 384.48 
" clip-path="url(#p790e5e8974)" style="fill: #fde725"/>
    <path d="M 101.828571 384.48 
L 117.771429 384.48 
L 117.771429 368.64 
L 101.828571 368.64 
L 101.828571 384.48 
" clip-path="url(#p790e5e8974)" style="fill: #440154"/>
    <path d="M 117.771429 384.48 
L 133.714286 384.48 
L 133.714286 368.64 
L 117.771429 368.64 
L 117.771429 384.48 
" clip-path="url(#p790e5e8974)" style="fill: #440154"/>
    <path d="M 133.714286 384.48 
L 149.657143 384.48 
L 149.657143 368.64 
L 133.714286 368.64 
L 133.714286 384.48 
" clip-path="url(#p790e5e8974)" style="fill: #440154"/>
    <path d="M 149.657143 384.48 
L 165.6 384.48 
L 165.6 368.64 
L 149.657143 368.64 
L 149.657143 384.48 
" clip-path="url(#p790e5e8974)" style="fill: #440154"/>
    <path d="M 165.6 384.48 
L 181.542857 384.48 
L 181.542857 368.64 
L 165.6 368.64 
L 165.6 384.48 
" clip-path="url(#p790e5e8974)" style="fill: #440154"/>
    <path d="M 181.542857 384.48 
L 197.485714 384.48 
L 197.485714 368.64 
L 181.542857 368.64 
L 181.542857 384.48 
" clip-path="url(#p790e5e8974)" style="fill: #440154"/>
    <path d="M 197.485714 384.48 
L 213.428571 384.48 
L 213.428571 368.64 
L 197.485714 368.64 
L 197.485714 384.48 
" clip-path="url(#p790e5e8974)" style="fill: #440154"/>
    <path d="M 213.428571 384.48 
L 229.371429 384.48 
L 229.371429 368.64 
L 213.428571 368.64 
L 213.428571 384.48 
" clip-path="url(#p790e5e8974)" style="fill: #440154"/>
    <path d="M 229.371429 384.48 
L 245.314286 384.48 
L 245.314286 368.64 
L 229.371429 368.64 
L 229.371429 384.48 
" clip-path="url(#p790e5e8974)" style="fill: #440154"/>
    <path d="M 245.314286 384.48 
L 261.257143 384.48 
L 261.257143 368.64 
L 245.314286 368.64 
L 245.314286 384.48 
" clip-path="url(#p790e5e8974)" style="fill: #440154"/>
    <path d="M 261.257143 384.48 
L 277.2 384.48 
L 277.2 368.64 
L 261.257143 368.64 
L 261.257143 384.48 
" clip-path="url(#p790e5e8974)" style="fill: #440154"/>
    <path d="M 277.2 384.48 
L 293.142857 384.48 
L 293.142857 368.64 
L 277.2 368.64 
L 277.2 384.48 
" clip-path="url(#p790e5e8974)" style="fill: #440154"/>
    <path d="M 293.142857 384.48 
L 309.085714 384.48 
L 309.085714 368.64 
L 293.142857 368.64 
L 293.142857 384.48 
" clip-path="url(#p790e5e8974)" style="fill: #440154"/>
    <path d="M 309.085714 384.48 
L 325.028571 384.48 
L 325.028571 368.64 
L 309.085714 368.64 
L 309.085714 384.48 
" clip-path="url(#p790e5e8974)" style="fill: #440154"/>
    <path d="M 325.028571 384.48 
L 340.971429 384.48 
L 340.971429 368.64 
L 325.028571 368.64 
L 325.028571 384.48 
" clip-path="url(#p790e5e8974)" style="fill: #440154"/>
    <path d="M 340.971429 384.48 
L 356.914286 384.48 
L 356.914286 368.64 
L 340.971429 368.64 
L 340.971429 384.48 
" clip-path="url(#p790e5e8974)" style="fill: #440154"/>
    <path d="M 356.914286 384.48 
L 372.857143 384.48 
L 372.857143 368.64 
L 356.914286 368.64 
L 356.914286 384.48 
" clip-path="url(#p790e5e8974)" style="fill: #440154"/>
    <path d="M 372.857143 384.48 
L 388.8 384.48 
L 388.8 368.64 
L 372.857143 368.64 
L 372.857143 384.48 
" clip-path="url(#p790e5e8974)" style="fill: #440154"/>
    <path d="M 54 368.64 
L 69.942857 368.64 
L 69.942857 352.8 
L 54 352.8 
L 54 368.64 
" clip-path="url(#p790e5e8974)" style="fill: #fde725"/>
    <path d="M 69.942857 368.64 
L 85.885714 368.64 
L 85.885714 352.8 
L 69.942857 352.8 
L 69.942857 368.64 
" clip-path="url(#p790e5e8974)" style="fill: #fde725"/>
    <path d="M 85.885714 368.64 
L 101.828571 368.64 
L 101.828571 352.8 
L 85.885714 352.8 
L 85.885714 368.64 
" clip-path="url(#p790e5e8974)" style="fill: #fde725"/>
    <path d="M 101.828571 368.64 
L 117.771429 368.64 
L 117.771429 352.8 
L 101.828571 352.8 
L 101.828571 368.64 
" clip-path="url(#p790e5e8974)" style="fill: #440154"/>
    <path d="M 117.771429 368.64 
L 133.714286 368.64 
L 133.714286 352.8 
L 117.771429 352.8 
L 117.771429 368.64 
" clip-path="url(#p790e5e8974)" style="fill: #440154"/>
    <path d="M 133.714286 368.64 
L 149.657143 368.64 
L 149.657143 352.8 
L 133.714286 352.8 
L 133.714286 368.64 
" clip-path="url(#p790e5e8974)" style="fill: #440154"/>
    <path d="M 149.657143 368.64 
L 165.6 368.64 
L 165.6 352.8 
L 149.657143 352.8 
L 149.657143 368.64 
" clip-path="url(#p790e5e8974)" style="fill: #440154"/>
    <path d="M 165.6 368.64 
L 181.542857 368.64 
L 181.542857 352.8 
L 165.6 352.8 
L 165.6 368.64 
" clip-path="url(#p790e5e8974)" style="fill: #440154"/>
    <path d="M 181.542857 368.64 
L 197.485714 368.64 
L 197.485714 352.8 
L 181.542857 352.8 
L 181.542857 368.64 
" clip-path="url(#p790e5e8974)" style="fill: #440154"/>
    <path d="M 197.485714 368.64 
L 213.428571 368.64 
L 213.428571 352.8 
L 197.485714 352.8 
L 197.485714 368.64 
" clip-path="url(#p790e5e8974)" style="fill: #440154"/>
    <path d="M 213.428571 368.64 
L 229.371429 368.64 
L 229.371429 352.8 
L 213.428571 352.8 
L 213.428571 368.64 
" clip-path="url(#p790e5e8974)" style="fill: #440154"/>
    <path d="M 229.371429 368.64 
L 245.314286 368.64 
L 245.314286 352.8 
L 229.371429 352.8 
L 229.371429 368.64 
" clip-path="url(#p790e5e8974)" style="fill: #440154"/>
    <path d="M 245.314286 368.64 
L 261.257143 368.64 
L 261.257143 352.8 
L 245.314286 352.8 
L 245.314286 368.64 
" clip-path="url(#p790e5e8974)" style="fill: #440154"/>
    <path d="M 261.257143 368.64 
L 277.2 368.64 
L 277.2 352.8 
L 261.257143 352.8 
L 261.257143 368.64 
" clip-path="url(#p790e5e8974)" style="fill: #440154"/>
    <path d="M 277.2 368.64 
L 293.142857 368.64 
L 293.142857 352.8 
L 277.2 352.8 
L 277.2 368.64 
" clip-path="url(#p790e5e8974)" style="fill: #440154"/>
    <path d="M 293.142857 368.64 
L 309.085714 368.64 
L 309.085714 352.8 
L 293.142857 352.8 
L 293.142857 368.64 
" clip-path="url(#p790e5e8974)" style="fill: #440154"/>
    <path d="M 309.085714 368.64 
L 325.028571 368.64 
L 325.028571 352.8 
L 309.085714 352.8 
L 309.085714 368.64 
" clip-path="url(#p790e5e8974)" style="fill: #440154"/>
    <path d="M 325.028571 368.64 
L 340.971429 368.64 
L 340.971429 352.8 
L 325.028571 352.8 
L 325.028571 368.64 
" clip-path="url(#p790e5e8974)" style="fill: #440154"/>
    <path d="M 340.971429 368.64 
L 356.914286 368.64 
L 356.914286 352.8 
L 340.971429 352.8 
L 340.971429 368.64 
" clip-path="url(#p790e5e8974)" style="fill: #440154"/>
    <path d="M 356.914286 368.64 
L 372.857143 368.64 
L 372.857143 352.8 
L 356.914286 352.8 
L 356.914286 368.64 
" clip-path="url(#p790e5e8974)" style="fill: #440154"/>
    <path d="M 372.857143 368.64 
L 388.8 368.64 
L 388.8 352.8 
L 372.857143 352.8 
L 372.857143 368.64 
" clip-path="url(#p790e5e8974)" style="fill: #440154"/>
    <path d="M 54 352.8 
L 69.942857 352.8 
L 69.942857 336.96 
L 54 336.96 
L 54 352.8 
" clip-path="url(#p790e5e8974)" style="fill: #fde725"/>
    <path d="M 69.942857 352.8 
L 85.885714 352.8 
L 85.885714 336.96 
L 69.942857 336.96 
L 69.942857 352.8 
" clip-path="url(#p790e5e8974)" style="fill: #fde725"/>
    <path d="M 85.885714 352.8 
L 101.828571 352.8 
L 101.828571 336.96 
L 85.885714 336.96 
L 85.885714 352.8 
" clip-path="url(#p790e5e8974)" style="fill: #fde725"/>
    <path d="M 101.828571 352.8 
L 117.771429 352.8 
L 117.771429 336.96 
L 101.828571 336.96 
L 101.828571 352.8 
" clip-path="url(#p790e5e8974)" style="fill: #440154"/>
    <path d="M 117.771429 352.8 
L 133.714286 352.8 
L 133.714286 336.96 
L 117.771429 336.96 
L 117.771429 352.8 
" clip-path="url(#p790e5e8974)" style="fill: #440154"/>
    <path d="M 133.714286 352.8 
L 149.657143 352.8 
L 149.657143 336.96 
L 133.714286 336.96 
L 133.714286 352.8 
" clip-path="url(#p790e5e8974)" style="fill: #440154"/>
    <path d="M 149.657143 352.8 
L 165.6 352.8 
L 165.6 336.96 
L 149.657143 336.96 
L 149.657143 352.8 
" clip-path="url(#p790e5e8974)" style="fill: #440154"/>
    <path d="M 165.6 352.8 
L 181.542857 352.8 
L 181.542857 336.96 
L 165.6 336.96 
L 165.6 352.8 
" clip-path="url(#p790e5e8974)" style="fill: #440154"/>
    <path d="M 181.542857 352.8 
L 197.485714 352.8 
L 197.485714 336.96 
L 181.542857 336.96 
L 181.542857 352.8 
" clip-path="url(#p790e5e8974)" style="fill: #440154"/>
    <path d="M 197.485714 352.8 
L 213.428571 352.8 
L 213.428571 336.96 
L 197.485714 336.96 
L 197.485714 352.8 
" clip-path="url(#p790e5e8974)" style="fill: #440154"/>
    <path d="M 213.428571 352.8 
L 229.371429 352.8 
L 229.371429 336.96 
L 213.428571 336.96 
L 213.428571 352.8 
" clip-path="url(#p790e5e8974)" style="fill: #440154"/>
    <path d="M 229.371429 352.8 
L 245.314286 352.8 
L 245.314286 336.96 
L 229.371429 336.96 
L 229.371429 352.8 
" clip-path="url(#p790e5e8974)" style="fill: #440154"/>
    <path d="M 245.314286 352.8 
L 261.257143 352.8 
L 261.257143 336.96 
L 245.314286 336.96 
L 245.314286 352.8 
" clip-path="url(#p790e5e8974)" style="fill: #440154"/>
    <path d="M 261.257143 352.8 
L 277.2 352.8 
L 277.2 336.96 
L 261.257143 336.96 
L 261.257143 352.8 
" clip-path="url(#p790e5e8974)" style="fill: #440154"/>
    <path d="M 277.2 352.8 
L 293.142857 352.8 
L 293.142857 336.96 
L 277.2 336.96 
L 277.2 352.8 
" clip-path="url(#p790e5e8974)" style="fill: #440154"/>
    <path d="M 293.142857 352.8 
L 309.085714 352.8 
L 309.085714 336.96 
L 293.142857 336.96 
L 293.142857 352.8 
" clip-path="url(#p790e5e8974)" style="fill: #440154"/>
    <path d="M 309.085714 352.8 
L 325.028571 352.8 
L 325.028571 336.96 
L 309.085714 336.96 
L 309.085714 352.8 
" clip-path="url(#p790e5e8974)" style="fill: #440154"/>
    <path d="M 325.028571 352.8 
L 340.971429 352.8 
L 340.971429 336.96 
L 325.028571 336.96 
L 325.028571 352.8 
" clip-path="url(#p790e5e8974)" style="fill: #440154"/>
    <path d="M 340.971429 352.8 
L 356.914286 352.8 
L 356.914286 336.96 
L 340.971429 336.96 
L 340.971429 352.8 
" clip-path="url(#p790e5e8974)" style="fill: #440154"/>
    <path d="M 356.914286 352.8 
L 372.857143 352.8 
L 372.857143 336.96 
L 356.914286 336.96 
L 356.914286 352.8 
" clip-path="url(#p790e5e8974)" style="fill: #440154"/>
    <path d="M 372.857143 352.8 
L 388.8 352.8 
L 388.8 336.96 
L 372.857143 336.96 
L 372.857143 352.8 
" clip-path="url(#p790e5e8974)" style="fill: #440154"/>
    <path d="M 54 336.96 
L 69.942857 336.96 
L 69.942857 321.12 
L 54 321.12 
L 54 336.96 
" clip-path="url(#p790e5e8974)" style="fill: #fde725"/>
    <path d="M 69.942857 336.96 
L 85.885714 336.96 
L 85.885714 321.12 
L 69.942857 321.12 
L 69.942857 336.96 
" clip-path="url(#p790e5e8974)" style="fill: #fde725"/>
    <path d="M 85.885714 336.96 
L 101.828571 336.96 
L 101.828571 321.12 
L 85.885714 321.12 
L 85.885714 336.96 
" clip-path="url(#p790e5e8974)" style="fill: #fde725"/>
    <path d="M 101.828571 336.96 
L 117.771429 336.96 
L 117.771429 321.12 
L 101.828571 321.12 
L 101.828571 336.96 
" clip-path="url(#p790e5e8974)" style="fill: #440154"/>
    <path d="M 117.771429 336.96 
L 133.714286 336.96 
L 133.714286 321.12 
L 117.771429 321.12 
L 117.771429 336.96 
" clip-path="url(#p790e5e8974)" style="fill: #440154"/>
    <path d="M 133.714286 336.96 
L 149.657143 336.96 
L 149.657143 321.12 
L 133.714286 321.12 
L 133.714286 336.96 
" clip-path="url(#p790e5e8974)" style="fill: #440154"/>
    <path d="M 149.657143 336.96 
L 165.6 336.96 
L 165.6 321.12 
L 149.657143 321.12 
L 149.657143 336.96 
" clip-path="url(#p790e5e8974)" style="fill: #440154"/>
    <path d="M 165.6 336.96 
L 181.542857 336.96 
L 181.542857 321.12 
L 165.6 321.12 
L 165.6 336.96 
" clip-path="url(#p790e5e8974)" style="fill: #440154"/>
    <path d="M 181.542857 336.96 
L 197.485714 336.96 
L 197.485714 321.12 
L 181.542857 321.12 
L 181.542857 336.96 
" clip-path="url(#p790e5e8974)" style="fill: #440154"/>
    <path d="M 197.485714 336.96 
L 213.428571 336.96 
L 213.428571 321.12 
L 197.485714 321.12 
L 197.485714 336.96 
" clip-path="url(#p790e5e8974)" style="fill: #440154"/>
    <path d="M 213.428571 336.96 
L 229.371429 336.96 
L 229.371429 321.12 
L 213.428571 321.12 
L 213.428571 336.96 
" clip-path="url(#p790e5e8974)" style="fill: #440154"/>
    <path d="M 229.371429 336.96 
L 245.314286 336.96 
L 245.314286 321.12 
L 229.371429 321.12 
L 229.371429 336.96 
" clip-path="url(#p790e5e8974)" style="fill: #440154"/>
    <path d="M 245.314286 336.96 
L 261.257143 336.96 
L 261.257143 321.12 
L 245.314286 321.12 
L 245.314286 336.96 
" clip-path="url(#p790e5e8974)" style="fill: #440154"/>
    <path d="M 261.257143 336.96 
L 277.2 336.96 
L 277.2 321.12 
L 261.257143 321.12 
L 261.257143 336.96 
" clip-path="url(#p790e5e8974)" style="fill: #440154"/>
    <path d="M 277.2 336.96 
L 293.142857 336.96 
L 293.142857 321.12 
L 277.2 321.12 
L 277.2 336.96 
" clip-path="url(#p790e5e8974)" style="fill: #440154"/>
    <path d="M 293.142857 336.96 
L 309.085714 336.96 
L 309.085714 321.12 
L 293.142857 321.12 
L 293.142857 336.96 
" clip-path="url(#p790e5e8974)" style="fill: #440154"/>
    <path d="M 309.085714 336.96 
L 325.028571 336.96 
L 325.028571 321.12 
L 309.085714 321.12 
L 309.085714 336.96 
" clip-path="url(#p790e5e8974)" style="fill: #440154"/>
    <path d="M 325.028571 336.96 
L 340.971429 336.96 
L 340.971429 321.12 
L 325.028571 321.12 
L 325.028571 336.96 
" clip-path="url(#p790e5e8974)" style="fill: #440154"/>
    <path d="M 340.971429 336.96 
L 356.914286 336.96 
L 356.914286 321.12 
L 340.971429 321.12 
L 340.971429 336.96 
" clip-path="url(#p790e5e8974)" style="fill: #440154"/>
    <path d="M 356.914286 336.96 
L 372.857143 336.96 
L 372.857143 321.12 
L 356.914286 321.12 
L 356.914286 336.96 
" clip-path="url(#p790e5e8974)" style="fill: #440154"/>
    <path d="M 372.857143 336.96 
L 388.8 336.96 
L 388.8 321.12 
L 372.857143 321.12 
L 372.857143 336.96 
" clip-path="url(#p790e5e8974)" style="fill: #440154"/>
    <path d="M 54 321.12 
L 69.942857 321.12 
L 69.942857 305.28 
L 54 305.28 
L 54 321.12 
" clip-path="url(#p790e5e8974)" style="fill: #fde725"/>
    <path d="M 69.942857 321.12 
L 85.885714 321.12 
L 85.885714 305.28 
L 69.942857 305.28 
L 69.942857 321.12 
" clip-path="url(#p790e5e8974)" style="fill: #fde725"/>
    <path d="M 85.885714 321.12 
L 101.828571 321.12 
L 101.828571 305.28 
L 85.885714 305.28 
L 85.885714 321.12 
" clip-path="url(#p790e5e8974)" style="fill: #fde725"/>
    <path d="M 101.828571 321.12 
L 117.771429 321.12 
L 117.771429 305.28 
L 101.828571 305.28 
L 101.828571 321.12 
" clip-path="url(#p790e5e8974)" style="fill: #440154"/>
    <path d="M 117.771429 321.12 
L 133.714286 321.12 
L 133.714286 305.28 
L 117.771429 305.28 
L 117.771429 321.12 
" clip-path="url(#p790e5e8974)" style="fill: #440154"/>
    <path d="M 133.714286 321.12 
L 149.657143 321.12 
L 149.657143 305.28 
L 133.714286 305.28 
L 133.714286 321.12 
" clip-path="url(#p790e5e8974)" style="fill: #440154"/>
    <path d="M 149.657143 321.12 
L 165.6 321.12 
L 165.6 305.28 
L 149.657143 305.28 
L 149.657143 321.12 
" clip-path="url(#p790e5e8974)" style="fill: #440154"/>
    <path d="M 165.6 321.12 
L 181.542857 321.12 
L 181.542857 305.28 
L 165.6 305.28 
L 165.6 321.12 
" clip-path="url(#p790e5e8974)" style="fill: #440154"/>
    <path d="M 181.542857 321.12 
L 197.485714 321.12 
L 197.485714 305.28 
L 181.542857 305.28 
L 181.542857 321.12 
" clip-path="url(#p790e5e8974)" style="fill: #440154"/>
    <path d="M 197.485714 321.12 
L 213.428571 321.12 
L 213.428571 305.28 
L 197.485714 305.28 
L 197.485714 321.12 
" clip-path="url(#p790e5e8974)" style="fill: #440154"/>
    <path d="M 213.428571 321.12 
L 229.371429 321.12 
L 229.371429 305.28 
L 213.428571 305.28 
L 213.428571 321.12 
" clip-path="url(#p790e5e8974)" style="fill: #440154"/>
    <path d="M 229.371429 321.12 
L 245.314286 321.12 
L 245.314286 305.28 
L 229.371429 305.28 
L 229.371429 321.12 
" clip-path="url(#p790e5e8974)" style="fill: #440154"/>
    <path d="M 245.314286 321.12 
L 261.257143 321.12 
L 261.257143 305.28 
L 245.314286 305.28 
L 245.314286 321.12 
" clip-path="url(#p790e5e8974)" style="fill: #440154"/>
    <path d="M 261.257143 321.12 
L 277.2 321.12 
L 277.2 305.28 
L 261.257143 305.28 
L 261.257143 321.12 
" clip-path="url(#p790e5e8974)" style="fill: #440154"/>
    <path d="M 277.2 321.12 
L 293.142857 321.12 
L 293.142857 305.28 
L 277.2 305.28 
L 277.2 321.12 
" clip-path="url(#p790e5e8974)" style="fill: #440154"/>
    <path d="M 293.142857 321.12 
L 309.085714 321.12 
L 309.085714 305.28 
L 293.142857 305.28 
L 293.142857 321.12 
" clip-path="url(#p790e5e8974)" style="fill: #440154"/>
    <path d="M 309.085714 321.12 
L 325.028571 321.12 
L 325.028571 305.28 
L 309.085714 305.28 
L 309.085714 321.12 
" clip-path="url(#p790e5e8974)" style="fill: #440154"/>
    <path d="M 325.028571 321.12 
L 340.971429 321.12 
L 340.971429 305.28 
L 325.028571 305.28 
L 325.028571 321.12 
" clip-path="url(#p790e5e8974)" style="fill: #440154"/>
    <path d="M 340.971429 321.12 
L 356.914286 321.12 
L 356.914286 305.28 
L 340.971429 305.28 
L 340.971429 321.12 
" clip-path="url(#p790e5e8974)" style="fill: #440154"/>
    <path d="M 356.914286 321.12 
L 372.857143 321.12 
L 372.857143 305.28 
L 356.914286 305.28 
L 356.914286 321.12 
" clip-path="url(#p790e5e8974)" style="fill: #440154"/>
    <path d="M 372.857143 321.12 
L 388.8 321.12 
L 388.8 305.28 
L 372.857143 305.28 
L 372.857143 321.12 
" clip-path="url(#p790e5e8974)" style="fill: #440154"/>
    <path d="M 54 305.28 
L 69.942857 305.28 
L 69.942857 289.44 
L 54 289.44 
L 54 305.28 
" clip-path="url(#p790e5e8974)" style="fill: #fde725"/>
    <path d="M 69.942857 305.28 
L 85.885714 305.28 
L 85.885714 289.44 
L 69.942857 289.44 
L 69.942857 305.28 
" clip-path="url(#p790e5e8974)" style="fill: #fde725"/>
    <path d="M 85.885714 305.28 
L 101.828571 305.28 
L 101.828571 289.44 
L 85.885714 289.44 
L 85.885714 305.28 
" clip-path="url(#p790e5e8974)" style="fill: #fde725"/>
    <path d="M 101.828571 305.28 
L 117.771429 305.28 
L 117.771429 289.44 
L 101.828571 289.44 
L 101.828571 305.28 
" clip-path="url(#p790e5e8974)" style="fill: #440154"/>
    <path d="M 117.771429 305.28 
L 133.714286 305.28 
L 133.714286 289.44 
L 117.771429 289.44 
L 117.771429 305.28 
" clip-path="url(#p790e5e8974)" style="fill: #440154"/>
    <path d="M 133.714286 305.28 
L 149.657143 305.28 
L 149.657143 289.44 
L 133.714286 289.44 
L 133.714286 305.28 
" clip-path="url(#p790e5e8974)" style="fill: #440154"/>
    <path d="M 149.657143 305.28 
L 165.6 305.28 
L 165.6 289.44 
L 149.657143 289.44 
L 149.657143 305.28 
" clip-path="url(#p790e5e8974)" style="fill: #440154"/>
    <path d="M 165.6 305.28 
L 181.542857 305.28 
L 181.542857 289.44 
L 165.6 289.44 
L 165.6 305.28 
" clip-path="url(#p790e5e8974)" style="fill: #440154"/>
    <path d="M 181.542857 305.28 
L 197.485714 305.28 
L 197.485714 289.44 
L 181.542857 289.44 
L 181.542857 305.28 
" clip-path="url(#p790e5e8974)" style="fill: #440154"/>
    <path d="M 197.485714 305.28 
L 213.428571 305.28 
L 213.428571 289.44 
L 197.485714 289.44 
L 197.485714 305.28 
" clip-path="url(#p790e5e8974)" style="fill: #440154"/>
    <path d="M 213.428571 305.28 
L 229.371429 305.28 
L 229.371429 289.44 
L 213.428571 289.44 
L 213.428571 305.28 
" clip-path="url(#p790e5e8974)" style="fill: #440154"/>
    <path d="M 229.371429 305.28 
L 245.314286 305.28 
L 245.314286 289.44 
L 229.371429 289.44 
L 229.371429 305.28 
" clip-path="url(#p790e5e8974)" style="fill: #440154"/>
    <path d="M 245.314286 305.28 
L 261.257143 305.28 
L 261.257143 289.44 
L 245.314286 289.44 
L 245.314286 305.28 
" clip-path="url(#p790e5e8974)" style="fill: #440154"/>
    <path d="M 261.257143 305.28 
L 277.2 305.28 
L 277.2 289.44 
L 261.257143 289.44 
L 261.257143 305.28 
" clip-path="url(#p790e5e8974)" style="fill: #440154"/>
    <path d="M 277.2 305.28 
L 293.142857 305.28 
L 293.142857 289.44 
L 277.2 289.44 
L 277.2 305.28 
" clip-path="url(#p790e5e8974)" style="fill: #440154"/>
    <path d="M 293.142857 305.28 
L 309.085714 305.28 
L 309.085714 289.44 
L 293.142857 289.44 
L 293.142857 305.28 
" clip-path="url(#p790e5e8974)" style="fill: #440154"/>
    <path d="M 309.085714 305.28 
L 325.028571 305.28 
L 325.028571 289.44 
L 309.085714 289.44 
L 309.085714 305.28 
" clip-path="url(#p790e5e8974)" style="fill: #440154"/>
    <path d="M 325.028571 305.28 
L 340.971429 305.28 
L 340.971429 289.44 
L 325.028571 289.44 
L 325.028571 305.28 
" clip-path="url(#p790e5e8974)" style="fill: #440154"/>
    <path d="M 340.971429 305.28 
L 356.914286 305.28 
L 356.914286 289.44 
L 340.971429 289.44 
L 340.971429 305.28 
" clip-path="url(#p790e5e8974)" style="fill: #440154"/>
    <path d="M 356.914286 305.28 
L 372.857143 305.28 
L 372.857143 289.44 
L 356.914286 289.44 
L 356.914286 305.28 
" clip-path="url(#p790e5e8974)" style="fill: #440154"/>
    <path d="M 372.857143 305.28 
L 388.8 305.28 
L 388.8 289.44 
L 372.857143 289.44 
L 372.857143 305.28 
" clip-path="url(#p790e5e8974)" style="fill: #440154"/>
    <path d="M 54 289.44 
L 69.942857 289.44 
L 69.942857 273.6 
L 54 273.6 
L 54 289.44 
" clip-path="url(#p790e5e8974)" style="fill: #fde725"/>
    <path d="M 69.942857 289.44 
L 85.885714 289.44 
L 85.885714 273.6 
L 69.942857 273.6 
L 69.942857 289.44 
" clip-path="url(#p790e5e8974)" style="fill: #fde725"/>
    <path d="M 85.885714 289.44 
L 101.828571 289.44 
L 101.828571 273.6 
L 85.885714 273.6 
L 85.885714 289.44 
" clip-path="url(#p790e5e8974)" style="fill: #fde725"/>
    <path d="M 101.828571 289.44 
L 117.771429 289.44 
L 117.771429 273.6 
L 101.828571 273.6 
L 101.828571 289.44 
" clip-path="url(#p790e5e8974)" style="fill: #440154"/>
    <path d="M 117.771429 289.44 
L 133.714286 289.44 
L 133.714286 273.6 
L 117.771429 273.6 
L 117.771429 289.44 
" clip-path="url(#p790e5e8974)" style="fill: #440154"/>
    <path d="M 133.714286 289.44 
L 149.657143 289.44 
L 149.657143 273.6 
L 133.714286 273.6 
L 133.714286 289.44 
" clip-path="url(#p790e5e8974)" style="fill: #440154"/>
    <path d="M 149.657143 289.44 
L 165.6 289.44 
L 165.6 273.6 
L 149.657143 273.6 
L 149.657143 289.44 
" clip-path="url(#p790e5e8974)" style="fill: #440154"/>
    <path d="M 165.6 289.44 
L 181.542857 289.44 
L 181.542857 273.6 
L 165.6 273.6 
L 165.6 289.44 
" clip-path="url(#p790e5e8974)" style="fill: #440154"/>
    <path d="M 181.542857 289.44 
L 197.485714 289.44 
L 197.485714 273.6 
L 181.542857 273.6 
L 181.542857 289.44 
" clip-path="url(#p790e5e8974)" style="fill: #440154"/>
    <path d="M 197.485714 289.44 
L 213.428571 289.44 
L 213.428571 273.6 
L 197.485714 273.6 
L 197.485714 289.44 
" clip-path="url(#p790e5e8974)" style="fill: #440154"/>
    <path d="M 213.428571 289.44 
L 229.371429 289.44 
L 229.371429 273.6 
L 213.428571 273.6 
L 213.428571 289.44 
" clip-path="url(#p790e5e8974)" style="fill: #440154"/>
    <path d="M 229.371429 289.44 
L 245.314286 289.44 
L 245.314286 273.6 
L 229.371429 273.6 
L 229.371429 289.44 
" clip-path="url(#p790e5e8974)" style="fill: #440154"/>
    <path d="M 245.314286 289.44 
L 261.257143 289.44 
L 261.257143 273.6 
L 245.314286 273.6 
L 245.314286 289.44 
" clip-path="url(#p790e5e8974)" style="fill: #440154"/>
    <path d="M 261.257143 289.44 
L 277.2 289.44 
L 277.2 273.6 
L 261.257143 273.6 
L 261.257143 289.44 
" clip-path="url(#p790e5e8974)" style="fill: #440154"/>
    <path d="M 277.2 289.44 
L 293.142857 289.44 
L 293.142857 273.6 
L 277.2 273.6 
L 277.2 289.44 
" clip-path="url(#p790e5e8974)" style="fill: #440154"/>
    <path d="M 293.142857 289.44 
L 309.085714 289.44 
L 309.085714 273.6 
L 293.142857 273.6 
L 293.142857 289.44 
" clip-path="url(#p790e5e8974)" style="fill: #440154"/>
    <path d="M 309.085714 289.44 
L 325.028571 289.44 
L 325.028571 273.6 
L 309.085714 273.6 
L 309.085714 289.44 
" clip-path="url(#p790e5e8974)" style="fill: #440154"/>
    <path d="M 325.028571 289.44 
L 340.971429 289.44 
L 340.971429 273.6 
L 325.028571 273.6 
L 325.028571 289.44 
" clip-path="url(#p790e5e8974)" style="fill: #440154"/>
    <path d="M 340.971429 289.44 
L 356.914286 289.44 
L 356.914286 273.6 
L 340.971429 273.6 
L 340.971429 289.44 
" clip-path="url(#p790e5e8974)" style="fill: #440154"/>
    <path d="M 356.914286 289.44 
L 372.857143 289.44 
L 372.857143 273.6 
L 356.914286 273.6 
L 356.914286 289.44 
" clip-path="url(#p790e5e8974)" style="fill: #440154"/>
    <path d="M 372.857143 289.44 
L 388.8 289.44 
L 388.8 273.6 
L 372.857143 273.6 
L 372.857143 289.44 
" clip-path="url(#p790e5e8974)" style="fill: #440154"/>
    <path d="M 54 273.6 
L 69.942857 273.6 
L 69.942857 257.76 
L 54 257.76 
L 54 273.6 
" clip-path="url(#p790e5e8974)" style="fill: #fde725"/>
    <path d="M 69.942857 273.6 
L 85.885714 273.6 
L 85.885714 257.76 
L 69.942857 257.76 
L 69.942857 273.6 
" clip-path="url(#p790e5e8974)" style="fill: #fde725"/>
    <path d="M 85.885714 273.6 
L 101.828571 273.6 
L 101.828571 257.76 
L 85.885714 257.76 
L 85.885714 273.6 
" clip-path="url(#p790e5e8974)" style="fill: #fde725"/>
    <path d="M 101.828571 273.6 
L 117.771429 273.6 
L 117.771429 257.76 
L 101.828571 257.76 
L 101.828571 273.6 
" clip-path="url(#p790e5e8974)" style="fill: #440154"/>
    <path d="M 117.771429 273.6 
L 133.714286 273.6 
L 133.714286 257.76 
L 117.771429 257.76 
L 117.771429 273.6 
" clip-path="url(#p790e5e8974)" style="fill: #440154"/>
    <path d="M 133.714286 273.6 
L 149.657143 273.6 
L 149.657143 257.76 
L 133.714286 257.76 
L 133.714286 273.6 
" clip-path="url(#p790e5e8974)" style="fill: #440154"/>
    <path d="M 149.657143 273.6 
L 165.6 273.6 
L 165.6 257.76 
L 149.657143 257.76 
L 149.657143 273.6 
" clip-path="url(#p790e5e8974)" style="fill: #440154"/>
    <path d="M 165.6 273.6 
L 181.542857 273.6 
L 181.542857 257.76 
L 165.6 257.76 
L 165.6 273.6 
" clip-path="url(#p790e5e8974)" style="fill: #440154"/>
    <path d="M 181.542857 273.6 
L 197.485714 273.6 
L 197.485714 257.76 
L 181.542857 257.76 
L 181.542857 273.6 
" clip-path="url(#p790e5e8974)" style="fill: #440154"/>
    <path d="M 197.485714 273.6 
L 213.428571 273.6 
L 213.428571 257.76 
L 197.485714 257.76 
L 197.485714 273.6 
" clip-path="url(#p790e5e8974)" style="fill: #440154"/>
    <path d="M 213.428571 273.6 
L 229.371429 273.6 
L 229.371429 257.76 
L 213.428571 257.76 
L 213.428571 273.6 
" clip-path="url(#p790e5e8974)" style="fill: #440154"/>
    <path d="M 229.371429 273.6 
L 245.314286 273.6 
L 245.314286 257.76 
L 229.371429 257.76 
L 229.371429 273.6 
" clip-path="url(#p790e5e8974)" style="fill: #440154"/>
    <path d="M 245.314286 273.6 
L 261.257143 273.6 
L 261.257143 257.76 
L 245.314286 257.76 
L 245.314286 273.6 
" clip-path="url(#p790e5e8974)" style="fill: #440154"/>
    <path d="M 261.257143 273.6 
L 277.2 273.6 
L 277.2 257.76 
L 261.257143 257.76 
L 261.257143 273.6 
" clip-path="url(#p790e5e8974)" style="fill: #440154"/>
    <path d="M 277.2 273.6 
L 293.142857 273.6 
L 293.142857 257.76 
L 277.2 257.76 
L 277.2 273.6 
" clip-path="url(#p790e5e8974)" style="fill: #440154"/>
    <path d="M 293.142857 273.6 
L 309.085714 273.6 
L 309.085714 257.76 
L 293.142857 257.76 
L 293.142857 273.6 
" clip-path="url(#p790e5e8974)" style="fill: #440154"/>
    <path d="M 309.085714 273.6 
L 325.028571 273.6 
L 325.028571 257.76 
L 309.085714 257.76 
L 309.085714 273.6 
" clip-path="url(#p790e5e8974)" style="fill: #440154"/>
    <path d="M 325.028571 273.6 
L 340.971429 273.6 
L 340.971429 257.76 
L 325.028571 257.76 
L 325.028571 273.6 
" clip-path="url(#p790e5e8974)" style="fill: #440154"/>
    <path d="M 340.971429 273.6 
L 356.914286 273.6 
L 356.914286 257.76 
L 340.971429 257.76 
L 340.971429 273.6 
" clip-path="url(#p790e5e8974)" style="fill: #440154"/>
    <path d="M 356.914286 273.6 
L 372.857143 273.6 
L 372.857143 257.76 
L 356.914286 257.76 
L 356.914286 273.6 
" clip-path="url(#p790e5e8974)" style="fill: #440154"/>
    <path d="M 372.857143 273.6 
L 388.8 273.6 
L 388.8 257.76 
L 372.857143 257.76 
L 372.857143 273.6 
" clip-path="url(#p790e5e8974)" style="fill: #440154"/>
    <path d="M 54 257.76 
L 69.942857 257.76 
L 69.942857 241.92 
L 54 241.92 
L 54 257.76 
" clip-path="url(#p790e5e8974)" style="fill: #fde725"/>
    <path d="M 69.942857 257.76 
L 85.885714 257.76 
L 85.885714 241.92 
L 69.942857 241.92 
L 69.942857 257.76 
" clip-path="url(#p790e5e8974)" style="fill: #fde725"/>
    <path d="M 85.885714 257.76 
L 101.828571 257.76 
L 101.828571 241.92 
L 85.885714 241.92 
L 85.885714 257.76 
" clip-path="url(#p790e5e8974)" style="fill: #fde725"/>
    <path d="M 101.828571 257.76 
L 117.771429 257.76 
L 117.771429 241.92 
L 101.828571 241.92 
L 101.828571 257.76 
" clip-path="url(#p790e5e8974)" style="fill: #440154"/>
    <path d="M 117.771429 257.76 
L 133.714286 257.76 
L 133.714286 241.92 
L 117.771429 241.92 
L 117.771429 257.76 
" clip-path="url(#p790e5e8974)" style="fill: #440154"/>
    <path d="M 133.714286 257.76 
L 149.657143 257.76 
L 149.657143 241.92 
L 133.714286 241.92 
L 133.714286 257.76 
" clip-path="url(#p790e5e8974)" style="fill: #440154"/>
    <path d="M 149.657143 257.76 
L 165.6 257.76 
L 165.6 241.92 
L 149.657143 241.92 
L 149.657143 257.76 
" clip-path="url(#p790e5e8974)" style="fill: #440154"/>
    <path d="M 165.6 257.76 
L 181.542857 257.76 
L 181.542857 241.92 
L 165.6 241.92 
L 165.6 257.76 
" clip-path="url(#p790e5e8974)" style="fill: #440154"/>
    <path d="M 181.542857 257.76 
L 197.485714 257.76 
L 197.485714 241.92 
L 181.542857 241.92 
L 181.542857 257.76 
" clip-path="url(#p790e5e8974)" style="fill: #440154"/>
    <path d="M 197.485714 257.76 
L 213.428571 257.76 
L 213.428571 241.92 
L 197.485714 241.92 
L 197.485714 257.76 
" clip-path="url(#p790e5e8974)" style="fill: #440154"/>
    <path d="M 213.428571 257.76 
L 229.371429 257.76 
L 229.371429 241.92 
L 213.428571 241.92 
L 213.428571 257.76 
" clip-path="url(#p790e5e8974)" style="fill: #440154"/>
    <path d="M 229.371429 257.76 
L 245.314286 257.76 
L 245.314286 241.92 
L 229.371429 241.92 
L 229.371429 257.76 
" clip-path="url(#p790e5e8974)" style="fill: #440154"/>
    <path d="M 245.314286 257.76 
L 261.257143 257.76 
L 261.257143 241.92 
L 245.314286 241.92 
L 245.314286 257.76 
" clip-path="url(#p790e5e8974)" style="fill: #440154"/>
    <path d="M 261.257143 257.76 
L 277.2 257.76 
L 277.2 241.92 
L 261.257143 241.92 
L 261.257143 257.76 
" clip-path="url(#p790e5e8974)" style="fill: #440154"/>
    <path d="M 277.2 257.76 
L 293.142857 257.76 
L 293.142857 241.92 
L 277.2 241.92 
L 277.2 257.76 
" clip-path="url(#p790e5e8974)" style="fill: #440154"/>
    <path d="M 293.142857 257.76 
L 309.085714 257.76 
L 309.085714 241.92 
L 293.142857 241.92 
L 293.142857 257.76 
" clip-path="url(#p790e5e8974)" style="fill: #440154"/>
    <path d="M 309.085714 257.76 
L 325.028571 257.76 
L 325.028571 241.92 
L 309.085714 241.92 
L 309.085714 257.76 
" clip-path="url(#p790e5e8974)" style="fill: #440154"/>
    <path d="M 325.028571 257.76 
L 340.971429 257.76 
L 340.971429 241.92 
L 325.028571 241.92 
L 325.028571 257.76 
" clip-path="url(#p790e5e8974)" style="fill: #440154"/>
    <path d="M 340.971429 257.76 
L 356.914286 257.76 
L 356.914286 241.92 
L 340.971429 241.92 
L 340.971429 257.76 
" clip-path="url(#p790e5e8974)" style="fill: #440154"/>
    <path d="M 356.914286 257.76 
L 372.857143 257.76 
L 372.857143 241.92 
L 356.914286 241.92 
L 356.914286 257.76 
" clip-path="url(#p790e5e8974)" style="fill: #440154"/>
    <path d="M 372.857143 257.76 
L 388.8 257.76 
L 388.8 241.92 
L 372.857143 241.92 
L 372.857143 257.76 
" clip-path="url(#p790e5e8974)" style="fill: #440154"/>
    <path d="M 54 241.92 
L 69.942857 241.92 
L 69.942857 226.08 
L 54 226.08 
L 54 241.92 
" clip-path="url(#p790e5e8974)" style="fill: #fde725"/>
    <path d="M 69.942857 241.92 
L 85.885714 241.92 
L 85.885714 226.08 
L 69.942857 226.08 
L 69.942857 241.92 
" clip-path="url(#p790e5e8974)" style="fill: #fde725"/>
    <path d="M 85.885714 241.92 
L 101.828571 241.92 
L 101.828571 226.08 
L 85.885714 226.08 
L 85.885714 241.92 
" clip-path="url(#p790e5e8974)" style="fill: #fde725"/>
    <path d="M 101.828571 241.92 
L 117.771429 241.92 
L 117.771429 226.08 
L 101.828571 226.08 
L 101.828571 241.92 
" clip-path="url(#p790e5e8974)" style="fill: #fde725"/>
    <path d="M 117.771429 241.92 
L 133.714286 241.92 
L 133.714286 226.08 
L 117.771429 226.08 
L 117.771429 241.92 
" clip-path="url(#p790e5e8974)" style="fill: #440154"/>
    <path d="M 133.714286 241.92 
L 149.657143 241.92 
L 149.657143 226.08 
L 133.714286 226.08 
L 133.714286 241.92 
" clip-path="url(#p790e5e8974)" style="fill: #440154"/>
    <path d="M 149.657143 241.92 
L 165.6 241.92 
L 165.6 226.08 
L 149.657143 226.08 
L 149.657143 241.92 
" clip-path="url(#p790e5e8974)" style="fill: #440154"/>
    <path d="M 165.6 241.92 
L 181.542857 241.92 
L 181.542857 226.08 
L 165.6 226.08 
L 165.6 241.92 
" clip-path="url(#p790e5e8974)" style="fill: #440154"/>
    <path d="M 181.542857 241.92 
L 197.485714 241.92 
L 197.485714 226.08 
L 181.542857 226.08 
L 181.542857 241.92 
" clip-path="url(#p790e5e8974)" style="fill: #440154"/>
    <path d="M 197.485714 241.92 
L 213.428571 241.92 
L 213.428571 226.08 
L 197.485714 226.08 
L 197.485714 241.92 
" clip-path="url(#p790e5e8974)" style="fill: #440154"/>
    <path d="M 213.428571 241.92 
L 229.371429 241.92 
L 229.371429 226.08 
L 213.428571 226.08 
L 213.428571 241.92 
" clip-path="url(#p790e5e8974)" style="fill: #440154"/>
    <path d="M 229.371429 241.92 
L 245.314286 241.92 
L 245.314286 226.08 
L 229.371429 226.08 
L 229.371429 241.92 
" clip-path="url(#p790e5e8974)" style="fill: #440154"/>
    <path d="M 245.314286 241.92 
L 261.257143 241.92 
L 261.257143 226.08 
L 245.314286 226.08 
L 245.314286 241.92 
" clip-path="url(#p790e5e8974)" style="fill: #440154"/>
    <path d="M 261.257143 241.92 
L 277.2 241.92 
L 277.2 226.08 
L 261.257143 226.08 
L 261.257143 241.92 
" clip-path="url(#p790e5e8974)" style="fill: #440154"/>
    <path d="M 277.2 241.92 
L 293.142857 241.92 
L 293.142857 226.08 
L 277.2 226.08 
L 277.2 241.92 
" clip-path="url(#p790e5e8974)" style="fill: #440154"/>
    <path d="M 293.142857 241.92 
L 309.085714 241.92 
L 309.085714 226.08 
L 293.142857 226.08 
L 293.142857 241.92 
" clip-path="url(#p790e5e8974)" style="fill: #440154"/>
    <path d="M 309.085714 241.92 
L 325.028571 241.92 
L 325.028571 226.08 
L 309.085714 226.08 
L 309.085714 241.92 
" clip-path="url(#p790e5e8974)" style="fill: #440154"/>
    <path d="M 325.028571 241.92 
L 340.971429 241.92 
L 340.971429 226.08 
L 325.028571 226.08 
L 325.028571 241.92 
" clip-path="url(#p790e5e8974)" style="fill: #440154"/>
    <path d="M 340.971429 241.92 
L 356.914286 241.92 
L 356.914286 226.08 
L 340.971429 226.08 
L 340.971429 241.92 
" clip-path="url(#p790e5e8974)" style="fill: #440154"/>
    <path d="M 356.914286 241.92 
L 372.857143 241.92 
L 372.857143 226.08 
L 356.914286 226.08 
L 356.914286 241.92 
" clip-path="url(#p790e5e8974)" style="fill: #440154"/>
    <path d="M 372.857143 241.92 
L 388.8 241.92 
L 388.8 226.08 
L 372.857143 226.08 
L 372.857143 241.92 
" clip-path="url(#p790e5e8974)" style="fill: #440154"/>
    <path d="M 54 226.08 
L 69.942857 226.08 
L 69.942857 210.24 
L 54 210.24 
L 54 226.08 
" clip-path="url(#p790e5e8974)" style="fill: #fde725"/>
    <path d="M 69.942857 226.08 
L 85.885714 226.08 
L 85.885714 210.24 
L 69.942857 210.24 
L 69.942857 226.08 
" clip-path="url(#p790e5e8974)" style="fill: #fde725"/>
    <path d="M 85.885714 226.08 
L 101.828571 226.08 
L 101.828571 210.24 
L 85.885714 210.24 
L 85.885714 226.08 
" clip-path="url(#p790e5e8974)" style="fill: #fde725"/>
    <path d="M 101.828571 226.08 
L 117.771429 226.08 
L 117.771429 210.24 
L 101.828571 210.24 
L 101.828571 226.08 
" clip-path="url(#p790e5e8974)" style="fill: #fde725"/>
    <path d="M 117.771429 226.08 
L 133.714286 226.08 
L 133.714286 210.24 
L 117.771429 210.24 
L 117.771429 226.08 
" clip-path="url(#p790e5e8974)" style="fill: #440154"/>
    <path d="M 133.714286 226.08 
L 149.657143 226.08 
L 149.657143 210.24 
L 133.714286 210.24 
L 133.714286 226.08 
" clip-path="url(#p790e5e8974)" style="fill: #440154"/>
    <path d="M 149.657143 226.08 
L 165.6 226.08 
L 165.6 210.24 
L 149.657143 210.24 
L 149.657143 226.08 
" clip-path="url(#p790e5e8974)" style="fill: #440154"/>
    <path d="M 165.6 226.08 
L 181.542857 226.08 
L 181.542857 210.24 
L 165.6 210.24 
L 165.6 226.08 
" clip-path="url(#p790e5e8974)" style="fill: #440154"/>
    <path d="M 181.542857 226.08 
L 197.485714 226.08 
L 197.485714 210.24 
L 181.542857 210.24 
L 181.542857 226.08 
" clip-path="url(#p790e5e8974)" style="fill: #440154"/>
    <path d="M 197.485714 226.08 
L 213.428571 226.08 
L 213.428571 210.24 
L 197.485714 210.24 
L 197.485714 226.08 
" clip-path="url(#p790e5e8974)" style="fill: #440154"/>
    <path d="M 213.428571 226.08 
L 229.371429 226.08 
L 229.371429 210.24 
L 213.428571 210.24 
L 213.428571 226.08 
" clip-path="url(#p790e5e8974)" style="fill: #440154"/>
    <path d="M 229.371429 226.08 
L 245.314286 226.08 
L 245.314286 210.24 
L 229.371429 210.24 
L 229.371429 226.08 
" clip-path="url(#p790e5e8974)" style="fill: #440154"/>
    <path d="M 245.314286 226.08 
L 261.257143 226.08 
L 261.257143 210.24 
L 245.314286 210.24 
L 245.314286 226.08 
" clip-path="url(#p790e5e8974)" style="fill: #440154"/>
    <path d="M 261.257143 226.08 
L 277.2 226.08 
L 277.2 210.24 
L 261.257143 210.24 
L 261.257143 226.08 
" clip-path="url(#p790e5e8974)" style="fill: #440154"/>
    <path d="M 277.2 226.08 
L 293.142857 226.08 
L 293.142857 210.24 
L 277.2 210.24 
L 277.2 226.08 
" clip-path="url(#p790e5e8974)" style="fill: #440154"/>
    <path d="M 293.142857 226.08 
L 309.085714 226.08 
L 309.085714 210.24 
L 293.142857 210.24 
L 293.142857 226.08 
" clip-path="url(#p790e5e8974)" style="fill: #440154"/>
    <path d="M 309.085714 226.08 
L 325.028571 226.08 
L 325.028571 210.24 
L 309.085714 210.24 
L 309.085714 226.08 
" clip-path="url(#p790e5e8974)" style="fill: #440154"/>
    <path d="M 325.028571 226.08 
L 340.971429 226.08 
L 340.971429 210.24 
L 325.028571 210.24 
L 325.028571 226.08 
" clip-path="url(#p790e5e8974)" style="fill: #440154"/>
    <path d="M 340.971429 226.08 
L 356.914286 226.08 
L 356.914286 210.24 
L 340.971429 210.24 
L 340.971429 226.08 
" clip-path="url(#p790e5e8974)" style="fill: #440154"/>
    <path d="M 356.914286 226.08 
L 372.857143 226.08 
L 372.857143 210.24 
L 356.914286 210.24 
L 356.914286 226.08 
" clip-path="url(#p790e5e8974)" style="fill: #440154"/>
    <path d="M 372.857143 226.08 
L 388.8 226.08 
L 388.8 210.24 
L 372.857143 210.24 
L 372.857143 226.08 
" clip-path="url(#p790e5e8974)" style="fill: #440154"/>
    <path d="M 54 210.24 
L 69.942857 210.24 
L 69.942857 194.4 
L 54 194.4 
L 54 210.24 
" clip-path="url(#p790e5e8974)" style="fill: #fde725"/>
    <path d="M 69.942857 210.24 
L 85.885714 210.24 
L 85.885714 194.4 
L 69.942857 194.4 
L 69.942857 210.24 
" clip-path="url(#p790e5e8974)" style="fill: #fde725"/>
    <path d="M 85.885714 210.24 
L 101.828571 210.24 
L 101.828571 194.4 
L 85.885714 194.4 
L 85.885714 210.24 
" clip-path="url(#p790e5e8974)" style="fill: #fde725"/>
    <path d="M 101.828571 210.24 
L 117.771429 210.24 
L 117.771429 194.4 
L 101.828571 194.4 
L 101.828571 210.24 
" clip-path="url(#p790e5e8974)" style="fill: #fde725"/>
    <path d="M 117.771429 210.24 
L 133.714286 210.24 
L 133.714286 194.4 
L 117.771429 194.4 
L 117.771429 210.24 
" clip-path="url(#p790e5e8974)" style="fill: #440154"/>
    <path d="M 133.714286 210.24 
L 149.657143 210.24 
L 149.657143 194.4 
L 133.714286 194.4 
L 133.714286 210.24 
" clip-path="url(#p790e5e8974)" style="fill: #440154"/>
    <path d="M 149.657143 210.24 
L 165.6 210.24 
L 165.6 194.4 
L 149.657143 194.4 
L 149.657143 210.24 
" clip-path="url(#p790e5e8974)" style="fill: #440154"/>
    <path d="M 165.6 210.24 
L 181.542857 210.24 
L 181.542857 194.4 
L 165.6 194.4 
L 165.6 210.24 
" clip-path="url(#p790e5e8974)" style="fill: #440154"/>
    <path d="M 181.542857 210.24 
L 197.485714 210.24 
L 197.485714 194.4 
L 181.542857 194.4 
L 181.542857 210.24 
" clip-path="url(#p790e5e8974)" style="fill: #440154"/>
    <path d="M 197.485714 210.24 
L 213.428571 210.24 
L 213.428571 194.4 
L 197.485714 194.4 
L 197.485714 210.24 
" clip-path="url(#p790e5e8974)" style="fill: #440154"/>
    <path d="M 213.428571 210.24 
L 229.371429 210.24 
L 229.371429 194.4 
L 213.428571 194.4 
L 213.428571 210.24 
" clip-path="url(#p790e5e8974)" style="fill: #440154"/>
    <path d="M 229.371429 210.24 
L 245.314286 210.24 
L 245.314286 194.4 
L 229.371429 194.4 
L 229.371429 210.24 
" clip-path="url(#p790e5e8974)" style="fill: #440154"/>
    <path d="M 245.314286 210.24 
L 261.257143 210.24 
L 261.257143 194.4 
L 245.314286 194.4 
L 245.314286 210.24 
" clip-path="url(#p790e5e8974)" style="fill: #440154"/>
    <path d="M 261.257143 210.24 
L 277.2 210.24 
L 277.2 194.4 
L 261.257143 194.4 
L 261.257143 210.24 
" clip-path="url(#p790e5e8974)" style="fill: #440154"/>
    <path d="M 277.2 210.24 
L 293.142857 210.24 
L 293.142857 194.4 
L 277.2 194.4 
L 277.2 210.24 
" clip-path="url(#p790e5e8974)" style="fill: #440154"/>
    <path d="M 293.142857 210.24 
L 309.085714 210.24 
L 309.085714 194.4 
L 293.142857 194.4 
L 293.142857 210.24 
" clip-path="url(#p790e5e8974)" style="fill: #440154"/>
    <path d="M 309.085714 210.24 
L 325.028571 210.24 
L 325.028571 194.4 
L 309.085714 194.4 
L 309.085714 210.24 
" clip-path="url(#p790e5e8974)" style="fill: #440154"/>
    <path d="M 325.028571 210.24 
L 340.971429 210.24 
L 340.971429 194.4 
L 325.028571 194.4 
L 325.028571 210.24 
" clip-path="url(#p790e5e8974)" style="fill: #440154"/>
    <path d="M 340.971429 210.24 
L 356.914286 210.24 
L 356.914286 194.4 
L 340.971429 194.4 
L 340.971429 210.24 
" clip-path="url(#p790e5e8974)" style="fill: #440154"/>
    <path d="M 356.914286 210.24 
L 372.857143 210.24 
L 372.857143 194.4 
L 356.914286 194.4 
L 356.914286 210.24 
" clip-path="url(#p790e5e8974)" style="fill: #440154"/>
    <path d="M 372.857143 210.24 
L 388.8 210.24 
L 388.8 194.4 
L 372.857143 194.4 
L 372.857143 210.24 
" clip-path="url(#p790e5e8974)" style="fill: #440154"/>
    <path d="M 54 194.4 
L 69.942857 194.4 
L 69.942857 178.56 
L 54 178.56 
L 54 194.4 
" clip-path="url(#p790e5e8974)" style="fill: #fde725"/>
    <path d="M 69.942857 194.4 
L 85.885714 194.4 
L 85.885714 178.56 
L 69.942857 178.56 
L 69.942857 194.4 
" clip-path="url(#p790e5e8974)" style="fill: #fde725"/>
    <path d="M 85.885714 194.4 
L 101.828571 194.4 
L 101.828571 178.56 
L 85.885714 178.56 
L 85.885714 194.4 
" clip-path="url(#p790e5e8974)" style="fill: #fde725"/>
    <path d="M 101.828571 194.4 
L 117.771429 194.4 
L 117.771429 178.56 
L 101.828571 178.56 
L 101.828571 194.4 
" clip-path="url(#p790e5e8974)" style="fill: #fde725"/>
    <path d="M 117.771429 194.4 
L 133.714286 194.4 
L 133.714286 178.56 
L 117.771429 178.56 
L 117.771429 194.4 
" clip-path="url(#p790e5e8974)" style="fill: #440154"/>
    <path d="M 133.714286 194.4 
L 149.657143 194.4 
L 149.657143 178.56 
L 133.714286 178.56 
L 133.714286 194.4 
" clip-path="url(#p790e5e8974)" style="fill: #440154"/>
    <path d="M 149.657143 194.4 
L 165.6 194.4 
L 165.6 178.56 
L 149.657143 178.56 
L 149.657143 194.4 
" clip-path="url(#p790e5e8974)" style="fill: #440154"/>
    <path d="M 165.6 194.4 
L 181.542857 194.4 
L 181.542857 178.56 
L 165.6 178.56 
L 165.6 194.4 
" clip-path="url(#p790e5e8974)" style="fill: #440154"/>
    <path d="M 181.542857 194.4 
L 197.485714 194.4 
L 197.485714 178.56 
L 181.542857 178.56 
L 181.542857 194.4 
" clip-path="url(#p790e5e8974)" style="fill: #440154"/>
    <path d="M 197.485714 194.4 
L 213.428571 194.4 
L 213.428571 178.56 
L 197.485714 178.56 
L 197.485714 194.4 
" clip-path="url(#p790e5e8974)" style="fill: #440154"/>
    <path d="M 213.428571 194.4 
L 229.371429 194.4 
L 229.371429 178.56 
L 213.428571 178.56 
L 213.428571 194.4 
" clip-path="url(#p790e5e8974)" style="fill: #440154"/>
    <path d="M 229.371429 194.4 
L 245.314286 194.4 
L 245.314286 178.56 
L 229.371429 178.56 
L 229.371429 194.4 
" clip-path="url(#p790e5e8974)" style="fill: #440154"/>
    <path d="M 245.314286 194.4 
L 261.257143 194.4 
L 261.257143 178.56 
L 245.314286 178.56 
L 245.314286 194.4 
" clip-path="url(#p790e5e8974)" style="fill: #440154"/>
    <path d="M 261.257143 194.4 
L 277.2 194.4 
L 277.2 178.56 
L 261.257143 178.56 
L 261.257143 194.4 
" clip-path="url(#p790e5e8974)" style="fill: #440154"/>
    <path d="M 277.2 194.4 
L 293.142857 194.4 
L 293.142857 178.56 
L 277.2 178.56 
L 277.2 194.4 
" clip-path="url(#p790e5e8974)" style="fill: #440154"/>
    <path d="M 293.142857 194.4 
L 309.085714 194.4 
L 309.085714 178.56 
L 293.142857 178.56 
L 293.142857 194.4 
" clip-path="url(#p790e5e8974)" style="fill: #440154"/>
    <path d="M 309.085714 194.4 
L 325.028571 194.4 
L 325.028571 178.56 
L 309.085714 178.56 
L 309.085714 194.4 
" clip-path="url(#p790e5e8974)" style="fill: #440154"/>
    <path d="M 325.028571 194.4 
L 340.971429 194.4 
L 340.971429 178.56 
L 325.028571 178.56 
L 325.028571 194.4 
" clip-path="url(#p790e5e8974)" style="fill: #440154"/>
    <path d="M 340.971429 194.4 
L 356.914286 194.4 
L 356.914286 178.56 
L 340.971429 178.56 
L 340.971429 194.4 
" clip-path="url(#p790e5e8974)" style="fill: #440154"/>
    <path d="M 356.914286 194.4 
L 372.857143 194.4 
L 372.857143 178.56 
L 356.914286 178.56 
L 356.914286 194.4 
" clip-path="url(#p790e5e8974)" style="fill: #440154"/>
    <path d="M 372.857143 194.4 
L 388.8 194.4 
L 388.8 178.56 
L 372.857143 178.56 
L 372.857143 194.4 
" clip-path="url(#p790e5e8974)" style="fill: #440154"/>
    <path d="M 54 178.56 
L 69.942857 178.56 
L 69.942857 162.72 
L 54 162.72 
L 54 178.56 
" clip-path="url(#p790e5e8974)" style="fill: #fde725"/>
    <path d="M 69.942857 178.56 
L 85.885714 178.56 
L 85.885714 162.72 
L 69.942857 162.72 
L 69.942857 178.56 
" clip-path="url(#p790e5e8974)" style="fill: #fde725"/>
    <path d="M 85.885714 178.56 
L 101.828571 178.56 
L 101.828571 162.72 
L 85.885714 162.72 
L 85.885714 178.56 
" clip-path="url(#p790e5e8974)" style="fill: #fde725"/>
    <path d="M 101.828571 178.56 
L 117.771429 178.56 
L 117.771429 162.72 
L 101.828571 162.72 
L 101.828571 178.56 
" clip-path="url(#p790e5e8974)" style="fill: #fde725"/>
    <path d="M 117.771429 178.56 
L 133.714286 178.56 
L 133.714286 162.72 
L 117.771429 162.72 
L 117.771429 178.56 
" clip-path="url(#p790e5e8974)" style="fill: #440154"/>
    <path d="M 133.714286 178.56 
L 149.657143 178.56 
L 149.657143 162.72 
L 133.714286 162.72 
L 133.714286 178.56 
" clip-path="url(#p790e5e8974)" style="fill: #440154"/>
    <path d="M 149.657143 178.56 
L 165.6 178.56 
L 165.6 162.72 
L 149.657143 162.72 
L 149.657143 178.56 
" clip-path="url(#p790e5e8974)" style="fill: #440154"/>
    <path d="M 165.6 178.56 
L 181.542857 178.56 
L 181.542857 162.72 
L 165.6 162.72 
L 165.6 178.56 
" clip-path="url(#p790e5e8974)" style="fill: #440154"/>
    <path d="M 181.542857 178.56 
L 197.485714 178.56 
L 197.485714 162.72 
L 181.542857 162.72 
L 181.542857 178.56 
" clip-path="url(#p790e5e8974)" style="fill: #440154"/>
    <path d="M 197.485714 178.56 
L 213.428571 178.56 
L 213.428571 162.72 
L 197.485714 162.72 
L 197.485714 178.56 
" clip-path="url(#p790e5e8974)" style="fill: #440154"/>
    <path d="M 213.428571 178.56 
L 229.371429 178.56 
L 229.371429 162.72 
L 213.428571 162.72 
L 213.428571 178.56 
" clip-path="url(#p790e5e8974)" style="fill: #440154"/>
    <path d="M 229.371429 178.56 
L 245.314286 178.56 
L 245.314286 162.72 
L 229.371429 162.72 
L 229.371429 178.56 
" clip-path="url(#p790e5e8974)" style="fill: #440154"/>
    <path d="M 245.314286 178.56 
L 261.257143 178.56 
L 261.257143 162.72 
L 245.314286 162.72 
L 245.314286 178.56 
" clip-path="url(#p790e5e8974)" style="fill: #440154"/>
    <path d="M 261.257143 178.56 
L 277.2 178.56 
L 277.2 162.72 
L 261.257143 162.72 
L 261.257143 178.56 
" clip-path="url(#p790e5e8974)" style="fill: #440154"/>
    <path d="M 277.2 178.56 
L 293.142857 178.56 
L 293.142857 162.72 
L 277.2 162.72 
L 277.2 178.56 
" clip-path="url(#p790e5e8974)" style="fill: #440154"/>
    <path d="M 293.142857 178.56 
L 309.085714 178.56 
L 309.085714 162.72 
L 293.142857 162.72 
L 293.142857 178.56 
" clip-path="url(#p790e5e8974)" style="fill: #440154"/>
    <path d="M 309.085714 178.56 
L 325.028571 178.56 
L 325.028571 162.72 
L 309.085714 162.72 
L 309.085714 178.56 
" clip-path="url(#p790e5e8974)" style="fill: #440154"/>
    <path d="M 325.028571 178.56 
L 340.971429 178.56 
L 340.971429 162.72 
L 325.028571 162.72 
L 325.028571 178.56 
" clip-path="url(#p790e5e8974)" style="fill: #440154"/>
    <path d="M 340.971429 178.56 
L 356.914286 178.56 
L 356.914286 162.72 
L 340.971429 162.72 
L 340.971429 178.56 
" clip-path="url(#p790e5e8974)" style="fill: #440154"/>
    <path d="M 356.914286 178.56 
L 372.857143 178.56 
L 372.857143 162.72 
L 356.914286 162.72 
L 356.914286 178.56 
" clip-path="url(#p790e5e8974)" style="fill: #440154"/>
    <path d="M 372.857143 178.56 
L 388.8 178.56 
L 388.8 162.72 
L 372.857143 162.72 
L 372.857143 178.56 
" clip-path="url(#p790e5e8974)" style="fill: #440154"/>
    <path d="M 54 162.72 
L 69.942857 162.72 
L 69.942857 146.88 
L 54 146.88 
L 54 162.72 
" clip-path="url(#p790e5e8974)" style="fill: #fde725"/>
    <path d="M 69.942857 162.72 
L 85.885714 162.72 
L 85.885714 146.88 
L 69.942857 146.88 
L 69.942857 162.72 
" clip-path="url(#p790e5e8974)" style="fill: #fde725"/>
    <path d="M 85.885714 162.72 
L 101.828571 162.72 
L 101.828571 146.88 
L 85.885714 146.88 
L 85.885714 162.72 
" clip-path="url(#p790e5e8974)" style="fill: #fde725"/>
    <path d="M 101.828571 162.72 
L 117.771429 162.72 
L 117.771429 146.88 
L 101.828571 146.88 
L 101.828571 162.72 
" clip-path="url(#p790e5e8974)" style="fill: #fde725"/>
    <path d="M 117.771429 162.72 
L 133.714286 162.72 
L 133.714286 146.88 
L 117.771429 146.88 
L 117.771429 162.72 
" clip-path="url(#p790e5e8974)" style="fill: #440154"/>
    <path d="M 133.714286 162.72 
L 149.657143 162.72 
L 149.657143 146.88 
L 133.714286 146.88 
L 133.714286 162.72 
" clip-path="url(#p790e5e8974)" style="fill: #440154"/>
    <path d="M 149.657143 162.72 
L 165.6 162.72 
L 165.6 146.88 
L 149.657143 146.88 
L 149.657143 162.72 
" clip-path="url(#p790e5e8974)" style="fill: #440154"/>
    <path d="M 165.6 162.72 
L 181.542857 162.72 
L 181.542857 146.88 
L 165.6 146.88 
L 165.6 162.72 
" clip-path="url(#p790e5e8974)" style="fill: #440154"/>
    <path d="M 181.542857 162.72 
L 197.485714 162.72 
L 197.485714 146.88 
L 181.542857 146.88 
L 181.542857 162.72 
" clip-path="url(#p790e5e8974)" style="fill: #440154"/>
    <path d="M 197.485714 162.72 
L 213.428571 162.72 
L 213.428571 146.88 
L 197.485714 146.88 
L 197.485714 162.72 
" clip-path="url(#p790e5e8974)" style="fill: #440154"/>
    <path d="M 213.428571 162.72 
L 229.371429 162.72 
L 229.371429 146.88 
L 213.428571 146.88 
L 213.428571 162.72 
" clip-path="url(#p790e5e8974)" style="fill: #440154"/>
    <path d="M 229.371429 162.72 
L 245.314286 162.72 
L 245.314286 146.88 
L 229.371429 146.88 
L 229.371429 162.72 
" clip-path="url(#p790e5e8974)" style="fill: #440154"/>
    <path d="M 245.314286 162.72 
L 261.257143 162.72 
L 261.257143 146.88 
L 245.314286 146.88 
L 245.314286 162.72 
" clip-path="url(#p790e5e8974)" style="fill: #440154"/>
    <path d="M 261.257143 162.72 
L 277.2 162.72 
L 277.2 146.88 
L 261.257143 146.88 
L 261.257143 162.72 
" clip-path="url(#p790e5e8974)" style="fill: #440154"/>
    <path d="M 277.2 162.72 
L 293.142857 162.72 
L 293.142857 146.88 
L 277.2 146.88 
L 277.2 162.72 
" clip-path="url(#p790e5e8974)" style="fill: #440154"/>
    <path d="M 293.142857 162.72 
L 309.085714 162.72 
L 309.085714 146.88 
L 293.142857 146.88 
L 293.142857 162.72 
" clip-path="url(#p790e5e8974)" style="fill: #440154"/>
    <path d="M 309.085714 162.72 
L 325.028571 162.72 
L 325.028571 146.88 
L 309.085714 146.88 
L 309.085714 162.72 
" clip-path="url(#p790e5e8974)" style="fill: #440154"/>
    <path d="M 325.028571 162.72 
L 340.971429 162.72 
L 340.971429 146.88 
L 325.028571 146.88 
L 325.028571 162.72 
" clip-path="url(#p790e5e8974)" style="fill: #440154"/>
    <path d="M 340.971429 162.72 
L 356.914286 162.72 
L 356.914286 146.88 
L 340.971429 146.88 
L 340.971429 162.72 
" clip-path="url(#p790e5e8974)" style="fill: #440154"/>
    <path d="M 356.914286 162.72 
L 372.857143 162.72 
L 372.857143 146.88 
L 356.914286 146.88 
L 356.914286 162.72 
" clip-path="url(#p790e5e8974)" style="fill: #440154"/>
    <path d="M 372.857143 162.72 
L 388.8 162.72 
L 388.8 146.88 
L 372.857143 146.88 
L 372.857143 162.72 
" clip-path="url(#p790e5e8974)" style="fill: #440154"/>
    <path d="M 54 146.88 
L 69.942857 146.88 
L 69.942857 131.04 
L 54 131.04 
L 54 146.88 
" clip-path="url(#p790e5e8974)" style="fill: #fde725"/>
    <path d="M 69.942857 146.88 
L 85.885714 146.88 
L 85.885714 131.04 
L 69.942857 131.04 
L 69.942857 146.88 
" clip-path="url(#p790e5e8974)" style="fill: #fde725"/>
    <path d="M 85.885714 146.88 
L 101.828571 146.88 
L 101.828571 131.04 
L 85.885714 131.04 
L 85.885714 146.88 
" clip-path="url(#p790e5e8974)" style="fill: #fde725"/>
    <path d="M 101.828571 146.88 
L 117.771429 146.88 
L 117.771429 131.04 
L 101.828571 131.04 
L 101.828571 146.88 
" clip-path="url(#p790e5e8974)" style="fill: #fde725"/>
    <path d="M 117.771429 146.88 
L 133.714286 146.88 
L 133.714286 131.04 
L 117.771429 131.04 
L 117.771429 146.88 
" clip-path="url(#p790e5e8974)" style="fill: #440154"/>
    <path d="M 133.714286 146.88 
L 149.657143 146.88 
L 149.657143 131.04 
L 133.714286 131.04 
L 133.714286 146.88 
" clip-path="url(#p790e5e8974)" style="fill: #440154"/>
    <path d="M 149.657143 146.88 
L 165.6 146.88 
L 165.6 131.04 
L 149.657143 131.04 
L 149.657143 146.88 
" clip-path="url(#p790e5e8974)" style="fill: #440154"/>
    <path d="M 165.6 146.88 
L 181.542857 146.88 
L 181.542857 131.04 
L 165.6 131.04 
L 165.6 146.88 
" clip-path="url(#p790e5e8974)" style="fill: #440154"/>
    <path d="M 181.542857 146.88 
L 197.485714 146.88 
L 197.485714 131.04 
L 181.542857 131.04 
L 181.542857 146.88 
" clip-path="url(#p790e5e8974)" style="fill: #440154"/>
    <path d="M 197.485714 146.88 
L 213.428571 146.88 
L 213.428571 131.04 
L 197.485714 131.04 
L 197.485714 146.88 
" clip-path="url(#p790e5e8974)" style="fill: #440154"/>
    <path d="M 213.428571 146.88 
L 229.371429 146.88 
L 229.371429 131.04 
L 213.428571 131.04 
L 213.428571 146.88 
" clip-path="url(#p790e5e8974)" style="fill: #440154"/>
    <path d="M 229.371429 146.88 
L 245.314286 146.88 
L 245.314286 131.04 
L 229.371429 131.04 
L 229.371429 146.88 
" clip-path="url(#p790e5e8974)" style="fill: #440154"/>
    <path d="M 245.314286 146.88 
L 261.257143 146.88 
L 261.257143 131.04 
L 245.314286 131.04 
L 245.314286 146.88 
" clip-path="url(#p790e5e8974)" style="fill: #440154"/>
    <path d="M 261.257143 146.88 
L 277.2 146.88 
L 277.2 131.04 
L 261.257143 131.04 
L 261.257143 146.88 
" clip-path="url(#p790e5e8974)" style="fill: #440154"/>
    <path d="M 277.2 146.88 
L 293.142857 146.88 
L 293.142857 131.04 
L 277.2 131.04 
L 277.2 146.88 
" clip-path="url(#p790e5e8974)" style="fill: #440154"/>
    <path d="M 293.142857 146.88 
L 309.085714 146.88 
L 309.085714 131.04 
L 293.142857 131.04 
L 293.142857 146.88 
" clip-path="url(#p790e5e8974)" style="fill: #440154"/>
    <path d="M 309.085714 146.88 
L 325.028571 146.88 
L 325.028571 131.04 
L 309.085714 131.04 
L 309.085714 146.88 
" clip-path="url(#p790e5e8974)" style="fill: #440154"/>
    <path d="M 325.028571 146.88 
L 340.971429 146.88 
L 340.971429 131.04 
L 325.028571 131.04 
L 325.028571 146.88 
" clip-path="url(#p790e5e8974)" style="fill: #440154"/>
    <path d="M 340.971429 146.88 
L 356.914286 146.88 
L 356.914286 131.04 
L 340.971429 131.04 
L 340.971429 146.88 
" clip-path="url(#p790e5e8974)" style="fill: #440154"/>
    <path d="M 356.914286 146.88 
L 372.857143 146.88 
L 372.857143 131.04 
L 356.914286 131.04 
L 356.914286 146.88 
" clip-path="url(#p790e5e8974)" style="fill: #440154"/>
    <path d="M 372.857143 146.88 
L 388.8 146.88 
L 388.8 131.04 
L 372.857143 131.04 
L 372.857143 146.88 
" clip-path="url(#p790e5e8974)" style="fill: #440154"/>
    <path d="M 54 131.04 
L 69.942857 131.04 
L 69.942857 115.2 
L 54 115.2 
L 54 131.04 
" clip-path="url(#p790e5e8974)" style="fill: #fde725"/>
    <path d="M 69.942857 131.04 
L 85.885714 131.04 
L 85.885714 115.2 
L 69.942857 115.2 
L 69.942857 131.04 
" clip-path="url(#p790e5e8974)" style="fill: #fde725"/>
    <path d="M 85.885714 131.04 
L 101.828571 131.04 
L 101.828571 115.2 
L 85.885714 115.2 
L 85.885714 131.04 
" clip-path="url(#p790e5e8974)" style="fill: #fde725"/>
    <path d="M 101.828571 131.04 
L 117.771429 131.04 
L 117.771429 115.2 
L 101.828571 115.2 
L 101.828571 131.04 
" clip-path="url(#p790e5e8974)" style="fill: #fde725"/>
    <path d="M 117.771429 131.04 
L 133.714286 131.04 
L 133.714286 115.2 
L 117.771429 115.2 
L 117.771429 131.04 
" clip-path="url(#p790e5e8974)" style="fill: #440154"/>
    <path d="M 133.714286 131.04 
L 149.657143 131.04 
L 149.657143 115.2 
L 133.714286 115.2 
L 133.714286 131.04 
" clip-path="url(#p790e5e8974)" style="fill: #440154"/>
    <path d="M 149.657143 131.04 
L 165.6 131.04 
L 165.6 115.2 
L 149.657143 115.2 
L 149.657143 131.04 
" clip-path="url(#p790e5e8974)" style="fill: #440154"/>
    <path d="M 165.6 131.04 
L 181.542857 131.04 
L 181.542857 115.2 
L 165.6 115.2 
L 165.6 131.04 
" clip-path="url(#p790e5e8974)" style="fill: #440154"/>
    <path d="M 181.542857 131.04 
L 197.485714 131.04 
L 197.485714 115.2 
L 181.542857 115.2 
L 181.542857 131.04 
" clip-path="url(#p790e5e8974)" style="fill: #440154"/>
    <path d="M 197.485714 131.04 
L 213.428571 131.04 
L 213.428571 115.2 
L 197.485714 115.2 
L 197.485714 131.04 
" clip-path="url(#p790e5e8974)" style="fill: #440154"/>
    <path d="M 213.428571 131.04 
L 229.371429 131.04 
L 229.371429 115.2 
L 213.428571 115.2 
L 213.428571 131.04 
" clip-path="url(#p790e5e8974)" style="fill: #440154"/>
    <path d="M 229.371429 131.04 
L 245.314286 131.04 
L 245.314286 115.2 
L 229.371429 115.2 
L 229.371429 131.04 
" clip-path="url(#p790e5e8974)" style="fill: #440154"/>
    <path d="M 245.314286 131.04 
L 261.257143 131.04 
L 261.257143 115.2 
L 245.314286 115.2 
L 245.314286 131.04 
" clip-path="url(#p790e5e8974)" style="fill: #440154"/>
    <path d="M 261.257143 131.04 
L 277.2 131.04 
L 277.2 115.2 
L 261.257143 115.2 
L 261.257143 131.04 
" clip-path="url(#p790e5e8974)" style="fill: #440154"/>
    <path d="M 277.2 131.04 
L 293.142857 131.04 
L 293.142857 115.2 
L 277.2 115.2 
L 277.2 131.04 
" clip-path="url(#p790e5e8974)" style="fill: #440154"/>
    <path d="M 293.142857 131.04 
L 309.085714 131.04 
L 309.085714 115.2 
L 293.142857 115.2 
L 293.142857 131.04 
" clip-path="url(#p790e5e8974)" style="fill: #440154"/>
    <path d="M 309.085714 131.04 
L 325.028571 131.04 
L 325.028571 115.2 
L 309.085714 115.2 
L 309.085714 131.04 
" clip-path="url(#p790e5e8974)" style="fill: #440154"/>
    <path d="M 325.028571 131.04 
L 340.971429 131.04 
L 340.971429 115.2 
L 325.028571 115.2 
L 325.028571 131.04 
" clip-path="url(#p790e5e8974)" style="fill: #440154"/>
    <path d="M 340.971429 131.04 
L 356.914286 131.04 
L 356.914286 115.2 
L 340.971429 115.2 
L 340.971429 131.04 
" clip-path="url(#p790e5e8974)" style="fill: #440154"/>
    <path d="M 356.914286 131.04 
L 372.857143 131.04 
L 372.857143 115.2 
L 356.914286 115.2 
L 356.914286 131.04 
" clip-path="url(#p790e5e8974)" style="fill: #440154"/>
    <path d="M 372.857143 131.04 
L 388.8 131.04 
L 388.8 115.2 
L 372.857143 115.2 
L 372.857143 131.04 
" clip-path="url(#p790e5e8974)" style="fill: #440154"/>
    <path d="M 54 115.2 
L 69.942857 115.2 
L 69.942857 99.36 
L 54 99.36 
L 54 115.2 
" clip-path="url(#p790e5e8974)" style="fill: #fde725"/>
    <path d="M 69.942857 115.2 
L 85.885714 115.2 
L 85.885714 99.36 
L 69.942857 99.36 
L 69.942857 115.2 
" clip-path="url(#p790e5e8974)" style="fill: #fde725"/>
    <path d="M 85.885714 115.2 
L 101.828571 115.2 
L 101.828571 99.36 
L 85.885714 99.36 
L 85.885714 115.2 
" clip-path="url(#p790e5e8974)" style="fill: #fde725"/>
    <path d="M 101.828571 115.2 
L 117.771429 115.2 
L 117.771429 99.36 
L 101.828571 99.36 
L 101.828571 115.2 
" clip-path="url(#p790e5e8974)" style="fill: #fde725"/>
    <path d="M 117.771429 115.2 
L 133.714286 115.2 
L 133.714286 99.36 
L 117.771429 99.36 
L 117.771429 115.2 
" clip-path="url(#p790e5e8974)" style="fill: #440154"/>
    <path d="M 133.714286 115.2 
L 149.657143 115.2 
L 149.657143 99.36 
L 133.714286 99.36 
L 133.714286 115.2 
" clip-path="url(#p790e5e8974)" style="fill: #440154"/>
    <path d="M 149.657143 115.2 
L 165.6 115.2 
L 165.6 99.36 
L 149.657143 99.36 
L 149.657143 115.2 
" clip-path="url(#p790e5e8974)" style="fill: #440154"/>
    <path d="M 165.6 115.2 
L 181.542857 115.2 
L 181.542857 99.36 
L 165.6 99.36 
L 165.6 115.2 
" clip-path="url(#p790e5e8974)" style="fill: #440154"/>
    <path d="M 181.542857 115.2 
L 197.485714 115.2 
L 197.485714 99.36 
L 181.542857 99.36 
L 181.542857 115.2 
" clip-path="url(#p790e5e8974)" style="fill: #440154"/>
    <path d="M 197.485714 115.2 
L 213.428571 115.2 
L 213.428571 99.36 
L 197.485714 99.36 
L 197.485714 115.2 
" clip-path="url(#p790e5e8974)" style="fill: #440154"/>
    <path d="M 213.428571 115.2 
L 229.371429 115.2 
L 229.371429 99.36 
L 213.428571 99.36 
L 213.428571 115.2 
" clip-path="url(#p790e5e8974)" style="fill: #440154"/>
    <path d="M 229.371429 115.2 
L 245.314286 115.2 
L 245.314286 99.36 
L 229.371429 99.36 
L 229.371429 115.2 
" clip-path="url(#p790e5e8974)" style="fill: #440154"/>
    <path d="M 245.314286 115.2 
L 261.257143 115.2 
L 261.257143 99.36 
L 245.314286 99.36 
L 245.314286 115.2 
" clip-path="url(#p790e5e8974)" style="fill: #440154"/>
    <path d="M 261.257143 115.2 
L 277.2 115.2 
L 277.2 99.36 
L 261.257143 99.36 
L 261.257143 115.2 
" clip-path="url(#p790e5e8974)" style="fill: #440154"/>
    <path d="M 277.2 115.2 
L 293.142857 115.2 
L 293.142857 99.36 
L 277.2 99.36 
L 277.2 115.2 
" clip-path="url(#p790e5e8974)" style="fill: #440154"/>
    <path d="M 293.142857 115.2 
L 309.085714 115.2 
L 309.085714 99.36 
L 293.142857 99.36 
L 293.142857 115.2 
" clip-path="url(#p790e5e8974)" style="fill: #440154"/>
    <path d="M 309.085714 115.2 
L 325.028571 115.2 
L 325.028571 99.36 
L 309.085714 99.36 
L 309.085714 115.2 
" clip-path="url(#p790e5e8974)" style="fill: #440154"/>
    <path d="M 325.028571 115.2 
L 340.971429 115.2 
L 340.971429 99.36 
L 325.028571 99.36 
L 325.028571 115.2 
" clip-path="url(#p790e5e8974)" style="fill: #440154"/>
    <path d="M 340.971429 115.2 
L 356.914286 115.2 
L 356.914286 99.36 
L 340.971429 99.36 
L 340.971429 115.2 
" clip-path="url(#p790e5e8974)" style="fill: #440154"/>
    <path d="M 356.914286 115.2 
L 372.857143 115.2 
L 372.857143 99.36 
L 356.914286 99.36 
L 356.914286 115.2 
" clip-path="url(#p790e5e8974)" style="fill: #440154"/>
    <path d="M 372.857143 115.2 
L 388.8 115.2 
L 388.8 99.36 
L 372.857143 99.36 
L 372.857143 115.2 
" clip-path="url(#p790e5e8974)" style="fill: #440154"/>
    <path d="M 54 99.36 
L 69.942857 99.36 
L 69.942857 83.52 
L 54 83.52 
L 54 99.36 
" clip-path="url(#p790e5e8974)" style="fill: #fde725"/>
    <path d="M 69.942857 99.36 
L 85.885714 99.36 
L 85.885714 83.52 
L 69.942857 83.52 
L 69.942857 99.36 
" clip-path="url(#p790e5e8974)" style="fill: #fde725"/>
    <path d="M 85.885714 99.36 
L 101.828571 99.36 
L 101.828571 83.52 
L 85.885714 83.52 
L 85.885714 99.36 
" clip-path="url(#p790e5e8974)" style="fill: #fde725"/>
    <path d="M 101.828571 99.36 
L 117.771429 99.36 
L 117.771429 83.52 
L 101.828571 83.52 
L 101.828571 99.36 
" clip-path="url(#p790e5e8974)" style="fill: #fde725"/>
    <path d="M 117.771429 99.36 
L 133.714286 99.36 
L 133.714286 83.52 
L 117.771429 83.52 
L 117.771429 99.36 
" clip-path="url(#p790e5e8974)" style="fill: #440154"/>
    <path d="M 133.714286 99.36 
L 149.657143 99.36 
L 149.657143 83.52 
L 133.714286 83.52 
L 133.714286 99.36 
" clip-path="url(#p790e5e8974)" style="fill: #440154"/>
    <path d="M 149.657143 99.36 
L 165.6 99.36 
L 165.6 83.52 
L 149.657143 83.52 
L 149.657143 99.36 
" clip-path="url(#p790e5e8974)" style="fill: #440154"/>
    <path d="M 165.6 99.36 
L 181.542857 99.36 
L 181.542857 83.52 
L 165.6 83.52 
L 165.6 99.36 
" clip-path="url(#p790e5e8974)" style="fill: #440154"/>
    <path d="M 181.542857 99.36 
L 197.485714 99.36 
L 197.485714 83.52 
L 181.542857 83.52 
L 181.542857 99.36 
" clip-path="url(#p790e5e8974)" style="fill: #440154"/>
    <path d="M 197.485714 99.36 
L 213.428571 99.36 
L 213.428571 83.52 
L 197.485714 83.52 
L 197.485714 99.36 
" clip-path="url(#p790e5e8974)" style="fill: #440154"/>
    <path d="M 213.428571 99.36 
L 229.371429 99.36 
L 229.371429 83.52 
L 213.428571 83.52 
L 213.428571 99.36 
" clip-path="url(#p790e5e8974)" style="fill: #440154"/>
    <path d="M 229.371429 99.36 
L 245.314286 99.36 
L 245.314286 83.52 
L 229.371429 83.52 
L 229.371429 99.36 
" clip-path="url(#p790e5e8974)" style="fill: #440154"/>
    <path d="M 245.314286 99.36 
L 261.257143 99.36 
L 261.257143 83.52 
L 245.314286 83.52 
L 245.314286 99.36 
" clip-path="url(#p790e5e8974)" style="fill: #440154"/>
    <path d="M 261.257143 99.36 
L 277.2 99.36 
L 277.2 83.52 
L 261.257143 83.52 
L 261.257143 99.36 
" clip-path="url(#p790e5e8974)" style="fill: #440154"/>
    <path d="M 277.2 99.36 
L 293.142857 99.36 
L 293.142857 83.52 
L 277.2 83.52 
L 277.2 99.36 
" clip-path="url(#p790e5e8974)" style="fill: #440154"/>
    <path d="M 293.142857 99.36 
L 309.085714 99.36 
L 309.085714 83.52 
L 293.142857 83.52 
L 293.142857 99.36 
" clip-path="url(#p790e5e8974)" style="fill: #440154"/>
    <path d="M 309.085714 99.36 
L 325.028571 99.36 
L 325.028571 83.52 
L 309.085714 83.52 
L 309.085714 99.36 
" clip-path="url(#p790e5e8974)" style="fill: #440154"/>
    <path d="M 325.028571 99.36 
L 340.971429 99.36 
L 340.971429 83.52 
L 325.028571 83.52 
L 325.028571 99.36 
" clip-path="url(#p790e5e8974)" style="fill: #440154"/>
    <path d="M 340.971429 99.36 
L 356.914286 99.36 
L 356.914286 83.52 
L 340.971429 83.52 
L 340.971429 99.36 
" clip-path="url(#p790e5e8974)" style="fill: #440154"/>
    <path d="M 356.914286 99.36 
L 372.857143 99.36 
L 372.857143 83.52 
L 356.914286 83.52 
L 356.914286 99.36 
" clip-path="url(#p790e5e8974)" style="fill: #440154"/>
    <path d="M 372.857143 99.36 
L 388.8 99.36 
L 388.8 83.52 
L 372.857143 83.52 
L 372.857143 99.36 
" clip-path="url(#p790e5e8974)" style="fill: #440154"/>
    <path d="M 54 83.52 
L 69.942857 83.52 
L 69.942857 67.68 
L 54 67.68 
L 54 83.52 
" clip-path="url(#p790e5e8974)" style="fill: #fde725"/>
    <path d="M 69.942857 83.52 
L 85.885714 83.52 
L 85.885714 67.68 
L 69.942857 67.68 
L 69.942857 83.52 
" clip-path="url(#p790e5e8974)" style="fill: #fde725"/>
    <path d="M 85.885714 83.52 
L 101.828571 83.52 
L 101.828571 67.68 
L 85.885714 67.68 
L 85.885714 83.52 
" clip-path="url(#p790e5e8974)" style="fill: #fde725"/>
    <path d="M 101.828571 83.52 
L 117.771429 83.52 
L 117.771429 67.68 
L 101.828571 67.68 
L 101.828571 83.52 
" clip-path="url(#p790e5e8974)" style="fill: #fde725"/>
    <path d="M 117.771429 83.52 
L 133.714286 83.52 
L 133.714286 67.68 
L 117.771429 67.68 
L 117.771429 83.52 
" clip-path="url(#p790e5e8974)" style="fill: #440154"/>
    <path d="M 133.714286 83.52 
L 149.657143 83.52 
L 149.657143 67.68 
L 133.714286 67.68 
L 133.714286 83.52 
" clip-path="url(#p790e5e8974)" style="fill: #440154"/>
    <path d="M 149.657143 83.52 
L 165.6 83.52 
L 165.6 67.68 
L 149.657143 67.68 
L 149.657143 83.52 
" clip-path="url(#p790e5e8974)" style="fill: #440154"/>
    <path d="M 165.6 83.52 
L 181.542857 83.52 
L 181.542857 67.68 
L 165.6 67.68 
L 165.6 83.52 
" clip-path="url(#p790e5e8974)" style="fill: #440154"/>
    <path d="M 181.542857 83.52 
L 197.485714 83.52 
L 197.485714 67.68 
L 181.542857 67.68 
L 181.542857 83.52 
" clip-path="url(#p790e5e8974)" style="fill: #440154"/>
    <path d="M 197.485714 83.52 
L 213.428571 83.52 
L 213.428571 67.68 
L 197.485714 67.68 
L 197.485714 83.52 
" clip-path="url(#p790e5e8974)" style="fill: #440154"/>
    <path d="M 213.428571 83.52 
L 229.371429 83.52 
L 229.371429 67.68 
L 213.428571 67.68 
L 213.428571 83.52 
" clip-path="url(#p790e5e8974)" style="fill: #440154"/>
    <path d="M 229.371429 83.52 
L 245.314286 83.52 
L 245.314286 67.68 
L 229.371429 67.68 
L 229.371429 83.52 
" clip-path="url(#p790e5e8974)" style="fill: #440154"/>
    <path d="M 245.314286 83.52 
L 261.257143 83.52 
L 261.257143 67.68 
L 245.314286 67.68 
L 245.314286 83.52 
" clip-path="url(#p790e5e8974)" style="fill: #440154"/>
    <path d="M 261.257143 83.52 
L 277.2 83.52 
L 277.2 67.68 
L 261.257143 67.68 
L 261.257143 83.52 
" clip-path="url(#p790e5e8974)" style="fill: #440154"/>
    <path d="M 277.2 83.52 
L 293.142857 83.52 
L 293.142857 67.68 
L 277.2 67.68 
L 277.2 83.52 
" clip-path="url(#p790e5e8974)" style="fill: #440154"/>
    <path d="M 293.142857 83.52 
L 309.085714 83.52 
L 309.085714 67.68 
L 293.142857 67.68 
L 293.142857 83.52 
" clip-path="url(#p790e5e8974)" style="fill: #440154"/>
    <path d="M 309.085714 83.52 
L 325.028571 83.52 
L 325.028571 67.68 
L 309.085714 67.68 
L 309.085714 83.52 
" clip-path="url(#p790e5e8974)" style="fill: #440154"/>
    <path d="M 325.028571 83.52 
L 340.971429 83.52 
L 340.971429 67.68 
L 325.028571 67.68 
L 325.028571 83.52 
" clip-path="url(#p790e5e8974)" style="fill: #440154"/>
    <path d="M 340.971429 83.52 
L 356.914286 83.52 
L 356.914286 67.68 
L 340.971429 67.68 
L 340.971429 83.52 
" clip-path="url(#p790e5e8974)" style="fill: #440154"/>
    <path d="M 356.914286 83.52 
L 372.857143 83.52 
L 372.857143 67.68 
L 356.914286 67.68 
L 356.914286 83.52 
" clip-path="url(#p790e5e8974)" style="fill: #440154"/>
    <path d="M 372.857143 83.52 
L 388.8 83.52 
L 388.8 67.68 
L 372.857143 67.68 
L 372.857143 83.52 
" clip-path="url(#p790e5e8974)" style="fill: #440154"/>
    <path d="M 54 67.68 
L 69.942857 67.68 
L 69.942857 51.84 
L 54 51.84 
L 54 67.68 
" clip-path="url(#p790e5e8974)" style="fill: #fde725"/>
    <path d="M 69.942857 67.68 
L 85.885714 67.68 
L 85.885714 51.84 
L 69.942857 51.84 
L 69.942857 67.68 
" clip-path="url(#p790e5e8974)" style="fill: #fde725"/>
    <path d="M 85.885714 67.68 
L 101.828571 67.68 
L 101.828571 51.84 
L 85.885714 51.84 
L 85.885714 67.68 
" clip-path="url(#p790e5e8974)" style="fill: #fde725"/>
    <path d="M 101.828571 67.68 
L 117.771429 67.68 
L 117.771429 51.84 
L 101.828571 51.84 
L 101.828571 67.68 
" clip-path="url(#p790e5e8974)" style="fill: #fde725"/>
    <path d="M 117.771429 67.68 
L 133.714286 67.68 
L 133.714286 51.84 
L 117.771429 51.84 
L 117.771429 67.68 
" clip-path="url(#p790e5e8974)" style="fill: #440154"/>
    <path d="M 133.714286 67.68 
L 149.657143 67.68 
L 149.657143 51.84 
L 133.714286 51.84 
L 133.714286 67.68 
" clip-path="url(#p790e5e8974)" style="fill: #440154"/>
    <path d="M 149.657143 67.68 
L 165.6 67.68 
L 165.6 51.84 
L 149.657143 51.84 
L 149.657143 67.68 
" clip-path="url(#p790e5e8974)" style="fill: #440154"/>
    <path d="M 165.6 67.68 
L 181.542857 67.68 
L 181.542857 51.84 
L 165.6 51.84 
L 165.6 67.68 
" clip-path="url(#p790e5e8974)" style="fill: #440154"/>
    <path d="M 181.542857 67.68 
L 197.485714 67.68 
L 197.485714 51.84 
L 181.542857 51.84 
L 181.542857 67.68 
" clip-path="url(#p790e5e8974)" style="fill: #440154"/>
    <path d="M 197.485714 67.68 
L 213.428571 67.68 
L 213.428571 51.84 
L 197.485714 51.84 
L 197.485714 67.68 
" clip-path="url(#p790e5e8974)" style="fill: #440154"/>
    <path d="M 213.428571 67.68 
L 229.371429 67.68 
L 229.371429 51.84 
L 213.428571 51.84 
L 213.428571 67.68 
" clip-path="url(#p790e5e8974)" style="fill: #440154"/>
    <path d="M 229.371429 67.68 
L 245.314286 67.68 
L 245.314286 51.84 
L 229.371429 51.84 
L 229.371429 67.68 
" clip-path="url(#p790e5e8974)" style="fill: #440154"/>
    <path d="M 245.314286 67.68 
L 261.257143 67.68 
L 261.257143 51.84 
L 245.314286 51.84 
L 245.314286 67.68 
" clip-path="url(#p790e5e8974)" style="fill: #440154"/>
    <path d="M 261.257143 67.68 
L 277.2 67.68 
L 277.2 51.84 
L 261.257143 51.84 
L 261.257143 67.68 
" clip-path="url(#p790e5e8974)" style="fill: #440154"/>
    <path d="M 277.2 67.68 
L 293.142857 67.68 
L 293.142857 51.84 
L 277.2 51.84 
L 277.2 67.68 
" clip-path="url(#p790e5e8974)" style="fill: #440154"/>
    <path d="M 293.142857 67.68 
L 309.085714 67.68 
L 309.085714 51.84 
L 293.142857 51.84 
L 293.142857 67.68 
" clip-path="url(#p790e5e8974)" style="fill: #440154"/>
    <path d="M 309.085714 67.68 
L 325.028571 67.68 
L 325.028571 51.84 
L 309.085714 51.84 
L 309.085714 67.68 
" clip-path="url(#p790e5e8974)" style="fill: #440154"/>
    <path d="M 325.028571 67.68 
L 340.971429 67.68 
L 340.971429 51.84 
L 325.028571 51.84 
L 325.028571 67.68 
" clip-path="url(#p790e5e8974)" style="fill: #440154"/>
    <path d="M 340.971429 67.68 
L 356.914286 67.68 
L 356.914286 51.84 
L 340.971429 51.84 
L 340.971429 67.68 
" clip-path="url(#p790e5e8974)" style="fill: #440154"/>
    <path d="M 356.914286 67.68 
L 372.857143 67.68 
L 372.857143 51.84 
L 356.914286 51.84 
L 356.914286 67.68 
" clip-path="url(#p790e5e8974)" style="fill: #440154"/>
    <path d="M 372.857143 67.68 
L 388.8 67.68 
L 388.8 51.84 
L 372.857143 51.84 
L 372.857143 67.68 
" clip-path="url(#p790e5e8974)" style="fill: #440154"/>
   </g>
   <g id="PathCollection_1">
    <defs>
     <path id="me860d128c6" d="M -4.472136 4.472136 
L 4.472136 -4.472136 
M -4.472136 -4.472136 
L 4.472136 4.472136 
" style="stroke: #1f77b4; stroke-width: 1.5"/>
    </defs>
    <g clip-path="url(#p790e5e8974)">
     <use xlink:href="#me860d128c6" x="317.057143" y="138.96" style="fill: #1f77b4; stroke: #1f77b4; stroke-width: 1.5"/>
     <use xlink:href="#me860d128c6" x="157.628571" y="313.2" style="fill: #1f77b4; stroke: #1f77b4; stroke-width: 1.5"/>
     <use xlink:href="#me860d128c6" x="285.171429" y="91.44" style="fill: #1f77b4; stroke: #1f77b4; stroke-width: 1.5"/>
     <use xlink:href="#me860d128c6" x="77.914286" y="360.72" style="fill: #1f77b4; stroke: #1f77b4; stroke-width: 1.5"/>
     <use xlink:href="#me860d128c6" x="364.885714" y="59.76" style="fill: #1f77b4; stroke: #1f77b4; stroke-width: 1.5"/>
    </g>
   </g>
   <g id="matplotlib.axis_1">
    <g id="xtick_1">
     <g id="line2d_1">
      <defs>
       <path id="mb1f63ad634" d="M 0 0 
L 0 3.5 
" style="stroke: #000000; stroke-width: 0.8"/>
      </defs>
      <g>
       <use xlink:href="#mb1f63ad634" x="61.971429" y="384.48" style="stroke: #000000; stroke-width: 0.8"/>
      </g>
     </g>
     <g id="text_1">
      <!-- 0 -->
      <g transform="translate(58.790179 399.078438) scale(0.1 -0.1)">
       <defs>
        <path id="DejaVuSans-30" d="M 2034 4250 
Q 1547 4250 1301 3770 
Q 1056 3291 1056 2328 
Q 1056 1369 1301 889 
Q 1547 409 2034 409 
Q 2525 409 2770 889 
Q 3016 1369 3016 2328 
Q 3016 3291 2770 3770 
Q 2525 4250 2034 4250 
z
M 2034 4750 
Q 2819 4750 3233 4129 
Q 3647 3509 3647 2328 
Q 3647 1150 3233 529 
Q 2819 -91 2034 -91 
Q 1250 -91 836 529 
Q 422 1150 422 2328 
Q 422 3509 836 4129 
Q 1250 4750 2034 4750 
z
" transform="scale(0.015625)"/>
       </defs>
       <use xlink:href="#DejaVuSans-30"/>
      </g>
     </g>
    </g>
    <g id="xtick_2">
     <g id="line2d_2">
      <g>
       <use xlink:href="#mb1f63ad634" x="125.742857" y="384.48" style="stroke: #000000; stroke-width: 0.8"/>
      </g>
     </g>
     <g id="text_2">
      <!-- 2 -->
      <g transform="translate(122.561607 399.078438) scale(0.1 -0.1)">
       <defs>
        <path id="DejaVuSans-32" d="M 1228 531 
L 3431 531 
L 3431 0 
L 469 0 
L 469 531 
Q 828 903 1448 1529 
Q 2069 2156 2228 2338 
Q 2531 2678 2651 2914 
Q 2772 3150 2772 3378 
Q 2772 3750 2511 3984 
Q 2250 4219 1831 4219 
Q 1534 4219 1204 4116 
Q 875 4013 500 3803 
L 500 4441 
Q 881 4594 1212 4672 
Q 1544 4750 1819 4750 
Q 2544 4750 2975 4387 
Q 3406 4025 3406 3419 
Q 3406 3131 3298 2873 
Q 3191 2616 2906 2266 
Q 2828 2175 2409 1742 
Q 1991 1309 1228 531 
z
" transform="scale(0.015625)"/>
       </defs>
       <use xlink:href="#DejaVuSans-32"/>
      </g>
     </g>
    </g>
    <g id="xtick_3">
     <g id="line2d_3">
      <g>
       <use xlink:href="#mb1f63ad634" x="189.514286" y="384.48" style="stroke: #000000; stroke-width: 0.8"/>
      </g>
     </g>
     <g id="text_3">
      <!-- 4 -->
      <g transform="translate(186.333036 399.078438) scale(0.1 -0.1)">
       <defs>
        <path id="DejaVuSans-34" d="M 2419 4116 
L 825 1625 
L 2419 1625 
L 2419 4116 
z
M 2253 4666 
L 3047 4666 
L 3047 1625 
L 3713 1625 
L 3713 1100 
L 3047 1100 
L 3047 0 
L 2419 0 
L 2419 1100 
L 313 1100 
L 313 1709 
L 2253 4666 
z
" transform="scale(0.015625)"/>
       </defs>
       <use xlink:href="#DejaVuSans-34"/>
      </g>
     </g>
    </g>
    <g id="xtick_4">
     <g id="line2d_4">
      <g>
       <use xlink:href="#mb1f63ad634" x="253.285714" y="384.48" style="stroke: #000000; stroke-width: 0.8"/>
      </g>
     </g>
     <g id="text_4">
      <!-- 6 -->
      <g transform="translate(250.104464 399.078438) scale(0.1 -0.1)">
       <defs>
        <path id="DejaVuSans-36" d="M 2113 2584 
Q 1688 2584 1439 2293 
Q 1191 2003 1191 1497 
Q 1191 994 1439 701 
Q 1688 409 2113 409 
Q 2538 409 2786 701 
Q 3034 994 3034 1497 
Q 3034 2003 2786 2293 
Q 2538 2584 2113 2584 
z
M 3366 4563 
L 3366 3988 
Q 3128 4100 2886 4159 
Q 2644 4219 2406 4219 
Q 1781 4219 1451 3797 
Q 1122 3375 1075 2522 
Q 1259 2794 1537 2939 
Q 1816 3084 2150 3084 
Q 2853 3084 3261 2657 
Q 3669 2231 3669 1497 
Q 3669 778 3244 343 
Q 2819 -91 2113 -91 
Q 1303 -91 875 529 
Q 447 1150 447 2328 
Q 447 3434 972 4092 
Q 1497 4750 2381 4750 
Q 2619 4750 2861 4703 
Q 3103 4656 3366 4563 
z
" transform="scale(0.015625)"/>
       </defs>
       <use xlink:href="#DejaVuSans-36"/>
      </g>
     </g>
    </g>
    <g id="xtick_5">
     <g id="line2d_5">
      <g>
       <use xlink:href="#mb1f63ad634" x="317.057143" y="384.48" style="stroke: #000000; stroke-width: 0.8"/>
      </g>
     </g>
     <g id="text_5">
      <!-- 8 -->
      <g transform="translate(313.875893 399.078438) scale(0.1 -0.1)">
       <defs>
        <path id="DejaVuSans-38" d="M 2034 2216 
Q 1584 2216 1326 1975 
Q 1069 1734 1069 1313 
Q 1069 891 1326 650 
Q 1584 409 2034 409 
Q 2484 409 2743 651 
Q 3003 894 3003 1313 
Q 3003 1734 2745 1975 
Q 2488 2216 2034 2216 
z
M 1403 2484 
Q 997 2584 770 2862 
Q 544 3141 544 3541 
Q 544 4100 942 4425 
Q 1341 4750 2034 4750 
Q 2731 4750 3128 4425 
Q 3525 4100 3525 3541 
Q 3525 3141 3298 2862 
Q 3072 2584 2669 2484 
Q 3125 2378 3379 2068 
Q 3634 1759 3634 1313 
Q 3634 634 3220 271 
Q 2806 -91 2034 -91 
Q 1263 -91 848 271 
Q 434 634 434 1313 
Q 434 1759 690 2068 
Q 947 2378 1403 2484 
z
M 1172 3481 
Q 1172 3119 1398 2916 
Q 1625 2713 2034 2713 
Q 2441 2713 2670 2916 
Q 2900 3119 2900 3481 
Q 2900 3844 2670 4047 
Q 2441 4250 2034 4250 
Q 1625 4250 1398 4047 
Q 1172 3844 1172 3481 
z
" transform="scale(0.015625)"/>
       </defs>
       <use xlink:href="#DejaVuSans-38"/>
      </g>
     </g>
    </g>
    <g id="xtick_6">
     <g id="line2d_6">
      <g>
       <use xlink:href="#mb1f63ad634" x="380.828571" y="384.48" style="stroke: #000000; stroke-width: 0.8"/>
      </g>
     </g>
     <g id="text_6">
      <!-- 10 -->
      <g transform="translate(374.466071 399.078438) scale(0.1 -0.1)">
       <defs>
        <path id="DejaVuSans-31" d="M 794 531 
L 1825 531 
L 1825 4091 
L 703 3866 
L 703 4441 
L 1819 4666 
L 2450 4666 
L 2450 531 
L 3481 531 
L 3481 0 
L 794 0 
L 794 531 
z
" transform="scale(0.015625)"/>
       </defs>
       <use xlink:href="#DejaVuSans-31"/>
       <use xlink:href="#DejaVuSans-30" x="63.623047"/>
      </g>
     </g>
    </g>
    <g id="text_7">
     <!-- L initial -->
     <g transform="translate(203.275781 412.756563) scale(0.1 -0.1)">
      <defs>
       <path id="DejaVuSans-4c" d="M 628 4666 
L 1259 4666 
L 1259 531 
L 3531 531 
L 3531 0 
L 628 0 
L 628 4666 
z
" transform="scale(0.015625)"/>
       <path id="DejaVuSans-20" transform="scale(0.015625)"/>
       <path id="DejaVuSans-69" d="M 603 3500 
L 1178 3500 
L 1178 0 
L 603 0 
L 603 3500 
z
M 603 4863 
L 1178 4863 
L 1178 4134 
L 603 4134 
L 603 4863 
z
" transform="scale(0.015625)"/>
       <path id="DejaVuSans-6e" d="M 3513 2113 
L 3513 0 
L 2938 0 
L 2938 2094 
Q 2938 2591 2744 2837 
Q 2550 3084 2163 3084 
Q 1697 3084 1428 2787 
Q 1159 2491 1159 1978 
L 1159 0 
L 581 0 
L 581 3500 
L 1159 3500 
L 1159 2956 
Q 1366 3272 1645 3428 
Q 1925 3584 2291 3584 
Q 2894 3584 3203 3211 
Q 3513 2838 3513 2113 
z
" transform="scale(0.015625)"/>
       <path id="DejaVuSans-74" d="M 1172 4494 
L 1172 3500 
L 2356 3500 
L 2356 3053 
L 1172 3053 
L 1172 1153 
Q 1172 725 1289 603 
Q 1406 481 1766 481 
L 2356 481 
L 2356 0 
L 1766 0 
Q 1100 0 847 248 
Q 594 497 594 1153 
L 594 3053 
L 172 3053 
L 172 3500 
L 594 3500 
L 594 4494 
L 1172 4494 
z
" transform="scale(0.015625)"/>
       <path id="DejaVuSans-61" d="M 2194 1759 
Q 1497 1759 1228 1600 
Q 959 1441 959 1056 
Q 959 750 1161 570 
Q 1363 391 1709 391 
Q 2188 391 2477 730 
Q 2766 1069 2766 1631 
L 2766 1759 
L 2194 1759 
z
M 3341 1997 
L 3341 0 
L 2766 0 
L 2766 531 
Q 2569 213 2275 61 
Q 1981 -91 1556 -91 
Q 1019 -91 701 211 
Q 384 513 384 1019 
Q 384 1609 779 1909 
Q 1175 2209 1959 2209 
L 2766 2209 
L 2766 2266 
Q 2766 2663 2505 2880 
Q 2244 3097 1772 3097 
Q 1472 3097 1187 3025 
Q 903 2953 641 2809 
L 641 3341 
Q 956 3463 1253 3523 
Q 1550 3584 1831 3584 
Q 2591 3584 2966 3190 
Q 3341 2797 3341 1997 
z
" transform="scale(0.015625)"/>
       <path id="DejaVuSans-6c" d="M 603 4863 
L 1178 4863 
L 1178 0 
L 603 0 
L 603 4863 
z
" transform="scale(0.015625)"/>
      </defs>
      <use xlink:href="#DejaVuSans-4c"/>
      <use xlink:href="#DejaVuSans-20" x="55.712891"/>
      <use xlink:href="#DejaVuSans-69" x="87.5"/>
      <use xlink:href="#DejaVuSans-6e" x="115.283203"/>
      <use xlink:href="#DejaVuSans-69" x="178.662109"/>
      <use xlink:href="#DejaVuSans-74" x="206.445312"/>
      <use xlink:href="#DejaVuSans-69" x="245.654297"/>
      <use xlink:href="#DejaVuSans-61" x="273.4375"/>
      <use xlink:href="#DejaVuSans-6c" x="334.716797"/>
     </g>
    </g>
   </g>
   <g id="matplotlib.axis_2">
    <g id="ytick_1">
     <g id="line2d_7">
      <defs>
       <path id="mcb6234ca02" d="M 0 0 
L -3.5 0 
" style="stroke: #000000; stroke-width: 0.8"/>
      </defs>
      <g>
       <use xlink:href="#mcb6234ca02" x="54" y="376.56" style="stroke: #000000; stroke-width: 0.8"/>
      </g>
     </g>
     <g id="text_8">
      <!-- 0 -->
      <g transform="translate(40.6375 380.359219) scale(0.1 -0.1)">
       <use xlink:href="#DejaVuSans-30"/>
      </g>
     </g>
    </g>
    <g id="ytick_2">
     <g id="line2d_8">
      <g>
       <use xlink:href="#mcb6234ca02" x="54" y="313.2" style="stroke: #000000; stroke-width: 0.8"/>
      </g>
     </g>
     <g id="text_9">
      <!-- 2 -->
      <g transform="translate(40.6375 316.999219) scale(0.1 -0.1)">
       <use xlink:href="#DejaVuSans-32"/>
      </g>
     </g>
    </g>
    <g id="ytick_3">
     <g id="line2d_9">
      <g>
       <use xlink:href="#mcb6234ca02" x="54" y="249.84" style="stroke: #000000; stroke-width: 0.8"/>
      </g>
     </g>
     <g id="text_10">
      <!-- 4 -->
      <g transform="translate(40.6375 253.639219) scale(0.1 -0.1)">
       <use xlink:href="#DejaVuSans-34"/>
      </g>
     </g>
    </g>
    <g id="ytick_4">
     <g id="line2d_10">
      <g>
       <use xlink:href="#mcb6234ca02" x="54" y="186.48" style="stroke: #000000; stroke-width: 0.8"/>
      </g>
     </g>
     <g id="text_11">
      <!-- 6 -->
      <g transform="translate(40.6375 190.279219) scale(0.1 -0.1)">
       <use xlink:href="#DejaVuSans-36"/>
      </g>
     </g>
    </g>
    <g id="ytick_5">
     <g id="line2d_11">
      <g>
       <use xlink:href="#mcb6234ca02" x="54" y="123.12" style="stroke: #000000; stroke-width: 0.8"/>
      </g>
     </g>
     <g id="text_12">
      <!-- 8 -->
      <g transform="translate(40.6375 126.919219) scale(0.1 -0.1)">
       <use xlink:href="#DejaVuSans-38"/>
      </g>
     </g>
    </g>
    <g id="ytick_6">
     <g id="line2d_12">
      <g>
       <use xlink:href="#mcb6234ca02" x="54" y="59.76" style="stroke: #000000; stroke-width: 0.8"/>
      </g>
     </g>
     <g id="text_13">
      <!-- 10 -->
      <g transform="translate(34.275 63.559219) scale(0.1 -0.1)">
       <use xlink:href="#DejaVuSans-31"/>
       <use xlink:href="#DejaVuSans-30" x="63.623047"/>
      </g>
     </g>
    </g>
    <g id="text_14">
     <!-- C initial -->
     <g transform="translate(28.195312 236.989687) rotate(-90) scale(0.1 -0.1)">
      <defs>
       <path id="DejaVuSans-43" d="M 4122 4306 
L 4122 3641 
Q 3803 3938 3442 4084 
Q 3081 4231 2675 4231 
Q 1875 4231 1450 3742 
Q 1025 3253 1025 2328 
Q 1025 1406 1450 917 
Q 1875 428 2675 428 
Q 3081 428 3442 575 
Q 3803 722 4122 1019 
L 4122 359 
Q 3791 134 3420 21 
Q 3050 -91 2638 -91 
Q 1578 -91 968 557 
Q 359 1206 359 2328 
Q 359 3453 968 4101 
Q 1578 4750 2638 4750 
Q 3056 4750 3426 4639 
Q 3797 4528 4122 4306 
z
" transform="scale(0.015625)"/>
      </defs>
      <use xlink:href="#DejaVuSans-43"/>
      <use xlink:href="#DejaVuSans-20" x="69.824219"/>
      <use xlink:href="#DejaVuSans-69" x="101.611328"/>
      <use xlink:href="#DejaVuSans-6e" x="129.394531"/>
      <use xlink:href="#DejaVuSans-69" x="192.773438"/>
      <use xlink:href="#DejaVuSans-74" x="220.556641"/>
      <use xlink:href="#DejaVuSans-69" x="259.765625"/>
      <use xlink:href="#DejaVuSans-61" x="287.548828"/>
      <use xlink:href="#DejaVuSans-6c" x="348.828125"/>
     </g>
    </g>
   </g>
   <g id="patch_3">
    <path d="M 54 384.48 
L 54 51.84 
" style="fill: none; stroke: #000000; stroke-width: 0.8; stroke-linejoin: miter; stroke-linecap: square"/>
   </g>
   <g id="patch_4">
    <path d="M 388.8 384.48 
L 388.8 51.84 
" style="fill: none; stroke: #000000; stroke-width: 0.8; stroke-linejoin: miter; stroke-linecap: square"/>
   </g>
   <g id="patch_5">
    <path d="M 54 384.48 
L 388.8 384.48 
" style="fill: none; stroke: #000000; stroke-width: 0.8; stroke-linejoin: miter; stroke-linecap: square"/>
   </g>
   <g id="patch_6">
    <path d="M 54 51.84 
L 388.8 51.84 
" style="fill: none; stroke: #000000; stroke-width: 0.8; stroke-linejoin: miter; stroke-linecap: square"/>
   </g>
   <g id="text_15">
    <!-- Basins of attraction (initial L vs C, fixed S=3) -->
    <g transform="translate(86.935313 45.84) scale(0.12 -0.12)">
     <defs>
      <path id="DejaVuSans-42" d="M 1259 2228 
L 1259 519 
L 2272 519 
Q 2781 519 3026 730 
Q 3272 941 3272 1375 
Q 3272 1813 3026 2020 
Q 2781 2228 2272 2228 
L 1259 2228 
z
M 1259 4147 
L 1259 2741 
L 2194 2741 
Q 2656 2741 2882 2914 
Q 3109 3088 3109 3444 
Q 3109 3797 2882 3972 
Q 2656 4147 2194 4147 
L 1259 4147 
z
M 628 4666 
L 2241 4666 
Q 2963 4666 3353 4366 
Q 3744 4066 3744 3513 
Q 3744 3084 3544 2831 
Q 3344 2578 2956 2516 
Q 3422 2416 3680 2098 
Q 3938 1781 3938 1306 
Q 3938 681 3513 340 
Q 3088 0 2303 0 
L 628 0 
L 628 4666 
z
" transform="scale(0.015625)"/>
      <path id="DejaVuSans-73" d="M 2834 3397 
L 2834 2853 
Q 2591 2978 2328 3040 
Q 2066 3103 1784 3103 
Q 1356 3103 1142 2972 
Q 928 2841 928 2578 
Q 928 2378 1081 2264 
Q 1234 2150 1697 2047 
L 1894 2003 
Q 2506 1872 2764 1633 
Q 3022 1394 3022 966 
Q 3022 478 2636 193 
Q 2250 -91 1575 -91 
Q 1294 -91 989 -36 
Q 684 19 347 128 
L 347 722 
Q 666 556 975 473 
Q 1284 391 1588 391 
Q 1994 391 2212 530 
Q 2431 669 2431 922 
Q 2431 1156 2273 1281 
Q 2116 1406 1581 1522 
L 1381 1569 
Q 847 1681 609 1914 
Q 372 2147 372 2553 
Q 372 3047 722 3315 
Q 1072 3584 1716 3584 
Q 2034 3584 2315 3537 
Q 2597 3491 2834 3397 
z
" transform="scale(0.015625)"/>
      <path id="DejaVuSans-6f" d="M 1959 3097 
Q 1497 3097 1228 2736 
Q 959 2375 959 1747 
Q 959 1119 1226 758 
Q 1494 397 1959 397 
Q 2419 397 2687 759 
Q 2956 1122 2956 1747 
Q 2956 2369 2687 2733 
Q 2419 3097 1959 3097 
z
M 1959 3584 
Q 2709 3584 3137 3096 
Q 3566 2609 3566 1747 
Q 3566 888 3137 398 
Q 2709 -91 1959 -91 
Q 1206 -91 779 398 
Q 353 888 353 1747 
Q 353 2609 779 3096 
Q 1206 3584 1959 3584 
z
" transform="scale(0.015625)"/>
      <path id="DejaVuSans-66" d="M 2375 4863 
L 2375 4384 
L 1825 4384 
Q 1516 4384 1395 4259 
Q 1275 4134 1275 3809 
L 1275 3500 
L 2222 3500 
L 2222 3053 
L 1275 3053 
L 1275 0 
L 697 0 
L 697 3053 
L 147 3053 
L 147 3500 
L 697 3500 
L 697 3744 
Q 697 4328 969 4595 
Q 1241 4863 1831 4863 
L 2375 4863 
z
" transform="scale(0.015625)"/>
      <path id="DejaVuSans-72" d="M 2631 2963 
Q 2534 3019 2420 3045 
Q 2306 3072 2169 3072 
Q 1681 3072 1420 2755 
Q 1159 2438 1159 1844 
L 1159 0 
L 581 0 
L 581 3500 
L 1159 3500 
L 1159 2956 
Q 1341 3275 1631 3429 
Q 1922 3584 2338 3584 
Q 2397 3584 2469 3576 
Q 2541 3569 2628 3553 
L 2631 2963 
z
" transform="scale(0.015625)"/>
      <path id="DejaVuSans-63" d="M 3122 3366 
L 3122 2828 
Q 2878 2963 2633 3030 
Q 2388 3097 2138 3097 
Q 1578 3097 1268 2742 
Q 959 2388 959 1747 
Q 959 1106 1268 751 
Q 1578 397 2138 397 
Q 2388 397 2633 464 
Q 2878 531 3122 666 
L 3122 134 
Q 2881 22 2623 -34 
Q 2366 -91 2075 -91 
Q 1284 -91 818 406 
Q 353 903 353 1747 
Q 353 2603 823 3093 
Q 1294 3584 2113 3584 
Q 2378 3584 2631 3529 
Q 2884 3475 3122 3366 
z
" transform="scale(0.015625)"/>
      <path id="DejaVuSans-28" d="M 1984 4856 
Q 1566 4138 1362 3434 
Q 1159 2731 1159 2009 
Q 1159 1288 1364 580 
Q 1569 -128 1984 -844 
L 1484 -844 
Q 1016 -109 783 600 
Q 550 1309 550 2009 
Q 550 2706 781 3412 
Q 1013 4119 1484 4856 
L 1984 4856 
z
" transform="scale(0.015625)"/>
      <path id="DejaVuSans-76" d="M 191 3500 
L 800 3500 
L 1894 563 
L 2988 3500 
L 3597 3500 
L 2284 0 
L 1503 0 
L 191 3500 
z
" transform="scale(0.015625)"/>
      <path id="DejaVuSans-2c" d="M 750 794 
L 1409 794 
L 1409 256 
L 897 -744 
L 494 -744 
L 750 256 
L 750 794 
z
" transform="scale(0.015625)"/>
      <path id="DejaVuSans-78" d="M 3513 3500 
L 2247 1797 
L 3578 0 
L 2900 0 
L 1881 1375 
L 863 0 
L 184 0 
L 1544 1831 
L 300 3500 
L 978 3500 
L 1906 2253 
L 2834 3500 
L 3513 3500 
z
" transform="scale(0.015625)"/>
      <path id="DejaVuSans-65" d="M 3597 1894 
L 3597 1613 
L 953 1613 
Q 991 1019 1311 708 
Q 1631 397 2203 397 
Q 2534 397 2845 478 
Q 3156 559 3463 722 
L 3463 178 
Q 3153 47 2828 -22 
Q 2503 -91 2169 -91 
Q 1331 -91 842 396 
Q 353 884 353 1716 
Q 353 2575 817 3079 
Q 1281 3584 2069 3584 
Q 2775 3584 3186 3129 
Q 3597 2675 3597 1894 
z
M 3022 2063 
Q 3016 2534 2758 2815 
Q 2500 3097 2075 3097 
Q 1594 3097 1305 2825 
Q 1016 2553 972 2059 
L 3022 2063 
z
" transform="scale(0.015625)"/>
      <path id="DejaVuSans-64" d="M 2906 2969 
L 2906 4863 
L 3481 4863 
L 3481 0 
L 2906 0 
L 2906 525 
Q 2725 213 2448 61 
Q 2172 -91 1784 -91 
Q 1150 -91 751 415 
Q 353 922 353 1747 
Q 353 2572 751 3078 
Q 1150 3584 1784 3584 
Q 2172 3584 2448 3432 
Q 2725 3281 2906 2969 
z
M 947 1747 
Q 947 1113 1208 752 
Q 1469 391 1925 391 
Q 2381 391 2643 752 
Q 2906 1113 2906 1747 
Q 2906 2381 2643 2742 
Q 2381 3103 1925 3103 
Q 1469 3103 1208 2742 
Q 947 2381 947 1747 
z
" transform="scale(0.015625)"/>
      <path id="DejaVuSans-53" d="M 3425 4513 
L 3425 3897 
Q 3066 4069 2747 4153 
Q 2428 4238 2131 4238 
Q 1616 4238 1336 4038 
Q 1056 3838 1056 3469 
Q 1056 3159 1242 3001 
Q 1428 2844 1947 2747 
L 2328 2669 
Q 3034 2534 3370 2195 
Q 3706 1856 3706 1288 
Q 3706 609 3251 259 
Q 2797 -91 1919 -91 
Q 1588 -91 1214 -16 
Q 841 59 441 206 
L 441 856 
Q 825 641 1194 531 
Q 1563 422 1919 422 
Q 2459 422 2753 634 
Q 3047 847 3047 1241 
Q 3047 1584 2836 1778 
Q 2625 1972 2144 2069 
L 1759 2144 
Q 1053 2284 737 2584 
Q 422 2884 422 3419 
Q 422 4038 858 4394 
Q 1294 4750 2059 4750 
Q 2388 4750 2728 4690 
Q 3069 4631 3425 4513 
z
" transform="scale(0.015625)"/>
      <path id="DejaVuSans-3d" d="M 678 2906 
L 4684 2906 
L 4684 2381 
L 678 2381 
L 678 2906 
z
M 678 1631 
L 4684 1631 
L 4684 1100 
L 678 1100 
L 678 1631 
z
" transform="scale(0.015625)"/>
      <path id="DejaVuSans-33" d="M 2597 2516 
Q 3050 2419 3304 2112 
Q 3559 1806 3559 1356 
Q 3559 666 3084 287 
Q 2609 -91 1734 -91 
Q 1441 -91 1130 -33 
Q 819 25 488 141 
L 488 750 
Q 750 597 1062 519 
Q 1375 441 1716 441 
Q 2309 441 2620 675 
Q 2931 909 2931 1356 
Q 2931 1769 2642 2001 
Q 2353 2234 1838 2234 
L 1294 2234 
L 1294 2753 
L 1863 2753 
Q 2328 2753 2575 2939 
Q 2822 3125 2822 3475 
Q 2822 3834 2567 4026 
Q 2313 4219 1838 4219 
Q 1578 4219 1281 4162 
Q 984 4106 628 3988 
L 628 4550 
Q 988 4650 1302 4700 
Q 1616 4750 1894 4750 
Q 2613 4750 3031 4423 
Q 3450 4097 3450 3541 
Q 3450 3153 3228 2886 
Q 3006 2619 2597 2516 
z
" transform="scale(0.015625)"/>
      <path id="DejaVuSans-29" d="M 513 4856 
L 1013 4856 
Q 1481 4119 1714 3412 
Q 1947 2706 1947 2009 
Q 1947 1309 1714 600 
Q 1481 -109 1013 -844 
L 513 -844 
Q 928 -128 1133 580 
Q 1338 1288 1338 2009 
Q 1338 2731 1133 3434 
Q 928 4138 513 4856 
z
" transform="scale(0.015625)"/>
     </defs>
     <use xlink:href="#DejaVuSans-42"/>
     <use xlink:href="#DejaVuSans-61" x="68.603516"/>
     <use xlink:href="#DejaVuSans-73" x="129.882812"/>
     <use xlink:href="#DejaVuSans-69" x="181.982422"/>
     <use xlink:href="#DejaVuSans-6e" x="209.765625"/>
     <use xlink:href="#DejaVuSans-73" x="273.144531"/>
     <use xlink:href="#DejaVuSans-20" x="325.244141"/>
     <use xlink:href="#DejaVuSans-6f" x="357.03125"/>
     <use xlink:href="#DejaVuSans-66" x="418.212891"/>
     <use xlink:href="#DejaVuSans-20" x="453.417969"/>
     <use xlink:href="#DejaVuSans-61" x="485.205078"/>
     <use xlink:href="#DejaVuSans-74" x="546.484375"/>
     <use xlink:href="#DejaVuSans-74" x="585.693359"/>
     <use xlink:href="#DejaVuSans-72" x="624.902344"/>
     <use xlink:href="#DejaVuSans-61" x="666.015625"/>
     <use xlink:href="#DejaVuSans-63" x="727.294922"/>
     <use xlink:href="#DejaVuSans-74" x="782.275391"/>
     <use xlink:href="#DejaVuSans-69" x="821.484375"/>
     <use xlink:href="#DejaVuSans-6f" x="849.267578"/>
     <use xlink:href="#DejaVuSans-6e" x="910.449219"/>
     <use xlink:href="#DejaVuSans-20" x="973.828125"/>
     <use xlink:href="#DejaVuSans-28" x="1005.615234"/>
     <use xlink:href="#DejaVuSans-69" x="1044.628906"/>
     <use xlink:href="#DejaVuSans-6e" x="1072.412109"/>
     <use xlink:href="#DejaVuSans-69" x="1135.791016"/>
     <use xlink:href="#DejaVuSans-74" x="1163.574219"/>
     <use xlink:href="#DejaVuSans-69" x="1202.783203"/>
     <use xlink:href="#DejaVuSans-61" x="1230.566406"/>
     <use xlink:href="#DejaVuSans-6c" x="1291.845703"/>
     <use xlink:href="#DejaVuSans-20" x="1319.628906"/>
     <use xlink:href="#DejaVuSans-4c" x="1351.416016"/>
     <use xlink:href="#DejaVuSans-20" x="1407.128906"/>
     <use xlink:href="#DejaVuSans-76" x="1438.916016"/>
     <use xlink:href="#DejaVuSans-73" x="1498.095703"/>
     <use xlink:href="#DejaVuSans-20" x="1550.195312"/>
     <use xlink:href="#DejaVuSans-43" x="1581.982422"/>
     <use xlink:href="#DejaVuSans-2c" x="1651.806641"/>
     <use xlink:href="#DejaVuSans-20" x="1683.59375"/>
     <use xlink:href="#DejaVuSans-66" x="1715.380859"/>
     <use xlink:href="#DejaVuSans-69" x="1750.585938"/>
     <use xlink:href="#DejaVuSans-78" x="1778.369141"/>
     <use xlink:href="#DejaVuSans-65" x="1834.423828"/>
     <use xlink:href="#DejaVuSans-64" x="1895.947266"/>
     <use xlink:href="#DejaVuSans-20" x="1959.423828"/>
     <use xlink:href="#DejaVuSans-53" x="1991.210938"/>
     <use xlink:href="#DejaVuSans-3d" x="2054.6875"/>
     <use xlink:href="#DejaVuSans-33" x="2138.476562"/>
     <use xlink:href="#DejaVuSans-29" x="2202.099609"/>
    </g>
   </g>
  </g>
 </g>
 <defs>
  <clipPath id="p790e5e8974">
   <rect x="54" y="51.84" width="334.8" height="332.64"/>
  </clipPath>
 </defs>
</svg>
