<?xml version="1.0" encoding="utf-8" standalone="no"?>
<!DOCTYPE svg PUBLIC "-//W3C//DTD SVG 1.1//EN"
  "http://www.w3.org/Graphics/SVG/1.1/DTD/svg11.dtd">
<svg xmlns:xlink="http://www.w3.org/1999/xlink" width="576pt" height="288pt" viewBox="0 0 576 288" xmlns="http://www.w3.org/2000/svg" version="1.1">
 <metadata>
  <rdf:RDF xmlns:dc="http://purl.org/dc/elements/1.1/" xmlns:cc="http://creativecommons.org/ns#" xmlns:rdf="http://www.w3.org/1999/02/22-rdf-syntax-ns#">
   <cc:Work>
    <dc:type rdf:resource="http://purl.org/dc/dcmitype/StillImage"/>
    <dc:date>2025-12-31T13:09:16.500792</dc:date>
    <dc:format>image/svg+xml</dc:format>
    <dc:creator>
     <cc:Agent>
      <dc:title>Matplotlib v3.7.5, https://matplotlib.org/</dc:title>
     </cc:Agent>
    </dc:creator>
   </cc:Work>
  </rdf:RDF>
 </metadata>
 <defs>
  <style type="text/css">*{stroke-linejoin: round; stroke-linecap: butt}</style>
 </defs>
 <g id="figure_1">
  <g id="patch_1">
   <path d="M 0 288 
L 576 288 
L 576 0 
L 0 0 
z
" style="fill: #ffffff"/>
  </g>
  <g id="axes_1">
   <g id="patch_2">
    <path d="M 72 256.32 
L 518.4 256.32 
L 518.4 34.56 
L 72 34.56 
z
" style="fill: #ffffff"/>
   </g>
   <g id="matplotlib.axis_1">
    <g id="xtick_1">
     <g id="line2d_1">
      <path d="M 92.290909 256.32 
L 92.290909 34.56 
" clip-path="url(#p20536a974c)" style="fill: none; stroke: #b0b0b0; stroke-opacity: 0.3; stroke-width: 0.8; stroke-linecap: square"/>
     </g>
     <g id="line2d_2">
      <defs>
       <path id="mabf1cbeedb" d="M 0 0 
L 0 3.5 
" style="stroke: #000000; stroke-width: 0.8"/>
      </defs>
      <g>
       <use xlink:href="#mabf1cbeedb" x="92.290909" y="256.32" style="stroke: #000000; stroke-width: 0.8"/>
      </g>
     </g>
     <g id="text_1">
      <!-- 0 -->
      <g transform="translate(89.109659 270.918437) scale(0.1 -0.1)">
       <defs>
        <path id="DejaVuSans-30" d="M 2034 4250 
Q 1547 4250 1301 3770 
Q 1056 3291 1056 2328 
Q 1056 1369 1301 889 
Q 1547 409 2034 409 
Q 2525 409 2770 889 
Q 3016 1369 3016 2328 
Q 3016 3291 2770 3770 
Q 2525 4250 2034 4250 
z
M 2034 4750 
Q 2819 4750 3233 4129 
Q 3647 3509 3647 2328 
Q 3647 1150 3233 529 
Q 2819 -91 2034 -91 
Q 1250 -91 836 529 
Q 422 1150 422 2328 
Q 422 3509 836 4129 
Q 1250 4750 2034 4750 
z
" transform="scale(0.015625)"/>
       </defs>
       <use xlink:href="#DejaVuSans-30"/>
      </g>
     </g>
    </g>
    <g id="xtick_2">
     <g id="line2d_3">
      <path d="M 148.654545 256.32 
L 148.654545 34.56 
" clip-path="url(#p20536a974c)" style="fill: none; stroke: #b0b0b0; stroke-opacity: 0.3; stroke-width: 0.8; stroke-linecap: square"/>
     </g>
     <g id="line2d_4">
      <g>
       <use xlink:href="#mabf1cbeedb" x="148.654545" y="256.32" style="stroke: #000000; stroke-width: 0.8"/>
      </g>
     </g>
     <g id="text_2">
      <!-- 25 -->
      <g transform="translate(142.292045 270.918437) scale(0.1 -0.1)">
       <defs>
        <path id="DejaVuSans-32" d="M 1228 531 
L 3431 531 
L 3431 0 
L 469 0 
L 469 531 
Q 828 903 1448 1529 
Q 2069 2156 2228 2338 
Q 2531 2678 2651 2914 
Q 2772 3150 2772 3378 
Q 2772 3750 2511 3984 
Q 2250 4219 1831 4219 
Q 1534 4219 1204 4116 
Q 875 4013 500 3803 
L 500 4441 
Q 881 4594 1212 4672 
Q 1544 4750 1819 4750 
Q 2544 4750 2975 4387 
Q 3406 4025 3406 3419 
Q 3406 3131 3298 2873 
Q 3191 2616 2906 2266 
Q 2828 2175 2409 1742 
Q 1991 1309 1228 531 
z
" transform="scale(0.015625)"/>
        <path id="DejaVuSans-35" d="M 691 4666 
L 3169 4666 
L 3169 4134 
L 1269 4134 
L 1269 2991 
Q 1406 3038 1543 3061 
Q 1681 3084 1819 3084 
Q 2600 3084 3056 2656 
Q 3513 2228 3513 1497 
Q 3513 744 3044 326 
Q 2575 -91 1722 -91 
Q 1428 -91 1123 -41 
Q 819 9 494 109 
L 494 744 
Q 775 591 1075 516 
Q 1375 441 1709 441 
Q 2250 441 2565 725 
Q 2881 1009 2881 1497 
Q 2881 1984 2565 2268 
Q 2250 2553 1709 2553 
Q 1456 2553 1204 2497 
Q 953 2441 691 2322 
L 691 4666 
z
" transform="scale(0.015625)"/>
       </defs>
       <use xlink:href="#DejaVuSans-32"/>
       <use xlink:href="#DejaVuSans-35" x="63.623047"/>
      </g>
     </g>
    </g>
    <g id="xtick_3">
     <g id="line2d_5">
      <path d="M 205.018182 256.32 
L 205.018182 34.56 
" clip-path="url(#p20536a974c)" style="fill: none; stroke: #b0b0b0; stroke-opacity: 0.3; stroke-width: 0.8; stroke-linecap: square"/>
     </g>
     <g id="line2d_6">
      <g>
       <use xlink:href="#mabf1cbeedb" x="205.018182" y="256.32" style="stroke: #000000; stroke-width: 0.8"/>
      </g>
     </g>
     <g id="text_3">
      <!-- 50 -->
      <g transform="translate(198.655682 270.918437) scale(0.1 -0.1)">
       <use xlink:href="#DejaVuSans-35"/>
       <use xlink:href="#DejaVuSans-30" x="63.623047"/>
      </g>
     </g>
    </g>
    <g id="xtick_4">
     <g id="line2d_7">
      <path d="M 261.381818 256.32 
L 261.381818 34.56 
" clip-path="url(#p20536a974c)" style="fill: none; stroke: #b0b0b0; stroke-opacity: 0.3; stroke-width: 0.8; stroke-linecap: square"/>
     </g>
     <g id="line2d_8">
      <g>
       <use xlink:href="#mabf1cbeedb" x="261.381818" y="256.32" style="stroke: #000000; stroke-width: 0.8"/>
      </g>
     </g>
     <g id="text_4">
      <!-- 75 -->
      <g transform="translate(255.019318 270.918437) scale(0.1 -0.1)">
       <defs>
        <path id="DejaVuSans-37" d="M 525 4666 
L 3525 4666 
L 3525 4397 
L 1831 0 
L 1172 0 
L 2766 4134 
L 525 4134 
L 525 4666 
z
" transform="scale(0.015625)"/>
       </defs>
       <use xlink:href="#DejaVuSans-37"/>
       <use xlink:href="#DejaVuSans-35" x="63.623047"/>
      </g>
     </g>
    </g>
    <g id="xtick_5">
     <g id="line2d_9">
      <path d="M 317.745455 256.32 
L 317.745455 34.56 
" clip-path="url(#p20536a974c)" style="fill: none; stroke: #b0b0b0; stroke-opacity: 0.3; stroke-width: 0.8; stroke-linecap: square"/>
     </g>
     <g id="line2d_10">
      <g>
       <use xlink:href="#mabf1cbeedb" x="317.745455" y="256.32" style="stroke: #000000; stroke-width: 0.8"/>
      </g>
     </g>
     <g id="text_5">
      <!-- 100 -->
      <g transform="translate(308.201705 270.918437) scale(0.1 -0.1)">
       <defs>
        <path id="DejaVuSans-31" d="M 794 531 
L 1825 531 
L 1825 4091 
L 703 3866 
L 703 4441 
L 1819 4666 
L 2450 4666 
L 2450 531 
L 3481 531 
L 3481 0 
L 794 0 
L 794 531 
z
" transform="scale(0.015625)"/>
       </defs>
       <use xlink:href="#DejaVuSans-31"/>
       <use xlink:href="#DejaVuSans-30" x="63.623047"/>
       <use xlink:href="#DejaVuSans-30" x="127.246094"/>
      </g>
     </g>
    </g>
    <g id="xtick_6">
     <g id="line2d_11">
      <path d="M 374.109091 256.32 
L 374.109091 34.56 
" clip-path="url(#p20536a974c)" style="fill: none; stroke: #b0b0b0; stroke-opacity: 0.3; stroke-width: 0.8; stroke-linecap: square"/>
     </g>
     <g id="line2d_12">
      <g>
       <use xlink:href="#mabf1cbeedb" x="374.109091" y="256.32" style="stroke: #000000; stroke-width: 0.8"/>
      </g>
     </g>
     <g id="text_6">
      <!-- 125 -->
      <g transform="translate(364.565341 270.918437) scale(0.1 -0.1)">
       <use xlink:href="#DejaVuSans-31"/>
       <use xlink:href="#DejaVuSans-32" x="63.623047"/>
       <use xlink:href="#DejaVuSans-35" x="127.246094"/>
      </g>
     </g>
    </g>
    <g id="xtick_7">
     <g id="line2d_13">
      <path d="M 430.472727 256.32 
L 430.472727 34.56 
" clip-path="url(#p20536a974c)" style="fill: none; stroke: #b0b0b0; stroke-opacity: 0.3; stroke-width: 0.8; stroke-linecap: square"/>
     </g>
     <g id="line2d_14">
      <g>
       <use xlink:href="#mabf1cbeedb" x="430.472727" y="256.32" style="stroke: #000000; stroke-width: 0.8"/>
      </g>
     </g>
     <g id="text_7">
      <!-- 150 -->
      <g transform="translate(420.928977 270.918437) scale(0.1 -0.1)">
       <use xlink:href="#DejaVuSans-31"/>
       <use xlink:href="#DejaVuSans-35" x="63.623047"/>
       <use xlink:href="#DejaVuSans-30" x="127.246094"/>
      </g>
     </g>
    </g>
    <g id="xtick_8">
     <g id="line2d_15">
      <path d="M 486.836364 256.32 
L 486.836364 34.56 
" clip-path="url(#p20536a974c)" style="fill: none; stroke: #b0b0b0; stroke-opacity: 0.3; stroke-width: 0.8; stroke-linecap: square"/>
     </g>
     <g id="line2d_16">
      <g>
       <use xlink:href="#mabf1cbeedb" x="486.836364" y="256.32" style="stroke: #000000; stroke-width: 0.8"/>
      </g>
     </g>
     <g id="text_8">
      <!-- 175 -->
      <g transform="translate(477.292614 270.918437) scale(0.1 -0.1)">
       <use xlink:href="#DejaVuSans-31"/>
       <use xlink:href="#DejaVuSans-37" x="63.623047"/>
       <use xlink:href="#DejaVuSans-35" x="127.246094"/>
      </g>
     </g>
    </g>
    <g id="text_9">
     <!-- Time (min) -->
     <g transform="translate(268.047656 284.596563) scale(0.1 -0.1)">
      <defs>
       <path id="DejaVuSans-54" d="M -19 4666 
L 3928 4666 
L 3928 4134 
L 2272 4134 
L 2272 0 
L 1638 0 
L 1638 4134 
L -19 4134 
L -19 4666 
z
" transform="scale(0.015625)"/>
       <path id="DejaVuSans-69" d="M 603 3500 
L 1178 3500 
L 1178 0 
L 603 0 
L 603 3500 
z
M 603 4863 
L 1178 4863 
L 1178 4134 
L 603 4134 
L 603 4863 
z
" transform="scale(0.015625)"/>
       <path id="DejaVuSans-6d" d="M 3328 2828 
Q 3544 3216 3844 3400 
Q 4144 3584 4550 3584 
Q 5097 3584 5394 3201 
Q 5691 2819 5691 2113 
L 5691 0 
L 5113 0 
L 5113 2094 
Q 5113 2597 4934 2840 
Q 4756 3084 4391 3084 
Q 3944 3084 3684 2787 
Q 3425 2491 3425 1978 
L 3425 0 
L 2847 0 
L 2847 2094 
Q 2847 2600 2669 2842 
Q 2491 3084 2119 3084 
Q 1678 3084 1418 2786 
Q 1159 2488 1159 1978 
L 1159 0 
L 581 0 
L 581 3500 
L 1159 3500 
L 1159 2956 
Q 1356 3278 1631 3431 
Q 1906 3584 2284 3584 
Q 2666 3584 2933 3390 
Q 3200 3197 3328 2828 
z
" transform="scale(0.015625)"/>
       <path id="DejaVuSans-65" d="M 3597 1894 
L 3597 1613 
L 953 1613 
Q 991 1019 1311 708 
Q 1631 397 2203 397 
Q 2534 397 2845 478 
Q 3156 559 3463 722 
L 3463 178 
Q 3153 47 2828 -22 
Q 2503 -91 2169 -91 
Q 1331 -91 842 396 
Q 353 884 353 1716 
Q 353 2575 817 3079 
Q 1281 3584 2069 3584 
Q 2775 3584 3186 3129 
Q 3597 2675 3597 1894 
z
M 3022 2063 
Q 3016 2534 2758 2815 
Q 2500 3097 2075 3097 
Q 1594 3097 1305 2825 
Q 1016 2553 972 2059 
L 3022 2063 
z
" transform="scale(0.015625)"/>
       <path id="DejaVuSans-20" transform="scale(0.015625)"/>
       <path id="DejaVuSans-28" d="M 1984 4856 
Q 1566 4138 1362 3434 
Q 1159 2731 1159 2009 
Q 1159 1288 1364 580 
Q 1569 -128 1984 -844 
L 1484 -844 
Q 1016 -109 783 600 
Q 550 1309 550 2009 
Q 550 2706 781 3412 
Q 1013 4119 1484 4856 
L 1984 4856 
z
" transform="scale(0.015625)"/>
       <path id="DejaVuSans-6e" d="M 3513 2113 
L 3513 0 
L 2938 0 
L 2938 2094 
Q 2938 2591 2744 2837 
Q 2550 3084 2163 3084 
Q 1697 3084 1428 2787 
Q 1159 2491 1159 1978 
L 1159 0 
L 581 0 
L 581 3500 
L 1159 3500 
L 1159 2956 
Q 1366 3272 1645 3428 
Q 1925 3584 2291 3584 
Q 2894 3584 3203 3211 
Q 3513 2838 3513 2113 
z
" transform="scale(0.015625)"/>
       <path id="DejaVuSans-29" d="M 513 4856 
L 1013 4856 
Q 1481 4119 1714 3412 
Q 1947 2706 1947 2009 
Q 1947 1309 1714 600 
Q 1481 -109 1013 -844 
L 513 -844 
Q 928 -128 1133 580 
Q 1338 1288 1338 2009 
Q 1338 2731 1133 3434 
Q 928 4138 513 4856 
z
" transform="scale(0.015625)"/>
      </defs>
      <use xlink:href="#DejaVuSans-54"/>
      <use xlink:href="#DejaVuSans-69" x="57.958984"/>
      <use xlink:href="#DejaVuSans-6d" x="85.742188"/>
      <use xlink:href="#DejaVuSans-65" x="183.154297"/>
      <use xlink:href="#DejaVuSans-20" x="244.677734"/>
      <use xlink:href="#DejaVuSans-28" x="276.464844"/>
      <use xlink:href="#DejaVuSans-6d" x="315.478516"/>
      <use xlink:href="#DejaVuSans-69" x="412.890625"/>
      <use xlink:href="#DejaVuSans-6e" x="440.673828"/>
      <use xlink:href="#DejaVuSans-29" x="504.052734"/>
     </g>
    </g>
   </g>
   <g id="matplotlib.axis_2">
    <g id="ytick_1">
     <g id="line2d_17">
      <path d="M 72 246.24 
L 518.4 246.24 
" clip-path="url(#p20536a974c)" style="fill: none; stroke: #b0b0b0; stroke-opacity: 0.3; stroke-width: 0.8; stroke-linecap: square"/>
     </g>
     <g id="line2d_18">
      <defs>
       <path id="mf7dbeb588e" d="M 0 0 
L -3.5 0 
" style="stroke: #000000; stroke-width: 0.8"/>
      </defs>
      <g>
       <use xlink:href="#mf7dbeb588e" x="72" y="246.24" style="stroke: #000000; stroke-width: 0.8"/>
      </g>
     </g>
     <g id="text_10">
      <!-- 7.5 -->
      <g transform="translate(49.096875 250.039219) scale(0.1 -0.1)">
       <defs>
        <path id="DejaVuSans-2e" d="M 684 794 
L 1344 794 
L 1344 0 
L 684 0 
L 684 794 
z
" transform="scale(0.015625)"/>
       </defs>
       <use xlink:href="#DejaVuSans-37"/>
       <use xlink:href="#DejaVuSans-2e" x="63.623047"/>
       <use xlink:href="#DejaVuSans-35" x="95.410156"/>
      </g>
     </g>
    </g>
    <g id="ytick_2">
     <g id="line2d_19">
      <path d="M 72 205.92 
L 518.4 205.92 
" clip-path="url(#p20536a974c)" style="fill: none; stroke: #b0b0b0; stroke-opacity: 0.3; stroke-width: 0.8; stroke-linecap: square"/>
     </g>
     <g id="line2d_20">
      <g>
       <use xlink:href="#mf7dbeb588e" x="72" y="205.92" style="stroke: #000000; stroke-width: 0.8"/>
      </g>
     </g>
     <g id="text_11">
      <!-- 8.0 -->
      <g transform="translate(49.096875 209.719219) scale(0.1 -0.1)">
       <defs>
        <path id="DejaVuSans-38" d="M 2034 2216 
Q 1584 2216 1326 1975 
Q 1069 1734 1069 1313 
Q 1069 891 1326 650 
Q 1584 409 2034 409 
Q 2484 409 2743 651 
Q 3003 894 3003 1313 
Q 3003 1734 2745 1975 
Q 2488 2216 2034 2216 
z
M 1403 2484 
Q 997 2584 770 2862 
Q 544 3141 544 3541 
Q 544 4100 942 4425 
Q 1341 4750 2034 4750 
Q 2731 4750 3128 4425 
Q 3525 4100 3525 3541 
Q 3525 3141 3298 2862 
Q 3072 2584 2669 2484 
Q 3125 2378 3379 2068 
Q 3634 1759 3634 1313 
Q 3634 634 3220 271 
Q 2806 -91 2034 -91 
Q 1263 -91 848 271 
Q 434 634 434 1313 
Q 434 1759 690 2068 
Q 947 2378 1403 2484 
z
M 1172 3481 
Q 1172 3119 1398 2916 
Q 1625 2713 2034 2713 
Q 2441 2713 2670 2916 
Q 2900 3119 2900 3481 
Q 2900 3844 2670 4047 
Q 2441 4250 2034 4250 
Q 1625 4250 1398 4047 
Q 1172 3844 1172 3481 
z
" transform="scale(0.015625)"/>
       </defs>
       <use xlink:href="#DejaVuSans-38"/>
       <use xlink:href="#DejaVuSans-2e" x="63.623047"/>
       <use xlink:href="#DejaVuSans-30" x="95.410156"/>
      </g>
     </g>
    </g>
    <g id="ytick_3">
     <g id="line2d_21">
      <path d="M 72 165.6 
L 518.4 165.6 
" clip-path="url(#p20536a974c)" style="fill: none; stroke: #b0b0b0; stroke-opacity: 0.3; stroke-width: 0.8; stroke-linecap: square"/>
     </g>
     <g id="line2d_22">
      <g>
       <use xlink:href="#mf7dbeb588e" x="72" y="165.6" style="stroke: #000000; stroke-width: 0.8"/>
      </g>
     </g>
     <g id="text_12">
      <!-- 8.5 -->
      <g transform="translate(49.096875 169.399219) scale(0.1 -0.1)">
       <use xlink:href="#DejaVuSans-38"/>
       <use xlink:href="#DejaVuSans-2e" x="63.623047"/>
       <use xlink:href="#DejaVuSans-35" x="95.410156"/>
      </g>
     </g>
    </g>
    <g id="ytick_4">
     <g id="line2d_23">
      <path d="M 72 125.28 
L 518.4 125.28 
" clip-path="url(#p20536a974c)" style="fill: none; stroke: #b0b0b0; stroke-opacity: 0.3; stroke-width: 0.8; stroke-linecap: square"/>
     </g>
     <g id="line2d_24">
      <g>
       <use xlink:href="#mf7dbeb588e" x="72" y="125.28" style="stroke: #000000; stroke-width: 0.8"/>
      </g>
     </g>
     <g id="text_13">
      <!-- 9.0 -->
      <g transform="translate(49.096875 129.079219) scale(0.1 -0.1)">
       <defs>
        <path id="DejaVuSans-39" d="M 703 97 
L 703 672 
Q 941 559 1184 500 
Q 1428 441 1663 441 
Q 2288 441 2617 861 
Q 2947 1281 2994 2138 
Q 2813 1869 2534 1725 
Q 2256 1581 1919 1581 
Q 1219 1581 811 2004 
Q 403 2428 403 3163 
Q 403 3881 828 4315 
Q 1253 4750 1959 4750 
Q 2769 4750 3195 4129 
Q 3622 3509 3622 2328 
Q 3622 1225 3098 567 
Q 2575 -91 1691 -91 
Q 1453 -91 1209 -44 
Q 966 3 703 97 
z
M 1959 2075 
Q 2384 2075 2632 2365 
Q 2881 2656 2881 3163 
Q 2881 3666 2632 3958 
Q 2384 4250 1959 4250 
Q 1534 4250 1286 3958 
Q 1038 3666 1038 3163 
Q 1038 2656 1286 2365 
Q 1534 2075 1959 2075 
z
" transform="scale(0.015625)"/>
       </defs>
       <use xlink:href="#DejaVuSans-39"/>
       <use xlink:href="#DejaVuSans-2e" x="63.623047"/>
       <use xlink:href="#DejaVuSans-30" x="95.410156"/>
      </g>
     </g>
    </g>
    <g id="ytick_5">
     <g id="line2d_25">
      <path d="M 72 84.96 
L 518.4 84.96 
" clip-path="url(#p20536a974c)" style="fill: none; stroke: #b0b0b0; stroke-opacity: 0.3; stroke-width: 0.8; stroke-linecap: square"/>
     </g>
     <g id="line2d_26">
      <g>
       <use xlink:href="#mf7dbeb588e" x="72" y="84.96" style="stroke: #000000; stroke-width: 0.8"/>
      </g>
     </g>
     <g id="text_14">
      <!-- 9.5 -->
      <g transform="translate(49.096875 88.759219) scale(0.1 -0.1)">
       <use xlink:href="#DejaVuSans-39"/>
       <use xlink:href="#DejaVuSans-2e" x="63.623047"/>
       <use xlink:href="#DejaVuSans-35" x="95.410156"/>
      </g>
     </g>
    </g>
    <g id="ytick_6">
     <g id="line2d_27">
      <path d="M 72 44.64 
L 518.4 44.64 
" clip-path="url(#p20536a974c)" style="fill: none; stroke: #b0b0b0; stroke-opacity: 0.3; stroke-width: 0.8; stroke-linecap: square"/>
     </g>
     <g id="line2d_28">
      <g>
       <use xlink:href="#mf7dbeb588e" x="72" y="44.64" style="stroke: #000000; stroke-width: 0.8"/>
      </g>
     </g>
     <g id="text_15">
      <!-- 10.0 -->
      <g transform="translate(42.734375 48.439219) scale(0.1 -0.1)">
       <use xlink:href="#DejaVuSans-31"/>
       <use xlink:href="#DejaVuSans-30" x="63.623047"/>
       <use xlink:href="#DejaVuSans-2e" x="127.246094"/>
       <use xlink:href="#DejaVuSans-30" x="159.033203"/>
      </g>
     </g>
    </g>
    <g id="text_16">
     <!-- Value (0-10) -->
     <g transform="translate(36.654687 176.009531) rotate(-90) scale(0.1 -0.1)">
      <defs>
       <path id="DejaVuSans-56" d="M 1831 0 
L 50 4666 
L 709 4666 
L 2188 738 
L 3669 4666 
L 4325 4666 
L 2547 0 
L 1831 0 
z
" transform="scale(0.015625)"/>
       <path id="DejaVuSans-61" d="M 2194 1759 
Q 1497 1759 1228 1600 
Q 959 1441 959 1056 
Q 959 750 1161 570 
Q 1363 391 1709 391 
Q 2188 391 2477 730 
Q 2766 1069 2766 1631 
L 2766 1759 
L 2194 1759 
z
M 3341 1997 
L 3341 0 
L 2766 0 
L 2766 531 
Q 2569 213 2275 61 
Q 1981 -91 1556 -91 
Q 1019 -91 701 211 
Q 384 513 384 1019 
Q 384 1609 779 1909 
Q 1175 2209 1959 2209 
L 2766 2209 
L 2766 2266 
Q 2766 2663 2505 2880 
Q 2244 3097 1772 3097 
Q 1472 3097 1187 3025 
Q 903 2953 641 2809 
L 641 3341 
Q 956 3463 1253 3523 
Q 1550 3584 1831 3584 
Q 2591 3584 2966 3190 
Q 3341 2797 3341 1997 
z
" transform="scale(0.015625)"/>
       <path id="DejaVuSans-6c" d="M 603 4863 
L 1178 4863 
L 1178 0 
L 603 0 
L 603 4863 
z
" transform="scale(0.015625)"/>
       <path id="DejaVuSans-75" d="M 544 1381 
L 544 3500 
L 1119 3500 
L 1119 1403 
Q 1119 906 1312 657 
Q 1506 409 1894 409 
Q 2359 409 2629 706 
Q 2900 1003 2900 1516 
L 2900 3500 
L 3475 3500 
L 3475 0 
L 2900 0 
L 2900 538 
Q 2691 219 2414 64 
Q 2138 -91 1772 -91 
Q 1169 -91 856 284 
Q 544 659 544 1381 
z
M 1991 3584 
L 1991 3584 
z
" transform="scale(0.015625)"/>
       <path id="DejaVuSans-2d" d="M 313 2009 
L 1997 2009 
L 1997 1497 
L 313 1497 
L 313 2009 
z
" transform="scale(0.015625)"/>
      </defs>
      <use xlink:href="#DejaVuSans-56"/>
      <use xlink:href="#DejaVuSans-61" x="60.658203"/>
      <use xlink:href="#DejaVuSans-6c" x="121.9375"/>
      <use xlink:href="#DejaVuSans-75" x="149.720703"/>
      <use xlink:href="#DejaVuSans-65" x="213.099609"/>
      <use xlink:href="#DejaVuSans-20" x="274.623047"/>
      <use xlink:href="#DejaVuSans-28" x="306.410156"/>
      <use xlink:href="#DejaVuSans-30" x="345.423828"/>
      <use xlink:href="#DejaVuSans-2d" x="409.046875"/>
      <use xlink:href="#DejaVuSans-31" x="445.130859"/>
      <use xlink:href="#DejaVuSans-30" x="508.753906"/>
      <use xlink:href="#DejaVuSans-29" x="572.376953"/>
     </g>
    </g>
   </g>
   <g id="line2d_29">
    <path d="M 92.290909 205.92 
L 93.418182 44.64 
L 498.109091 44.64 
L 498.109091 44.64 
" clip-path="url(#p20536a974c)" style="fill: none; stroke: #1f77b4; stroke-width: 1.5; stroke-linecap: square"/>
   </g>
   <g id="line2d_30">
    <path d="M 92.290909 246.24 
L 93.418182 44.64 
L 94.545455 145.302105 
L 95.672727 44.64 
L 96.8 145.327848 
L 97.927273 44.64 
L 99.054545 145.013716 
L 100.181818 44.64 
L 101.309091 144.800525 
L 102.436364 44.64 
L 103.563636 144.035581 
L 104.690909 44.64 
L 105.818182 141.99094 
L 106.945455 44.64 
L 108.072727 144.688764 
L 109.2 44.64 
L 110.327273 144.151326 
L 111.454545 44.64 
L 112.581818 143.309172 
L 113.709091 44.64 
L 114.836364 143.525948 
L 115.963636 44.64 
L 117.090909 143.265809 
L 118.218182 44.64 
L 119.345455 144.894589 
L 120.472727 44.64 
L 121.6 142.422827 
L 122.727273 44.64 
L 123.854545 144.226682 
L 124.981818 44.64 
L 126.109091 144.049026 
L 127.236364 44.64 
L 128.363636 144.244899 
L 129.490909 44.64 
L 130.618182 144.066403 
L 131.745455 44.64 
L 132.872727 143.451839 
L 134 44.64 
L 135.127273 143.982615 
L 136.254545 44.64 
L 137.381818 142.687817 
L 138.509091 44.64 
L 139.636364 142.716521 
L 140.763636 44.64 
L 141.890909 144.033673 
L 143.018182 44.64 
L 144.145455 143.89778 
L 145.272727 44.64 
L 146.4 145.129059 
L 147.527273 44.64 
L 148.654545 144.783647 
L 149.781818 44.64 
L 150.909091 143.340299 
L 152.036364 44.64 
L 153.163636 144.787736 
L 154.290909 44.64 
L 155.418182 144.559186 
L 156.545455 44.64 
L 157.672727 146.063463 
L 158.8 44.64 
L 159.927273 143.427036 
L 161.054545 44.64 
L 162.181818 145.135602 
L 163.309091 44.64 
L 164.436364 145.462057 
L 165.563636 44.64 
L 166.690909 142.824864 
L 167.818182 44.64 
L 168.945455 145.311571 
L 170.072727 44.64 
L 171.2 146.043744 
L 172.327273 44.64 
L 173.454545 146.96947 
L 174.581818 44.64 
L 175.709091 147.15417 
L 176.836364 44.64 
L 177.963636 147.775971 
L 179.090909 44.64 
L 180.218182 147.130907 
L 181.345455 44.64 
L 182.472727 146.776802 
L 183.6 44.64 
L 184.727273 147.651733 
L 185.854545 44.64 
L 186.981818 147.998067 
L 188.109091 44.64 
L 189.236364 147.611111 
L 190.363636 44.64 
L 191.490909 147.772155 
L 192.618182 44.64 
L 193.745455 148.471106 
L 194.872727 44.64 
L 196 148.760332 
L 197.127273 44.64 
L 198.254545 147.93051 
L 199.381818 44.64 
L 200.509091 150.238852 
L 201.636364 44.64 
L 202.763636 150.846992 
L 203.890909 44.64 
L 205.018182 151.565515 
L 206.145455 44.64 
L 207.272727 149.756402 
L 208.4 44.64 
L 209.527273 151.093979 
L 210.654545 44.64 
L 211.781818 151.208546 
L 212.909091 44.64 
L 214.036364 151.902697 
L 215.163636 44.64 
L 216.290909 153.169333 
L 217.418182 44.64 
L 218.545455 153.943435 
L 219.672727 44.64 
L 220.8 152.782669 
L 221.927273 44.64 
L 223.054545 154.574908 
L 224.181818 44.64 
L 225.309091 155.072245 
L 226.436364 44.64 
L 227.563636 154.571252 
L 228.690909 44.64 
L 229.818182 156.322537 
L 230.945455 44.64 
L 232.072727 156.595247 
L 233.2 44.64 
L 234.327273 156.969328 
L 235.454545 44.64 
L 236.581818 158.427727 
L 237.709091 44.64 
L 238.836364 158.92654 
L 239.963636 44.64 
L 241.090909 158.610433 
L 242.218182 44.64 
L 243.345455 157.529137 
L 244.472727 44.64 
L 245.6 158.905298 
L 246.727273 44.64 
L 247.854545 160.135567 
L 248.981818 44.64 
L 250.109091 161.1098 
L 251.236364 44.64 
L 252.363636 160.612002 
L 253.490909 44.64 
L 254.618182 159.050806 
L 255.745455 44.64 
L 256.872727 162.66453 
L 258 44.64 
L 259.127273 162.902513 
L 260.254545 44.64 
L 261.381818 162.290252 
L 262.509091 44.64 
L 263.636364 163.380552 
L 264.763636 44.64 
L 265.890909 161.450076 
L 267.018182 44.64 
L 268.145455 161.952427 
L 269.272727 44.64 
L 270.4 163.491275 
L 271.527273 44.64 
L 272.654545 162.132609 
L 273.781818 44.64 
L 274.909091 162.929746 
L 276.036364 44.64 
L 277.163636 164.406489 
L 278.290909 44.64 
L 279.418182 164.540213 
L 280.545455 44.64 
L 281.672727 164.456865 
L 282.8 44.64 
L 283.927273 163.043371 
L 285.054545 44.64 
L 286.181818 164.969305 
L 287.309091 44.64 
L 288.436364 164.720423 
L 289.563636 44.64 
L 290.690909 163.432766 
L 291.818182 44.64 
L 292.945455 165.473324 
L 294.072727 44.64 
L 295.2 165.546833 
L 296.327273 44.64 
L 297.454545 166.329833 
L 298.581818 44.64 
L 299.709091 164.929161 
L 300.836364 44.64 
L 301.963636 164.461244 
L 303.090909 44.64 
L 304.218182 163.754922 
L 305.345455 44.64 
L 306.472727 166.433492 
L 307.6 44.64 
L 308.727273 164.537139 
L 309.854545 44.64 
L 310.981818 163.84441 
L 312.109091 44.64 
L 313.236364 165.358448 
L 314.363636 44.64 
L 315.490909 166.126126 
L 316.618182 44.64 
L 317.745455 165.854258 
L 318.872727 44.64 
L 320 164.419214 
L 321.127273 44.64 
L 322.254545 164.957801 
L 323.381818 44.64 
L 324.509091 166.290839 
L 325.636364 44.64 
L 326.763636 163.923542 
L 327.890909 44.64 
L 329.018182 164.102666 
L 330.145455 44.64 
L 331.272727 164.581415 
L 332.4 44.64 
L 333.527273 165.704775 
L 334.654545 44.64 
L 335.781818 165.239679 
L 336.909091 44.64 
L 338.036364 162.989387 
L 339.163636 44.64 
L 340.290909 162.709645 
L 341.418182 44.64 
L 342.545455 164.134671 
L 343.672727 44.64 
L 344.8 164.845509 
L 345.927273 44.64 
L 347.054545 165.177722 
L 348.181818 44.64 
L 349.309091 163.93546 
L 350.436364 44.64 
L 351.563636 165.645704 
L 352.690909 44.64 
L 353.818182 164.687925 
L 354.945455 44.64 
L 356.072727 164.121494 
L 357.2 44.64 
L 358.327273 164.598256 
L 359.454545 44.64 
L 360.581818 164.346953 
L 361.709091 44.64 
L 362.836364 164.438066 
L 363.963636 44.64 
L 365.090909 165.315213 
L 366.218182 44.64 
L 367.345455 163.693618 
L 368.472727 44.64 
L 369.6 163.44383 
L 370.727273 44.64 
L 371.854545 163.843293 
L 372.981818 44.64 
L 374.109091 164.962102 
L 375.236364 44.64 
L 376.363636 164.73434 
L 377.490909 44.64 
L 378.618182 163.821131 
L 379.745455 44.64 
L 380.872727 165.160997 
L 382 44.64 
L 383.127273 163.664067 
L 384.254545 44.64 
L 385.381818 164.702384 
L 386.509091 44.64 
L 387.636364 163.104834 
L 388.763636 44.64 
L 389.890909 163.594841 
L 391.018182 44.64 
L 392.145455 164.570223 
L 393.272727 44.64 
L 394.4 164.72002 
L 395.527273 44.64 
L 396.654545 164.644346 
L 397.781818 44.64 
L 398.909091 163.659547 
L 400.036364 44.64 
L 401.163636 162.413138 
L 402.290909 44.64 
L 403.418182 164.644143 
L 404.545455 44.64 
L 405.672727 164.5915 
L 406.8 44.64 
L 407.927273 166.29904 
L 409.054545 44.64 
L 410.181818 163.232313 
L 411.309091 44.64 
L 412.436364 162.913613 
L 413.563636 44.64 
L 414.690909 163.527671 
L 415.818182 44.64 
L 416.945455 162.596022 
L 418.072727 44.64 
L 419.2 162.923806 
L 420.327273 44.64 
L 421.454545 162.590364 
L 422.581818 44.64 
L 423.709091 163.831342 
L 424.836364 44.64 
L 425.963636 162.75179 
L 427.090909 44.64 
L 428.218182 163.017179 
L 429.345455 44.64 
L 430.472727 162.238865 
L 431.6 44.64 
L 432.727273 163.701853 
L 433.854545 44.64 
L 434.981818 163.164904 
L 436.109091 44.64 
L 437.236364 162.929198 
L 438.363636 44.64 
L 439.490909 161.928978 
L 440.618182 44.64 
L 441.745455 160.836352 
L 442.872727 44.64 
L 444 164.429688 
L 445.127273 44.64 
L 446.254545 163.018414 
L 447.381818 44.64 
L 448.509091 161.907961 
L 449.636364 44.64 
L 450.763636 162.393735 
L 451.890909 44.64 
L 453.018182 162.549136 
L 454.145455 44.64 
L 455.272727 162.379906 
L 456.4 44.64 
L 457.527273 161.529296 
L 458.654545 44.64 
L 459.781818 162.238457 
L 460.909091 44.64 
L 462.036364 163.129755 
L 463.163636 44.64 
L 464.290909 162.473315 
L 465.418182 44.64 
L 466.545455 162.111572 
L 467.672727 44.64 
L 468.8 162.770074 
L 469.927273 44.64 
L 471.054545 161.730952 
L 472.181818 44.64 
L 473.309091 161.230046 
L 474.436364 44.64 
L 475.563636 162.682806 
L 476.690909 44.64 
L 477.818182 162.484824 
L 478.945455 44.64 
L 480.072727 162.41128 
L 481.2 44.64 
L 482.327273 161.539118 
L 483.454545 44.64 
L 484.581818 161.432546 
L 485.709091 44.64 
L 486.836364 162.422443 
L 487.963636 44.64 
L 489.090909 163.62339 
L 490.218182 44.64 
L 491.345455 161.338297 
L 492.472727 44.64 
L 493.6 160.640101 
L 494.727273 44.64 
L 495.854545 161.248838 
L 496.981818 44.64 
L 498.109091 163.680647 
L 498.109091 163.680647 
" clip-path="url(#p20536a974c)" style="fill: none; stroke: #ff7f0e; stroke-width: 1.5; stroke-linecap: square"/>
   </g>
   <g id="line2d_31">
    <path d="M 92.290909 246.24 
L 93.418182 44.64 
L 161.054545 44.64 
L 214.036364 110.237538 
L 215.163636 112.05169 
L 216.290909 113.028923 
L 217.418182 116.139331 
L 218.545455 116.053691 
L 219.672727 120.643329 
L 220.8 120.933292 
L 221.927273 126.032933 
L 223.054545 126.731393 
L 224.181818 131.735916 
L 225.309091 132.415099 
L 226.436364 137.006581 
L 227.563636 137.761335 
L 228.690909 142.302436 
L 229.818182 142.898439 
L 230.945455 147.206917 
L 232.072727 147.798411 
L 233.2 151.874789 
L 234.327273 152.497862 
L 235.454545 156.076312 
L 236.581818 156.753272 
L 237.709091 160.392304 
L 238.836364 160.891293 
L 239.963636 164.314974 
L 241.090909 164.529803 
L 242.218182 167.861809 
L 243.345455 168.507504 
L 244.472727 171.472211 
L 245.6 171.781602 
L 246.727273 174.842527 
L 247.854545 175.134336 
L 248.981818 178.018413 
L 250.109091 178.635504 
L 251.236364 181.120136 
L 252.363636 181.578019 
L 253.490909 183.99651 
L 254.618182 184.385863 
L 255.745455 186.791895 
L 256.872727 187.169892 
L 258 189.36532 
L 259.127273 189.864907 
L 260.254545 192.039928 
L 261.381818 192.336595 
L 262.509091 194.479673 
L 263.636364 194.82869 
L 264.763636 196.703011 
L 265.890909 197.103794 
L 267.018182 199.110247 
L 268.145455 199.494615 
L 269.272727 201.22555 
L 270.4 201.71466 
L 271.527273 203.414391 
L 272.654545 203.840089 
L 273.781818 205.326458 
L 274.909091 205.698453 
L 276.036364 207.198049 
L 277.163636 207.749613 
L 278.290909 209.240189 
L 279.418182 209.651956 
L 280.545455 211.000985 
L 281.672727 211.471473 
L 282.8 212.70945 
L 283.927273 213.237721 
L 285.054545 214.408636 
L 286.181818 214.956618 
L 287.309091 216.022248 
L 288.436364 216.582937 
L 289.563636 217.673484 
L 290.690909 218.184178 
L 291.818182 219.197982 
L 292.945455 219.729576 
L 294.072727 220.653324 
L 295.2 221.215273 
L 296.327273 222.141835 
L 297.454545 221.847357 
L 298.581818 221.888109 
L 299.709091 221.571425 
L 300.836364 221.553643 
L 301.963636 221.205549 
L 303.090909 221.19976 
L 304.218182 220.873615 
L 305.345455 220.86905 
L 306.472727 220.538551 
L 307.6 220.574672 
L 308.727273 220.210564 
L 309.854545 220.218703 
L 310.981818 219.864555 
L 312.109091 219.91018 
L 313.236364 219.550823 
L 314.363636 219.593012 
L 315.490909 219.16431 
L 316.618182 219.226294 
L 317.745455 218.823889 
L 318.872727 218.862808 
L 320 218.505865 
L 321.127273 218.552776 
L 322.254545 218.148742 
L 323.381818 218.193075 
L 324.509091 217.790916 
L 325.636364 217.886176 
L 326.763636 217.467926 
L 327.890909 217.53862 
L 329.018182 217.159457 
L 330.145455 217.194147 
L 331.272727 216.76756 
L 332.4 216.821624 
L 333.527273 216.409557 
L 334.654545 216.522957 
L 335.781818 216.092177 
L 336.909091 216.187325 
L 338.036364 215.730939 
L 339.163636 215.825777 
L 340.290909 215.324789 
L 341.418182 215.464261 
L 342.545455 214.965447 
L 343.672727 215.134182 
L 344.8 214.68749 
L 345.927273 214.811021 
L 347.054545 214.343625 
L 348.181818 214.428138 
L 349.309091 213.936799 
L 350.436364 214.041106 
L 351.563636 213.590544 
L 352.690909 213.74622 
L 353.818182 213.234524 
L 354.945455 213.366342 
L 356.072727 212.854471 
L 357.2 213.065741 
L 358.327273 212.498248 
L 359.454545 212.676281 
L 360.581818 212.118121 
L 361.709091 212.359042 
L 362.836364 211.765806 
L 363.963636 211.99793 
L 365.090909 211.450055 
L 366.218182 211.678489 
L 367.345455 211.069113 
L 368.472727 211.292129 
L 369.6 210.764163 
L 370.727273 210.931782 
L 371.854545 210.335733 
L 372.981818 210.559885 
L 374.109091 209.972176 
L 375.236364 210.171037 
L 376.363636 209.591298 
L 377.490909 209.815342 
L 378.618182 209.245265 
L 379.745455 209.505476 
L 380.872727 208.8989 
L 382 209.129052 
L 383.127273 208.494483 
L 384.254545 208.815574 
L 385.381818 208.10814 
L 386.509091 208.443088 
L 387.636364 207.769282 
L 388.763636 208.144949 
L 389.890909 207.406706 
L 391.018182 207.723271 
L 392.145455 207.011834 
L 393.272727 207.297772 
L 394.4 206.652013 
L 395.527273 206.937365 
L 396.654545 206.237216 
L 397.781818 206.503208 
L 398.909091 205.851599 
L 400.036364 206.145135 
L 401.163636 205.527026 
L 402.290909 205.710525 
L 403.418182 205.072652 
L 404.545455 205.445044 
L 405.672727 204.65747 
L 406.8 205.109059 
L 407.927273 204.346996 
L 409.054545 204.710396 
L 410.181818 203.948616 
L 411.309091 204.310171 
L 412.436364 203.57516 
L 413.563636 203.912299 
L 414.690909 203.112931 
L 415.818182 203.509656 
L 416.945455 202.720951 
L 418.072727 203.166334 
L 419.2 202.35363 
L 420.327273 202.757839 
L 421.454545 202.017855 
L 422.581818 202.395953 
L 423.709091 201.616132 
L 424.836364 201.938023 
L 425.963636 201.24897 
L 427.090909 201.6924 
L 428.218182 200.784607 
L 429.345455 201.344631 
L 430.472727 200.43293 
L 431.6 200.820908 
L 432.727273 200.049356 
L 433.854545 200.489995 
L 434.981818 199.565429 
L 436.109091 200.073157 
L 437.236364 199.243038 
L 438.363636 199.770115 
L 439.490909 198.82992 
L 440.618182 199.345624 
L 441.745455 198.506765 
L 442.872727 198.875793 
L 444 197.957375 
L 445.127273 198.503472 
L 446.254545 197.719647 
L 447.381818 198.097238 
L 448.509091 197.154319 
L 449.636364 197.706718 
L 450.763636 196.772878 
L 451.890909 197.356287 
L 453.018182 196.444683 
L 454.145455 196.913114 
L 455.272727 195.989279 
L 456.4 196.559299 
L 457.527273 195.62629 
L 458.654545 196.187573 
L 459.781818 195.118526 
L 460.909091 195.709602 
L 462.036364 194.701346 
L 463.163636 195.385797 
L 464.290909 194.431393 
L 465.418182 194.98918 
L 466.545455 193.909945 
L 467.672727 194.593884 
L 468.8 193.573425 
L 469.927273 194.102354 
L 471.054545 192.957316 
L 472.181818 193.703948 
L 473.309091 192.712721 
L 474.436364 193.222459 
L 475.563636 192.203993 
L 476.690909 192.891239 
L 477.818182 191.726702 
L 478.945455 192.343703 
L 480.072727 191.373128 
L 481.2 192.050979 
L 482.327273 190.930895 
L 483.454545 191.685434 
L 484.581818 190.476474 
L 485.709091 191.223556 
L 486.836364 190.198973 
L 487.963636 190.912184 
L 489.090909 189.708878 
L 490.218182 190.350307 
L 491.345455 189.14654 
L 492.472727 190.054974 
L 493.6 188.789666 
L 494.727273 189.515349 
L 495.854545 188.347501 
L 496.981818 189.114888 
L 498.109091 187.947477 
L 498.109091 187.947477 
" clip-path="url(#p20536a974c)" style="fill: none; stroke: #2ca02c; stroke-width: 1.5; stroke-linecap: square"/>
   </g>
   <g id="patch_3">
    <path d="M 72 256.32 
L 72 34.56 
" style="fill: none; stroke: #000000; stroke-width: 0.8; stroke-linejoin: miter; stroke-linecap: square"/>
   </g>
   <g id="patch_4">
    <path d="M 518.4 256.32 
L 518.4 34.56 
" style="fill: none; stroke: #000000; stroke-width: 0.8; stroke-linejoin: miter; stroke-linecap: square"/>
   </g>
   <g id="patch_5">
    <path d="M 72 256.32 
L 518.4 256.32 
" style="fill: none; stroke: #000000; stroke-width: 0.8; stroke-linejoin: miter; stroke-linecap: square"/>
   </g>
   <g id="patch_6">
    <path d="M 72 34.56 
L 518.4 34.56 
" style="fill: none; stroke: #000000; stroke-width: 0.8; stroke-linejoin: miter; stroke-linecap: square"/>
   </g>
   <g id="text_17">
    <!-- Psilocybin: Mean L, C, S (180 min) -->
    <g transform="translate(193.013438 28.56) scale(0.12 -0.12)">
     <defs>
      <path id="DejaVuSans-50" d="M 1259 4147 
L 1259 2394 
L 2053 2394 
Q 2494 2394 2734 2622 
Q 2975 2850 2975 3272 
Q 2975 3691 2734 3919 
Q 2494 4147 2053 4147 
L 1259 4147 
z
M 628 4666 
L 2053 4666 
Q 2838 4666 3239 4311 
Q 3641 3956 3641 3272 
Q 3641 2581 3239 2228 
Q 2838 1875 2053 1875 
L 1259 1875 
L 1259 0 
L 628 0 
L 628 4666 
z
" transform="scale(0.015625)"/>
      <path id="DejaVuSans-73" d="M 2834 3397 
L 2834 2853 
Q 2591 2978 2328 3040 
Q 2066 3103 1784 3103 
Q 1356 3103 1142 2972 
Q 928 2841 928 2578 
Q 928 2378 1081 2264 
Q 1234 2150 1697 2047 
L 1894 2003 
Q 2506 1872 2764 1633 
Q 3022 1394 3022 966 
Q 3022 478 2636 193 
Q 2250 -91 1575 -91 
Q 1294 -91 989 -36 
Q 684 19 347 128 
L 347 722 
Q 666 556 975 473 
Q 1284 391 1588 391 
Q 1994 391 2212 530 
Q 2431 669 2431 922 
Q 2431 1156 2273 1281 
Q 2116 1406 1581 1522 
L 1381 1569 
Q 847 1681 609 1914 
Q 372 2147 372 2553 
Q 372 3047 722 3315 
Q 1072 3584 1716 3584 
Q 2034 3584 2315 3537 
Q 2597 3491 2834 3397 
z
" transform="scale(0.015625)"/>
      <path id="DejaVuSans-6f" d="M 1959 3097 
Q 1497 3097 1228 2736 
Q 959 2375 959 1747 
Q 959 1119 1226 758 
Q 1494 397 1959 397 
Q 2419 397 2687 759 
Q 2956 1122 2956 1747 
Q 2956 2369 2687 2733 
Q 2419 3097 1959 3097 
z
M 1959 3584 
Q 2709 3584 3137 3096 
Q 3566 2609 3566 1747 
Q 3566 888 3137 398 
Q 2709 -91 1959 -91 
Q 1206 -91 779 398 
Q 353 888 353 1747 
Q 353 2609 779 3096 
Q 1206 3584 1959 3584 
z
" transform="scale(0.015625)"/>
      <path id="DejaVuSans-63" d="M 3122 3366 
L 3122 2828 
Q 2878 2963 2633 3030 
Q 2388 3097 2138 3097 
Q 1578 3097 1268 2742 
Q 959 2388 959 1747 
Q 959 1106 1268 751 
Q 1578 397 2138 397 
Q 2388 397 2633 464 
Q 2878 531 3122 666 
L 3122 134 
Q 2881 22 2623 -34 
Q 2366 -91 2075 -91 
Q 1284 -91 818 406 
Q 353 903 353 1747 
Q 353 2603 823 3093 
Q 1294 3584 2113 3584 
Q 2378 3584 2631 3529 
Q 2884 3475 3122 3366 
z
" transform="scale(0.015625)"/>
      <path id="DejaVuSans-79" d="M 2059 -325 
Q 1816 -950 1584 -1140 
Q 1353 -1331 966 -1331 
L 506 -1331 
L 506 -850 
L 844 -850 
Q 1081 -850 1212 -737 
Q 1344 -625 1503 -206 
L 1606 56 
L 191 3500 
L 800 3500 
L 1894 763 
L 2988 3500 
L 3597 3500 
L 2059 -325 
z
" transform="scale(0.015625)"/>
      <path id="DejaVuSans-62" d="M 3116 1747 
Q 3116 2381 2855 2742 
Q 2594 3103 2138 3103 
Q 1681 3103 1420 2742 
Q 1159 2381 1159 1747 
Q 1159 1113 1420 752 
Q 1681 391 2138 391 
Q 2594 391 2855 752 
Q 3116 1113 3116 1747 
z
M 1159 2969 
Q 1341 3281 1617 3432 
Q 1894 3584 2278 3584 
Q 2916 3584 3314 3078 
Q 3713 2572 3713 1747 
Q 3713 922 3314 415 
Q 2916 -91 2278 -91 
Q 1894 -91 1617 61 
Q 1341 213 1159 525 
L 1159 0 
L 581 0 
L 581 4863 
L 1159 4863 
L 1159 2969 
z
" transform="scale(0.015625)"/>
      <path id="DejaVuSans-3a" d="M 750 794 
L 1409 794 
L 1409 0 
L 750 0 
L 750 794 
z
M 750 3309 
L 1409 3309 
L 1409 2516 
L 750 2516 
L 750 3309 
z
" transform="scale(0.015625)"/>
      <path id="DejaVuSans-4d" d="M 628 4666 
L 1569 4666 
L 2759 1491 
L 3956 4666 
L 4897 4666 
L 4897 0 
L 4281 0 
L 4281 4097 
L 3078 897 
L 2444 897 
L 1241 4097 
L 1241 0 
L 628 0 
L 628 4666 
z
" transform="scale(0.015625)"/>
      <path id="DejaVuSans-4c" d="M 628 4666 
L 1259 4666 
L 1259 531 
L 3531 531 
L 3531 0 
L 628 0 
L 628 4666 
z
" transform="scale(0.015625)"/>
      <path id="DejaVuSans-2c" d="M 750 794 
L 1409 794 
L 1409 256 
L 897 -744 
L 494 -744 
L 750 256 
L 750 794 
z
" transform="scale(0.015625)"/>
      <path id="DejaVuSans-43" d="M 4122 4306 
L 4122 3641 
Q 3803 3938 3442 4084 
Q 3081 4231 2675 4231 
Q 1875 4231 1450 3742 
Q 1025 3253 1025 2328 
Q 1025 1406 1450 917 
Q 1875 428 2675 428 
Q 3081 428 3442 575 
Q 3803 722 4122 1019 
L 4122 359 
Q 3791 134 3420 21 
Q 3050 -91 2638 -91 
Q 1578 -91 968 557 
Q 359 1206 359 2328 
Q 359 3453 968 4101 
Q 1578 4750 2638 4750 
Q 3056 4750 3426 4639 
Q 3797 4528 4122 4306 
z
" transform="scale(0.015625)"/>
      <path id="DejaVuSans-53" d="M 3425 4513 
L 3425 3897 
Q 3066 4069 2747 4153 
Q 2428 4238 2131 4238 
Q 1616 4238 1336 4038 
Q 1056 3838 1056 3469 
Q 1056 3159 1242 3001 
Q 1428 2844 1947 2747 
L 2328 2669 
Q 3034 2534 3370 2195 
Q 3706 1856 3706 1288 
Q 3706 609 3251 259 
Q 2797 -91 1919 -91 
Q 1588 -91 1214 -16 
Q 841 59 441 206 
L 441 856 
Q 825 641 1194 531 
Q 1563 422 1919 422 
Q 2459 422 2753 634 
Q 3047 847 3047 1241 
Q 3047 1584 2836 1778 
Q 2625 1972 2144 2069 
L 1759 2144 
Q 1053 2284 737 2584 
Q 422 2884 422 3419 
Q 422 4038 858 4394 
Q 1294 4750 2059 4750 
Q 2388 4750 2728 4690 
Q 3069 4631 3425 4513 
z
" transform="scale(0.015625)"/>
     </defs>
     <use xlink:href="#DejaVuSans-50"/>
     <use xlink:href="#DejaVuSans-73" x="58.552734"/>
     <use xlink:href="#DejaVuSans-69" x="110.652344"/>
     <use xlink:href="#DejaVuSans-6c" x="138.435547"/>
     <use xlink:href="#DejaVuSans-6f" x="166.21875"/>
     <use xlink:href="#DejaVuSans-63" x="227.400391"/>
     <use xlink:href="#DejaVuSans-79" x="282.380859"/>
     <use xlink:href="#DejaVuSans-62" x="341.560547"/>
     <use xlink:href="#DejaVuSans-69" x="405.037109"/>
     <use xlink:href="#DejaVuSans-6e" x="432.820312"/>
     <use xlink:href="#DejaVuSans-3a" x="496.199219"/>
     <use xlink:href="#DejaVuSans-20" x="529.890625"/>
     <use xlink:href="#DejaVuSans-4d" x="561.677734"/>
     <use xlink:href="#DejaVuSans-65" x="647.957031"/>
     <use xlink:href="#DejaVuSans-61" x="709.480469"/>
     <use xlink:href="#DejaVuSans-6e" x="770.759766"/>
     <use xlink:href="#DejaVuSans-20" x="834.138672"/>
     <use xlink:href="#DejaVuSans-4c" x="865.925781"/>
     <use xlink:href="#DejaVuSans-2c" x="921.638672"/>
     <use xlink:href="#DejaVuSans-20" x="953.425781"/>
     <use xlink:href="#DejaVuSans-43" x="985.212891"/>
     <use xlink:href="#DejaVuSans-2c" x="1055.037109"/>
     <use xlink:href="#DejaVuSans-20" x="1086.824219"/>
     <use xlink:href="#DejaVuSans-53" x="1118.611328"/>
     <use xlink:href="#DejaVuSans-20" x="1182.087891"/>
     <use xlink:href="#DejaVuSans-28" x="1213.875"/>
     <use xlink:href="#DejaVuSans-31" x="1252.888672"/>
     <use xlink:href="#DejaVuSans-38" x="1316.511719"/>
     <use xlink:href="#DejaVuSans-30" x="1380.134766"/>
     <use xlink:href="#DejaVuSans-20" x="1443.757812"/>
     <use xlink:href="#DejaVuSans-6d" x="1475.544922"/>
     <use xlink:href="#DejaVuSans-69" x="1572.957031"/>
     <use xlink:href="#DejaVuSans-6e" x="1600.740234"/>
     <use xlink:href="#DejaVuSans-29" x="1664.119141"/>
    </g>
   </g>
   <g id="legend_1">
    <g id="patch_7">
     <path d="M 423.15 251.32 
L 511.4 251.32 
Q 513.4 251.32 513.4 249.32 
L 513.4 206.285625 
Q 513.4 204.285625 511.4 204.285625 
L 423.15 204.285625 
Q 421.15 204.285625 421.15 206.285625 
L 421.15 249.32 
Q 421.15 251.32 423.15 251.32 
z
" style="fill: #ffffff; opacity: 0.8; stroke: #cccccc; stroke-linejoin: miter"/>
    </g>
    <g id="line2d_32">
     <path d="M 425.15 212.384062 
L 435.15 212.384062 
L 445.15 212.384062 
" style="fill: none; stroke: #1f77b4; stroke-width: 1.5; stroke-linecap: square"/>
    </g>
    <g id="text_18">
     <!-- L (level) -->
     <g transform="translate(453.15 215.884062) scale(0.1 -0.1)">
      <defs>
       <path id="DejaVuSans-76" d="M 191 3500 
L 800 3500 
L 1894 563 
L 2988 3500 
L 3597 3500 
L 2284 0 
L 1503 0 
L 191 3500 
z
" transform="scale(0.015625)"/>
      </defs>
      <use xlink:href="#DejaVuSans-4c"/>
      <use xlink:href="#DejaVuSans-20" x="55.712891"/>
      <use xlink:href="#DejaVuSans-28" x="87.5"/>
      <use xlink:href="#DejaVuSans-6c" x="126.513672"/>
      <use xlink:href="#DejaVuSans-65" x="154.296875"/>
      <use xlink:href="#DejaVuSans-76" x="215.820312"/>
      <use xlink:href="#DejaVuSans-65" x="275"/>
      <use xlink:href="#DejaVuSans-6c" x="336.523438"/>
      <use xlink:href="#DejaVuSans-29" x="364.306641"/>
     </g>
    </g>
    <g id="line2d_33">
     <path d="M 425.15 227.062187 
L 435.15 227.062187 
L 445.15 227.062187 
" style="fill: none; stroke: #ff7f0e; stroke-width: 1.5; stroke-linecap: square"/>
    </g>
    <g id="text_19">
     <!-- C (content) -->
     <g transform="translate(453.15 230.562187) scale(0.1 -0.1)">
      <defs>
       <path id="DejaVuSans-74" d="M 1172 4494 
L 1172 3500 
L 2356 3500 
L 2356 3053 
L 1172 3053 
L 1172 1153 
Q 1172 725 1289 603 
Q 1406 481 1766 481 
L 2356 481 
L 2356 0 
L 1766 0 
Q 1100 0 847 248 
Q 594 497 594 1153 
L 594 3053 
L 172 3053 
L 172 3500 
L 594 3500 
L 594 4494 
L 1172 4494 
z
" transform="scale(0.015625)"/>
      </defs>
      <use xlink:href="#DejaVuSans-43"/>
      <use xlink:href="#DejaVuSans-20" x="69.824219"/>
      <use xlink:href="#DejaVuSans-28" x="101.611328"/>
      <use xlink:href="#DejaVuSans-63" x="140.625"/>
      <use xlink:href="#DejaVuSans-6f" x="195.605469"/>
      <use xlink:href="#DejaVuSans-6e" x="256.787109"/>
      <use xlink:href="#DejaVuSans-74" x="320.166016"/>
      <use xlink:href="#DejaVuSans-65" x="359.375"/>
      <use xlink:href="#DejaVuSans-6e" x="420.898438"/>
      <use xlink:href="#DejaVuSans-74" x="484.277344"/>
      <use xlink:href="#DejaVuSans-29" x="523.486328"/>
     </g>
    </g>
    <g id="line2d_34">
     <path d="M 425.15 241.740313 
L 435.15 241.740313 
L 445.15 241.740313 
" style="fill: none; stroke: #2ca02c; stroke-width: 1.5; stroke-linecap: square"/>
    </g>
    <g id="text_20">
     <!-- S (self) -->
     <g transform="translate(453.15 245.240313) scale(0.1 -0.1)">
      <defs>
       <path id="DejaVuSans-66" d="M 2375 4863 
L 2375 4384 
L 1825 4384 
Q 1516 4384 1395 4259 
Q 1275 4134 1275 3809 
L 1275 3500 
L 2222 3500 
L 2222 3053 
L 1275 3053 
L 1275 0 
L 697 0 
L 697 3053 
L 147 3053 
L 147 3500 
L 697 3500 
L 697 3744 
Q 697 4328 969 4595 
Q 1241 4863 1831 4863 
L 2375 4863 
z
" transform="scale(0.015625)"/>
      </defs>
      <use xlink:href="#DejaVuSans-53"/>
      <use xlink:href="#DejaVuSans-20" x="63.476562"/>
      <use xlink:href="#DejaVuSans-28" x="95.263672"/>
      <use xlink:href="#DejaVuSans-73" x="134.277344"/>
      <use xlink:href="#DejaVuSans-65" x="186.376953"/>
      <use xlink:href="#DejaVuSans-6c" x="247.900391"/>
      <use xlink:href="#DejaVuSans-66" x="275.683594"/>
      <use xlink:href="#DejaVuSans-29" x="310.888672"/>
     </g>
    </g>
   </g>
  </g>
 </g>
 <defs>
  <clipPath id="p20536a974c">
   <rect x="72" y="34.56" width="446.4" height="221.76"/>
  </clipPath>
 </defs>
</svg>
