<?xml version="1.0" encoding="utf-8" standalone="no"?>
<!DOCTYPE svg PUBLIC "-//W3C//DTD SVG 1.1//EN"
  "http://www.w3.org/Graphics/SVG/1.1/DTD/svg11.dtd">
<svg xmlns:xlink="http://www.w3.org/1999/xlink" width="576pt" height="252pt" viewBox="0 0 576 252" xmlns="http://www.w3.org/2000/svg" version="1.1">
 <metadata>
  <rdf:RDF xmlns:dc="http://purl.org/dc/elements/1.1/" xmlns:cc="http://creativecommons.org/ns#" xmlns:rdf="http://www.w3.org/1999/02/22-rdf-syntax-ns#">
   <cc:Work>
    <dc:type rdf:resource="http://purl.org/dc/dcmitype/StillImage"/>
    <dc:date>2025-08-13T01:48:20.112036</dc:date>
    <dc:format>image/svg+xml</dc:format>
    <dc:creator>
     <cc:Agent>
      <dc:title>Matplotlib v3.6.3, https://matplotlib.org/</dc:title>
     </cc:Agent>
    </dc:creator>
   </cc:Work>
  </rdf:RDF>
 </metadata>
 <defs>
  <style type="text/css">*{stroke-linejoin: round; stroke-linecap: butt}</style>
 </defs>
 <g id="figure_1">
  <g id="patch_1">
   <path d="M 0 252 
L 576 252 
L 576 0 
L 0 0 
z
" style="fill: #ffffff"/>
  </g>
  <g id="axes_1">
   <g id="patch_2">
    <path d="M 47.91 209.94 
L 565.2 209.94 
L 565.2 29.04 
L 47.91 29.04 
z
" style="fill: #ffffff"/>
   </g>
   <g id="matplotlib.axis_1">
    <g id="xtick_1">
     <g id="line2d_1">
      <path d="M 71.423182 209.94 
L 71.423182 29.04 
" clip-path="url(#ped0a75da9f)" style="fill: none; stroke-dasharray: 2.22,0.96; stroke-dashoffset: 0; stroke: #b0b0b0; stroke-opacity: 0.7; stroke-width: 0.6"/>
     </g>
     <g id="line2d_2">
      <defs>
       <path id="m8c3c1ef9ca" d="M 0 0 
L 0 -3.5 
" style="stroke: #1a1a1a; stroke-width: 0.8"/>
      </defs>
      <g>
       <use xlink:href="#m8c3c1ef9ca" x="71.423182" y="209.94" style="fill: #1a1a1a; stroke: #1a1a1a; stroke-width: 0.8"/>
      </g>
     </g>
     <g id="text_1">
      <!-- 0 -->
      <g style="fill: #1a1a1a" transform="translate(67.605682 222.558125) scale(0.12 -0.12)">
       <defs>
        <path id="DejaVuSans-30" d="M 2034 4250 
Q 1547 4250 1301 3770 
Q 1056 3291 1056 2328 
Q 1056 1369 1301 889 
Q 1547 409 2034 409 
Q 2525 409 2770 889 
Q 3016 1369 3016 2328 
Q 3016 3291 2770 3770 
Q 2525 4250 2034 4250 
z
M 2034 4750 
Q 2819 4750 3233 4129 
Q 3647 3509 3647 2328 
Q 3647 1150 3233 529 
Q 2819 -91 2034 -91 
Q 1250 -91 836 529 
Q 422 1150 422 2328 
Q 422 3509 836 4129 
Q 1250 4750 2034 4750 
z
" transform="scale(0.015625)"/>
       </defs>
       <use xlink:href="#DejaVuSans-30"/>
      </g>
     </g>
    </g>
    <g id="xtick_2">
     <g id="line2d_3">
      <path d="M 130.220836 209.94 
L 130.220836 29.04 
" clip-path="url(#ped0a75da9f)" style="fill: none; stroke-dasharray: 2.22,0.96; stroke-dashoffset: 0; stroke: #b0b0b0; stroke-opacity: 0.7; stroke-width: 0.6"/>
     </g>
     <g id="line2d_4">
      <g>
       <use xlink:href="#m8c3c1ef9ca" x="130.220836" y="209.94" style="fill: #1a1a1a; stroke: #1a1a1a; stroke-width: 0.8"/>
      </g>
     </g>
     <g id="text_2">
      <!-- 1 -->
      <g style="fill: #1a1a1a" transform="translate(126.403336 222.558125) scale(0.12 -0.12)">
       <defs>
        <path id="DejaVuSans-31" d="M 794 531 
L 1825 531 
L 1825 4091 
L 703 3866 
L 703 4441 
L 1819 4666 
L 2450 4666 
L 2450 531 
L 3481 531 
L 3481 0 
L 794 0 
L 794 531 
z
" transform="scale(0.015625)"/>
       </defs>
       <use xlink:href="#DejaVuSans-31"/>
      </g>
     </g>
    </g>
    <g id="xtick_3">
     <g id="line2d_5">
      <path d="M 189.01849 209.94 
L 189.01849 29.04 
" clip-path="url(#ped0a75da9f)" style="fill: none; stroke-dasharray: 2.22,0.96; stroke-dashoffset: 0; stroke: #b0b0b0; stroke-opacity: 0.7; stroke-width: 0.6"/>
     </g>
     <g id="line2d_6">
      <g>
       <use xlink:href="#m8c3c1ef9ca" x="189.01849" y="209.94" style="fill: #1a1a1a; stroke: #1a1a1a; stroke-width: 0.8"/>
      </g>
     </g>
     <g id="text_3">
      <!-- 2 -->
      <g style="fill: #1a1a1a" transform="translate(185.20099 222.558125) scale(0.12 -0.12)">
       <defs>
        <path id="DejaVuSans-32" d="M 1228 531 
L 3431 531 
L 3431 0 
L 469 0 
L 469 531 
Q 828 903 1448 1529 
Q 2069 2156 2228 2338 
Q 2531 2678 2651 2914 
Q 2772 3150 2772 3378 
Q 2772 3750 2511 3984 
Q 2250 4219 1831 4219 
Q 1534 4219 1204 4116 
Q 875 4013 500 3803 
L 500 4441 
Q 881 4594 1212 4672 
Q 1544 4750 1819 4750 
Q 2544 4750 2975 4387 
Q 3406 4025 3406 3419 
Q 3406 3131 3298 2873 
Q 3191 2616 2906 2266 
Q 2828 2175 2409 1742 
Q 1991 1309 1228 531 
z
" transform="scale(0.015625)"/>
       </defs>
       <use xlink:href="#DejaVuSans-32"/>
      </g>
     </g>
    </g>
    <g id="xtick_4">
     <g id="line2d_7">
      <path d="M 247.816144 209.94 
L 247.816144 29.04 
" clip-path="url(#ped0a75da9f)" style="fill: none; stroke-dasharray: 2.22,0.96; stroke-dashoffset: 0; stroke: #b0b0b0; stroke-opacity: 0.7; stroke-width: 0.6"/>
     </g>
     <g id="line2d_8">
      <g>
       <use xlink:href="#m8c3c1ef9ca" x="247.816144" y="209.94" style="fill: #1a1a1a; stroke: #1a1a1a; stroke-width: 0.8"/>
      </g>
     </g>
     <g id="text_4">
      <!-- 3 -->
      <g style="fill: #1a1a1a" transform="translate(243.998644 222.558125) scale(0.12 -0.12)">
       <defs>
        <path id="DejaVuSans-33" d="M 2597 2516 
Q 3050 2419 3304 2112 
Q 3559 1806 3559 1356 
Q 3559 666 3084 287 
Q 2609 -91 1734 -91 
Q 1441 -91 1130 -33 
Q 819 25 488 141 
L 488 750 
Q 750 597 1062 519 
Q 1375 441 1716 441 
Q 2309 441 2620 675 
Q 2931 909 2931 1356 
Q 2931 1769 2642 2001 
Q 2353 2234 1838 2234 
L 1294 2234 
L 1294 2753 
L 1863 2753 
Q 2328 2753 2575 2939 
Q 2822 3125 2822 3475 
Q 2822 3834 2567 4026 
Q 2313 4219 1838 4219 
Q 1578 4219 1281 4162 
Q 984 4106 628 3988 
L 628 4550 
Q 988 4650 1302 4700 
Q 1616 4750 1894 4750 
Q 2613 4750 3031 4423 
Q 3450 4097 3450 3541 
Q 3450 3153 3228 2886 
Q 3006 2619 2597 2516 
z
" transform="scale(0.015625)"/>
       </defs>
       <use xlink:href="#DejaVuSans-33"/>
      </g>
     </g>
    </g>
    <g id="xtick_5">
     <g id="line2d_9">
      <path d="M 306.613798 209.94 
L 306.613798 29.04 
" clip-path="url(#ped0a75da9f)" style="fill: none; stroke-dasharray: 2.22,0.96; stroke-dashoffset: 0; stroke: #b0b0b0; stroke-opacity: 0.7; stroke-width: 0.6"/>
     </g>
     <g id="line2d_10">
      <g>
       <use xlink:href="#m8c3c1ef9ca" x="306.613798" y="209.94" style="fill: #1a1a1a; stroke: #1a1a1a; stroke-width: 0.8"/>
      </g>
     </g>
     <g id="text_5">
      <!-- 4 -->
      <g style="fill: #1a1a1a" transform="translate(302.796298 222.558125) scale(0.12 -0.12)">
       <defs>
        <path id="DejaVuSans-34" d="M 2419 4116 
L 825 1625 
L 2419 1625 
L 2419 4116 
z
M 2253 4666 
L 3047 4666 
L 3047 1625 
L 3713 1625 
L 3713 1100 
L 3047 1100 
L 3047 0 
L 2419 0 
L 2419 1100 
L 313 1100 
L 313 1709 
L 2253 4666 
z
" transform="scale(0.015625)"/>
       </defs>
       <use xlink:href="#DejaVuSans-34"/>
      </g>
     </g>
    </g>
    <g id="xtick_6">
     <g id="line2d_11">
      <path d="M 365.411452 209.94 
L 365.411452 29.04 
" clip-path="url(#ped0a75da9f)" style="fill: none; stroke-dasharray: 2.22,0.96; stroke-dashoffset: 0; stroke: #b0b0b0; stroke-opacity: 0.7; stroke-width: 0.6"/>
     </g>
     <g id="line2d_12">
      <g>
       <use xlink:href="#m8c3c1ef9ca" x="365.411452" y="209.94" style="fill: #1a1a1a; stroke: #1a1a1a; stroke-width: 0.8"/>
      </g>
     </g>
     <g id="text_6">
      <!-- 5 -->
      <g style="fill: #1a1a1a" transform="translate(361.593952 222.558125) scale(0.12 -0.12)">
       <defs>
        <path id="DejaVuSans-35" d="M 691 4666 
L 3169 4666 
L 3169 4134 
L 1269 4134 
L 1269 2991 
Q 1406 3038 1543 3061 
Q 1681 3084 1819 3084 
Q 2600 3084 3056 2656 
Q 3513 2228 3513 1497 
Q 3513 744 3044 326 
Q 2575 -91 1722 -91 
Q 1428 -91 1123 -41 
Q 819 9 494 109 
L 494 744 
Q 775 591 1075 516 
Q 1375 441 1709 441 
Q 2250 441 2565 725 
Q 2881 1009 2881 1497 
Q 2881 1984 2565 2268 
Q 2250 2553 1709 2553 
Q 1456 2553 1204 2497 
Q 953 2441 691 2322 
L 691 4666 
z
" transform="scale(0.015625)"/>
       </defs>
       <use xlink:href="#DejaVuSans-35"/>
      </g>
     </g>
    </g>
    <g id="xtick_7">
     <g id="line2d_13">
      <path d="M 424.209106 209.94 
L 424.209106 29.04 
" clip-path="url(#ped0a75da9f)" style="fill: none; stroke-dasharray: 2.22,0.96; stroke-dashoffset: 0; stroke: #b0b0b0; stroke-opacity: 0.7; stroke-width: 0.6"/>
     </g>
     <g id="line2d_14">
      <g>
       <use xlink:href="#m8c3c1ef9ca" x="424.209106" y="209.94" style="fill: #1a1a1a; stroke: #1a1a1a; stroke-width: 0.8"/>
      </g>
     </g>
     <g id="text_7">
      <!-- 6 -->
      <g style="fill: #1a1a1a" transform="translate(420.391606 222.558125) scale(0.12 -0.12)">
       <defs>
        <path id="DejaVuSans-36" d="M 2113 2584 
Q 1688 2584 1439 2293 
Q 1191 2003 1191 1497 
Q 1191 994 1439 701 
Q 1688 409 2113 409 
Q 2538 409 2786 701 
Q 3034 994 3034 1497 
Q 3034 2003 2786 2293 
Q 2538 2584 2113 2584 
z
M 3366 4563 
L 3366 3988 
Q 3128 4100 2886 4159 
Q 2644 4219 2406 4219 
Q 1781 4219 1451 3797 
Q 1122 3375 1075 2522 
Q 1259 2794 1537 2939 
Q 1816 3084 2150 3084 
Q 2853 3084 3261 2657 
Q 3669 2231 3669 1497 
Q 3669 778 3244 343 
Q 2819 -91 2113 -91 
Q 1303 -91 875 529 
Q 447 1150 447 2328 
Q 447 3434 972 4092 
Q 1497 4750 2381 4750 
Q 2619 4750 2861 4703 
Q 3103 4656 3366 4563 
z
" transform="scale(0.015625)"/>
       </defs>
       <use xlink:href="#DejaVuSans-36"/>
      </g>
     </g>
    </g>
    <g id="xtick_8">
     <g id="line2d_15">
      <path d="M 483.00676 209.94 
L 483.00676 29.04 
" clip-path="url(#ped0a75da9f)" style="fill: none; stroke-dasharray: 2.22,0.96; stroke-dashoffset: 0; stroke: #b0b0b0; stroke-opacity: 0.7; stroke-width: 0.6"/>
     </g>
     <g id="line2d_16">
      <g>
       <use xlink:href="#m8c3c1ef9ca" x="483.00676" y="209.94" style="fill: #1a1a1a; stroke: #1a1a1a; stroke-width: 0.8"/>
      </g>
     </g>
     <g id="text_8">
      <!-- 7 -->
      <g style="fill: #1a1a1a" transform="translate(479.18926 222.558125) scale(0.12 -0.12)">
       <defs>
        <path id="DejaVuSans-37" d="M 525 4666 
L 3525 4666 
L 3525 4397 
L 1831 0 
L 1172 0 
L 2766 4134 
L 525 4134 
L 525 4666 
z
" transform="scale(0.015625)"/>
       </defs>
       <use xlink:href="#DejaVuSans-37"/>
      </g>
     </g>
    </g>
    <g id="xtick_9">
     <g id="line2d_17">
      <path d="M 541.804413 209.94 
L 541.804413 29.04 
" clip-path="url(#ped0a75da9f)" style="fill: none; stroke-dasharray: 2.22,0.96; stroke-dashoffset: 0; stroke: #b0b0b0; stroke-opacity: 0.7; stroke-width: 0.6"/>
     </g>
     <g id="line2d_18">
      <g>
       <use xlink:href="#m8c3c1ef9ca" x="541.804413" y="209.94" style="fill: #1a1a1a; stroke: #1a1a1a; stroke-width: 0.8"/>
      </g>
     </g>
     <g id="text_9">
      <!-- 8 -->
      <g style="fill: #1a1a1a" transform="translate(537.986913 222.558125) scale(0.12 -0.12)">
       <defs>
        <path id="DejaVuSans-38" d="M 2034 2216 
Q 1584 2216 1326 1975 
Q 1069 1734 1069 1313 
Q 1069 891 1326 650 
Q 1584 409 2034 409 
Q 2484 409 2743 651 
Q 3003 894 3003 1313 
Q 3003 1734 2745 1975 
Q 2488 2216 2034 2216 
z
M 1403 2484 
Q 997 2584 770 2862 
Q 544 3141 544 3541 
Q 544 4100 942 4425 
Q 1341 4750 2034 4750 
Q 2731 4750 3128 4425 
Q 3525 4100 3525 3541 
Q 3525 3141 3298 2862 
Q 3072 2584 2669 2484 
Q 3125 2378 3379 2068 
Q 3634 1759 3634 1313 
Q 3634 634 3220 271 
Q 2806 -91 2034 -91 
Q 1263 -91 848 271 
Q 434 634 434 1313 
Q 434 1759 690 2068 
Q 947 2378 1403 2484 
z
M 1172 3481 
Q 1172 3119 1398 2916 
Q 1625 2713 2034 2713 
Q 2441 2713 2670 2916 
Q 2900 3119 2900 3481 
Q 2900 3844 2670 4047 
Q 2441 4250 2034 4250 
Q 1625 4250 1398 4047 
Q 1172 3844 1172 3481 
z
" transform="scale(0.015625)"/>
       </defs>
       <use xlink:href="#DejaVuSans-38"/>
      </g>
     </g>
    </g>
    <g id="text_10">
     <!-- Time (arbitrary units) -->
     <g style="fill: #1a1a1a" transform="translate(242.496562 238.171875) scale(0.12 -0.12)">
      <defs>
       <path id="DejaVuSans-54" d="M -19 4666 
L 3928 4666 
L 3928 4134 
L 2272 4134 
L 2272 0 
L 1638 0 
L 1638 4134 
L -19 4134 
L -19 4666 
z
" transform="scale(0.015625)"/>
       <path id="DejaVuSans-69" d="M 603 3500 
L 1178 3500 
L 1178 0 
L 603 0 
L 603 3500 
z
M 603 4863 
L 1178 4863 
L 1178 4134 
L 603 4134 
L 603 4863 
z
" transform="scale(0.015625)"/>
       <path id="DejaVuSans-6d" d="M 3328 2828 
Q 3544 3216 3844 3400 
Q 4144 3584 4550 3584 
Q 5097 3584 5394 3201 
Q 5691 2819 5691 2113 
L 5691 0 
L 5113 0 
L 5113 2094 
Q 5113 2597 4934 2840 
Q 4756 3084 4391 3084 
Q 3944 3084 3684 2787 
Q 3425 2491 3425 1978 
L 3425 0 
L 2847 0 
L 2847 2094 
Q 2847 2600 2669 2842 
Q 2491 3084 2119 3084 
Q 1678 3084 1418 2786 
Q 1159 2488 1159 1978 
L 1159 0 
L 581 0 
L 581 3500 
L 1159 3500 
L 1159 2956 
Q 1356 3278 1631 3431 
Q 1906 3584 2284 3584 
Q 2666 3584 2933 3390 
Q 3200 3197 3328 2828 
z
" transform="scale(0.015625)"/>
       <path id="DejaVuSans-65" d="M 3597 1894 
L 3597 1613 
L 953 1613 
Q 991 1019 1311 708 
Q 1631 397 2203 397 
Q 2534 397 2845 478 
Q 3156 559 3463 722 
L 3463 178 
Q 3153 47 2828 -22 
Q 2503 -91 2169 -91 
Q 1331 -91 842 396 
Q 353 884 353 1716 
Q 353 2575 817 3079 
Q 1281 3584 2069 3584 
Q 2775 3584 3186 3129 
Q 3597 2675 3597 1894 
z
M 3022 2063 
Q 3016 2534 2758 2815 
Q 2500 3097 2075 3097 
Q 1594 3097 1305 2825 
Q 1016 2553 972 2059 
L 3022 2063 
z
" transform="scale(0.015625)"/>
       <path id="DejaVuSans-20" transform="scale(0.015625)"/>
       <path id="DejaVuSans-28" d="M 1984 4856 
Q 1566 4138 1362 3434 
Q 1159 2731 1159 2009 
Q 1159 1288 1364 580 
Q 1569 -128 1984 -844 
L 1484 -844 
Q 1016 -109 783 600 
Q 550 1309 550 2009 
Q 550 2706 781 3412 
Q 1013 4119 1484 4856 
L 1984 4856 
z
" transform="scale(0.015625)"/>
       <path id="DejaVuSans-61" d="M 2194 1759 
Q 1497 1759 1228 1600 
Q 959 1441 959 1056 
Q 959 750 1161 570 
Q 1363 391 1709 391 
Q 2188 391 2477 730 
Q 2766 1069 2766 1631 
L 2766 1759 
L 2194 1759 
z
M 3341 1997 
L 3341 0 
L 2766 0 
L 2766 531 
Q 2569 213 2275 61 
Q 1981 -91 1556 -91 
Q 1019 -91 701 211 
Q 384 513 384 1019 
Q 384 1609 779 1909 
Q 1175 2209 1959 2209 
L 2766 2209 
L 2766 2266 
Q 2766 2663 2505 2880 
Q 2244 3097 1772 3097 
Q 1472 3097 1187 3025 
Q 903 2953 641 2809 
L 641 3341 
Q 956 3463 1253 3523 
Q 1550 3584 1831 3584 
Q 2591 3584 2966 3190 
Q 3341 2797 3341 1997 
z
" transform="scale(0.015625)"/>
       <path id="DejaVuSans-72" d="M 2631 2963 
Q 2534 3019 2420 3045 
Q 2306 3072 2169 3072 
Q 1681 3072 1420 2755 
Q 1159 2438 1159 1844 
L 1159 0 
L 581 0 
L 581 3500 
L 1159 3500 
L 1159 2956 
Q 1341 3275 1631 3429 
Q 1922 3584 2338 3584 
Q 2397 3584 2469 3576 
Q 2541 3569 2628 3553 
L 2631 2963 
z
" transform="scale(0.015625)"/>
       <path id="DejaVuSans-62" d="M 3116 1747 
Q 3116 2381 2855 2742 
Q 2594 3103 2138 3103 
Q 1681 3103 1420 2742 
Q 1159 2381 1159 1747 
Q 1159 1113 1420 752 
Q 1681 391 2138 391 
Q 2594 391 2855 752 
Q 3116 1113 3116 1747 
z
M 1159 2969 
Q 1341 3281 1617 3432 
Q 1894 3584 2278 3584 
Q 2916 3584 3314 3078 
Q 3713 2572 3713 1747 
Q 3713 922 3314 415 
Q 2916 -91 2278 -91 
Q 1894 -91 1617 61 
Q 1341 213 1159 525 
L 1159 0 
L 581 0 
L 581 4863 
L 1159 4863 
L 1159 2969 
z
" transform="scale(0.015625)"/>
       <path id="DejaVuSans-74" d="M 1172 4494 
L 1172 3500 
L 2356 3500 
L 2356 3053 
L 1172 3053 
L 1172 1153 
Q 1172 725 1289 603 
Q 1406 481 1766 481 
L 2356 481 
L 2356 0 
L 1766 0 
Q 1100 0 847 248 
Q 594 497 594 1153 
L 594 3053 
L 172 3053 
L 172 3500 
L 594 3500 
L 594 4494 
L 1172 4494 
z
" transform="scale(0.015625)"/>
       <path id="DejaVuSans-79" d="M 2059 -325 
Q 1816 -950 1584 -1140 
Q 1353 -1331 966 -1331 
L 506 -1331 
L 506 -850 
L 844 -850 
Q 1081 -850 1212 -737 
Q 1344 -625 1503 -206 
L 1606 56 
L 191 3500 
L 800 3500 
L 1894 763 
L 2988 3500 
L 3597 3500 
L 2059 -325 
z
" transform="scale(0.015625)"/>
       <path id="DejaVuSans-75" d="M 544 1381 
L 544 3500 
L 1119 3500 
L 1119 1403 
Q 1119 906 1312 657 
Q 1506 409 1894 409 
Q 2359 409 2629 706 
Q 2900 1003 2900 1516 
L 2900 3500 
L 3475 3500 
L 3475 0 
L 2900 0 
L 2900 538 
Q 2691 219 2414 64 
Q 2138 -91 1772 -91 
Q 1169 -91 856 284 
Q 544 659 544 1381 
z
M 1991 3584 
L 1991 3584 
z
" transform="scale(0.015625)"/>
       <path id="DejaVuSans-6e" d="M 3513 2113 
L 3513 0 
L 2938 0 
L 2938 2094 
Q 2938 2591 2744 2837 
Q 2550 3084 2163 3084 
Q 1697 3084 1428 2787 
Q 1159 2491 1159 1978 
L 1159 0 
L 581 0 
L 581 3500 
L 1159 3500 
L 1159 2956 
Q 1366 3272 1645 3428 
Q 1925 3584 2291 3584 
Q 2894 3584 3203 3211 
Q 3513 2838 3513 2113 
z
" transform="scale(0.015625)"/>
       <path id="DejaVuSans-73" d="M 2834 3397 
L 2834 2853 
Q 2591 2978 2328 3040 
Q 2066 3103 1784 3103 
Q 1356 3103 1142 2972 
Q 928 2841 928 2578 
Q 928 2378 1081 2264 
Q 1234 2150 1697 2047 
L 1894 2003 
Q 2506 1872 2764 1633 
Q 3022 1394 3022 966 
Q 3022 478 2636 193 
Q 2250 -91 1575 -91 
Q 1294 -91 989 -36 
Q 684 19 347 128 
L 347 722 
Q 666 556 975 473 
Q 1284 391 1588 391 
Q 1994 391 2212 530 
Q 2431 669 2431 922 
Q 2431 1156 2273 1281 
Q 2116 1406 1581 1522 
L 1381 1569 
Q 847 1681 609 1914 
Q 372 2147 372 2553 
Q 372 3047 722 3315 
Q 1072 3584 1716 3584 
Q 2034 3584 2315 3537 
Q 2597 3491 2834 3397 
z
" transform="scale(0.015625)"/>
       <path id="DejaVuSans-29" d="M 513 4856 
L 1013 4856 
Q 1481 4119 1714 3412 
Q 1947 2706 1947 2009 
Q 1947 1309 1714 600 
Q 1481 -109 1013 -844 
L 513 -844 
Q 928 -128 1133 580 
Q 1338 1288 1338 2009 
Q 1338 2731 1133 3434 
Q 928 4138 513 4856 
z
" transform="scale(0.015625)"/>
      </defs>
      <use xlink:href="#DejaVuSans-54"/>
      <use xlink:href="#DejaVuSans-69" x="57.958984"/>
      <use xlink:href="#DejaVuSans-6d" x="85.742188"/>
      <use xlink:href="#DejaVuSans-65" x="183.154297"/>
      <use xlink:href="#DejaVuSans-20" x="244.677734"/>
      <use xlink:href="#DejaVuSans-28" x="276.464844"/>
      <use xlink:href="#DejaVuSans-61" x="315.478516"/>
      <use xlink:href="#DejaVuSans-72" x="376.757812"/>
      <use xlink:href="#DejaVuSans-62" x="417.871094"/>
      <use xlink:href="#DejaVuSans-69" x="481.347656"/>
      <use xlink:href="#DejaVuSans-74" x="509.130859"/>
      <use xlink:href="#DejaVuSans-72" x="548.339844"/>
      <use xlink:href="#DejaVuSans-61" x="589.453125"/>
      <use xlink:href="#DejaVuSans-72" x="650.732422"/>
      <use xlink:href="#DejaVuSans-79" x="691.845703"/>
      <use xlink:href="#DejaVuSans-20" x="751.025391"/>
      <use xlink:href="#DejaVuSans-75" x="782.8125"/>
      <use xlink:href="#DejaVuSans-6e" x="846.191406"/>
      <use xlink:href="#DejaVuSans-69" x="909.570312"/>
      <use xlink:href="#DejaVuSans-74" x="937.353516"/>
      <use xlink:href="#DejaVuSans-73" x="976.5625"/>
      <use xlink:href="#DejaVuSans-29" x="1028.662109"/>
     </g>
    </g>
   </g>
   <g id="matplotlib.axis_2">
    <g id="ytick_1">
     <g id="line2d_19">
      <path d="M 47.91 186.47565 
L 565.2 186.47565 
" clip-path="url(#ped0a75da9f)" style="fill: none; stroke-dasharray: 2.22,0.96; stroke-dashoffset: 0; stroke: #b0b0b0; stroke-opacity: 0.7; stroke-width: 0.6"/>
     </g>
     <g id="line2d_20">
      <defs>
       <path id="m1ca3484c77" d="M 0 0 
L 3.5 0 
" style="stroke: #1a1a1a; stroke-width: 0.8"/>
      </defs>
      <g>
       <use xlink:href="#m1ca3484c77" x="47.91" y="186.47565" style="fill: #1a1a1a; stroke: #1a1a1a; stroke-width: 0.8"/>
      </g>
     </g>
     <g id="text_11">
      <!-- −1 -->
      <g style="fill: #1a1a1a" transform="translate(26.719375 191.034713) scale(0.12 -0.12)">
       <defs>
        <path id="DejaVuSans-2212" d="M 678 2272 
L 4684 2272 
L 4684 1741 
L 678 1741 
L 678 2272 
z
" transform="scale(0.015625)"/>
       </defs>
       <use xlink:href="#DejaVuSans-2212"/>
       <use xlink:href="#DejaVuSans-31" x="83.789062"/>
      </g>
     </g>
    </g>
    <g id="ytick_2">
     <g id="line2d_21">
      <path d="M 47.91 143.843386 
L 565.2 143.843386 
" clip-path="url(#ped0a75da9f)" style="fill: none; stroke-dasharray: 2.22,0.96; stroke-dashoffset: 0; stroke: #b0b0b0; stroke-opacity: 0.7; stroke-width: 0.6"/>
     </g>
     <g id="line2d_22">
      <g>
       <use xlink:href="#m1ca3484c77" x="47.91" y="143.843386" style="fill: #1a1a1a; stroke: #1a1a1a; stroke-width: 0.8"/>
      </g>
     </g>
     <g id="text_12">
      <!-- 0 -->
      <g style="fill: #1a1a1a" transform="translate(36.775 148.402449) scale(0.12 -0.12)">
       <use xlink:href="#DejaVuSans-30"/>
      </g>
     </g>
    </g>
    <g id="ytick_3">
     <g id="line2d_23">
      <path d="M 47.91 101.211123 
L 565.2 101.211123 
" clip-path="url(#ped0a75da9f)" style="fill: none; stroke-dasharray: 2.22,0.96; stroke-dashoffset: 0; stroke: #b0b0b0; stroke-opacity: 0.7; stroke-width: 0.6"/>
     </g>
     <g id="line2d_24">
      <g>
       <use xlink:href="#m1ca3484c77" x="47.91" y="101.211123" style="fill: #1a1a1a; stroke: #1a1a1a; stroke-width: 0.8"/>
      </g>
     </g>
     <g id="text_13">
      <!-- 1 -->
      <g style="fill: #1a1a1a" transform="translate(36.775 105.770185) scale(0.12 -0.12)">
       <use xlink:href="#DejaVuSans-31"/>
      </g>
     </g>
    </g>
    <g id="ytick_4">
     <g id="line2d_25">
      <path d="M 47.91 58.578859 
L 565.2 58.578859 
" clip-path="url(#ped0a75da9f)" style="fill: none; stroke-dasharray: 2.22,0.96; stroke-dashoffset: 0; stroke: #b0b0b0; stroke-opacity: 0.7; stroke-width: 0.6"/>
     </g>
     <g id="line2d_26">
      <g>
       <use xlink:href="#m1ca3484c77" x="47.91" y="58.578859" style="fill: #1a1a1a; stroke: #1a1a1a; stroke-width: 0.8"/>
      </g>
     </g>
     <g id="text_14">
      <!-- 2 -->
      <g style="fill: #1a1a1a" transform="translate(36.775 63.137922) scale(0.12 -0.12)">
       <use xlink:href="#DejaVuSans-32"/>
      </g>
     </g>
    </g>
    <g id="text_15">
     <!-- Value -->
     <g style="fill: #1a1a1a" transform="translate(20.22375 135.9675) rotate(-90) scale(0.12 -0.12)">
      <defs>
       <path id="DejaVuSans-56" d="M 1831 0 
L 50 4666 
L 709 4666 
L 2188 738 
L 3669 4666 
L 4325 4666 
L 2547 0 
L 1831 0 
z
" transform="scale(0.015625)"/>
       <path id="DejaVuSans-6c" d="M 603 4863 
L 1178 4863 
L 1178 0 
L 603 0 
L 603 4863 
z
" transform="scale(0.015625)"/>
      </defs>
      <use xlink:href="#DejaVuSans-56"/>
      <use xlink:href="#DejaVuSans-61" x="60.658203"/>
      <use xlink:href="#DejaVuSans-6c" x="121.9375"/>
      <use xlink:href="#DejaVuSans-75" x="149.720703"/>
      <use xlink:href="#DejaVuSans-65" x="213.099609"/>
     </g>
    </g>
   </g>
   <g id="line2d_27">
    <path d="M 71.423182 165.159518 
L 541.686818 37.262727 
L 541.686818 37.262727 
" clip-path="url(#ped0a75da9f)" style="fill: none; stroke: #ffaf00; stroke-linecap: square"/>
   </g>
   <g id="line2d_28">
    <path d="M 71.423182 143.417064 
L 71.658372 143.429793 
L 72.246349 143.699654 
L 72.71673 143.906754 
L 74.127874 144.546941 
L 74.598255 144.67614 
L 75.186232 144.843429 
L 75.421422 144.87303 
L 76.009399 145.135379 
L 76.950161 145.165244 
L 77.302947 145.357454 
L 77.538138 145.424736 
L 78.126114 145.593034 
L 79.302067 145.749744 
L 79.537258 145.88896 
L 79.772449 145.874277 
L 80.125235 145.971848 
L 80.595616 146.254271 
L 81.065997 146.370643 
L 82.359545 146.816489 
L 83.182713 147.325691 
L 85.181833 148.210974 
L 85.652214 148.347984 
L 85.887405 148.462831 
L 86.240191 148.585973 
L 90.238431 150.506944 
L 90.708812 150.649831 
L 91.414384 151.138804 
L 91.884765 151.293331 
L 92.119956 151.479425 
L 93.295909 152.139417 
L 93.648695 152.391396 
L 95.412625 153.361533 
L 95.883006 153.527169 
L 97.058959 154.082921 
L 97.411745 154.301679 
L 98.352507 154.677427 
L 98.940484 155.094027 
L 99.763651 155.582979 
L 99.998842 155.716594 
L 100.234032 155.791182 
L 101.997962 156.909523 
L 102.703534 157.324834 
L 103.05632 157.579171 
L 103.409106 157.789799 
L 110.582419 162.709981 
L 111.287991 163.266953 
L 111.523182 163.420728 
L 111.875968 163.783347 
L 111.993563 163.752416 
L 113.639897 165.067974 
L 116.697375 167.475606 
L 116.932566 167.703783 
L 117.402947 168.161608 
L 118.461305 169.126871 
L 119.519663 169.840481 
L 120.225235 170.539464 
L 120.460425 170.674587 
L 121.871569 171.858465 
L 122.812331 172.814225 
L 126.340191 176.01448 
L 126.575381 176.2407 
L 127.045762 176.546052 
L 127.751334 177.012114 
L 127.86893 177.022568 
L 128.221716 177.332715 
L 129.280073 178.062549 
L 129.86805 178.634941 
L 130.691217 179.286336 
L 132.925528 181.07244 
L 133.278314 181.479747 
L 134.101481 182.179067 
L 134.689457 182.600811 
L 136.100601 184.003737 
L 137.041364 184.744151 
L 137.864531 185.4749 
L 137.982126 185.499662 
L 138.334912 185.81833 
L 139.275674 186.53695 
L 140.686818 187.683216 
L 141.509985 188.358679 
L 141.745176 188.521407 
L 141.862771 188.551219 
L 142.097962 188.752069 
L 142.568343 188.969891 
L 143.626701 189.768342 
L 144.685059 190.640799 
L 144.920249 190.813789 
L 146.331393 191.396842 
L 146.91937 191.822469 
L 147.860132 192.31659 
L 148.448109 192.77313 
L 148.565704 192.784793 
L 148.91849 193.080221 
L 149.036085 193.086268 
L 149.624062 193.611352 
L 150.094443 193.815802 
L 150.91761 194.225231 
L 151.740777 194.723585 
L 153.622302 195.837425 
L 153.975088 196.002624 
L 156.914971 197.306816 
L 157.150161 197.461201 
L 157.973328 197.454957 
L 158.44371 197.584742 
L 160.560425 198.168406 
L 160.678021 198.253843 
L 160.913211 198.246839 
L 161.501188 198.395283 
L 161.971569 198.456356 
L 162.677141 198.51277 
L 163.382713 198.678589 
L 169.144883 200.008509 
L 169.497669 199.933282 
L 170.085645 200.043625 
L 170.673622 200.261471 
L 171.614384 200.484811 
L 172.202361 200.41 
L 172.555147 200.646584 
L 173.495909 200.751982 
L 174.319076 201.04543 
L 175.495029 201.22455 
L 175.73022 201.249617 
L 176.083006 201.203094 
L 176.435792 201.269949 
L 176.906173 201.277097 
L 177.611745 201.282794 
L 178.082126 201.342074 
L 178.552507 201.262244 
L 178.905293 201.299493 
L 179.375674 201.327964 
L 181.49239 201.632723 
L 182.080367 201.663045 
L 183.138724 201.568238 
L 183.49151 201.472446 
L 183.726701 201.495228 
L 184.079487 201.396397 
L 184.314677 201.374199 
L 185.608226 201.662075 
L 186.196202 201.562272 
L 188.077727 201.414355 
L 188.430513 201.547465 
L 189.136085 201.616898 
L 189.25368 201.514591 
L 189.488871 201.579338 
L 189.724062 201.51048 
L 190.076848 201.506924 
L 190.429633 201.440396 
L 190.664824 201.370108 
L 190.900015 201.340854 
L 191.135205 201.52011 
L 193.957493 201.535698 
L 194.427874 201.399764 
L 195.01585 201.332569 
L 195.486232 201.245887 
L 195.603827 201.314872 
L 195.956613 201.213263 
L 196.662185 201.104397 
L 197.132566 201.25707 
L 198.073328 200.989673 
L 198.896496 201.056058 
L 199.602067 201.038328 
L 200.072449 201.015509 
L 200.425235 201.031577 
L 201.365997 200.994499 
L 202.424355 201.059389 
L 202.894736 201.16837 
L 203.365117 201.123715 
L 205.599428 201.166942 
L 205.952214 201.248052 
L 206.422595 201.166055 
L 207.598548 201.082322 
L 208.421716 201.031291 
L 209.362478 200.660965 
L 211.008812 201.034605 
L 211.361598 200.980531 
L 211.831979 200.832037 
L 212.06717 200.806119 
L 212.655147 200.512571 
L 213.007933 200.589389 
L 214.419076 200.42005 
L 214.654267 200.478608 
L 215.947815 200.330201 
L 220.298842 200.003068 
L 220.534032 200.072495 
L 223.35632 199.630993 
L 223.59151 199.647728 
L 223.826701 199.514659 
L 226.413798 199.529859 
L 226.766584 199.512611 
L 229.588871 199.591934 
L 230.529633 199.523702 
L 230.882419 199.403248 
L 231.587991 199.464934 
L 232.411158 199.316992 
L 232.999135 199.299698 
L 233.11673 199.379103 
L 233.704707 199.170376 
L 234.175088 199.159861 
L 234.527874 199.196068 
L 234.88066 199.012211 
L 235.351041 198.97967 
L 235.703827 198.854988 
L 236.762185 198.783099 
L 236.997375 198.893147 
L 238.761305 198.919158 
L 238.996496 198.958699 
L 240.407639 198.948658 
L 240.64283 199.01252 
L 241.348402 198.911304 
L 242.053974 198.877231 
L 242.171569 198.817913 
L 242.524355 198.964102 
L 242.994736 198.810348 
L 243.229927 198.919084 
L 243.465117 198.824957 
L 244.64107 198.709946 
L 244.993856 198.757074 
L 246.052214 198.565443 
L 246.287405 198.637446 
L 246.992977 198.527958 
L 247.110572 198.568663 
L 247.345762 198.43394 
L 247.580953 198.467273 
L 249.932859 198.296797 
L 250.638431 198.00218 
L 250.873622 198.011355 
L 256.283006 197.48875 
L 257.106173 197.477748 
L 257.576554 197.498729 
L 257.811745 197.449235 
L 258.870103 197.422952 
L 259.340484 197.329756 
L 259.810865 197.22496 
L 262.868343 196.925751 
L 263.809106 196.716124 
L 264.161891 196.702819 
L 264.749868 196.727115 
L 265.220249 196.774625 
L 265.925821 196.55439 
L 266.396202 196.521233 
L 267.336965 196.412944 
L 267.572155 196.468008 
L 267.924941 196.347138 
L 268.748109 196.318454 
L 269.336085 195.983797 
L 269.688871 195.979385 
L 270.041657 195.938832 
L 271.570396 196.100934 
L 271.805587 196.139125 
L 272.158372 196.096778 
L 272.98154 195.917738 
L 273.451921 195.8349 
L 274.039897 195.784451 
L 274.392683 195.788996 
L 274.627874 195.705728 
L 274.745469 195.807807 
L 275.21585 195.666049 
L 275.333446 195.692825 
L 275.686232 195.544109 
L 276.274208 195.500773 
L 276.626994 195.367354 
L 277.332566 195.169904 
L 277.567757 195.096923 
L 278.508519 195.046313 
L 278.74371 194.944274 
L 279.684472 194.927358 
L 279.919663 194.960023 
L 280.272449 194.88986 
L 280.978021 194.955316 
L 281.330806 194.864399 
L 282.624355 194.621742 
L 282.859545 194.578035 
L 283.094736 194.571891 
L 285.093856 194.480975 
L 285.329047 194.451418 
L 286.034619 194.301947 
L 286.269809 194.209617 
L 287.445762 193.96343 
L 287.916144 193.987386 
L 288.974501 193.825939 
L 289.797669 193.836363 
L 293.207933 193.428985 
L 293.325528 193.49501 
L 293.560718 193.394594 
L 294.383886 193.359437 
L 294.736672 193.423751 
L 294.971862 193.378276 
L 296.970982 193.089211 
L 297.088578 193.132508 
L 297.558959 192.881065 
L 299.79327 192.81072 
L 300.851628 192.551679 
L 302.733152 192.258086 
L 303.55632 192.049359 
L 305.320249 191.933842 
L 305.437845 191.830056 
L 305.673035 191.842578 
L 306.025821 191.747183 
L 306.261012 191.714647 
L 307.31937 191.533973 
L 308.142537 191.204427 
L 308.612918 191.191961 
L 308.965704 191.074683 
L 309.31849 191.15358 
L 309.906466 191.057448 
L 310.612038 190.962414 
L 310.964824 190.787036 
L 311.31761 190.817675 
L 311.552801 190.791233 
L 312.023182 190.686052 
L 312.728754 190.8242 
L 313.31673 190.726408 
L 313.669516 190.566213 
L 314.610279 190.518324 
L 314.963065 190.410314 
L 315.551041 190.377147 
L 316.962185 190.105495 
L 317.432566 190.144405 
L 317.902947 189.963347 
L 318.373328 189.738434 
L 318.726114 189.715323 
L 320.019663 189.548086 
L 320.607639 189.551626 
L 320.84283 189.450881 
L 321.078021 189.476389 
L 321.665997 189.405793 
L 322.136378 189.288675 
L 322.489164 189.31878 
L 324.135499 189.245641 
L 324.370689 189.111717 
L 324.84107 189.176536 
L 325.076261 189.164133 
L 325.429047 189.165762 
L 325.664238 189.027941 
L 325.899428 189.051628 
L 326.605 188.988785 
L 326.840191 188.971784 
L 327.192977 188.934702 
L 327.663358 188.928157 
L 328.133739 188.88564 
L 328.60412 188.76732 
L 328.956906 188.735462 
L 329.544883 188.588015 
L 329.897669 188.574499 
L 330.60324 188.359245 
L 330.956026 188.379524 
L 331.426408 188.288733 
L 333.778314 188.24817 
L 334.601481 187.986921 
L 334.836672 188.067187 
L 335.189457 188.05728 
L 335.307053 188.055719 
L 335.659839 187.851105 
L 336.600601 187.717456 
L 337.070982 187.773784 
L 340.363651 186.833063 
L 340.598842 186.794016 
L 341.304413 186.765595 
L 343.185938 186.235846 
L 344.126701 186.307461 
L 344.949868 186.264505 
L 345.537845 186.433449 
L 347.536965 186.105486 
L 348.007346 185.907357 
L 348.124941 185.965135 
L 348.477727 185.817596 
L 348.948109 185.718118 
L 350.712038 185.462134 
L 350.947229 185.50703 
L 351.300015 185.34658 
L 352.005587 185.159526 
L 352.358372 184.953178 
L 353.18154 184.747629 
L 353.41673 184.799192 
L 353.887111 184.737604 
L 354.592683 184.610222 
L 355.768636 184.412828 
L 356.003827 184.382371 
L 357.767757 183.699041 
L 358.120543 183.745027 
L 358.355733 183.725397 
L 359.649282 183.20695 
L 360.237258 183.071081 
L 360.472449 183.007417 
L 365.529047 182.217444 
L 365.881833 182.200774 
L 367.175381 181.941036 
L 367.410572 181.862966 
L 367.528167 181.867635 
L 367.880953 181.61787 
L 370.350455 180.967759 
L 370.585645 180.94039 
L 370.820836 180.922776 
L 371.056026 180.819321 
L 371.408812 180.761988 
L 372.114384 180.710734 
L 373.760718 180.534375 
L 373.995909 180.431975 
L 374.936672 180.423856 
L 375.407053 180.291804 
L 375.642243 180.277228 
L 375.877434 180.342975 
L 376.112625 180.392679 
L 376.347815 180.337466 
L 376.700601 180.224362 
L 377.758959 179.970783 
L 377.99415 179.969531 
L 380.698842 179.068014 
L 380.934032 179.073137 
L 381.169223 178.996954 
L 381.522009 178.978078 
L 381.874795 178.854961 
L 382.345176 178.795484 
L 382.697962 178.581553 
L 383.403534 178.294563 
L 383.638724 178.169989 
L 384.461891 178.083545 
L 385.402654 177.774519 
L 386.578607 177.450057 
L 387.284179 177.234374 
L 389.988871 176.699409 
L 391.51761 176.283601 
L 391.870396 176.198831 
L 392.223182 175.971412 
L 398.102947 173.567437 
L 398.455733 173.531431 
L 400.454853 172.57856 
L 400.690044 172.536699 
L 402.101188 171.971866 
L 402.336378 171.951001 
L 402.80676 171.771908 
L 403.277141 171.371058 
L 403.394736 171.410155 
L 403.629927 171.314413 
L 403.865117 171.29398 
L 406.569809 170.080575 
L 407.040191 169.857236 
L 407.392977 169.604308 
L 407.628167 169.504408 
L 408.098548 169.185884 
L 408.333739 169.181048 
L 408.686525 168.984071 
L 408.921716 168.880487 
L 410.685645 167.980236 
L 410.920836 167.794565 
L 411.508812 167.593721 
L 412.331979 167.176304 
L 415.742243 165.146247 
L 417.976554 163.6587 
L 418.564531 163.238556 
L 418.799721 163.128683 
L 419.975674 162.525641 
L 420.210865 162.3988 
L 420.681246 162.253988 
L 421.857199 161.248966 
L 422.445176 160.839936 
L 423.503534 159.859629 
L 423.973915 159.379444 
L 426.796202 157.06794 
L 427.736965 156.175936 
L 429.383299 154.701708 
L 429.971276 154.097289 
L 430.912038 153.375072 
L 434.204707 150.237143 
L 435.027874 149.259185 
L 436.791804 147.429272 
L 437.967757 146.052551 
L 438.908519 144.916397 
L 439.496496 144.139103 
L 442.201188 140.474191 
L 442.553974 139.970218 
L 442.789164 139.671674 
L 443.14195 139.152493 
L 443.847522 138.02724 
L 444.082713 137.63928 
L 445.493856 135.318654 
L 446.081833 134.123105 
L 448.080953 130.434828 
L 448.551334 129.463313 
L 448.90412 128.81301 
L 455.724648 115.527265 
L 457.135792 112.339561 
L 457.841364 110.828293 
L 459.134912 107.983312 
L 460.19327 105.528941 
L 461.604413 102.556212 
L 462.427581 100.995568 
L 463.721129 97.923175 
L 465.132273 94.963112 
L 467.601774 89.988842 
L 468.189751 88.877502 
L 468.542537 88.108683 
L 469.130513 87.101428 
L 469.71849 86.097105 
L 471.364824 83.634456 
L 471.71761 83.115673 
L 472.187991 82.400646 
L 473.246349 80.864959 
L 473.71673 80.382787 
L 475.245469 78.724422 
L 475.951041 77.901054 
L 476.303827 77.541135 
L 476.539018 77.247828 
L 476.656613 77.214384 
L 477.362185 76.425506 
L 479.831686 74.37178 
L 480.184472 74.147286 
L 480.419663 73.936304 
L 486.299428 71.018669 
L 486.417023 71.062594 
L 487.122595 70.646113 
L 487.945762 70.33555 
L 488.651334 70.061681 
L 489.356906 70.013051 
L 490.415264 69.524179 
L 490.885645 69.291786 
L 492.296789 68.794427 
L 492.884765 68.767416 
L 493.237551 68.649607 
L 493.943123 68.624025 
L 494.178314 68.581679 
L 494.413504 68.568528 
L 494.5311 68.582259 
L 494.883886 68.422581 
L 495.119076 68.421537 
L 495.354267 68.322015 
L 495.942243 68.209358 
L 496.177434 68.151364 
L 497.588578 68.045539 
L 498.882126 68.085615 
L 499.117317 68.059819 
L 499.352507 68.115993 
L 500.29327 67.83535 
L 501.469223 67.89126 
L 503.585938 67.419477 
L 503.938724 67.419895 
L 505.114677 67.247008 
L 505.467463 67.264158 
L 505.702654 67.236198 
L 506.173035 67.26655 
L 506.408226 67.211213 
L 506.761012 67.201234 
L 507.466584 67.196579 
L 507.701774 67.087315 
L 507.936965 67.019267 
L 509.348109 66.754455 
L 509.700894 66.789801 
L 509.936085 66.716065 
L 510.288871 66.880251 
L 512.875968 66.98891 
L 513.228754 66.976079 
L 513.346349 67.027381 
L 513.699135 66.838469 
L 514.169516 66.838813 
L 514.404707 66.773923 
L 514.875088 66.727041 
L 517.344589 66.701337 
L 517.462185 66.768758 
L 517.697375 66.704008 
L 518.050161 66.622457 
L 518.520543 66.46573 
L 521.578021 66.295958 
L 522.048402 66.313453 
L 522.753974 66.50474 
L 523.224355 66.419857 
L 523.577141 66.417825 
L 524.047522 66.496511 
L 524.400308 66.482933 
L 524.635499 66.511705 
L 525.929047 66.365649 
L 526.517023 66.418296 
L 526.752214 66.487489 
L 527.457786 66.397128 
L 527.692977 66.4476 
L 528.163358 66.34969 
L 528.633739 66.139909 
L 530.044883 66.334623 
L 530.397669 66.24072 
L 531.808812 66.028897 
L 532.514384 65.979768 
L 532.86717 65.851321 
L 533.219956 65.935007 
L 533.690337 65.999195 
L 534.043123 65.976787 
L 534.86629 66.036213 
L 535.924648 65.919627 
L 536.395029 65.897623 
L 537.218196 65.708673 
L 537.688578 65.766204 
L 538.39415 65.75599 
L 538.746935 65.731982 
L 539.334912 65.844332 
L 539.570103 65.911373 
L 539.922889 65.899444 
L 540.275674 65.926863 
L 540.62846 65.809344 
L 540.863651 65.830955 
L 541.686818 65.783621 
L 541.686818 65.783621 
" clip-path="url(#ped0a75da9f)" style="fill: none; stroke: #f46920; stroke-linecap: square"/>
   </g>
   <g id="patch_3">
    <path d="M 47.91 209.94 
L 47.91 29.04 
" style="fill: none; stroke: #1a1a1a; stroke-linejoin: miter; stroke-linecap: square"/>
   </g>
   <g id="patch_4">
    <path d="M 47.91 209.94 
L 565.2 209.94 
" style="fill: none; stroke: #1a1a1a; stroke-linejoin: miter; stroke-linecap: square"/>
   </g>
   <g id="text_16">
    <!-- Bifurcation / ignition: r increases when k crosses threshold -->
    <g style="fill: #333333" transform="translate(72.66875 23.04) scale(0.16 -0.16)">
     <defs>
      <path id="DejaVuSans-42" d="M 1259 2228 
L 1259 519 
L 2272 519 
Q 2781 519 3026 730 
Q 3272 941 3272 1375 
Q 3272 1813 3026 2020 
Q 2781 2228 2272 2228 
L 1259 2228 
z
M 1259 4147 
L 1259 2741 
L 2194 2741 
Q 2656 2741 2882 2914 
Q 3109 3088 3109 3444 
Q 3109 3797 2882 3972 
Q 2656 4147 2194 4147 
L 1259 4147 
z
M 628 4666 
L 2241 4666 
Q 2963 4666 3353 4366 
Q 3744 4066 3744 3513 
Q 3744 3084 3544 2831 
Q 3344 2578 2956 2516 
Q 3422 2416 3680 2098 
Q 3938 1781 3938 1306 
Q 3938 681 3513 340 
Q 3088 0 2303 0 
L 628 0 
L 628 4666 
z
" transform="scale(0.015625)"/>
      <path id="DejaVuSans-66" d="M 2375 4863 
L 2375 4384 
L 1825 4384 
Q 1516 4384 1395 4259 
Q 1275 4134 1275 3809 
L 1275 3500 
L 2222 3500 
L 2222 3053 
L 1275 3053 
L 1275 0 
L 697 0 
L 697 3053 
L 147 3053 
L 147 3500 
L 697 3500 
L 697 3744 
Q 697 4328 969 4595 
Q 1241 4863 1831 4863 
L 2375 4863 
z
" transform="scale(0.015625)"/>
      <path id="DejaVuSans-63" d="M 3122 3366 
L 3122 2828 
Q 2878 2963 2633 3030 
Q 2388 3097 2138 3097 
Q 1578 3097 1268 2742 
Q 959 2388 959 1747 
Q 959 1106 1268 751 
Q 1578 397 2138 397 
Q 2388 397 2633 464 
Q 2878 531 3122 666 
L 3122 134 
Q 2881 22 2623 -34 
Q 2366 -91 2075 -91 
Q 1284 -91 818 406 
Q 353 903 353 1747 
Q 353 2603 823 3093 
Q 1294 3584 2113 3584 
Q 2378 3584 2631 3529 
Q 2884 3475 3122 3366 
z
" transform="scale(0.015625)"/>
      <path id="DejaVuSans-6f" d="M 1959 3097 
Q 1497 3097 1228 2736 
Q 959 2375 959 1747 
Q 959 1119 1226 758 
Q 1494 397 1959 397 
Q 2419 397 2687 759 
Q 2956 1122 2956 1747 
Q 2956 2369 2687 2733 
Q 2419 3097 1959 3097 
z
M 1959 3584 
Q 2709 3584 3137 3096 
Q 3566 2609 3566 1747 
Q 3566 888 3137 398 
Q 2709 -91 1959 -91 
Q 1206 -91 779 398 
Q 353 888 353 1747 
Q 353 2609 779 3096 
Q 1206 3584 1959 3584 
z
" transform="scale(0.015625)"/>
      <path id="DejaVuSans-2f" d="M 1625 4666 
L 2156 4666 
L 531 -594 
L 0 -594 
L 1625 4666 
z
" transform="scale(0.015625)"/>
      <path id="DejaVuSans-67" d="M 2906 1791 
Q 2906 2416 2648 2759 
Q 2391 3103 1925 3103 
Q 1463 3103 1205 2759 
Q 947 2416 947 1791 
Q 947 1169 1205 825 
Q 1463 481 1925 481 
Q 2391 481 2648 825 
Q 2906 1169 2906 1791 
z
M 3481 434 
Q 3481 -459 3084 -895 
Q 2688 -1331 1869 -1331 
Q 1566 -1331 1297 -1286 
Q 1028 -1241 775 -1147 
L 775 -588 
Q 1028 -725 1275 -790 
Q 1522 -856 1778 -856 
Q 2344 -856 2625 -561 
Q 2906 -266 2906 331 
L 2906 616 
Q 2728 306 2450 153 
Q 2172 0 1784 0 
Q 1141 0 747 490 
Q 353 981 353 1791 
Q 353 2603 747 3093 
Q 1141 3584 1784 3584 
Q 2172 3584 2450 3431 
Q 2728 3278 2906 2969 
L 2906 3500 
L 3481 3500 
L 3481 434 
z
" transform="scale(0.015625)"/>
      <path id="DejaVuSans-3a" d="M 750 794 
L 1409 794 
L 1409 0 
L 750 0 
L 750 794 
z
M 750 3309 
L 1409 3309 
L 1409 2516 
L 750 2516 
L 750 3309 
z
" transform="scale(0.015625)"/>
      <path id="DejaVuSans-77" d="M 269 3500 
L 844 3500 
L 1563 769 
L 2278 3500 
L 2956 3500 
L 3675 769 
L 4391 3500 
L 4966 3500 
L 4050 0 
L 3372 0 
L 2619 2869 
L 1863 0 
L 1184 0 
L 269 3500 
z
" transform="scale(0.015625)"/>
      <path id="DejaVuSans-68" d="M 3513 2113 
L 3513 0 
L 2938 0 
L 2938 2094 
Q 2938 2591 2744 2837 
Q 2550 3084 2163 3084 
Q 1697 3084 1428 2787 
Q 1159 2491 1159 1978 
L 1159 0 
L 581 0 
L 581 4863 
L 1159 4863 
L 1159 2956 
Q 1366 3272 1645 3428 
Q 1925 3584 2291 3584 
Q 2894 3584 3203 3211 
Q 3513 2838 3513 2113 
z
" transform="scale(0.015625)"/>
      <path id="DejaVuSans-6b" d="M 581 4863 
L 1159 4863 
L 1159 1991 
L 2875 3500 
L 3609 3500 
L 1753 1863 
L 3688 0 
L 2938 0 
L 1159 1709 
L 1159 0 
L 581 0 
L 581 4863 
z
" transform="scale(0.015625)"/>
      <path id="DejaVuSans-64" d="M 2906 2969 
L 2906 4863 
L 3481 4863 
L 3481 0 
L 2906 0 
L 2906 525 
Q 2725 213 2448 61 
Q 2172 -91 1784 -91 
Q 1150 -91 751 415 
Q 353 922 353 1747 
Q 353 2572 751 3078 
Q 1150 3584 1784 3584 
Q 2172 3584 2448 3432 
Q 2725 3281 2906 2969 
z
M 947 1747 
Q 947 1113 1208 752 
Q 1469 391 1925 391 
Q 2381 391 2643 752 
Q 2906 1113 2906 1747 
Q 2906 2381 2643 2742 
Q 2381 3103 1925 3103 
Q 1469 3103 1208 2742 
Q 947 2381 947 1747 
z
" transform="scale(0.015625)"/>
     </defs>
     <use xlink:href="#DejaVuSans-42"/>
     <use xlink:href="#DejaVuSans-69" x="68.603516"/>
     <use xlink:href="#DejaVuSans-66" x="96.386719"/>
     <use xlink:href="#DejaVuSans-75" x="131.591797"/>
     <use xlink:href="#DejaVuSans-72" x="194.970703"/>
     <use xlink:href="#DejaVuSans-63" x="233.833984"/>
     <use xlink:href="#DejaVuSans-61" x="288.814453"/>
     <use xlink:href="#DejaVuSans-74" x="350.09375"/>
     <use xlink:href="#DejaVuSans-69" x="389.302734"/>
     <use xlink:href="#DejaVuSans-6f" x="417.085938"/>
     <use xlink:href="#DejaVuSans-6e" x="478.267578"/>
     <use xlink:href="#DejaVuSans-20" x="541.646484"/>
     <use xlink:href="#DejaVuSans-2f" x="573.433594"/>
     <use xlink:href="#DejaVuSans-20" x="607.125"/>
     <use xlink:href="#DejaVuSans-69" x="638.912109"/>
     <use xlink:href="#DejaVuSans-67" x="666.695312"/>
     <use xlink:href="#DejaVuSans-6e" x="730.171875"/>
     <use xlink:href="#DejaVuSans-69" x="793.550781"/>
     <use xlink:href="#DejaVuSans-74" x="821.333984"/>
     <use xlink:href="#DejaVuSans-69" x="860.542969"/>
     <use xlink:href="#DejaVuSans-6f" x="888.326172"/>
     <use xlink:href="#DejaVuSans-6e" x="949.507812"/>
     <use xlink:href="#DejaVuSans-3a" x="1012.886719"/>
     <use xlink:href="#DejaVuSans-20" x="1046.578125"/>
     <use xlink:href="#DejaVuSans-72" x="1078.365234"/>
     <use xlink:href="#DejaVuSans-20" x="1119.478516"/>
     <use xlink:href="#DejaVuSans-69" x="1151.265625"/>
     <use xlink:href="#DejaVuSans-6e" x="1179.048828"/>
     <use xlink:href="#DejaVuSans-63" x="1242.427734"/>
     <use xlink:href="#DejaVuSans-72" x="1297.408203"/>
     <use xlink:href="#DejaVuSans-65" x="1336.271484"/>
     <use xlink:href="#DejaVuSans-61" x="1397.794922"/>
     <use xlink:href="#DejaVuSans-73" x="1459.074219"/>
     <use xlink:href="#DejaVuSans-65" x="1511.173828"/>
     <use xlink:href="#DejaVuSans-73" x="1572.697266"/>
     <use xlink:href="#DejaVuSans-20" x="1624.796875"/>
     <use xlink:href="#DejaVuSans-77" x="1656.583984"/>
     <use xlink:href="#DejaVuSans-68" x="1738.371094"/>
     <use xlink:href="#DejaVuSans-65" x="1801.75"/>
     <use xlink:href="#DejaVuSans-6e" x="1863.273438"/>
     <use xlink:href="#DejaVuSans-20" x="1926.652344"/>
     <use xlink:href="#DejaVuSans-6b" x="1958.439453"/>
     <use xlink:href="#DejaVuSans-20" x="2016.349609"/>
     <use xlink:href="#DejaVuSans-63" x="2048.136719"/>
     <use xlink:href="#DejaVuSans-72" x="2103.117188"/>
     <use xlink:href="#DejaVuSans-6f" x="2141.980469"/>
     <use xlink:href="#DejaVuSans-73" x="2203.162109"/>
     <use xlink:href="#DejaVuSans-73" x="2255.261719"/>
     <use xlink:href="#DejaVuSans-65" x="2307.361328"/>
     <use xlink:href="#DejaVuSans-73" x="2368.884766"/>
     <use xlink:href="#DejaVuSans-20" x="2420.984375"/>
     <use xlink:href="#DejaVuSans-74" x="2452.771484"/>
     <use xlink:href="#DejaVuSans-68" x="2491.980469"/>
     <use xlink:href="#DejaVuSans-72" x="2555.359375"/>
     <use xlink:href="#DejaVuSans-65" x="2594.222656"/>
     <use xlink:href="#DejaVuSans-73" x="2655.746094"/>
     <use xlink:href="#DejaVuSans-68" x="2707.845703"/>
     <use xlink:href="#DejaVuSans-6f" x="2771.224609"/>
     <use xlink:href="#DejaVuSans-6c" x="2832.40625"/>
     <use xlink:href="#DejaVuSans-64" x="2860.189453"/>
    </g>
   </g>
   <g id="legend_1">
    <g id="patch_5">
     <path d="M 54.91 66.39625 
L 224.695938 66.39625 
Q 226.695938 66.39625 226.695938 64.39625 
L 226.695938 36.04 
Q 226.695938 34.04 224.695938 34.04 
L 54.91 34.04 
Q 52.91 34.04 52.91 36.04 
L 52.91 64.39625 
Q 52.91 66.39625 54.91 66.39625 
z
" style="fill: #ffffff; opacity: 0.8; stroke: #cccccc; stroke-linejoin: miter"/>
    </g>
    <g id="line2d_29">
     <path d="M 56.91 42.138437 
L 66.91 42.138437 
L 76.91 42.138437 
" style="fill: none; stroke: #ffaf00; stroke-linecap: square"/>
    </g>
    <g id="text_17">
     <!-- Control parameter k (input) -->
     <g style="fill: #333333" transform="translate(84.91 45.638437) scale(0.1 -0.1)">
      <defs>
       <path id="DejaVuSans-43" d="M 4122 4306 
L 4122 3641 
Q 3803 3938 3442 4084 
Q 3081 4231 2675 4231 
Q 1875 4231 1450 3742 
Q 1025 3253 1025 2328 
Q 1025 1406 1450 917 
Q 1875 428 2675 428 
Q 3081 428 3442 575 
Q 3803 722 4122 1019 
L 4122 359 
Q 3791 134 3420 21 
Q 3050 -91 2638 -91 
Q 1578 -91 968 557 
Q 359 1206 359 2328 
Q 359 3453 968 4101 
Q 1578 4750 2638 4750 
Q 3056 4750 3426 4639 
Q 3797 4528 4122 4306 
z
" transform="scale(0.015625)"/>
       <path id="DejaVuSans-70" d="M 1159 525 
L 1159 -1331 
L 581 -1331 
L 581 3500 
L 1159 3500 
L 1159 2969 
Q 1341 3281 1617 3432 
Q 1894 3584 2278 3584 
Q 2916 3584 3314 3078 
Q 3713 2572 3713 1747 
Q 3713 922 3314 415 
Q 2916 -91 2278 -91 
Q 1894 -91 1617 61 
Q 1341 213 1159 525 
z
M 3116 1747 
Q 3116 2381 2855 2742 
Q 2594 3103 2138 3103 
Q 1681 3103 1420 2742 
Q 1159 2381 1159 1747 
Q 1159 1113 1420 752 
Q 1681 391 2138 391 
Q 2594 391 2855 752 
Q 3116 1113 3116 1747 
z
" transform="scale(0.015625)"/>
      </defs>
      <use xlink:href="#DejaVuSans-43"/>
      <use xlink:href="#DejaVuSans-6f" x="69.824219"/>
      <use xlink:href="#DejaVuSans-6e" x="131.005859"/>
      <use xlink:href="#DejaVuSans-74" x="194.384766"/>
      <use xlink:href="#DejaVuSans-72" x="233.59375"/>
      <use xlink:href="#DejaVuSans-6f" x="272.457031"/>
      <use xlink:href="#DejaVuSans-6c" x="333.638672"/>
      <use xlink:href="#DejaVuSans-20" x="361.421875"/>
      <use xlink:href="#DejaVuSans-70" x="393.208984"/>
      <use xlink:href="#DejaVuSans-61" x="456.685547"/>
      <use xlink:href="#DejaVuSans-72" x="517.964844"/>
      <use xlink:href="#DejaVuSans-61" x="559.078125"/>
      <use xlink:href="#DejaVuSans-6d" x="620.357422"/>
      <use xlink:href="#DejaVuSans-65" x="717.769531"/>
      <use xlink:href="#DejaVuSans-74" x="779.292969"/>
      <use xlink:href="#DejaVuSans-65" x="818.501953"/>
      <use xlink:href="#DejaVuSans-72" x="880.025391"/>
      <use xlink:href="#DejaVuSans-20" x="921.138672"/>
      <use xlink:href="#DejaVuSans-6b" x="952.925781"/>
      <use xlink:href="#DejaVuSans-20" x="1010.835938"/>
      <use xlink:href="#DejaVuSans-28" x="1042.623047"/>
      <use xlink:href="#DejaVuSans-69" x="1081.636719"/>
      <use xlink:href="#DejaVuSans-6e" x="1109.419922"/>
      <use xlink:href="#DejaVuSans-70" x="1172.798828"/>
      <use xlink:href="#DejaVuSans-75" x="1236.275391"/>
      <use xlink:href="#DejaVuSans-74" x="1299.654297"/>
      <use xlink:href="#DejaVuSans-29" x="1338.863281"/>
     </g>
    </g>
    <g id="line2d_30">
     <path d="M 56.91 56.816562 
L 66.91 56.816562 
L 76.91 56.816562 
" style="fill: none; stroke: #f46920; stroke-linecap: square"/>
    </g>
    <g id="text_18">
     <!-- Attractor strength r -->
     <g style="fill: #333333" transform="translate(84.91 60.316562) scale(0.1 -0.1)">
      <defs>
       <path id="DejaVuSans-41" d="M 2188 4044 
L 1331 1722 
L 3047 1722 
L 2188 4044 
z
M 1831 4666 
L 2547 4666 
L 4325 0 
L 3669 0 
L 3244 1197 
L 1141 1197 
L 716 0 
L 50 0 
L 1831 4666 
z
" transform="scale(0.015625)"/>
      </defs>
      <use xlink:href="#DejaVuSans-41"/>
      <use xlink:href="#DejaVuSans-74" x="66.658203"/>
      <use xlink:href="#DejaVuSans-74" x="105.867188"/>
      <use xlink:href="#DejaVuSans-72" x="145.076172"/>
      <use xlink:href="#DejaVuSans-61" x="186.189453"/>
      <use xlink:href="#DejaVuSans-63" x="247.46875"/>
      <use xlink:href="#DejaVuSans-74" x="302.449219"/>
      <use xlink:href="#DejaVuSans-6f" x="341.658203"/>
      <use xlink:href="#DejaVuSans-72" x="402.839844"/>
      <use xlink:href="#DejaVuSans-20" x="443.953125"/>
      <use xlink:href="#DejaVuSans-73" x="475.740234"/>
      <use xlink:href="#DejaVuSans-74" x="527.839844"/>
      <use xlink:href="#DejaVuSans-72" x="567.048828"/>
      <use xlink:href="#DejaVuSans-65" x="605.912109"/>
      <use xlink:href="#DejaVuSans-6e" x="667.435547"/>
      <use xlink:href="#DejaVuSans-67" x="730.814453"/>
      <use xlink:href="#DejaVuSans-74" x="794.291016"/>
      <use xlink:href="#DejaVuSans-68" x="833.5"/>
      <use xlink:href="#DejaVuSans-20" x="896.878906"/>
      <use xlink:href="#DejaVuSans-72" x="928.666016"/>
     </g>
    </g>
   </g>
  </g>
 </g>
 <defs>
  <clipPath id="ped0a75da9f">
   <rect x="47.91" y="29.04" width="517.29" height="180.9"/>
  </clipPath>
 </defs>
</svg>
