<?xml version="1.0" encoding="utf-8" standalone="no"?>
<!DOCTYPE svg PUBLIC "-//W3C//DTD SVG 1.1//EN"
  "http://www.w3.org/Graphics/SVG/1.1/DTD/svg11.dtd">
<svg xmlns:xlink="http://www.w3.org/1999/xlink" width="576pt" height="252pt" viewBox="0 0 576 252" xmlns="http://www.w3.org/2000/svg" version="1.1">
 <metadata>
  <rdf:RDF xmlns:dc="http://purl.org/dc/elements/1.1/" xmlns:cc="http://creativecommons.org/ns#" xmlns:rdf="http://www.w3.org/1999/02/22-rdf-syntax-ns#">
   <cc:Work>
    <dc:type rdf:resource="http://purl.org/dc/dcmitype/StillImage"/>
    <dc:date>2025-08-13T01:48:20.333739</dc:date>
    <dc:format>image/svg+xml</dc:format>
    <dc:creator>
     <cc:Agent>
      <dc:title>Matplotlib v3.6.3, https://matplotlib.org/</dc:title>
     </cc:Agent>
    </dc:creator>
   </cc:Work>
  </rdf:RDF>
 </metadata>
 <defs>
  <style type="text/css">*{stroke-linejoin: round; stroke-linecap: butt}</style>
 </defs>
 <g id="figure_1">
  <g id="patch_1">
   <path d="M 0 252 
L 576 252 
L 576 0 
L 0 0 
z
" style="fill: #ffffff"/>
  </g>
  <g id="axes_1">
   <g id="patch_2">
    <path d="M 55.56 209.94 
L 565.2 209.94 
L 565.2 29.04 
L 55.56 29.04 
z
" style="fill: #ffffff"/>
   </g>
   <g id="matplotlib.axis_1">
    <g id="xtick_1">
     <g id="line2d_1">
      <path d="M 78.725455 209.94 
L 78.725455 29.04 
" clip-path="url(#p2be49c02ef)" style="fill: none; stroke-dasharray: 2.22,0.96; stroke-dashoffset: 0; stroke: #b0b0b0; stroke-opacity: 0.7; stroke-width: 0.6"/>
     </g>
     <g id="line2d_2">
      <defs>
       <path id="m98e589cd4b" d="M 0 0 
L 0 -3.5 
" style="stroke: #1a1a1a; stroke-width: 0.8"/>
      </defs>
      <g>
       <use xlink:href="#m98e589cd4b" x="78.725455" y="209.94" style="fill: #1a1a1a; stroke: #1a1a1a; stroke-width: 0.8"/>
      </g>
     </g>
     <g id="text_1">
      <!-- 0 -->
      <g style="fill: #1a1a1a" transform="translate(74.907955 222.558125) scale(0.12 -0.12)">
       <defs>
        <path id="DejaVuSans-30" d="M 2034 4250 
Q 1547 4250 1301 3770 
Q 1056 3291 1056 2328 
Q 1056 1369 1301 889 
Q 1547 409 2034 409 
Q 2525 409 2770 889 
Q 3016 1369 3016 2328 
Q 3016 3291 2770 3770 
Q 2525 4250 2034 4250 
z
M 2034 4750 
Q 2819 4750 3233 4129 
Q 3647 3509 3647 2328 
Q 3647 1150 3233 529 
Q 2819 -91 2034 -91 
Q 1250 -91 836 529 
Q 422 1150 422 2328 
Q 422 3509 836 4129 
Q 1250 4750 2034 4750 
z
" transform="scale(0.015625)"/>
       </defs>
       <use xlink:href="#DejaVuSans-30"/>
      </g>
     </g>
    </g>
    <g id="xtick_2">
     <g id="line2d_3">
      <path d="M 136.653573 209.94 
L 136.653573 29.04 
" clip-path="url(#p2be49c02ef)" style="fill: none; stroke-dasharray: 2.22,0.96; stroke-dashoffset: 0; stroke: #b0b0b0; stroke-opacity: 0.7; stroke-width: 0.6"/>
     </g>
     <g id="line2d_4">
      <g>
       <use xlink:href="#m98e589cd4b" x="136.653573" y="209.94" style="fill: #1a1a1a; stroke: #1a1a1a; stroke-width: 0.8"/>
      </g>
     </g>
     <g id="text_2">
      <!-- 10 -->
      <g style="fill: #1a1a1a" transform="translate(129.018573 222.558125) scale(0.12 -0.12)">
       <defs>
        <path id="DejaVuSans-31" d="M 794 531 
L 1825 531 
L 1825 4091 
L 703 3866 
L 703 4441 
L 1819 4666 
L 2450 4666 
L 2450 531 
L 3481 531 
L 3481 0 
L 794 0 
L 794 531 
z
" transform="scale(0.015625)"/>
       </defs>
       <use xlink:href="#DejaVuSans-31"/>
       <use xlink:href="#DejaVuSans-30" x="63.623047"/>
      </g>
     </g>
    </g>
    <g id="xtick_3">
     <g id="line2d_5">
      <path d="M 194.581691 209.94 
L 194.581691 29.04 
" clip-path="url(#p2be49c02ef)" style="fill: none; stroke-dasharray: 2.22,0.96; stroke-dashoffset: 0; stroke: #b0b0b0; stroke-opacity: 0.7; stroke-width: 0.6"/>
     </g>
     <g id="line2d_6">
      <g>
       <use xlink:href="#m98e589cd4b" x="194.581691" y="209.94" style="fill: #1a1a1a; stroke: #1a1a1a; stroke-width: 0.8"/>
      </g>
     </g>
     <g id="text_3">
      <!-- 20 -->
      <g style="fill: #1a1a1a" transform="translate(186.946691 222.558125) scale(0.12 -0.12)">
       <defs>
        <path id="DejaVuSans-32" d="M 1228 531 
L 3431 531 
L 3431 0 
L 469 0 
L 469 531 
Q 828 903 1448 1529 
Q 2069 2156 2228 2338 
Q 2531 2678 2651 2914 
Q 2772 3150 2772 3378 
Q 2772 3750 2511 3984 
Q 2250 4219 1831 4219 
Q 1534 4219 1204 4116 
Q 875 4013 500 3803 
L 500 4441 
Q 881 4594 1212 4672 
Q 1544 4750 1819 4750 
Q 2544 4750 2975 4387 
Q 3406 4025 3406 3419 
Q 3406 3131 3298 2873 
Q 3191 2616 2906 2266 
Q 2828 2175 2409 1742 
Q 1991 1309 1228 531 
z
" transform="scale(0.015625)"/>
       </defs>
       <use xlink:href="#DejaVuSans-32"/>
       <use xlink:href="#DejaVuSans-30" x="63.623047"/>
      </g>
     </g>
    </g>
    <g id="xtick_4">
     <g id="line2d_7">
      <path d="M 252.50981 209.94 
L 252.50981 29.04 
" clip-path="url(#p2be49c02ef)" style="fill: none; stroke-dasharray: 2.22,0.96; stroke-dashoffset: 0; stroke: #b0b0b0; stroke-opacity: 0.7; stroke-width: 0.6"/>
     </g>
     <g id="line2d_8">
      <g>
       <use xlink:href="#m98e589cd4b" x="252.50981" y="209.94" style="fill: #1a1a1a; stroke: #1a1a1a; stroke-width: 0.8"/>
      </g>
     </g>
     <g id="text_4">
      <!-- 30 -->
      <g style="fill: #1a1a1a" transform="translate(244.87481 222.558125) scale(0.12 -0.12)">
       <defs>
        <path id="DejaVuSans-33" d="M 2597 2516 
Q 3050 2419 3304 2112 
Q 3559 1806 3559 1356 
Q 3559 666 3084 287 
Q 2609 -91 1734 -91 
Q 1441 -91 1130 -33 
Q 819 25 488 141 
L 488 750 
Q 750 597 1062 519 
Q 1375 441 1716 441 
Q 2309 441 2620 675 
Q 2931 909 2931 1356 
Q 2931 1769 2642 2001 
Q 2353 2234 1838 2234 
L 1294 2234 
L 1294 2753 
L 1863 2753 
Q 2328 2753 2575 2939 
Q 2822 3125 2822 3475 
Q 2822 3834 2567 4026 
Q 2313 4219 1838 4219 
Q 1578 4219 1281 4162 
Q 984 4106 628 3988 
L 628 4550 
Q 988 4650 1302 4700 
Q 1616 4750 1894 4750 
Q 2613 4750 3031 4423 
Q 3450 4097 3450 3541 
Q 3450 3153 3228 2886 
Q 3006 2619 2597 2516 
z
" transform="scale(0.015625)"/>
       </defs>
       <use xlink:href="#DejaVuSans-33"/>
       <use xlink:href="#DejaVuSans-30" x="63.623047"/>
      </g>
     </g>
    </g>
    <g id="xtick_5">
     <g id="line2d_9">
      <path d="M 310.437928 209.94 
L 310.437928 29.04 
" clip-path="url(#p2be49c02ef)" style="fill: none; stroke-dasharray: 2.22,0.96; stroke-dashoffset: 0; stroke: #b0b0b0; stroke-opacity: 0.7; stroke-width: 0.6"/>
     </g>
     <g id="line2d_10">
      <g>
       <use xlink:href="#m98e589cd4b" x="310.437928" y="209.94" style="fill: #1a1a1a; stroke: #1a1a1a; stroke-width: 0.8"/>
      </g>
     </g>
     <g id="text_5">
      <!-- 40 -->
      <g style="fill: #1a1a1a" transform="translate(302.802928 222.558125) scale(0.12 -0.12)">
       <defs>
        <path id="DejaVuSans-34" d="M 2419 4116 
L 825 1625 
L 2419 1625 
L 2419 4116 
z
M 2253 4666 
L 3047 4666 
L 3047 1625 
L 3713 1625 
L 3713 1100 
L 3047 1100 
L 3047 0 
L 2419 0 
L 2419 1100 
L 313 1100 
L 313 1709 
L 2253 4666 
z
" transform="scale(0.015625)"/>
       </defs>
       <use xlink:href="#DejaVuSans-34"/>
       <use xlink:href="#DejaVuSans-30" x="63.623047"/>
      </g>
     </g>
    </g>
    <g id="xtick_6">
     <g id="line2d_11">
      <path d="M 368.366047 209.94 
L 368.366047 29.04 
" clip-path="url(#p2be49c02ef)" style="fill: none; stroke-dasharray: 2.22,0.96; stroke-dashoffset: 0; stroke: #b0b0b0; stroke-opacity: 0.7; stroke-width: 0.6"/>
     </g>
     <g id="line2d_12">
      <g>
       <use xlink:href="#m98e589cd4b" x="368.366047" y="209.94" style="fill: #1a1a1a; stroke: #1a1a1a; stroke-width: 0.8"/>
      </g>
     </g>
     <g id="text_6">
      <!-- 50 -->
      <g style="fill: #1a1a1a" transform="translate(360.731047 222.558125) scale(0.12 -0.12)">
       <defs>
        <path id="DejaVuSans-35" d="M 691 4666 
L 3169 4666 
L 3169 4134 
L 1269 4134 
L 1269 2991 
Q 1406 3038 1543 3061 
Q 1681 3084 1819 3084 
Q 2600 3084 3056 2656 
Q 3513 2228 3513 1497 
Q 3513 744 3044 326 
Q 2575 -91 1722 -91 
Q 1428 -91 1123 -41 
Q 819 9 494 109 
L 494 744 
Q 775 591 1075 516 
Q 1375 441 1709 441 
Q 2250 441 2565 725 
Q 2881 1009 2881 1497 
Q 2881 1984 2565 2268 
Q 2250 2553 1709 2553 
Q 1456 2553 1204 2497 
Q 953 2441 691 2322 
L 691 4666 
z
" transform="scale(0.015625)"/>
       </defs>
       <use xlink:href="#DejaVuSans-35"/>
       <use xlink:href="#DejaVuSans-30" x="63.623047"/>
      </g>
     </g>
    </g>
    <g id="xtick_7">
     <g id="line2d_13">
      <path d="M 426.294165 209.94 
L 426.294165 29.04 
" clip-path="url(#p2be49c02ef)" style="fill: none; stroke-dasharray: 2.22,0.96; stroke-dashoffset: 0; stroke: #b0b0b0; stroke-opacity: 0.7; stroke-width: 0.6"/>
     </g>
     <g id="line2d_14">
      <g>
       <use xlink:href="#m98e589cd4b" x="426.294165" y="209.94" style="fill: #1a1a1a; stroke: #1a1a1a; stroke-width: 0.8"/>
      </g>
     </g>
     <g id="text_7">
      <!-- 60 -->
      <g style="fill: #1a1a1a" transform="translate(418.659165 222.558125) scale(0.12 -0.12)">
       <defs>
        <path id="DejaVuSans-36" d="M 2113 2584 
Q 1688 2584 1439 2293 
Q 1191 2003 1191 1497 
Q 1191 994 1439 701 
Q 1688 409 2113 409 
Q 2538 409 2786 701 
Q 3034 994 3034 1497 
Q 3034 2003 2786 2293 
Q 2538 2584 2113 2584 
z
M 3366 4563 
L 3366 3988 
Q 3128 4100 2886 4159 
Q 2644 4219 2406 4219 
Q 1781 4219 1451 3797 
Q 1122 3375 1075 2522 
Q 1259 2794 1537 2939 
Q 1816 3084 2150 3084 
Q 2853 3084 3261 2657 
Q 3669 2231 3669 1497 
Q 3669 778 3244 343 
Q 2819 -91 2113 -91 
Q 1303 -91 875 529 
Q 447 1150 447 2328 
Q 447 3434 972 4092 
Q 1497 4750 2381 4750 
Q 2619 4750 2861 4703 
Q 3103 4656 3366 4563 
z
" transform="scale(0.015625)"/>
       </defs>
       <use xlink:href="#DejaVuSans-36"/>
       <use xlink:href="#DejaVuSans-30" x="63.623047"/>
      </g>
     </g>
    </g>
    <g id="xtick_8">
     <g id="line2d_15">
      <path d="M 484.222283 209.94 
L 484.222283 29.04 
" clip-path="url(#p2be49c02ef)" style="fill: none; stroke-dasharray: 2.22,0.96; stroke-dashoffset: 0; stroke: #b0b0b0; stroke-opacity: 0.7; stroke-width: 0.6"/>
     </g>
     <g id="line2d_16">
      <g>
       <use xlink:href="#m98e589cd4b" x="484.222283" y="209.94" style="fill: #1a1a1a; stroke: #1a1a1a; stroke-width: 0.8"/>
      </g>
     </g>
     <g id="text_8">
      <!-- 70 -->
      <g style="fill: #1a1a1a" transform="translate(476.587283 222.558125) scale(0.12 -0.12)">
       <defs>
        <path id="DejaVuSans-37" d="M 525 4666 
L 3525 4666 
L 3525 4397 
L 1831 0 
L 1172 0 
L 2766 4134 
L 525 4134 
L 525 4666 
z
" transform="scale(0.015625)"/>
       </defs>
       <use xlink:href="#DejaVuSans-37"/>
       <use xlink:href="#DejaVuSans-30" x="63.623047"/>
      </g>
     </g>
    </g>
    <g id="xtick_9">
     <g id="line2d_17">
      <path d="M 542.150402 209.94 
L 542.150402 29.04 
" clip-path="url(#p2be49c02ef)" style="fill: none; stroke-dasharray: 2.22,0.96; stroke-dashoffset: 0; stroke: #b0b0b0; stroke-opacity: 0.7; stroke-width: 0.6"/>
     </g>
     <g id="line2d_18">
      <g>
       <use xlink:href="#m98e589cd4b" x="542.150402" y="209.94" style="fill: #1a1a1a; stroke: #1a1a1a; stroke-width: 0.8"/>
      </g>
     </g>
     <g id="text_9">
      <!-- 80 -->
      <g style="fill: #1a1a1a" transform="translate(534.515402 222.558125) scale(0.12 -0.12)">
       <defs>
        <path id="DejaVuSans-38" d="M 2034 2216 
Q 1584 2216 1326 1975 
Q 1069 1734 1069 1313 
Q 1069 891 1326 650 
Q 1584 409 2034 409 
Q 2484 409 2743 651 
Q 3003 894 3003 1313 
Q 3003 1734 2745 1975 
Q 2488 2216 2034 2216 
z
M 1403 2484 
Q 997 2584 770 2862 
Q 544 3141 544 3541 
Q 544 4100 942 4425 
Q 1341 4750 2034 4750 
Q 2731 4750 3128 4425 
Q 3525 4100 3525 3541 
Q 3525 3141 3298 2862 
Q 3072 2584 2669 2484 
Q 3125 2378 3379 2068 
Q 3634 1759 3634 1313 
Q 3634 634 3220 271 
Q 2806 -91 2034 -91 
Q 1263 -91 848 271 
Q 434 634 434 1313 
Q 434 1759 690 2068 
Q 947 2378 1403 2484 
z
M 1172 3481 
Q 1172 3119 1398 2916 
Q 1625 2713 2034 2713 
Q 2441 2713 2670 2916 
Q 2900 3119 2900 3481 
Q 2900 3844 2670 4047 
Q 2441 4250 2034 4250 
Q 1625 4250 1398 4047 
Q 1172 3844 1172 3481 
z
" transform="scale(0.015625)"/>
       </defs>
       <use xlink:href="#DejaVuSans-38"/>
       <use xlink:href="#DejaVuSans-30" x="63.623047"/>
      </g>
     </g>
    </g>
    <g id="text_10">
     <!-- Time (arb. units) -->
     <g style="fill: #1a1a1a" transform="translate(260.595 238.171875) scale(0.12 -0.12)">
      <defs>
       <path id="DejaVuSans-54" d="M -19 4666 
L 3928 4666 
L 3928 4134 
L 2272 4134 
L 2272 0 
L 1638 0 
L 1638 4134 
L -19 4134 
L -19 4666 
z
" transform="scale(0.015625)"/>
       <path id="DejaVuSans-69" d="M 603 3500 
L 1178 3500 
L 1178 0 
L 603 0 
L 603 3500 
z
M 603 4863 
L 1178 4863 
L 1178 4134 
L 603 4134 
L 603 4863 
z
" transform="scale(0.015625)"/>
       <path id="DejaVuSans-6d" d="M 3328 2828 
Q 3544 3216 3844 3400 
Q 4144 3584 4550 3584 
Q 5097 3584 5394 3201 
Q 5691 2819 5691 2113 
L 5691 0 
L 5113 0 
L 5113 2094 
Q 5113 2597 4934 2840 
Q 4756 3084 4391 3084 
Q 3944 3084 3684 2787 
Q 3425 2491 3425 1978 
L 3425 0 
L 2847 0 
L 2847 2094 
Q 2847 2600 2669 2842 
Q 2491 3084 2119 3084 
Q 1678 3084 1418 2786 
Q 1159 2488 1159 1978 
L 1159 0 
L 581 0 
L 581 3500 
L 1159 3500 
L 1159 2956 
Q 1356 3278 1631 3431 
Q 1906 3584 2284 3584 
Q 2666 3584 2933 3390 
Q 3200 3197 3328 2828 
z
" transform="scale(0.015625)"/>
       <path id="DejaVuSans-65" d="M 3597 1894 
L 3597 1613 
L 953 1613 
Q 991 1019 1311 708 
Q 1631 397 2203 397 
Q 2534 397 2845 478 
Q 3156 559 3463 722 
L 3463 178 
Q 3153 47 2828 -22 
Q 2503 -91 2169 -91 
Q 1331 -91 842 396 
Q 353 884 353 1716 
Q 353 2575 817 3079 
Q 1281 3584 2069 3584 
Q 2775 3584 3186 3129 
Q 3597 2675 3597 1894 
z
M 3022 2063 
Q 3016 2534 2758 2815 
Q 2500 3097 2075 3097 
Q 1594 3097 1305 2825 
Q 1016 2553 972 2059 
L 3022 2063 
z
" transform="scale(0.015625)"/>
       <path id="DejaVuSans-20" transform="scale(0.015625)"/>
       <path id="DejaVuSans-28" d="M 1984 4856 
Q 1566 4138 1362 3434 
Q 1159 2731 1159 2009 
Q 1159 1288 1364 580 
Q 1569 -128 1984 -844 
L 1484 -844 
Q 1016 -109 783 600 
Q 550 1309 550 2009 
Q 550 2706 781 3412 
Q 1013 4119 1484 4856 
L 1984 4856 
z
" transform="scale(0.015625)"/>
       <path id="DejaVuSans-61" d="M 2194 1759 
Q 1497 1759 1228 1600 
Q 959 1441 959 1056 
Q 959 750 1161 570 
Q 1363 391 1709 391 
Q 2188 391 2477 730 
Q 2766 1069 2766 1631 
L 2766 1759 
L 2194 1759 
z
M 3341 1997 
L 3341 0 
L 2766 0 
L 2766 531 
Q 2569 213 2275 61 
Q 1981 -91 1556 -91 
Q 1019 -91 701 211 
Q 384 513 384 1019 
Q 384 1609 779 1909 
Q 1175 2209 1959 2209 
L 2766 2209 
L 2766 2266 
Q 2766 2663 2505 2880 
Q 2244 3097 1772 3097 
Q 1472 3097 1187 3025 
Q 903 2953 641 2809 
L 641 3341 
Q 956 3463 1253 3523 
Q 1550 3584 1831 3584 
Q 2591 3584 2966 3190 
Q 3341 2797 3341 1997 
z
" transform="scale(0.015625)"/>
       <path id="DejaVuSans-72" d="M 2631 2963 
Q 2534 3019 2420 3045 
Q 2306 3072 2169 3072 
Q 1681 3072 1420 2755 
Q 1159 2438 1159 1844 
L 1159 0 
L 581 0 
L 581 3500 
L 1159 3500 
L 1159 2956 
Q 1341 3275 1631 3429 
Q 1922 3584 2338 3584 
Q 2397 3584 2469 3576 
Q 2541 3569 2628 3553 
L 2631 2963 
z
" transform="scale(0.015625)"/>
       <path id="DejaVuSans-62" d="M 3116 1747 
Q 3116 2381 2855 2742 
Q 2594 3103 2138 3103 
Q 1681 3103 1420 2742 
Q 1159 2381 1159 1747 
Q 1159 1113 1420 752 
Q 1681 391 2138 391 
Q 2594 391 2855 752 
Q 3116 1113 3116 1747 
z
M 1159 2969 
Q 1341 3281 1617 3432 
Q 1894 3584 2278 3584 
Q 2916 3584 3314 3078 
Q 3713 2572 3713 1747 
Q 3713 922 3314 415 
Q 2916 -91 2278 -91 
Q 1894 -91 1617 61 
Q 1341 213 1159 525 
L 1159 0 
L 581 0 
L 581 4863 
L 1159 4863 
L 1159 2969 
z
" transform="scale(0.015625)"/>
       <path id="DejaVuSans-2e" d="M 684 794 
L 1344 794 
L 1344 0 
L 684 0 
L 684 794 
z
" transform="scale(0.015625)"/>
       <path id="DejaVuSans-75" d="M 544 1381 
L 544 3500 
L 1119 3500 
L 1119 1403 
Q 1119 906 1312 657 
Q 1506 409 1894 409 
Q 2359 409 2629 706 
Q 2900 1003 2900 1516 
L 2900 3500 
L 3475 3500 
L 3475 0 
L 2900 0 
L 2900 538 
Q 2691 219 2414 64 
Q 2138 -91 1772 -91 
Q 1169 -91 856 284 
Q 544 659 544 1381 
z
M 1991 3584 
L 1991 3584 
z
" transform="scale(0.015625)"/>
       <path id="DejaVuSans-6e" d="M 3513 2113 
L 3513 0 
L 2938 0 
L 2938 2094 
Q 2938 2591 2744 2837 
Q 2550 3084 2163 3084 
Q 1697 3084 1428 2787 
Q 1159 2491 1159 1978 
L 1159 0 
L 581 0 
L 581 3500 
L 1159 3500 
L 1159 2956 
Q 1366 3272 1645 3428 
Q 1925 3584 2291 3584 
Q 2894 3584 3203 3211 
Q 3513 2838 3513 2113 
z
" transform="scale(0.015625)"/>
       <path id="DejaVuSans-74" d="M 1172 4494 
L 1172 3500 
L 2356 3500 
L 2356 3053 
L 1172 3053 
L 1172 1153 
Q 1172 725 1289 603 
Q 1406 481 1766 481 
L 2356 481 
L 2356 0 
L 1766 0 
Q 1100 0 847 248 
Q 594 497 594 1153 
L 594 3053 
L 172 3053 
L 172 3500 
L 594 3500 
L 594 4494 
L 1172 4494 
z
" transform="scale(0.015625)"/>
       <path id="DejaVuSans-73" d="M 2834 3397 
L 2834 2853 
Q 2591 2978 2328 3040 
Q 2066 3103 1784 3103 
Q 1356 3103 1142 2972 
Q 928 2841 928 2578 
Q 928 2378 1081 2264 
Q 1234 2150 1697 2047 
L 1894 2003 
Q 2506 1872 2764 1633 
Q 3022 1394 3022 966 
Q 3022 478 2636 193 
Q 2250 -91 1575 -91 
Q 1294 -91 989 -36 
Q 684 19 347 128 
L 347 722 
Q 666 556 975 473 
Q 1284 391 1588 391 
Q 1994 391 2212 530 
Q 2431 669 2431 922 
Q 2431 1156 2273 1281 
Q 2116 1406 1581 1522 
L 1381 1569 
Q 847 1681 609 1914 
Q 372 2147 372 2553 
Q 372 3047 722 3315 
Q 1072 3584 1716 3584 
Q 2034 3584 2315 3537 
Q 2597 3491 2834 3397 
z
" transform="scale(0.015625)"/>
       <path id="DejaVuSans-29" d="M 513 4856 
L 1013 4856 
Q 1481 4119 1714 3412 
Q 1947 2706 1947 2009 
Q 1947 1309 1714 600 
Q 1481 -109 1013 -844 
L 513 -844 
Q 928 -128 1133 580 
Q 1338 1288 1338 2009 
Q 1338 2731 1133 3434 
Q 928 4138 513 4856 
z
" transform="scale(0.015625)"/>
      </defs>
      <use xlink:href="#DejaVuSans-54"/>
      <use xlink:href="#DejaVuSans-69" x="57.958984"/>
      <use xlink:href="#DejaVuSans-6d" x="85.742188"/>
      <use xlink:href="#DejaVuSans-65" x="183.154297"/>
      <use xlink:href="#DejaVuSans-20" x="244.677734"/>
      <use xlink:href="#DejaVuSans-28" x="276.464844"/>
      <use xlink:href="#DejaVuSans-61" x="315.478516"/>
      <use xlink:href="#DejaVuSans-72" x="376.757812"/>
      <use xlink:href="#DejaVuSans-62" x="417.871094"/>
      <use xlink:href="#DejaVuSans-2e" x="481.347656"/>
      <use xlink:href="#DejaVuSans-20" x="513.134766"/>
      <use xlink:href="#DejaVuSans-75" x="544.921875"/>
      <use xlink:href="#DejaVuSans-6e" x="608.300781"/>
      <use xlink:href="#DejaVuSans-69" x="671.679688"/>
      <use xlink:href="#DejaVuSans-74" x="699.462891"/>
      <use xlink:href="#DejaVuSans-73" x="738.671875"/>
      <use xlink:href="#DejaVuSans-29" x="790.771484"/>
     </g>
    </g>
   </g>
   <g id="matplotlib.axis_2">
    <g id="ytick_1">
     <g id="line2d_19">
      <path d="M 55.56 203.4457 
L 565.2 203.4457 
" clip-path="url(#p2be49c02ef)" style="fill: none; stroke-dasharray: 2.22,0.96; stroke-dashoffset: 0; stroke: #b0b0b0; stroke-opacity: 0.7; stroke-width: 0.6"/>
     </g>
     <g id="line2d_20">
      <defs>
       <path id="m471a7293b9" d="M 0 0 
L 3.5 0 
" style="stroke: #1a1a1a; stroke-width: 0.8"/>
      </defs>
      <g>
       <use xlink:href="#m471a7293b9" x="55.56" y="203.4457" style="fill: #1a1a1a; stroke: #1a1a1a; stroke-width: 0.8"/>
      </g>
     </g>
     <g id="text_11">
      <!-- −10 -->
      <g style="fill: #1a1a1a" transform="translate(26.734375 208.004763) scale(0.12 -0.12)">
       <defs>
        <path id="DejaVuSans-2212" d="M 678 2272 
L 4684 2272 
L 4684 1741 
L 678 1741 
L 678 2272 
z
" transform="scale(0.015625)"/>
       </defs>
       <use xlink:href="#DejaVuSans-2212"/>
       <use xlink:href="#DejaVuSans-31" x="83.789062"/>
       <use xlink:href="#DejaVuSans-30" x="147.412109"/>
      </g>
     </g>
    </g>
    <g id="ytick_2">
     <g id="line2d_21">
      <path d="M 55.56 170.209105 
L 565.2 170.209105 
" clip-path="url(#p2be49c02ef)" style="fill: none; stroke-dasharray: 2.22,0.96; stroke-dashoffset: 0; stroke: #b0b0b0; stroke-opacity: 0.7; stroke-width: 0.6"/>
     </g>
     <g id="line2d_22">
      <g>
       <use xlink:href="#m471a7293b9" x="55.56" y="170.209105" style="fill: #1a1a1a; stroke: #1a1a1a; stroke-width: 0.8"/>
      </g>
     </g>
     <g id="text_12">
      <!-- −8 -->
      <g style="fill: #1a1a1a" transform="translate(34.369375 174.768168) scale(0.12 -0.12)">
       <use xlink:href="#DejaVuSans-2212"/>
       <use xlink:href="#DejaVuSans-38" x="83.789062"/>
      </g>
     </g>
    </g>
    <g id="ytick_3">
     <g id="line2d_23">
      <path d="M 55.56 136.972511 
L 565.2 136.972511 
" clip-path="url(#p2be49c02ef)" style="fill: none; stroke-dasharray: 2.22,0.96; stroke-dashoffset: 0; stroke: #b0b0b0; stroke-opacity: 0.7; stroke-width: 0.6"/>
     </g>
     <g id="line2d_24">
      <g>
       <use xlink:href="#m471a7293b9" x="55.56" y="136.972511" style="fill: #1a1a1a; stroke: #1a1a1a; stroke-width: 0.8"/>
      </g>
     </g>
     <g id="text_13">
      <!-- −6 -->
      <g style="fill: #1a1a1a" transform="translate(34.369375 141.531573) scale(0.12 -0.12)">
       <use xlink:href="#DejaVuSans-2212"/>
       <use xlink:href="#DejaVuSans-36" x="83.789062"/>
      </g>
     </g>
    </g>
    <g id="ytick_4">
     <g id="line2d_25">
      <path d="M 55.56 103.735916 
L 565.2 103.735916 
" clip-path="url(#p2be49c02ef)" style="fill: none; stroke-dasharray: 2.22,0.96; stroke-dashoffset: 0; stroke: #b0b0b0; stroke-opacity: 0.7; stroke-width: 0.6"/>
     </g>
     <g id="line2d_26">
      <g>
       <use xlink:href="#m471a7293b9" x="55.56" y="103.735916" style="fill: #1a1a1a; stroke: #1a1a1a; stroke-width: 0.8"/>
      </g>
     </g>
     <g id="text_14">
      <!-- −4 -->
      <g style="fill: #1a1a1a" transform="translate(34.369375 108.294979) scale(0.12 -0.12)">
       <use xlink:href="#DejaVuSans-2212"/>
       <use xlink:href="#DejaVuSans-34" x="83.789062"/>
      </g>
     </g>
    </g>
    <g id="ytick_5">
     <g id="line2d_27">
      <path d="M 55.56 70.499322 
L 565.2 70.499322 
" clip-path="url(#p2be49c02ef)" style="fill: none; stroke-dasharray: 2.22,0.96; stroke-dashoffset: 0; stroke: #b0b0b0; stroke-opacity: 0.7; stroke-width: 0.6"/>
     </g>
     <g id="line2d_28">
      <g>
       <use xlink:href="#m471a7293b9" x="55.56" y="70.499322" style="fill: #1a1a1a; stroke: #1a1a1a; stroke-width: 0.8"/>
      </g>
     </g>
     <g id="text_15">
      <!-- −2 -->
      <g style="fill: #1a1a1a" transform="translate(34.369375 75.058384) scale(0.12 -0.12)">
       <use xlink:href="#DejaVuSans-2212"/>
       <use xlink:href="#DejaVuSans-32" x="83.789062"/>
      </g>
     </g>
    </g>
    <g id="ytick_6">
     <g id="line2d_29">
      <path d="M 55.56 37.262727 
L 565.2 37.262727 
" clip-path="url(#p2be49c02ef)" style="fill: none; stroke-dasharray: 2.22,0.96; stroke-dashoffset: 0; stroke: #b0b0b0; stroke-opacity: 0.7; stroke-width: 0.6"/>
     </g>
     <g id="line2d_30">
      <g>
       <use xlink:href="#m471a7293b9" x="55.56" y="37.262727" style="fill: #1a1a1a; stroke: #1a1a1a; stroke-width: 0.8"/>
      </g>
     </g>
     <g id="text_16">
      <!-- 0 -->
      <g style="fill: #1a1a1a" transform="translate(44.425 41.82179) scale(0.12 -0.12)">
       <use xlink:href="#DejaVuSans-30"/>
      </g>
     </g>
    </g>
    <g id="text_17">
     <!-- State value -->
     <g style="fill: #1a1a1a" transform="translate(20.23875 153.668437) rotate(-90) scale(0.12 -0.12)">
      <defs>
       <path id="DejaVuSans-53" d="M 3425 4513 
L 3425 3897 
Q 3066 4069 2747 4153 
Q 2428 4238 2131 4238 
Q 1616 4238 1336 4038 
Q 1056 3838 1056 3469 
Q 1056 3159 1242 3001 
Q 1428 2844 1947 2747 
L 2328 2669 
Q 3034 2534 3370 2195 
Q 3706 1856 3706 1288 
Q 3706 609 3251 259 
Q 2797 -91 1919 -91 
Q 1588 -91 1214 -16 
Q 841 59 441 206 
L 441 856 
Q 825 641 1194 531 
Q 1563 422 1919 422 
Q 2459 422 2753 634 
Q 3047 847 3047 1241 
Q 3047 1584 2836 1778 
Q 2625 1972 2144 2069 
L 1759 2144 
Q 1053 2284 737 2584 
Q 422 2884 422 3419 
Q 422 4038 858 4394 
Q 1294 4750 2059 4750 
Q 2388 4750 2728 4690 
Q 3069 4631 3425 4513 
z
" transform="scale(0.015625)"/>
       <path id="DejaVuSans-76" d="M 191 3500 
L 800 3500 
L 1894 563 
L 2988 3500 
L 3597 3500 
L 2284 0 
L 1503 0 
L 191 3500 
z
" transform="scale(0.015625)"/>
       <path id="DejaVuSans-6c" d="M 603 4863 
L 1178 4863 
L 1178 0 
L 603 0 
L 603 4863 
z
" transform="scale(0.015625)"/>
      </defs>
      <use xlink:href="#DejaVuSans-53"/>
      <use xlink:href="#DejaVuSans-74" x="63.476562"/>
      <use xlink:href="#DejaVuSans-61" x="102.685547"/>
      <use xlink:href="#DejaVuSans-74" x="163.964844"/>
      <use xlink:href="#DejaVuSans-65" x="203.173828"/>
      <use xlink:href="#DejaVuSans-20" x="264.697266"/>
      <use xlink:href="#DejaVuSans-76" x="296.484375"/>
      <use xlink:href="#DejaVuSans-61" x="355.664062"/>
      <use xlink:href="#DejaVuSans-6c" x="416.943359"/>
      <use xlink:href="#DejaVuSans-75" x="444.726562"/>
      <use xlink:href="#DejaVuSans-65" x="508.105469"/>
     </g>
    </g>
   </g>
   <g id="line2d_31">
    <path d="M 78.725455 53.881025 
L 79.652304 52.188874 
L 81.158436 50.845757 
L 81.274292 50.894889 
L 81.506004 50.689519 
L 81.853573 50.585888 
L 82.432854 50.37408 
L 82.664567 50.36887 
L 82.896279 50.281497 
L 83.127992 50.281636 
L 84.286554 50.050707 
L 84.634123 49.986251 
L 84.981691 49.962836 
L 85.32926 49.862339 
L 85.676829 49.94805 
L 85.908541 49.918477 
L 86.835391 50.251825 
L 87.298816 50.264705 
L 87.646385 50.381805 
L 88.341522 50.448866 
L 89.500085 50.85221 
L 89.731797 51.089245 
L 90.426934 51.259656 
L 91.006216 51.409256 
L 91.469641 51.793505 
L 92.048922 51.845379 
L 92.628203 51.874395 
L 92.859915 51.820855 
L 93.439197 51.969446 
L 93.902622 51.981858 
L 94.597759 52.230473 
L 94.829471 52.237832 
L 96.335603 52.51174 
L 96.567315 52.707478 
L 97.146596 52.701472 
L 97.378309 52.780314 
L 97.725877 52.749792 
L 97.95759 52.757843 
L 98.305159 52.778285 
L 98.768584 52.855914 
L 99.000296 53.014384 
L 99.579577 53.019574 
L 100.506427 53.2301 
L 101.433277 53.184097 
L 101.664989 53.238446 
L 101.896702 53.193781 
L 102.128414 53.263117 
L 102.360127 53.301197 
L 102.707696 53.418977 
L 104.793108 53.643416 
L 105.02482 53.709677 
L 105.256533 53.766249 
L 105.719958 53.793696 
L 107.80537 53.533872 
L 108.268795 53.645729 
L 108.848076 53.624432 
L 109.079789 53.636591 
L 109.311501 53.570129 
L 109.543214 53.457956 
L 110.122495 53.540952 
L 110.238351 53.490043 
L 110.701776 53.666958 
L 112.323763 53.599567 
L 112.439619 53.510352 
L 112.903044 53.740447 
L 115.79945 54.10768 
L 117.189725 53.811041 
L 117.537294 53.833013 
L 118.000719 53.919624 
L 118.116575 53.953395 
L 118.348288 53.78201 
L 118.58 53.753234 
L 118.811712 53.761866 
L 120.4337 53.871143 
L 120.781268 53.933178 
L 121.244693 53.92214 
L 121.823975 54.114288 
L 122.055687 54.024342 
L 122.403256 53.982231 
L 122.982537 53.972727 
L 123.330106 53.981128 
L 123.793531 53.972079 
L 124.025243 53.910278 
L 125.64723 53.988535 
L 125.878943 54.050149 
L 126.458224 54.062044 
L 126.805793 54.092751 
L 127.037505 53.992142 
L 127.269218 54.014073 
L 127.848499 53.931894 
L 128.196068 54.078625 
L 128.311924 53.969236 
L 128.543636 54.026684 
L 128.891205 53.974417 
L 129.122918 54.091529 
L 129.470486 54.033945 
L 129.586342 54.082599 
L 129.818055 54.016676 
L 130.165624 54.014048 
L 131.20833 53.774815 
L 131.440042 53.582516 
L 132.251036 53.82889 
L 132.598605 53.809105 
L 132.946173 54.05935 
L 133.177886 53.972349 
L 133.525455 54.002239 
L 133.873023 54.035446 
L 134.336448 53.860997 
L 134.684017 53.974934 
L 135.031586 53.942052 
L 136.074292 53.998035 
L 136.42186 53.891324 
L 137.812135 53.958185 
L 138.159704 53.84584 
L 139.434123 53.737831 
L 139.781691 53.70245 
L 141.05611 53.848086 
L 141.635391 53.826563 
L 141.867104 53.87493 
L 142.098816 53.840308 
L 142.330529 53.807753 
L 142.562241 53.898631 
L 142.90981 53.843654 
L 143.373235 53.960688 
L 143.720803 53.830803 
L 144.531797 54.020568 
L 144.879366 53.985367 
L 145.226934 54.04091 
L 145.458647 53.942055 
L 146.385497 53.752305 
L 147.775772 53.754099 
L 148.586765 53.635238 
L 148.934334 53.628034 
L 150.208753 53.598159 
L 150.556321 53.511997 
L 150.90389 53.569712 
L 152.294165 53.586675 
L 152.641734 53.46038 
L 153.105159 53.518541 
L 153.221015 53.487441 
L 153.452727 53.624809 
L 154.147865 53.76213 
L 154.379577 53.813948 
L 154.61129 53.842128 
L 155.074715 53.94831 
L 155.306427 54.120492 
L 155.653996 54.140514 
L 155.885708 54.09296 
L 156.349133 54.227408 
L 156.464989 54.271442 
L 156.696702 54.195966 
L 156.812558 54.222951 
L 157.044271 54.111456 
L 157.507696 54.068577 
L 157.971121 54.024291 
L 158.086977 54.078801 
L 158.434545 53.919958 
L 158.666258 54.009372 
L 159.245539 53.914754 
L 159.361395 53.922502 
L 159.477252 54.054388 
L 159.940677 53.82471 
L 160.635814 53.960404 
L 160.75167 53.901202 
L 160.983383 53.977637 
L 161.330951 53.915734 
L 161.67852 53.987128 
L 162.026089 53.929813 
L 162.257801 53.893474 
L 162.837082 53.820934 
L 162.952939 53.903478 
L 163.184651 53.894888 
L 164.111501 53.694999 
L 164.343214 53.754153 
L 164.574926 53.686875 
L 165.038351 53.864957 
L 165.38592 54.001337 
L 165.617632 53.973485 
L 166.196913 53.953968 
L 166.544482 54.036931 
L 167.239619 53.859598 
L 168.166469 53.835282 
L 169.556744 54.023351 
L 169.788457 53.959959 
L 170.136025 54.008693 
L 170.367738 54.113096 
L 171.178732 54.067028 
L 171.642156 54.119895 
L 171.989725 54.161737 
L 172.569006 54.231476 
L 172.916575 54.131617 
L 173.727569 53.983303 
L 174.654419 54.237013 
L 175.117844 53.964653 
L 175.465412 53.966195 
L 175.928837 54.121895 
L 176.16055 54.086672 
L 176.739831 54.152103 
L 177.434968 54.126374 
L 178.245962 54.002542 
L 178.361818 54.05132 
L 178.477674 53.978046 
L 178.825243 54.193369 
L 179.404524 54.044535 
L 179.752093 53.868761 
L 180.331374 53.680154 
L 180.563087 53.720301 
L 181.026512 53.82467 
L 181.258224 53.691999 
L 182.648499 53.860389 
L 182.880211 53.732306 
L 183.575349 53.608659 
L 183.691205 53.657721 
L 183.922918 53.572182 
L 184.15463 53.581728 
L 184.618055 53.466511 
L 184.849767 53.612703 
L 185.776617 53.630041 
L 185.892474 53.719488 
L 186.124186 53.658549 
L 187.051036 53.86215 
L 189.020592 53.778601 
L 189.252304 53.787594 
L 190.063298 53.77412 
L 190.758436 53.901026 
L 190.990148 53.889217 
L 191.337717 54.038206 
L 191.801142 54.056997 
L 192.264567 53.98419 
L 192.727992 53.932189 
L 193.538985 53.997795 
L 193.886554 53.918935 
L 194.581691 53.965356 
L 195.045116 53.957483 
L 195.276829 53.897997 
L 195.740254 53.849544 
L 195.85611 53.764583 
L 196.087822 53.822475 
L 196.667104 53.751427 
L 197.362241 53.862356 
L 197.70981 53.928981 
L 201.764778 54.207458 
L 202.691628 54.045572 
L 202.92334 54.008549 
L 203.155053 54.038143 
L 203.502622 53.9461 
L 203.734334 53.928014 
L 205.008753 53.764299 
L 205.356321 53.94002 
L 206.746596 53.853446 
L 208.252727 53.894742 
L 208.600296 53.845621 
L 208.832008 53.875625 
L 209.179577 53.830763 
L 209.41129 53.824707 
L 209.874715 53.534825 
L 210.106427 53.601267 
L 210.453996 53.749044 
L 210.801564 53.751531 
L 211.264989 53.795372 
L 211.612558 53.714034 
L 212.423552 53.699091 
L 212.655264 53.626605 
L 213.118689 53.609424 
L 213.350402 53.611054 
L 213.582114 53.665611 
L 214.161395 53.685635 
L 214.508964 53.739213 
L 214.972389 53.668143 
L 215.204101 53.806446 
L 215.55167 53.693637 
L 215.783383 53.69425 
L 217.173658 53.804189 
L 217.40537 53.725346 
L 217.521226 53.811478 
L 217.752939 53.738597 
L 217.984651 53.614366 
L 218.33222 53.585844 
L 218.795645 53.820719 
L 218.911501 53.71473 
L 219.143214 53.751345 
L 219.374926 53.787144 
L 219.722495 53.93551 
L 220.533488 53.75529 
L 220.881057 53.934633 
L 221.923763 53.764037 
L 222.271332 53.89047 
L 222.618901 53.784551 
L 222.850613 53.762163 
L 223.082326 53.911316 
L 223.314038 53.828061 
L 223.545751 53.923714 
L 223.893319 53.889929 
L 224.009175 53.941779 
L 224.240888 53.87882 
L 224.588457 53.929125 
L 226.558013 53.654691 
L 226.789725 53.629475 
L 227.25315 53.752444 
L 228.295856 53.828193 
L 228.759281 53.773313 
L 228.990994 53.805503 
L 229.222706 53.806788 
L 229.570275 53.912131 
L 229.917844 53.856587 
L 230.149556 53.806909 
L 231.8874 53.878057 
L 232.350825 53.853416 
L 232.698393 53.96822 
L 232.814249 53.843514 
L 233.045962 53.925873 
L 233.277674 53.853647 
L 233.509387 53.920853 
L 235.131374 53.648184 
L 235.363087 53.732629 
L 235.594799 53.749441 
L 236.058224 53.781213 
L 236.985074 53.580154 
L 237.448499 53.750718 
L 237.680211 53.658335 
L 238.491205 53.801436 
L 238.838774 53.945286 
L 239.186342 53.927667 
L 239.649767 53.680606 
L 240.80833 53.747213 
L 242.66203 53.596113 
L 243.009598 53.75678 
L 243.473023 53.787808 
L 243.936448 53.75542 
L 244.168161 53.791899 
L 244.515729 53.956531 
L 245.210867 53.777352 
L 245.442579 53.778623 
L 247.759704 53.935379 
L 247.87556 54.018855 
L 248.223129 53.949303 
L 248.570698 54.02405 
L 249.265835 53.865212 
L 249.845116 53.999787 
L 250.887822 53.911907 
L 252.046385 54.114175 
L 252.625666 53.921908 
L 253.089091 53.939697 
L 253.43666 54.056159 
L 253.784228 53.998085 
L 254.247653 54.111624 
L 254.711078 54.099835 
L 255.058647 54.038267 
L 255.637928 53.999342 
L 256.564778 53.853826 
L 256.79649 53.852095 
L 257.028203 53.804212 
L 257.375772 53.78873 
L 257.839197 53.782901 
L 258.302622 53.771774 
L 258.534334 53.738676 
L 258.65019 53.822173 
L 258.997759 53.686649 
L 259.113615 53.755674 
L 259.229471 53.681746 
L 259.57704 53.827012 
L 260.040465 53.821656 
L 260.272178 53.755621 
L 260.619746 53.80835 
L 260.735603 53.862467 
L 260.967315 53.806576 
L 261.43074 53.874288 
L 261.778309 53.821419 
L 262.589302 53.916044 
L 263.400296 53.832044 
L 263.979577 53.890109 
L 264.558858 53.728787 
L 264.790571 53.748161 
L 266.064989 53.614719 
L 266.296702 53.643315 
L 266.528414 53.612025 
L 266.991839 53.709005 
L 267.455264 53.51609 
L 267.571121 53.591307 
L 267.802833 53.53957 
L 268.613827 53.877623 
L 268.845539 53.8681 
L 268.961395 53.948399 
L 269.193108 53.830843 
L 269.888245 54.02315 
L 270.119958 53.863346 
L 271.27852 53.983925 
L 271.394376 53.888014 
L 271.741945 54.087757 
L 272.552939 53.906433 
L 272.784651 53.872237 
L 273.016364 53.840251 
L 273.13222 53.936461 
L 273.248076 53.863849 
L 273.479789 53.987331 
L 273.711501 53.954308 
L 274.05907 53.803673 
L 274.638351 53.776336 
L 275.101776 53.813413 
L 275.333488 53.812591 
L 276.028626 53.756202 
L 276.492051 53.64485 
L 277.187188 53.796748 
L 277.418901 53.863953 
L 277.650613 53.967267 
L 277.882326 53.967496 
L 278.577463 53.844389 
L 278.925032 53.996532 
L 279.156744 53.969987 
L 279.504313 54.056087 
L 281.242156 53.910403 
L 281.589725 53.890534 
L 281.937294 53.774596 
L 282.864144 53.779769 
L 283.211712 53.785872 
L 283.443425 53.858256 
L 283.559281 53.766668 
L 284.138562 53.958511 
L 285.412981 53.906754 
L 285.644693 54.005502 
L 285.876406 53.911109 
L 286.223975 53.949215 
L 287.150825 54.016807 
L 288.077674 54.016198 
L 288.193531 53.970739 
L 288.425243 54.056601 
L 288.772812 53.969153 
L 289.699662 54.068688 
L 290.626512 53.999399 
L 291.089937 53.990467 
L 291.321649 53.931767 
L 291.553362 53.950852 
L 291.785074 53.969571 
L 292.132643 53.86611 
L 292.711924 53.978771 
L 293.059493 54.070552 
L 293.638774 54.050762 
L 293.870486 54.038743 
L 294.218055 53.943388 
L 294.449767 53.857673 
L 294.797336 53.799749 
L 295.724186 53.629373 
L 296.071755 53.696364 
L 298.273023 53.854701 
L 298.620592 53.856634 
L 300.010867 53.868308 
L 300.242579 53.98076 
L 301.980423 53.795836 
L 302.327992 53.803867 
L 302.907273 53.791169 
L 303.254841 53.881482 
L 303.486554 53.837503 
L 303.834123 53.891645 
L 304.297548 54.00282 
L 304.992685 54.142445 
L 305.224397 54.028578 
L 306.151247 53.946248 
L 306.498816 53.939102 
L 307.078097 53.972162 
L 308.700085 53.828534 
L 309.626934 54.049327 
L 310.669641 53.910572 
L 310.901353 54.010374 
L 311.133066 54.029612 
L 311.480634 53.937868 
L 312.059915 53.996817 
L 312.407484 53.93551 
L 312.639197 54.066318 
L 312.870909 54.055766 
L 313.102622 53.972111 
L 313.797759 54.086653 
L 314.029471 54.087323 
L 314.261184 54.106133 
L 314.608753 54.216722 
L 315.30389 54.002693 
L 315.767315 53.964618 
L 315.999027 53.870569 
L 317.041734 53.962683 
L 317.273446 53.863318 
L 318.08444 53.951509 
L 318.663721 53.802304 
L 319.01129 53.843557 
L 319.590571 53.749845 
L 320.980846 53.939172 
L 321.328414 53.875653 
L 321.560127 53.935896 
L 321.791839 53.844347 
L 322.139408 53.884408 
L 322.255264 53.948614 
L 322.371121 53.842703 
L 322.602833 53.877097 
L 322.834545 53.860126 
L 322.950402 53.961774 
L 323.182114 53.962302 
L 323.761395 53.940626 
L 324.108964 53.917616 
L 324.340677 54.009882 
L 324.456533 53.939224 
L 324.688245 54.013489 
L 324.804101 53.907635 
L 325.267526 54.013224 
L 328.85907 53.800358 
L 329.090782 53.734033 
L 329.322495 53.818868 
L 329.901776 53.806872 
L 330.133488 53.672515 
L 330.249345 53.692196 
L 330.365201 53.593934 
L 330.944482 53.776445 
L 331.292051 53.734785 
L 331.639619 53.844443 
L 331.755476 53.890046 
L 331.871332 53.770977 
L 331.987188 53.830535 
L 332.218901 53.628802 
L 332.798182 53.810927 
L 333.145751 53.779942 
L 333.493319 53.885009 
L 334.304313 53.662596 
L 334.536025 53.768396 
L 334.767738 53.845173 
L 334.883594 53.95719 
L 334.99945 53.835429 
L 335.578732 53.981662 
L 336.158013 53.961545 
L 336.389725 53.756462 
L 337.200719 53.984026 
L 337.432431 53.956103 
L 338.011712 53.940484 
L 338.359281 53.802159 
L 338.822706 53.686961 
L 338.938562 53.744936 
L 339.170275 53.661089 
L 339.401987 53.701024 
L 339.981268 53.652124 
L 340.097125 53.718112 
L 340.328837 53.624642 
L 341.4874 53.639703 
L 341.834968 53.67783 
L 342.066681 53.753218 
L 342.414249 53.869994 
L 342.993531 53.729611 
L 343.572812 53.871601 
L 344.499662 53.715795 
L 344.84723 53.704865 
L 345.078943 53.610147 
L 345.426512 53.607624 
L 345.77408 53.782607 
L 346.121649 53.917398 
L 347.975349 53.895605 
L 348.207061 53.980146 
L 349.133911 53.940475 
L 349.365624 53.903347 
L 349.597336 53.960759 
L 350.060761 54.111907 
L 350.524186 54.10268 
L 351.798605 53.857311 
L 352.493742 54.010872 
L 352.725455 53.904912 
L 353.536448 53.796527 
L 353.652304 53.897563 
L 353.884017 53.808331 
L 354.579154 53.788993 
L 354.695011 53.755901 
L 354.926723 53.89171 
L 355.158436 53.856708 
L 355.390148 54.01774 
L 355.62186 53.928398 
L 355.853573 53.936655 
L 356.432854 53.779325 
L 356.664567 53.845355 
L 356.896279 53.845813 
L 357.127992 53.831041 
L 357.243848 53.903493 
L 357.47556 53.761425 
L 357.823129 53.788007 
L 358.865835 53.843926 
L 359.097548 53.882891 
L 359.445116 53.905583 
L 359.792685 53.793704 
L 360.140254 53.89195 
L 361.298816 54.095216 
L 361.414672 54.159097 
L 361.762241 53.995919 
L 362.457378 53.862106 
L 363.615941 54.069991 
L 363.847653 54.070621 
L 364.079366 54.053422 
L 364.311078 53.853824 
L 364.542791 53.778725 
L 364.774503 53.691337 
L 366.744059 53.816471 
L 367.091628 53.692049 
L 367.439197 53.655018 
L 368.597759 53.622278 
L 369.17704 53.932415 
L 370.567315 53.920118 
L 370.914884 53.856297 
L 371.262452 53.89338 
L 372.073446 53.762064 
L 372.421015 53.861686 
L 373.000296 53.776165 
L 373.463721 53.77313 
L 373.695433 53.712381 
L 374.274715 53.806966 
L 374.853996 53.653735 
L 375.085708 53.665381 
L 375.317421 53.638968 
L 375.549133 53.766828 
L 376.128414 53.723484 
L 376.244271 53.630045 
L 376.707696 53.772246 
L 376.939408 53.696815 
L 377.286977 53.888554 
L 377.518689 53.919365 
L 377.750402 53.784325 
L 378.09797 53.792465 
L 378.445539 53.798519 
L 378.793108 53.714389 
L 379.372389 53.806227 
L 379.719958 53.766804 
L 380.183383 53.937047 
L 380.87852 53.744628 
L 381.110233 53.933813 
L 383.427357 53.843806 
L 384.701776 53.749031 
L 384.933488 53.826422 
L 385.281057 53.907652 
L 385.51277 53.820962 
L 385.860338 53.856617 
L 386.555476 53.991531 
L 386.787188 53.825241 
L 387.018901 53.811781 
L 387.250613 53.789996 
L 387.945751 53.735891 
L 388.293319 53.660247 
L 388.640888 53.655807 
L 388.8726 53.561147 
L 389.567738 53.725107 
L 389.915307 53.784875 
L 390.031163 53.91387 
L 390.378732 53.803102 
L 390.610444 53.911519 
L 391.769006 53.867394 
L 392.000719 53.751841 
L 392.232431 53.886604 
L 393.50685 53.815541 
L 393.738562 53.839262 
L 394.317844 53.590338 
L 395.128837 53.545354 
L 395.244693 53.593917 
L 395.476406 53.495938 
L 395.823975 53.590349 
L 395.939831 53.534854 
L 396.2874 53.718568 
L 397.561818 53.580977 
L 398.256956 53.829916 
L 399.067949 53.7101 
L 399.878943 53.806805 
L 400.110655 53.700813 
L 400.342368 53.761962 
L 400.57408 53.79939 
L 400.805793 53.710288 
L 401.153362 53.905418 
L 401.385074 53.911181 
L 401.616786 53.959163 
L 403.818055 53.782206 
L 404.744905 53.818819 
L 404.976617 53.894073 
L 405.324186 53.800291 
L 405.787611 53.705487 
L 406.019323 53.699296 
L 407.409598 53.665979 
L 407.641311 53.806586 
L 409.263298 53.620796 
L 409.495011 53.646587 
L 409.842579 53.712377 
L 411.001142 53.614886 
L 411.34871 53.858439 
L 411.580423 53.754419 
L 411.927992 53.610545 
L 412.854841 53.31105 
L 413.318266 53.306979 
L 413.549979 53.422034 
L 415.171966 53.743266 
L 417.373235 53.933382 
L 417.604947 54.084155 
L 418.300085 53.950434 
L 418.76351 53.805891 
L 418.995222 53.906377 
L 419.574503 53.745179 
L 420.501353 53.900095 
L 420.617209 53.871697 
L 420.733066 53.980278 
L 420.964778 53.971067 
L 423.166047 54.026775 
L 425.019746 53.923708 
L 425.135603 54.009732 
L 425.367315 53.891138 
L 425.714884 54.037784 
L 426.178309 53.993445 
L 426.410021 53.929306 
L 426.75759 53.979742 
L 429.53814 53.870615 
L 429.885708 53.960356 
L 430.233277 53.914858 
L 431.855264 54.0044 
L 431.971121 53.91218 
L 432.086977 53.976454 
L 432.434545 53.850167 
L 432.782114 53.83768 
L 433.940677 53.786124 
L 435.562664 53.677394 
L 435.910233 53.708294 
L 436.141945 53.745824 
L 436.489514 53.750315 
L 436.721226 53.753052 
L 437.53222 53.824856 
L 437.879789 53.792326 
L 438.574926 53.775671 
L 439.38592 53.871555 
L 440.081057 53.785429 
L 440.31277 53.671381 
L 440.892051 53.648878 
L 441.239619 53.922117 
L 442.629894 53.552985 
L 442.977463 53.748173 
L 444.483594 53.504162 
L 444.715307 53.639875 
L 445.642156 53.92526 
L 445.989725 53.921266 
L 446.569006 53.902553 
L 446.916575 53.687857 
L 447.38 53.883486 
L 447.611712 53.837934 
L 447.959281 53.908842 
L 448.190994 53.938045 
L 449.349556 54.156575 
L 449.581268 53.990205 
L 450.16055 54.091845 
L 450.855687 53.985131 
L 451.203256 54.005821 
L 452.477674 53.943126 
L 452.709387 53.913761 
L 453.056956 53.841542 
L 453.288668 53.908531 
L 453.520381 53.870803 
L 453.867949 53.874476 
L 454.44723 53.91919 
L 454.678943 53.903553 
L 456.069218 53.795908 
L 456.30093 53.820369 
L 456.532643 53.825899 
L 457.111924 53.808897 
L 457.343636 53.745923 
L 457.575349 53.771355 
L 457.922918 53.93078 
L 458.618055 53.766759 
L 460.93518 53.797467 
L 461.166892 53.74256 
L 461.398605 53.735112 
L 461.630317 53.647049 
L 461.977886 53.766233 
L 462.441311 53.944706 
L 463.136448 53.843603 
L 463.484017 53.902296 
L 464.179154 53.915315 
L 464.526723 53.636387 
L 464.874292 53.713512 
L 465.106004 53.768208 
L 466.032854 53.996369 
L 466.496279 53.978866 
L 466.843848 54.071274 
L 467.07556 54.066236 
L 467.654841 53.929708 
L 468.234123 53.955947 
L 468.465835 54.001456 
L 468.92926 53.876325 
L 469.160973 53.929096 
L 469.85611 53.960539 
L 470.319535 53.841995 
L 471.130529 53.75053 
L 471.478097 53.90302 
L 472.63666 53.904229 
L 472.868372 54.022824 
L 473.215941 53.969442 
L 473.331797 54.069479 
L 473.911078 53.861926 
L 474.490359 54.049296 
L 476.112347 53.850342 
L 476.459915 53.873781 
L 477.386765 53.694783 
L 477.618478 53.620091 
L 478.197759 53.665119 
L 478.429471 53.774916 
L 478.77704 53.714313 
L 479.588034 53.790679 
L 479.819746 53.695381 
L 480.63074 53.751736 
L 480.978309 53.939853 
L 481.441734 53.815784 
L 481.905159 54.003455 
L 482.368584 53.953049 
L 482.832008 53.932779 
L 483.063721 53.848126 
L 483.41129 53.926222 
L 484.106427 53.925584 
L 484.33814 53.8652 
L 484.569852 53.877145 
L 484.801564 53.764318 
L 485.264989 53.70757 
L 485.496702 53.841302 
L 486.191839 53.860293 
L 486.423552 53.933181 
L 488.393108 53.751127 
L 488.62482 53.826038 
L 488.856533 53.849496 
L 488.972389 53.77256 
L 489.435814 53.964236 
L 490.015095 53.822161 
L 490.246808 53.935394 
L 490.710233 53.999712 
L 491.057801 53.855547 
L 491.521226 53.84151 
L 491.752939 53.768609 
L 492.216364 53.696275 
L 492.679789 53.779132 
L 493.143214 53.763531 
L 493.374926 53.912755 
L 493.606638 53.834033 
L 494.765201 53.762017 
L 495.11277 53.617641 
L 495.460338 53.605626 
L 496.039619 53.770745 
L 496.387188 53.833736 
L 496.966469 53.911914 
L 498.240888 53.704889 
L 498.4726 53.798503 
L 499.051882 53.746105 
L 499.167738 53.689745 
L 499.39945 53.7518 
L 499.631163 53.784767 
L 499.862875 53.894641 
L 500.094588 53.81435 
L 500.210444 53.901485 
L 500.442156 53.832982 
L 501.484863 53.892917 
L 501.716575 53.943348 
L 501.948288 53.900756 
L 502.295856 53.904545 
L 502.643425 53.844818 
L 502.990994 53.920057 
L 503.570275 53.918883 
L 503.801987 53.748412 
L 504.149556 53.873877 
L 504.497125 53.737654 
L 505.771543 53.79116 
L 507.509387 53.561872 
L 507.741099 53.61867 
L 507.972812 53.562149 
L 509.131374 53.555908 
L 509.942368 53.917382 
L 510.289937 53.833861 
L 511.10093 53.780261 
L 511.448499 53.695264 
L 511.680211 53.816782 
L 512.143636 53.706522 
L 512.375349 53.867015 
L 514.113192 53.64551 
L 514.344905 53.671165 
L 514.460761 53.564973 
L 514.692474 53.679182 
L 515.503467 53.691637 
L 515.966892 53.710626 
L 516.314461 53.941183 
L 516.66203 53.967781 
L 517.241311 53.965646 
L 518.168161 53.912273 
L 518.399873 53.986782 
L 519.442579 54.080669 
L 519.790148 54.161616 
L 520.253573 54.236425 
L 520.485285 54.18749 
L 520.94871 54.222872 
L 521.064567 54.322074 
L 521.412135 54.180289 
L 521.87556 54.123668 
L 522.107273 54.075002 
L 522.454841 54.08569 
L 522.918266 54.015303 
L 523.497548 54.009125 
L 523.72926 54.158493 
L 524.308541 54.063991 
L 524.771966 54.263425 
L 525.119535 54.220425 
L 525.351247 54.105951 
L 525.58296 54.056503 
L 526.393953 54.045061 
L 526.625666 53.964398 
L 526.973235 54.01973 
L 527.668372 53.911309 
L 527.900085 53.830123 
L 528.479366 53.784559 
L 528.595222 53.790004 
L 528.826934 53.63463 
L 529.058647 53.786203 
L 529.869641 53.73953 
L 530.333066 53.663079 
L 530.680634 53.586475 
L 531.144059 53.858017 
L 531.955053 53.829919 
L 532.534334 54.003897 
L 532.65019 54.127027 
L 533.113615 54.034088 
L 533.461184 54.00793 
L 533.692896 53.990433 
L 534.388034 53.972736 
L 535.199027 53.873576 
L 535.43074 53.879929 
L 535.778309 53.79292 
L 536.821015 54.11271 
L 537.28444 54.096453 
L 537.516152 54.082925 
L 537.863721 54.153392 
L 538.21129 54.105995 
L 538.558858 54.128452 
L 538.906427 54.052976 
L 541.339408 54.193666 
L 541.686977 54.190571 
L 542.034545 54.120928 
L 542.034545 54.120928 
" clip-path="url(#p2be49c02ef)" style="fill: none; stroke: #ffaf00; stroke-linecap: square"/>
   </g>
   <g id="line2d_32">
    <path d="M 78.725455 37.262727 
L 80.231586 39.207396 
L 80.579154 39.906648 
L 81.274292 40.68348 
L 81.62186 41.18578 
L 82.664567 42.286105 
L 83.012135 42.711127 
L 83.127992 42.746011 
L 84.170698 44.142421 
L 84.40241 44.272307 
L 84.981691 44.834595 
L 85.213404 45.002469 
L 85.445116 45.16242 
L 85.792685 45.474609 
L 86.371966 46.215041 
L 86.835391 46.606766 
L 87.298816 47.158484 
L 87.646385 47.580896 
L 87.762241 47.585455 
L 92.39649 52.74092 
L 92.744059 53.081179 
L 92.975772 53.301668 
L 93.439197 53.872156 
L 93.786765 54.328436 
L 94.018478 54.616399 
L 94.134334 54.650932 
L 94.481903 55.072749 
L 94.829471 55.37806 
L 95.292896 55.918877 
L 96.683171 57.203693 
L 96.914884 57.26282 
L 97.262452 57.674391 
L 98.073446 58.709941 
L 99.463721 60.073701 
L 101.201564 62.416354 
L 101.549133 62.783403 
L 103.286977 64.451518 
L 103.518689 64.70849 
L 111.281057 73.613351 
L 111.976195 74.170532 
L 112.671332 74.961122 
L 113.714038 76.3645 
L 115.104313 77.844406 
L 115.451882 78.301311 
L 115.79945 78.638741 
L 116.031163 78.919763 
L 116.147019 78.918695 
L 116.958013 79.865844 
L 118.116575 81.127609 
L 118.464144 81.431763 
L 119.390994 82.526021 
L 120.086131 83.449344 
L 120.317844 83.608694 
L 120.897125 84.056004 
L 121.708118 84.941956 
L 121.823975 84.951652 
L 122.171543 85.436687 
L 122.634968 85.945807 
L 123.445962 86.946361 
L 124.141099 87.451271 
L 125.994799 89.279709 
L 126.226512 89.381617 
L 127.848499 90.988499 
L 128.080211 91.25464 
L 128.775349 91.986935 
L 129.007061 92.177412 
L 130.28148 93.501478 
L 130.629049 93.945886 
L 130.860761 94.163785 
L 131.555899 94.730492 
L 132.366892 95.332152 
L 132.598605 95.54738 
L 132.830317 95.65809 
L 133.409598 96.345683 
L 133.988879 97.074795 
L 134.336448 97.580676 
L 134.568161 97.732633 
L 135.031586 98.296349 
L 135.610867 98.79978 
L 136.190148 99.372723 
L 136.537717 99.612518 
L 137.232854 100.265496 
L 137.580423 100.548506 
L 137.927992 100.808549 
L 138.507273 101.441957 
L 139.781691 102.358828 
L 140.12926 102.800772 
L 141.287822 103.680041 
L 141.519535 103.914307 
L 143.025666 105.88161 
L 143.141522 105.881933 
L 145.574503 108.187269 
L 145.806216 108.28178 
L 146.269641 108.708708 
L 147.080634 109.398111 
L 147.891628 110.229031 
L 148.702622 110.908284 
L 148.934334 111.131643 
L 149.166047 111.358603 
L 149.629471 111.697893 
L 150.092896 111.869794 
L 150.672178 112.470014 
L 152.294165 113.457377 
L 152.641734 113.839451 
L 153.68444 114.461219 
L 155.190571 116.09237 
L 155.653996 116.516774 
L 156.117421 116.869266 
L 157.044271 117.540456 
L 158.086977 118.510768 
L 159.129683 119.405408 
L 159.477252 119.728822 
L 160.983383 120.919627 
L 161.910233 121.805435 
L 162.141945 121.851585 
L 162.373658 122.069889 
L 162.721226 122.277454 
L 163.184651 122.597369 
L 163.416364 122.806878 
L 163.648076 122.894636 
L 164.574926 123.437586 
L 164.922495 123.706313 
L 165.501776 124.045159 
L 165.849345 124.47331 
L 171.410444 128.123123 
L 171.873869 128.349573 
L 173.611712 129.657012 
L 174.30685 130.102912 
L 174.422706 130.105298 
L 174.886131 130.51554 
L 175.117844 130.666069 
L 175.465412 130.995155 
L 178.477674 132.899168 
L 178.709387 133.00481 
L 179.752093 133.753082 
L 179.867949 133.757157 
L 180.099662 133.92395 
L 181.258224 134.394155 
L 181.721649 134.784228 
L 181.837505 134.758691 
L 182.764355 135.57309 
L 183.111924 135.725958 
L 183.575349 135.92745 
L 184.038774 136.389513 
L 184.386342 136.571008 
L 184.849767 136.89968 
L 185.197336 137.063288 
L 185.892474 137.514148 
L 187.86203 138.70636 
L 188.209598 138.808067 
L 188.673023 139.121435 
L 189.484017 139.671862 
L 189.715729 139.731135 
L 190.295011 139.93107 
L 190.526723 140.027119 
L 190.874292 140.203368 
L 191.453573 140.528955 
L 192.264567 140.940519 
L 192.727992 141.19746 
L 193.191416 141.547189 
L 193.423129 141.608546 
L 197.362241 143.553758 
L 197.593953 143.65086 
L 197.941522 143.919286 
L 198.289091 144.211828 
L 199.215941 144.770055 
L 201.069641 146.019382 
L 201.417209 145.924466 
L 201.648922 146.078148 
L 201.880634 146.123156 
L 201.99649 146.115346 
L 202.459915 146.453569 
L 203.039197 146.630951 
L 203.85019 147.095479 
L 203.966047 147.099594 
L 204.429471 147.681816 
L 204.661184 147.7854 
L 205.819746 148.238373 
L 206.167315 148.480723 
L 206.399027 148.709269 
L 206.514884 148.668014 
L 207.325877 149.307262 
L 208.136871 149.529719 
L 208.368584 149.825646 
L 210.106427 150.532483 
L 210.33814 150.668234 
L 210.917421 150.915218 
L 211.149133 150.96167 
L 212.191839 151.346509 
L 212.771121 151.505802 
L 213.69797 151.77273 
L 214.045539 151.928257 
L 215.088245 152.405521 
L 215.319958 152.303146 
L 216.362664 152.6936 
L 217.173658 153.338627 
L 217.40537 153.381586 
L 217.637082 153.550089 
L 217.868795 153.605186 
L 218.679789 154.0512 
L 218.911501 154.061136 
L 219.374926 154.243565 
L 221.344482 155.27583 
L 221.807907 155.577483 
L 222.155476 155.646263 
L 222.618901 155.954209 
L 222.850613 156.082226 
L 224.240888 156.578973 
L 224.4726 156.768452 
L 225.051882 156.993145 
L 226.442156 157.335303 
L 226.673869 157.545148 
L 228.527569 158.386549 
L 228.875137 158.46724 
L 230.0337 158.807047 
L 230.381268 158.787361 
L 230.612981 158.945957 
L 230.728837 158.85779 
L 231.076406 159.058862 
L 232.814249 159.729409 
L 234.667949 160.670579 
L 235.015518 160.733633 
L 235.363087 160.871137 
L 236.17408 161.136038 
L 236.985074 161.327062 
L 237.216786 161.362528 
L 237.332643 161.512442 
L 237.564355 161.485765 
L 238.143636 161.783884 
L 238.259493 161.893146 
L 238.491205 161.91525 
L 241.040042 163.182778 
L 241.271755 163.313835 
L 241.503467 163.375205 
L 241.73518 163.423745 
L 241.966892 163.480187 
L 242.198605 163.452748 
L 244.747442 164.587208 
L 244.979154 164.594622 
L 245.326723 164.770027 
L 245.790148 164.955705 
L 246.94871 165.328795 
L 247.180423 165.293354 
L 247.412135 165.335717 
L 247.759704 165.454651 
L 248.338985 165.783143 
L 248.686554 165.880125 
L 248.80241 166.012258 
L 249.034123 165.977833 
L 249.265835 166.005037 
L 250.076829 166.705385 
L 250.308541 166.659559 
L 250.65611 166.781975 
L 251.003679 166.902627 
L 251.467104 167.094475 
L 251.698816 167.17802 
L 252.046385 167.3765 
L 252.857378 167.38881 
L 252.973235 167.313243 
L 253.668372 167.728658 
L 254.131797 167.847941 
L 256.680634 168.658767 
L 257.028203 168.641687 
L 257.375772 168.889734 
L 257.72334 168.915553 
L 257.955053 169.034379 
L 260.156321 169.903207 
L 260.388034 170.072578 
L 260.619746 170.056021 
L 261.314884 170.203079 
L 261.662452 170.315816 
L 261.894165 170.464067 
L 262.241734 170.520562 
L 262.473446 170.663732 
L 263.052727 170.710493 
L 263.28444 170.860173 
L 264.095433 171.235456 
L 264.443002 171.274565 
L 264.906427 171.481829 
L 265.833277 171.718501 
L 266.528414 171.858439 
L 266.875983 171.936826 
L 268.729683 172.324069 
L 268.961395 172.274491 
L 269.193108 172.359727 
L 269.540677 172.342276 
L 270.004101 172.653903 
L 270.235814 172.632677 
L 270.815095 172.833501 
L 270.930951 172.803962 
L 271.162664 172.894648 
L 271.741945 173.079612 
L 272.20537 173.235884 
L 272.321226 173.259065 
L 272.437082 173.405858 
L 272.668795 173.342745 
L 272.900507 173.412945 
L 273.827357 173.935535 
L 274.05907 174.001007 
L 274.406638 174.064198 
L 274.98592 174.194398 
L 275.217632 174.308744 
L 276.028626 174.482629 
L 276.376195 174.707805 
L 276.955476 174.972903 
L 277.303044 174.993321 
L 277.766469 175.134255 
L 278.114038 175.261825 
L 278.345751 175.201574 
L 278.577463 175.170411 
L 281.1263 175.981916 
L 281.589725 176.161689 
L 281.821438 176.253323 
L 282.284863 176.285936 
L 282.632431 176.395173 
L 282.98 176.372668 
L 283.327569 176.52359 
L 283.559281 176.492254 
L 283.790994 176.612168 
L 284.138562 176.842568 
L 284.370275 176.858159 
L 284.717844 177.012054 
L 285.412981 177.299152 
L 286.223975 177.658928 
L 287.150825 177.6137 
L 287.498393 177.630889 
L 287.730106 177.766806 
L 288.541099 178.116701 
L 288.772812 178.09007 
L 289.004524 178.194719 
L 289.352093 178.379051 
L 289.699662 178.568135 
L 289.931374 178.592983 
L 290.858224 178.897251 
L 291.089937 178.966163 
L 291.321649 179.079162 
L 291.437505 179.163828 
L 291.669218 179.141629 
L 292.132643 179.124685 
L 292.82778 179.442104 
L 293.175349 179.654465 
L 293.407061 179.791009 
L 294.218055 179.838485 
L 294.449767 179.910261 
L 294.797336 179.940565 
L 295.492474 180.031288 
L 295.840042 180.09035 
L 296.187611 180.060461 
L 296.53518 180.191415 
L 296.766892 180.169921 
L 297.114461 180.199292 
L 297.577886 180.282921 
L 297.809598 180.306488 
L 298.157167 180.344062 
L 299.431586 180.700174 
L 299.895011 180.895176 
L 300.010867 180.918861 
L 300.242579 180.814101 
L 301.285285 180.858663 
L 301.632854 180.934632 
L 301.864567 180.897682 
L 303.718266 181.528464 
L 303.949979 181.672256 
L 305.108541 181.83986 
L 305.45611 181.905865 
L 305.803679 181.927691 
L 306.267104 182.053552 
L 306.614672 182.007257 
L 306.846385 182.13894 
L 307.078097 182.220849 
L 307.30981 182.195756 
L 307.657378 182.333046 
L 307.889091 182.355163 
L 308.23666 182.469287 
L 308.352516 182.434041 
L 308.700085 182.664082 
L 309.395222 182.769094 
L 311.017209 183.312621 
L 311.248922 183.444581 
L 311.59649 183.483722 
L 311.828203 183.586344 
L 311.944059 183.572973 
L 312.175772 183.646899 
L 312.407484 183.535488 
L 312.639197 183.642969 
L 313.45019 183.840951 
L 313.681903 183.765486 
L 314.724609 183.74727 
L 315.188034 184.075575 
L 315.535603 184.102499 
L 315.651459 184.046682 
L 315.999027 184.269645 
L 316.346596 184.24574 
L 316.694165 184.307927 
L 317.15759 184.458933 
L 317.505159 184.451133 
L 317.968584 184.509379 
L 318.663721 184.370866 
L 319.822283 184.549975 
L 320.169852 184.765101 
L 320.285708 184.745065 
L 320.517421 184.843619 
L 321.328414 185.205256 
L 321.444271 185.176235 
L 322.023552 185.572813 
L 322.834545 185.665723 
L 323.066258 185.706946 
L 323.413827 185.790784 
L 323.993108 186.000364 
L 324.340677 186.061638 
L 324.572389 186.181051 
L 324.804101 186.09792 
L 325.035814 186.199974 
L 325.267526 186.192133 
L 325.499239 186.301735 
L 325.730951 186.232402 
L 325.962664 186.249462 
L 327.352939 186.419558 
L 327.584651 186.375793 
L 327.93222 186.585701 
L 328.279789 186.680111 
L 329.206638 186.54162 
L 329.438351 186.668198 
L 329.670063 186.654051 
L 329.901776 186.788367 
L 330.249345 186.938158 
L 331.176195 187.272408 
L 331.871332 187.530009 
L 332.334757 187.520773 
L 332.798182 187.623569 
L 335.462875 188.004159 
L 335.694588 188.058298 
L 335.9263 188.090973 
L 336.158013 188.224337 
L 336.389725 188.238043 
L 336.85315 188.277693 
L 337.895856 188.484093 
L 338.011712 188.414397 
L 338.243425 188.579806 
L 338.938562 188.676755 
L 339.286131 188.561439 
L 339.6337 188.656677 
L 339.981268 188.748166 
L 340.212981 188.78831 
L 340.676406 188.851129 
L 340.908118 188.818345 
L 341.139831 188.734468 
L 341.719112 188.794752 
L 342.066681 188.790672 
L 343.225243 188.920093 
L 343.456956 188.961389 
L 343.572812 188.85357 
L 343.920381 188.928506 
L 344.036237 188.89843 
L 344.383805 189.062299 
L 345.078943 189.093923 
L 345.426512 189.194734 
L 345.889937 189.191095 
L 346.121649 189.222041 
L 346.585074 189.168121 
L 346.932643 189.368729 
L 347.280211 189.347441 
L 347.511924 189.463101 
L 347.975349 189.679487 
L 348.322918 189.717305 
L 348.670486 189.938816 
L 351.451036 190.40731 
L 351.682748 190.287834 
L 353.420592 190.765375 
L 354.347442 190.714714 
L 354.579154 190.87559 
L 354.810867 190.830033 
L 355.158436 190.93955 
L 356.085285 190.91856 
L 356.664567 191.067103 
L 357.243848 191.055094 
L 357.47556 190.954637 
L 358.40241 191.317221 
L 358.749979 191.190122 
L 359.097548 191.150027 
L 360.024397 190.976491 
L 360.25611 191.062383 
L 360.603679 191.040851 
L 361.18296 191.322692 
L 361.993953 191.436791 
L 362.225666 191.302708 
L 362.457378 191.315752 
L 363.03666 191.274423 
L 363.500085 191.381162 
L 365.585497 191.486397 
L 366.39649 191.727896 
L 366.628203 191.588539 
L 367.32334 191.886325 
L 368.597759 191.909728 
L 368.829471 191.948275 
L 369.524609 191.910584 
L 369.988034 191.816609 
L 370.799027 192.226842 
L 371.146596 192.131516 
L 374.73814 192.59981 
L 374.969852 192.5229 
L 375.201564 192.627712 
L 375.664989 192.717236 
L 376.707696 193.103639 
L 377.055264 192.992569 
L 378.09797 192.983983 
L 378.561395 193.160705 
L 378.908964 193.124326 
L 379.02482 193.073375 
L 379.256533 193.139289 
L 379.488245 193.261497 
L 380.299239 193.65925 
L 380.415095 193.649241 
L 380.530951 193.526392 
L 380.762664 193.574573 
L 380.994376 193.504491 
L 381.226089 193.646415 
L 381.457801 193.61834 
L 382.152939 193.860213 
L 382.500507 193.772592 
L 385.049345 194.307244 
L 385.281057 194.247909 
L 385.744482 194.254189 
L 386.439619 194.306103 
L 386.787188 194.313636 
L 387.018901 194.42002 
L 387.366469 194.42559 
L 387.598182 194.573946 
L 387.829894 194.450446 
L 388.177463 194.473192 
L 388.525032 194.389114 
L 388.8726 194.457068 
L 389.220169 194.46998 
L 389.336025 194.452164 
L 389.451882 194.592901 
L 389.79945 194.540167 
L 390.031163 194.619406 
L 391.421438 194.597722 
L 392.000719 194.560761 
L 393.738562 194.567989 
L 393.970275 194.497035 
L 394.781268 194.649988 
L 394.897125 194.577678 
L 395.36055 194.70396 
L 396.171543 194.589173 
L 396.519112 194.579791 
L 396.866681 194.574699 
L 397.561818 194.455681 
L 397.677674 194.349577 
L 398.025243 194.489169 
L 398.604524 194.525706 
L 398.836237 194.686117 
L 399.067949 194.648626 
L 399.64723 194.827379 
L 400.110655 195.106359 
L 400.921649 195.349651 
L 401.385074 195.085386 
L 402.659493 195.266606 
L 403.818055 195.325955 
L 404.049767 195.328784 
L 404.860761 195.105266 
L 405.092474 195.07695 
L 405.555899 195.220956 
L 405.671755 195.17094 
L 406.019323 195.441632 
L 406.482748 195.597069 
L 406.830317 195.679087 
L 407.525455 195.752129 
L 407.757167 195.853071 
L 408.104736 195.954367 
L 408.336448 195.931717 
L 408.915729 195.979633 
L 409.147442 195.909305 
L 410.306004 196.14973 
L 410.653573 196.250598 
L 411.001142 196.079162 
L 411.464567 196.128315 
L 411.696279 196.090053 
L 412.738985 196.561999 
L 412.970698 196.583862 
L 414.12926 196.780224 
L 414.476829 196.665937 
L 415.519535 196.862745 
L 415.751247 196.767198 
L 416.562241 196.849563 
L 416.793953 196.682786 
L 417.257378 196.817772 
L 417.720803 196.693349 
L 417.952516 196.675954 
L 419.111078 196.968574 
L 419.342791 196.900873 
L 419.690359 196.901511 
L 420.848922 196.54673 
L 420.964778 196.624912 
L 421.312347 196.485861 
L 421.775772 196.493425 
L 422.239197 196.515682 
L 422.355053 196.5984 
L 422.586765 196.505783 
L 423.513615 196.580759 
L 424.092896 196.817993 
L 424.672178 196.546321 
L 425.599027 196.828016 
L 425.714884 196.782231 
L 425.946596 196.923209 
L 426.178309 196.851753 
L 426.641734 196.944705 
L 426.873446 197.044482 
L 427.105159 196.970825 
L 427.452727 197.029628 
L 427.68444 196.990731 
L 427.916152 197.035572 
L 428.263721 197.147585 
L 428.495433 197.050403 
L 428.727146 197.001348 
L 428.958858 196.980031 
L 429.190571 196.857935 
L 430.117421 197.104526 
L 430.464989 197.096889 
L 430.812558 197.257613 
L 431.160127 197.110751 
L 431.507696 197.025171 
L 431.739408 197.129948 
L 432.202833 197.076325 
L 432.666258 197.143457 
L 433.129683 197.153403 
L 433.477252 197.317314 
L 433.708964 197.251215 
L 434.635814 197.046626 
L 435.446808 197.065288 
L 436.026089 197.050932 
L 436.141945 196.972952 
L 436.373658 197.15882 
L 436.952939 197.162969 
L 437.300507 197.273953 
L 437.995645 197.57279 
L 438.111501 197.602368 
L 438.343214 197.552882 
L 439.733488 197.809012 
L 440.196913 197.767662 
L 440.428626 197.726133 
L 440.892051 197.581452 
L 441.818901 197.659333 
L 442.398182 197.905369 
L 443.440888 197.722651 
L 443.788457 197.741733 
L 444.483594 197.893051 
L 444.831163 197.804041 
L 445.410444 197.825745 
L 445.642156 197.722532 
L 447.032431 197.926976 
L 447.611712 197.938722 
L 447.843425 197.917899 
L 448.190994 197.930618 
L 448.654419 197.97709 
L 450.508118 198.048787 
L 451.0874 198.050072 
L 451.666681 198.050028 
L 451.898393 198.105281 
L 452.361818 198.129972 
L 452.709387 198.075888 
L 452.941099 198.153832 
L 453.404524 198.13303 
L 453.520381 198.229944 
L 453.867949 198.132667 
L 454.794799 198.329503 
L 455.258224 198.225647 
L 455.605793 198.213842 
L 455.953362 198.161872 
L 456.185074 198.265869 
L 456.764355 198.498766 
L 457.22778 198.559903 
L 457.343636 198.462238 
L 457.691205 198.628864 
L 457.922918 198.531071 
L 458.386342 198.716082 
L 458.733911 198.790619 
L 459.313192 198.593384 
L 459.660761 198.553955 
L 459.892474 198.564074 
L 460.124186 198.676818 
L 460.819323 198.634019 
L 460.93518 198.561555 
L 461.166892 198.605769 
L 461.746173 198.737509 
L 461.977886 198.600971 
L 462.209598 198.785234 
L 462.325455 198.701758 
L 462.673023 198.771496 
L 463.252304 198.775897 
L 463.484017 198.865447 
L 463.715729 198.812528 
L 463.947442 198.787757 
L 464.295011 198.833624 
L 464.526723 198.914227 
L 464.758436 198.97956 
L 465.453573 198.845054 
L 465.569429 198.769912 
L 465.801142 198.779018 
L 466.612135 198.967412 
L 466.843848 198.917475 
L 467.423129 199.295912 
L 468.118266 199.088428 
L 468.92926 199.376053 
L 469.508541 199.259282 
L 469.971966 199.337936 
L 470.203679 199.279296 
L 471.593953 199.321591 
L 471.70981 199.246677 
L 471.825666 199.336325 
L 472.057378 199.307807 
L 472.289091 199.360814 
L 472.520803 199.371969 
L 474.722072 199.598878 
L 474.953784 199.568617 
L 475.301353 199.503303 
L 475.533066 199.446254 
L 475.648922 199.522468 
L 475.99649 199.382975 
L 476.807484 199.317357 
L 477.386765 199.188835 
L 477.734334 199.188512 
L 478.313615 199.021205 
L 478.77704 198.911748 
L 480.051459 199.201224 
L 480.862452 199.300631 
L 481.094165 199.370957 
L 481.673446 199.225281 
L 482.136871 199.276401 
L 482.716152 199.102133 
L 483.063721 199.236838 
L 483.295433 199.101481 
L 483.758858 199.228458 
L 483.990571 199.204844 
L 484.222283 199.281479 
L 484.685708 199.343636 
L 485.264989 199.306774 
L 485.728414 199.305981 
L 485.960127 199.25623 
L 486.191839 199.323887 
L 486.539408 199.271009 
L 487.118689 199.147218 
L 487.350402 199.308094 
L 487.466258 199.276113 
L 487.813827 199.518149 
L 488.161395 199.475854 
L 488.972389 199.796786 
L 489.55167 199.695732 
L 489.899239 199.811187 
L 490.246808 199.768337 
L 490.47852 199.732608 
L 490.594376 199.739095 
L 490.826089 199.637931 
L 491.057801 199.657275 
L 491.868795 199.602398 
L 492.216364 199.515816 
L 492.448076 199.40069 
L 493.25907 199.272494 
L 493.490782 199.365354 
L 493.722495 199.322589 
L 493.954207 199.302768 
L 494.301776 199.223692 
L 494.533488 199.26159 
L 495.228626 199.432284 
L 495.460338 199.39614 
L 496.503044 199.40961 
L 496.618901 199.284779 
L 497.082326 199.375687 
L 497.545751 199.398164 
L 497.777463 199.414701 
L 498.125032 199.336974 
L 498.4726 199.521806 
L 498.820169 199.582866 
L 498.936025 199.538297 
L 499.283594 199.686535 
L 499.747019 199.712899 
L 500.094588 199.774383 
L 500.442156 199.751489 
L 500.789725 199.676636 
L 501.137294 199.751355 
L 501.484863 199.904124 
L 502.18 199.894003 
L 502.527569 199.983978 
L 502.759281 200.032051 
L 503.10685 200.034216 
L 505.308118 200.089848 
L 506.003256 199.891552 
L 506.814249 200.083615 
L 507.161818 200.052622 
L 507.393531 200.1451 
L 507.741099 200.040679 
L 507.972812 200.064454 
L 508.320381 200.045888 
L 509.131374 200.361306 
L 509.363087 200.401974 
L 509.710655 200.457565 
L 509.942368 200.45343 
L 510.17408 200.644806 
L 510.405793 200.589044 
L 511.10093 200.680496 
L 512.02778 200.572597 
L 512.259493 200.682491 
L 512.491205 200.668351 
L 513.418055 200.87861 
L 513.649767 200.971275 
L 513.997336 200.959477 
L 514.344905 200.978747 
L 514.460761 200.917566 
L 514.692474 201.003419 
L 514.924186 200.927303 
L 517.704736 200.565085 
L 518.284017 200.618487 
L 518.747442 200.574536 
L 519.326723 200.529555 
L 519.674292 200.593796 
L 519.790148 200.502534 
L 520.137717 200.606014 
L 520.485285 200.535905 
L 521.412135 200.575701 
L 522.918266 200.851204 
L 523.149979 200.916776 
L 524.076829 200.823038 
L 524.308541 200.897715 
L 525.930529 200.926381 
L 526.50981 201.104899 
L 526.741522 201.069291 
L 529.637928 200.963662 
L 529.869641 200.968136 
L 530.333066 201.07563 
L 531.144059 201.016742 
L 531.491628 200.901696 
L 535.43074 200.740744 
L 536.125877 201.106342 
L 536.821015 201.011896 
L 537.052727 201.074017 
L 537.863721 201.154907 
L 539.717421 201.409026 
L 540.412558 201.298748 
L 541.455264 201.577802 
L 542.034545 201.717273 
L 542.034545 201.717273 
" clip-path="url(#p2be49c02ef)" style="fill: none; stroke: #f46920; stroke-linecap: square"/>
   </g>
   <g id="patch_3">
    <path d="M 55.56 209.94 
L 55.56 29.04 
" style="fill: none; stroke: #1a1a1a; stroke-linejoin: miter; stroke-linecap: square"/>
   </g>
   <g id="patch_4">
    <path d="M 55.56 209.94 
L 565.2 209.94 
" style="fill: none; stroke: #1a1a1a; stroke-linejoin: miter; stroke-linecap: square"/>
   </g>
   <g id="text_18">
    <!-- Nested attractors: fast micro dynamics and slow macro integration -->
    <g style="fill: #333333" transform="translate(42.15125 23.04) scale(0.16 -0.16)">
     <defs>
      <path id="DejaVuSans-4e" d="M 628 4666 
L 1478 4666 
L 3547 763 
L 3547 4666 
L 4159 4666 
L 4159 0 
L 3309 0 
L 1241 3903 
L 1241 0 
L 628 0 
L 628 4666 
z
" transform="scale(0.015625)"/>
      <path id="DejaVuSans-64" d="M 2906 2969 
L 2906 4863 
L 3481 4863 
L 3481 0 
L 2906 0 
L 2906 525 
Q 2725 213 2448 61 
Q 2172 -91 1784 -91 
Q 1150 -91 751 415 
Q 353 922 353 1747 
Q 353 2572 751 3078 
Q 1150 3584 1784 3584 
Q 2172 3584 2448 3432 
Q 2725 3281 2906 2969 
z
M 947 1747 
Q 947 1113 1208 752 
Q 1469 391 1925 391 
Q 2381 391 2643 752 
Q 2906 1113 2906 1747 
Q 2906 2381 2643 2742 
Q 2381 3103 1925 3103 
Q 1469 3103 1208 2742 
Q 947 2381 947 1747 
z
" transform="scale(0.015625)"/>
      <path id="DejaVuSans-63" d="M 3122 3366 
L 3122 2828 
Q 2878 2963 2633 3030 
Q 2388 3097 2138 3097 
Q 1578 3097 1268 2742 
Q 959 2388 959 1747 
Q 959 1106 1268 751 
Q 1578 397 2138 397 
Q 2388 397 2633 464 
Q 2878 531 3122 666 
L 3122 134 
Q 2881 22 2623 -34 
Q 2366 -91 2075 -91 
Q 1284 -91 818 406 
Q 353 903 353 1747 
Q 353 2603 823 3093 
Q 1294 3584 2113 3584 
Q 2378 3584 2631 3529 
Q 2884 3475 3122 3366 
z
" transform="scale(0.015625)"/>
      <path id="DejaVuSans-6f" d="M 1959 3097 
Q 1497 3097 1228 2736 
Q 959 2375 959 1747 
Q 959 1119 1226 758 
Q 1494 397 1959 397 
Q 2419 397 2687 759 
Q 2956 1122 2956 1747 
Q 2956 2369 2687 2733 
Q 2419 3097 1959 3097 
z
M 1959 3584 
Q 2709 3584 3137 3096 
Q 3566 2609 3566 1747 
Q 3566 888 3137 398 
Q 2709 -91 1959 -91 
Q 1206 -91 779 398 
Q 353 888 353 1747 
Q 353 2609 779 3096 
Q 1206 3584 1959 3584 
z
" transform="scale(0.015625)"/>
      <path id="DejaVuSans-3a" d="M 750 794 
L 1409 794 
L 1409 0 
L 750 0 
L 750 794 
z
M 750 3309 
L 1409 3309 
L 1409 2516 
L 750 2516 
L 750 3309 
z
" transform="scale(0.015625)"/>
      <path id="DejaVuSans-66" d="M 2375 4863 
L 2375 4384 
L 1825 4384 
Q 1516 4384 1395 4259 
Q 1275 4134 1275 3809 
L 1275 3500 
L 2222 3500 
L 2222 3053 
L 1275 3053 
L 1275 0 
L 697 0 
L 697 3053 
L 147 3053 
L 147 3500 
L 697 3500 
L 697 3744 
Q 697 4328 969 4595 
Q 1241 4863 1831 4863 
L 2375 4863 
z
" transform="scale(0.015625)"/>
      <path id="DejaVuSans-79" d="M 2059 -325 
Q 1816 -950 1584 -1140 
Q 1353 -1331 966 -1331 
L 506 -1331 
L 506 -850 
L 844 -850 
Q 1081 -850 1212 -737 
Q 1344 -625 1503 -206 
L 1606 56 
L 191 3500 
L 800 3500 
L 1894 763 
L 2988 3500 
L 3597 3500 
L 2059 -325 
z
" transform="scale(0.015625)"/>
      <path id="DejaVuSans-77" d="M 269 3500 
L 844 3500 
L 1563 769 
L 2278 3500 
L 2956 3500 
L 3675 769 
L 4391 3500 
L 4966 3500 
L 4050 0 
L 3372 0 
L 2619 2869 
L 1863 0 
L 1184 0 
L 269 3500 
z
" transform="scale(0.015625)"/>
      <path id="DejaVuSans-67" d="M 2906 1791 
Q 2906 2416 2648 2759 
Q 2391 3103 1925 3103 
Q 1463 3103 1205 2759 
Q 947 2416 947 1791 
Q 947 1169 1205 825 
Q 1463 481 1925 481 
Q 2391 481 2648 825 
Q 2906 1169 2906 1791 
z
M 3481 434 
Q 3481 -459 3084 -895 
Q 2688 -1331 1869 -1331 
Q 1566 -1331 1297 -1286 
Q 1028 -1241 775 -1147 
L 775 -588 
Q 1028 -725 1275 -790 
Q 1522 -856 1778 -856 
Q 2344 -856 2625 -561 
Q 2906 -266 2906 331 
L 2906 616 
Q 2728 306 2450 153 
Q 2172 0 1784 0 
Q 1141 0 747 490 
Q 353 981 353 1791 
Q 353 2603 747 3093 
Q 1141 3584 1784 3584 
Q 2172 3584 2450 3431 
Q 2728 3278 2906 2969 
L 2906 3500 
L 3481 3500 
L 3481 434 
z
" transform="scale(0.015625)"/>
     </defs>
     <use xlink:href="#DejaVuSans-4e"/>
     <use xlink:href="#DejaVuSans-65" x="74.804688"/>
     <use xlink:href="#DejaVuSans-73" x="136.328125"/>
     <use xlink:href="#DejaVuSans-74" x="188.427734"/>
     <use xlink:href="#DejaVuSans-65" x="227.636719"/>
     <use xlink:href="#DejaVuSans-64" x="289.160156"/>
     <use xlink:href="#DejaVuSans-20" x="352.636719"/>
     <use xlink:href="#DejaVuSans-61" x="384.423828"/>
     <use xlink:href="#DejaVuSans-74" x="445.703125"/>
     <use xlink:href="#DejaVuSans-74" x="484.912109"/>
     <use xlink:href="#DejaVuSans-72" x="524.121094"/>
     <use xlink:href="#DejaVuSans-61" x="565.234375"/>
     <use xlink:href="#DejaVuSans-63" x="626.513672"/>
     <use xlink:href="#DejaVuSans-74" x="681.494141"/>
     <use xlink:href="#DejaVuSans-6f" x="720.703125"/>
     <use xlink:href="#DejaVuSans-72" x="781.884766"/>
     <use xlink:href="#DejaVuSans-73" x="822.998047"/>
     <use xlink:href="#DejaVuSans-3a" x="875.097656"/>
     <use xlink:href="#DejaVuSans-20" x="908.789062"/>
     <use xlink:href="#DejaVuSans-66" x="940.576172"/>
     <use xlink:href="#DejaVuSans-61" x="975.78125"/>
     <use xlink:href="#DejaVuSans-73" x="1037.060547"/>
     <use xlink:href="#DejaVuSans-74" x="1089.160156"/>
     <use xlink:href="#DejaVuSans-20" x="1128.369141"/>
     <use xlink:href="#DejaVuSans-6d" x="1160.15625"/>
     <use xlink:href="#DejaVuSans-69" x="1257.568359"/>
     <use xlink:href="#DejaVuSans-63" x="1285.351562"/>
     <use xlink:href="#DejaVuSans-72" x="1340.332031"/>
     <use xlink:href="#DejaVuSans-6f" x="1379.195312"/>
     <use xlink:href="#DejaVuSans-20" x="1440.376953"/>
     <use xlink:href="#DejaVuSans-64" x="1472.164062"/>
     <use xlink:href="#DejaVuSans-79" x="1535.640625"/>
     <use xlink:href="#DejaVuSans-6e" x="1594.820312"/>
     <use xlink:href="#DejaVuSans-61" x="1658.199219"/>
     <use xlink:href="#DejaVuSans-6d" x="1719.478516"/>
     <use xlink:href="#DejaVuSans-69" x="1816.890625"/>
     <use xlink:href="#DejaVuSans-63" x="1844.673828"/>
     <use xlink:href="#DejaVuSans-73" x="1899.654297"/>
     <use xlink:href="#DejaVuSans-20" x="1951.753906"/>
     <use xlink:href="#DejaVuSans-61" x="1983.541016"/>
     <use xlink:href="#DejaVuSans-6e" x="2044.820312"/>
     <use xlink:href="#DejaVuSans-64" x="2108.199219"/>
     <use xlink:href="#DejaVuSans-20" x="2171.675781"/>
     <use xlink:href="#DejaVuSans-73" x="2203.462891"/>
     <use xlink:href="#DejaVuSans-6c" x="2255.5625"/>
     <use xlink:href="#DejaVuSans-6f" x="2283.345703"/>
     <use xlink:href="#DejaVuSans-77" x="2344.527344"/>
     <use xlink:href="#DejaVuSans-20" x="2426.314453"/>
     <use xlink:href="#DejaVuSans-6d" x="2458.101562"/>
     <use xlink:href="#DejaVuSans-61" x="2555.513672"/>
     <use xlink:href="#DejaVuSans-63" x="2616.792969"/>
     <use xlink:href="#DejaVuSans-72" x="2671.773438"/>
     <use xlink:href="#DejaVuSans-6f" x="2710.636719"/>
     <use xlink:href="#DejaVuSans-20" x="2771.818359"/>
     <use xlink:href="#DejaVuSans-69" x="2803.605469"/>
     <use xlink:href="#DejaVuSans-6e" x="2831.388672"/>
     <use xlink:href="#DejaVuSans-74" x="2894.767578"/>
     <use xlink:href="#DejaVuSans-65" x="2933.976562"/>
     <use xlink:href="#DejaVuSans-67" x="2995.5"/>
     <use xlink:href="#DejaVuSans-72" x="3058.976562"/>
     <use xlink:href="#DejaVuSans-61" x="3100.089844"/>
     <use xlink:href="#DejaVuSans-74" x="3161.369141"/>
     <use xlink:href="#DejaVuSans-69" x="3200.578125"/>
     <use xlink:href="#DejaVuSans-6f" x="3228.361328"/>
     <use xlink:href="#DejaVuSans-6e" x="3289.542969"/>
    </g>
   </g>
   <g id="legend_1">
    <g id="patch_5">
     <path d="M 410.05625 66.39625 
L 558.2 66.39625 
Q 560.2 66.39625 560.2 64.39625 
L 560.2 36.04 
Q 560.2 34.04 558.2 34.04 
L 410.05625 34.04 
Q 408.05625 34.04 408.05625 36.04 
L 408.05625 64.39625 
Q 408.05625 66.39625 410.05625 66.39625 
z
" style="fill: #ffffff; opacity: 0.8; stroke: #cccccc; stroke-linejoin: miter"/>
    </g>
    <g id="line2d_33">
     <path d="M 412.05625 42.138437 
L 422.05625 42.138437 
L 432.05625 42.138437 
" style="fill: none; stroke: #ffaf00; stroke-linecap: square"/>
    </g>
    <g id="text_19">
     <!-- Micro (fast) variable x -->
     <g style="fill: #333333" transform="translate(440.05625 45.638437) scale(0.1 -0.1)">
      <defs>
       <path id="DejaVuSans-4d" d="M 628 4666 
L 1569 4666 
L 2759 1491 
L 3956 4666 
L 4897 4666 
L 4897 0 
L 4281 0 
L 4281 4097 
L 3078 897 
L 2444 897 
L 1241 4097 
L 1241 0 
L 628 0 
L 628 4666 
z
" transform="scale(0.015625)"/>
       <path id="DejaVuSans-78" d="M 3513 3500 
L 2247 1797 
L 3578 0 
L 2900 0 
L 1881 1375 
L 863 0 
L 184 0 
L 1544 1831 
L 300 3500 
L 978 3500 
L 1906 2253 
L 2834 3500 
L 3513 3500 
z
" transform="scale(0.015625)"/>
      </defs>
      <use xlink:href="#DejaVuSans-4d"/>
      <use xlink:href="#DejaVuSans-69" x="86.279297"/>
      <use xlink:href="#DejaVuSans-63" x="114.0625"/>
      <use xlink:href="#DejaVuSans-72" x="169.042969"/>
      <use xlink:href="#DejaVuSans-6f" x="207.90625"/>
      <use xlink:href="#DejaVuSans-20" x="269.087891"/>
      <use xlink:href="#DejaVuSans-28" x="300.875"/>
      <use xlink:href="#DejaVuSans-66" x="339.888672"/>
      <use xlink:href="#DejaVuSans-61" x="375.09375"/>
      <use xlink:href="#DejaVuSans-73" x="436.373047"/>
      <use xlink:href="#DejaVuSans-74" x="488.472656"/>
      <use xlink:href="#DejaVuSans-29" x="527.681641"/>
      <use xlink:href="#DejaVuSans-20" x="566.695312"/>
      <use xlink:href="#DejaVuSans-76" x="598.482422"/>
      <use xlink:href="#DejaVuSans-61" x="657.662109"/>
      <use xlink:href="#DejaVuSans-72" x="718.941406"/>
      <use xlink:href="#DejaVuSans-69" x="760.054688"/>
      <use xlink:href="#DejaVuSans-61" x="787.837891"/>
      <use xlink:href="#DejaVuSans-62" x="849.117188"/>
      <use xlink:href="#DejaVuSans-6c" x="912.59375"/>
      <use xlink:href="#DejaVuSans-65" x="940.376953"/>
      <use xlink:href="#DejaVuSans-20" x="1001.900391"/>
      <use xlink:href="#DejaVuSans-78" x="1033.6875"/>
     </g>
    </g>
    <g id="line2d_34">
     <path d="M 412.05625 56.816562 
L 422.05625 56.816562 
L 432.05625 56.816562 
" style="fill: none; stroke: #f46920; stroke-linecap: square"/>
    </g>
    <g id="text_20">
     <!-- Macro (slow) variable y -->
     <g style="fill: #333333" transform="translate(440.05625 60.316562) scale(0.1 -0.1)">
      <use xlink:href="#DejaVuSans-4d"/>
      <use xlink:href="#DejaVuSans-61" x="86.279297"/>
      <use xlink:href="#DejaVuSans-63" x="147.558594"/>
      <use xlink:href="#DejaVuSans-72" x="202.539062"/>
      <use xlink:href="#DejaVuSans-6f" x="241.402344"/>
      <use xlink:href="#DejaVuSans-20" x="302.583984"/>
      <use xlink:href="#DejaVuSans-28" x="334.371094"/>
      <use xlink:href="#DejaVuSans-73" x="373.384766"/>
      <use xlink:href="#DejaVuSans-6c" x="425.484375"/>
      <use xlink:href="#DejaVuSans-6f" x="453.267578"/>
      <use xlink:href="#DejaVuSans-77" x="514.449219"/>
      <use xlink:href="#DejaVuSans-29" x="596.236328"/>
      <use xlink:href="#DejaVuSans-20" x="635.25"/>
      <use xlink:href="#DejaVuSans-76" x="667.037109"/>
      <use xlink:href="#DejaVuSans-61" x="726.216797"/>
      <use xlink:href="#DejaVuSans-72" x="787.496094"/>
      <use xlink:href="#DejaVuSans-69" x="828.609375"/>
      <use xlink:href="#DejaVuSans-61" x="856.392578"/>
      <use xlink:href="#DejaVuSans-62" x="917.671875"/>
      <use xlink:href="#DejaVuSans-6c" x="981.148438"/>
      <use xlink:href="#DejaVuSans-65" x="1008.931641"/>
      <use xlink:href="#DejaVuSans-20" x="1070.455078"/>
      <use xlink:href="#DejaVuSans-79" x="1102.242188"/>
     </g>
    </g>
   </g>
  </g>
 </g>
 <defs>
  <clipPath id="p2be49c02ef">
   <rect x="55.56" y="29.04" width="509.64" height="180.9"/>
  </clipPath>
 </defs>
</svg>
