<svg width="600" height="400" xmlns="http://www.w3.org/2000/svg">
  <!-- Определение стилей -->
  <style>
    .axis {
      stroke: #000;
      stroke-width: 1;
    }
    .grid {
      stroke: #ccc;
      stroke-width: 0.5;
    }
    .theory-line {
      stroke: red;
      stroke-width: 2;
      fill: none;
    }
    .data-point {
      fill: black;
    }
    .error-bar {
      stroke: black;
      stroke-width: 1;
    }
    .label {
      font-size: 14px;
      text-anchor: middle;
    }
  </style>

  <!-- Фон -->
  <rect x="0" y="0" width="600" height="400" fill="white"/>

  <!-- Сетка по оси X -->
  <g>
    <!-- Линии сетки -->
    <g>
      <line x1="50" y1="350" x2="550" y2="350" class="grid"/>
      <line x1="50" y1="300" x2="550" y2="300" class="grid"/>
      <line x1="50" y1="250" x2="550" y2="250" class="grid"/>
      <line x1="50" y1="200" x2="550" y2="200" class="grid"/>
      <line x1="50" y1="150" x2="550" y2="150" class="grid"/>
      <line x1="50" y1="100" x2="550" y2="100" class="grid"/>
      <line x1="50" y1="50" x2="550" y2="50" class="grid"/>
    </g>
    <!-- Подписи по оси Y -->
    <g>
      <text x="30" y="355" class="label">0</text>
      <text x="30" y="305" class="label">0.5</text>
      <text x="30" y="255" class="label">1.0</text>
      <text x="30" y="205" class="label">1.5</text>
      <text x="30" y="155" class="label">2.0</text>
      <text x="30" y="105" class="label">2.5</text>
      <text x="30" y="55" class="label">3.0</text>
    </g>
  </g>

  <!-- Ось X -->
  <line x1="50" y1="350" x2="550" y2="350" class="axis" />
  <!-- Ось Y -->
  <line x1="50" y1="50" x2="50" y2="350" class="axis" />

  <!-- Подписи по оси X -->
  <g>
    <text x="100" y="370" class="label">0.01</text>
    <text x="200" y="370" class="label">0.1</text>
    <text x="300" y="370" class="label">1</text>
    <text x="400" y="370" class="label">10</text>
    <text x="500" y="370" class="label">100</text>
  </g>

  <!-- Названия осей -->
  <text x="300" y="395" class="label">Волновое число k [h Мпк⁻¹]</text>
  <text x="15" y="200" class="label" transform="rotate(-90 15,200)">P(k) [(Мпк/h)³]</text>

  <!-- Теоретическая кривая -->
  <path class="theory-line" d="
    M50,300
    C100,250 150,200 200,150
    C250,120 300,110 350,115
    C400,130 450,180 500,240
  "/>

  <!-- Данные SDSS -->
  <g>
    <!-- Точки с погрешностями -->
    <g class="data-point">
      <!-- Точка 1 -->
      <line x1="80" y1="310" x2="80" y2="290" class="error-bar"/>
      <circle cx="80" cy="300" r="3"/>
      <!-- Точка 2 -->
      <line x1="130" y1="260" x2="130" y2="240" class="error-bar"/>
      <circle cx="130" cy="250" r="3"/>
      <!-- Точка 3 -->
      <line x1="180" y1="220" x2="180" y2="200" class="error-bar"/>
      <circle cx="180" cy="210" r="3"/>
      <!-- Точка 4 -->
      <line x1="230" y1="180" x2="230" y2="160" class="error-bar"/>
      <circle cx="230" cy="170" r="3"/>
      <!-- Точка 5 -->
      <line x1="280" y1="140" x2="280" y2="120" class="error-bar"/>
      <circle cx="280" cy="130" r="3"/>
      <!-- Точка 6 -->
      <line x1="330" y1="130" x2="330" y2="110" class="error-bar"/>
      <circle cx="330" cy="120" r="3"/>
      <!-- Точка 7 -->
      <line x1="380" y1="140" x2="380" y2="120" class="error-bar"/>
      <circle cx="380" cy="130" r="3"/>
      <!-- Точка 8 -->
      <line x1="430" y1="190" x2="430" y2="170" class="error-bar"/>
      <circle cx="430" cy="180" r="3"/>
      <!-- Точка 9 -->
      <line x1="480" y1="250" x2="480" y2="230" class="error-bar"/>
      <circle cx="480" cy="240" r="3"/>
    </g>
  </g>
</svg>
