<?xml version="1.0" encoding="utf-8" standalone="no"?>
<!DOCTYPE svg PUBLIC "-//W3C//DTD SVG 1.1//EN"
  "http://www.w3.org/Graphics/SVG/1.1/DTD/svg11.dtd">
<svg xmlns:xlink="http://www.w3.org/1999/xlink" width="720pt" height="432pt" viewBox="0 0 720 432" xmlns="http://www.w3.org/2000/svg" version="1.1">
 <metadata>
  <rdf:RDF xmlns:dc="http://purl.org/dc/elements/1.1/" xmlns:cc="http://creativecommons.org/ns#" xmlns:rdf="http://www.w3.org/1999/02/22-rdf-syntax-ns#">
   <cc:Work>
    <dc:type rdf:resource="http://purl.org/dc/dcmitype/StillImage"/>
    <dc:date>2025-08-02T12:31:16.225063</dc:date>
    <dc:format>image/svg+xml</dc:format>
    <dc:creator>
     <cc:Agent>
      <dc:title>Matplotlib v3.6.3, https://matplotlib.org/</dc:title>
     </cc:Agent>
    </dc:creator>
   </cc:Work>
  </rdf:RDF>
 </metadata>
 <defs>
  <style type="text/css">*{stroke-linejoin: round; stroke-linecap: butt}</style>
 </defs>
 <g id="figure_1">
  <g id="patch_1">
   <path d="M 0 432 
L 720 432 
L 720 0 
L 0 0 
z
" style="fill: #ffffff"/>
  </g>
  <g id="axes_1">
   <g id="patch_2">
    <path d="M 90 384.48 
L 648 384.48 
L 648 51.84 
L 90 51.84 
z
" style="fill: #ffffff"/>
   </g>
   <g id="matplotlib.axis_1">
    <g id="xtick_1">
     <g id="line2d_1">
      <path d="M 130.338455 384.48 
L 130.338455 51.84 
" clip-path="url(#pd69d85cfde)" style="fill: none; stroke-dasharray: 2.22,0.96; stroke-dashoffset: 0; stroke: #b0b0b0; stroke-opacity: 0.7; stroke-width: 0.6"/>
     </g>
     <g id="line2d_2">
      <defs>
       <path id="md14489587d" d="M 0 0 
L 0 -3.5 
" style="stroke: #1a1a1a; stroke-width: 0.8"/>
      </defs>
      <g>
       <use xlink:href="#md14489587d" x="130.338455" y="384.48" style="fill: #1a1a1a; stroke: #1a1a1a; stroke-width: 0.8"/>
      </g>
     </g>
     <g id="text_1">
      <!-- 0.4 -->
      <g style="fill: #1a1a1a" transform="translate(120.79658 397.098125) scale(0.12 -0.12)">
       <defs>
        <path id="DejaVuSans-30" d="M 2034 4250 
Q 1547 4250 1301 3770 
Q 1056 3291 1056 2328 
Q 1056 1369 1301 889 
Q 1547 409 2034 409 
Q 2525 409 2770 889 
Q 3016 1369 3016 2328 
Q 3016 3291 2770 3770 
Q 2525 4250 2034 4250 
z
M 2034 4750 
Q 2819 4750 3233 4129 
Q 3647 3509 3647 2328 
Q 3647 1150 3233 529 
Q 2819 -91 2034 -91 
Q 1250 -91 836 529 
Q 422 1150 422 2328 
Q 422 3509 836 4129 
Q 1250 4750 2034 4750 
z
" transform="scale(0.015625)"/>
        <path id="DejaVuSans-2e" d="M 684 794 
L 1344 794 
L 1344 0 
L 684 0 
L 684 794 
z
" transform="scale(0.015625)"/>
        <path id="DejaVuSans-34" d="M 2419 4116 
L 825 1625 
L 2419 1625 
L 2419 4116 
z
M 2253 4666 
L 3047 4666 
L 3047 1625 
L 3713 1625 
L 3713 1100 
L 3047 1100 
L 3047 0 
L 2419 0 
L 2419 1100 
L 313 1100 
L 313 1709 
L 2253 4666 
z
" transform="scale(0.015625)"/>
       </defs>
       <use xlink:href="#DejaVuSans-30"/>
       <use xlink:href="#DejaVuSans-2e" x="63.623047"/>
       <use xlink:href="#DejaVuSans-34" x="95.410156"/>
      </g>
     </g>
    </g>
    <g id="xtick_2">
     <g id="line2d_3">
      <path d="M 234.732769 384.48 
L 234.732769 51.84 
" clip-path="url(#pd69d85cfde)" style="fill: none; stroke-dasharray: 2.22,0.96; stroke-dashoffset: 0; stroke: #b0b0b0; stroke-opacity: 0.7; stroke-width: 0.6"/>
     </g>
     <g id="line2d_4">
      <g>
       <use xlink:href="#md14489587d" x="234.732769" y="384.48" style="fill: #1a1a1a; stroke: #1a1a1a; stroke-width: 0.8"/>
      </g>
     </g>
     <g id="text_2">
      <!-- 0.6 -->
      <g style="fill: #1a1a1a" transform="translate(225.190894 397.098125) scale(0.12 -0.12)">
       <defs>
        <path id="DejaVuSans-36" d="M 2113 2584 
Q 1688 2584 1439 2293 
Q 1191 2003 1191 1497 
Q 1191 994 1439 701 
Q 1688 409 2113 409 
Q 2538 409 2786 701 
Q 3034 994 3034 1497 
Q 3034 2003 2786 2293 
Q 2538 2584 2113 2584 
z
M 3366 4563 
L 3366 3988 
Q 3128 4100 2886 4159 
Q 2644 4219 2406 4219 
Q 1781 4219 1451 3797 
Q 1122 3375 1075 2522 
Q 1259 2794 1537 2939 
Q 1816 3084 2150 3084 
Q 2853 3084 3261 2657 
Q 3669 2231 3669 1497 
Q 3669 778 3244 343 
Q 2819 -91 2113 -91 
Q 1303 -91 875 529 
Q 447 1150 447 2328 
Q 447 3434 972 4092 
Q 1497 4750 2381 4750 
Q 2619 4750 2861 4703 
Q 3103 4656 3366 4563 
z
" transform="scale(0.015625)"/>
       </defs>
       <use xlink:href="#DejaVuSans-30"/>
       <use xlink:href="#DejaVuSans-2e" x="63.623047"/>
       <use xlink:href="#DejaVuSans-36" x="95.410156"/>
      </g>
     </g>
    </g>
    <g id="xtick_3">
     <g id="line2d_5">
      <path d="M 339.127084 384.48 
L 339.127084 51.84 
" clip-path="url(#pd69d85cfde)" style="fill: none; stroke-dasharray: 2.22,0.96; stroke-dashoffset: 0; stroke: #b0b0b0; stroke-opacity: 0.7; stroke-width: 0.6"/>
     </g>
     <g id="line2d_6">
      <g>
       <use xlink:href="#md14489587d" x="339.127084" y="384.48" style="fill: #1a1a1a; stroke: #1a1a1a; stroke-width: 0.8"/>
      </g>
     </g>
     <g id="text_3">
      <!-- 0.8 -->
      <g style="fill: #1a1a1a" transform="translate(329.585209 397.098125) scale(0.12 -0.12)">
       <defs>
        <path id="DejaVuSans-38" d="M 2034 2216 
Q 1584 2216 1326 1975 
Q 1069 1734 1069 1313 
Q 1069 891 1326 650 
Q 1584 409 2034 409 
Q 2484 409 2743 651 
Q 3003 894 3003 1313 
Q 3003 1734 2745 1975 
Q 2488 2216 2034 2216 
z
M 1403 2484 
Q 997 2584 770 2862 
Q 544 3141 544 3541 
Q 544 4100 942 4425 
Q 1341 4750 2034 4750 
Q 2731 4750 3128 4425 
Q 3525 4100 3525 3541 
Q 3525 3141 3298 2862 
Q 3072 2584 2669 2484 
Q 3125 2378 3379 2068 
Q 3634 1759 3634 1313 
Q 3634 634 3220 271 
Q 2806 -91 2034 -91 
Q 1263 -91 848 271 
Q 434 634 434 1313 
Q 434 1759 690 2068 
Q 947 2378 1403 2484 
z
M 1172 3481 
Q 1172 3119 1398 2916 
Q 1625 2713 2034 2713 
Q 2441 2713 2670 2916 
Q 2900 3119 2900 3481 
Q 2900 3844 2670 4047 
Q 2441 4250 2034 4250 
Q 1625 4250 1398 4047 
Q 1172 3844 1172 3481 
z
" transform="scale(0.015625)"/>
       </defs>
       <use xlink:href="#DejaVuSans-30"/>
       <use xlink:href="#DejaVuSans-2e" x="63.623047"/>
       <use xlink:href="#DejaVuSans-38" x="95.410156"/>
      </g>
     </g>
    </g>
    <g id="xtick_4">
     <g id="line2d_7">
      <path d="M 443.521398 384.48 
L 443.521398 51.84 
" clip-path="url(#pd69d85cfde)" style="fill: none; stroke-dasharray: 2.22,0.96; stroke-dashoffset: 0; stroke: #b0b0b0; stroke-opacity: 0.7; stroke-width: 0.6"/>
     </g>
     <g id="line2d_8">
      <g>
       <use xlink:href="#md14489587d" x="443.521398" y="384.48" style="fill: #1a1a1a; stroke: #1a1a1a; stroke-width: 0.8"/>
      </g>
     </g>
     <g id="text_4">
      <!-- 1.0 -->
      <g style="fill: #1a1a1a" transform="translate(433.979523 397.098125) scale(0.12 -0.12)">
       <defs>
        <path id="DejaVuSans-31" d="M 794 531 
L 1825 531 
L 1825 4091 
L 703 3866 
L 703 4441 
L 1819 4666 
L 2450 4666 
L 2450 531 
L 3481 531 
L 3481 0 
L 794 0 
L 794 531 
z
" transform="scale(0.015625)"/>
       </defs>
       <use xlink:href="#DejaVuSans-31"/>
       <use xlink:href="#DejaVuSans-2e" x="63.623047"/>
       <use xlink:href="#DejaVuSans-30" x="95.410156"/>
      </g>
     </g>
    </g>
    <g id="xtick_5">
     <g id="line2d_9">
      <path d="M 547.915713 384.48 
L 547.915713 51.84 
" clip-path="url(#pd69d85cfde)" style="fill: none; stroke-dasharray: 2.22,0.96; stroke-dashoffset: 0; stroke: #b0b0b0; stroke-opacity: 0.7; stroke-width: 0.6"/>
     </g>
     <g id="line2d_10">
      <g>
       <use xlink:href="#md14489587d" x="547.915713" y="384.48" style="fill: #1a1a1a; stroke: #1a1a1a; stroke-width: 0.8"/>
      </g>
     </g>
     <g id="text_5">
      <!-- 1.2 -->
      <g style="fill: #1a1a1a" transform="translate(538.373838 397.098125) scale(0.12 -0.12)">
       <defs>
        <path id="DejaVuSans-32" d="M 1228 531 
L 3431 531 
L 3431 0 
L 469 0 
L 469 531 
Q 828 903 1448 1529 
Q 2069 2156 2228 2338 
Q 2531 2678 2651 2914 
Q 2772 3150 2772 3378 
Q 2772 3750 2511 3984 
Q 2250 4219 1831 4219 
Q 1534 4219 1204 4116 
Q 875 4013 500 3803 
L 500 4441 
Q 881 4594 1212 4672 
Q 1544 4750 1819 4750 
Q 2544 4750 2975 4387 
Q 3406 4025 3406 3419 
Q 3406 3131 3298 2873 
Q 3191 2616 2906 2266 
Q 2828 2175 2409 1742 
Q 1991 1309 1228 531 
z
" transform="scale(0.015625)"/>
       </defs>
       <use xlink:href="#DejaVuSans-31"/>
       <use xlink:href="#DejaVuSans-2e" x="63.623047"/>
       <use xlink:href="#DejaVuSans-32" x="95.410156"/>
      </g>
     </g>
    </g>
    <g id="text_6">
     <!-- x(t) -->
     <g style="fill: #1a1a1a" transform="translate(358.414688 412.711875) scale(0.12 -0.12)">
      <defs>
       <path id="DejaVuSans-78" d="M 3513 3500 
L 2247 1797 
L 3578 0 
L 2900 0 
L 1881 1375 
L 863 0 
L 184 0 
L 1544 1831 
L 300 3500 
L 978 3500 
L 1906 2253 
L 2834 3500 
L 3513 3500 
z
" transform="scale(0.015625)"/>
       <path id="DejaVuSans-28" d="M 1984 4856 
Q 1566 4138 1362 3434 
Q 1159 2731 1159 2009 
Q 1159 1288 1364 580 
Q 1569 -128 1984 -844 
L 1484 -844 
Q 1016 -109 783 600 
Q 550 1309 550 2009 
Q 550 2706 781 3412 
Q 1013 4119 1484 4856 
L 1984 4856 
z
" transform="scale(0.015625)"/>
       <path id="DejaVuSans-74" d="M 1172 4494 
L 1172 3500 
L 2356 3500 
L 2356 3053 
L 1172 3053 
L 1172 1153 
Q 1172 725 1289 603 
Q 1406 481 1766 481 
L 2356 481 
L 2356 0 
L 1766 0 
Q 1100 0 847 248 
Q 594 497 594 1153 
L 594 3053 
L 172 3053 
L 172 3500 
L 594 3500 
L 594 4494 
L 1172 4494 
z
" transform="scale(0.015625)"/>
       <path id="DejaVuSans-29" d="M 513 4856 
L 1013 4856 
Q 1481 4119 1714 3412 
Q 1947 2706 1947 2009 
Q 1947 1309 1714 600 
Q 1481 -109 1013 -844 
L 513 -844 
Q 928 -128 1133 580 
Q 1338 1288 1338 2009 
Q 1338 2731 1133 3434 
Q 928 4138 513 4856 
z
" transform="scale(0.015625)"/>
      </defs>
      <use xlink:href="#DejaVuSans-78"/>
      <use xlink:href="#DejaVuSans-28" x="59.179688"/>
      <use xlink:href="#DejaVuSans-74" x="98.193359"/>
      <use xlink:href="#DejaVuSans-29" x="137.402344"/>
     </g>
    </g>
   </g>
   <g id="matplotlib.axis_2">
    <g id="ytick_1">
     <g id="line2d_11">
      <path d="M 90 360.433076 
L 648 360.433076 
" clip-path="url(#pd69d85cfde)" style="fill: none; stroke-dasharray: 2.22,0.96; stroke-dashoffset: 0; stroke: #b0b0b0; stroke-opacity: 0.7; stroke-width: 0.6"/>
     </g>
     <g id="line2d_12">
      <defs>
       <path id="m5025711d88" d="M 0 0 
L 3.5 0 
" style="stroke: #1a1a1a; stroke-width: 0.8"/>
      </defs>
      <g>
       <use xlink:href="#m5025711d88" x="90" y="360.433076" style="fill: #1a1a1a; stroke: #1a1a1a; stroke-width: 0.8"/>
      </g>
     </g>
     <g id="text_7">
      <!-- 0.4 -->
      <g style="fill: #1a1a1a" transform="translate(67.41625 364.992139) scale(0.12 -0.12)">
       <use xlink:href="#DejaVuSans-30"/>
       <use xlink:href="#DejaVuSans-2e" x="63.623047"/>
       <use xlink:href="#DejaVuSans-34" x="95.410156"/>
      </g>
     </g>
    </g>
    <g id="ytick_2">
     <g id="line2d_13">
      <path d="M 90 298.200594 
L 648 298.200594 
" clip-path="url(#pd69d85cfde)" style="fill: none; stroke-dasharray: 2.22,0.96; stroke-dashoffset: 0; stroke: #b0b0b0; stroke-opacity: 0.7; stroke-width: 0.6"/>
     </g>
     <g id="line2d_14">
      <g>
       <use xlink:href="#m5025711d88" x="90" y="298.200594" style="fill: #1a1a1a; stroke: #1a1a1a; stroke-width: 0.8"/>
      </g>
     </g>
     <g id="text_8">
      <!-- 0.6 -->
      <g style="fill: #1a1a1a" transform="translate(67.41625 302.759657) scale(0.12 -0.12)">
       <use xlink:href="#DejaVuSans-30"/>
       <use xlink:href="#DejaVuSans-2e" x="63.623047"/>
       <use xlink:href="#DejaVuSans-36" x="95.410156"/>
      </g>
     </g>
    </g>
    <g id="ytick_3">
     <g id="line2d_15">
      <path d="M 90 235.968113 
L 648 235.968113 
" clip-path="url(#pd69d85cfde)" style="fill: none; stroke-dasharray: 2.22,0.96; stroke-dashoffset: 0; stroke: #b0b0b0; stroke-opacity: 0.7; stroke-width: 0.6"/>
     </g>
     <g id="line2d_16">
      <g>
       <use xlink:href="#m5025711d88" x="90" y="235.968113" style="fill: #1a1a1a; stroke: #1a1a1a; stroke-width: 0.8"/>
      </g>
     </g>
     <g id="text_9">
      <!-- 0.8 -->
      <g style="fill: #1a1a1a" transform="translate(67.41625 240.527175) scale(0.12 -0.12)">
       <use xlink:href="#DejaVuSans-30"/>
       <use xlink:href="#DejaVuSans-2e" x="63.623047"/>
       <use xlink:href="#DejaVuSans-38" x="95.410156"/>
      </g>
     </g>
    </g>
    <g id="ytick_4">
     <g id="line2d_17">
      <path d="M 90 173.735631 
L 648 173.735631 
" clip-path="url(#pd69d85cfde)" style="fill: none; stroke-dasharray: 2.22,0.96; stroke-dashoffset: 0; stroke: #b0b0b0; stroke-opacity: 0.7; stroke-width: 0.6"/>
     </g>
     <g id="line2d_18">
      <g>
       <use xlink:href="#m5025711d88" x="90" y="173.735631" style="fill: #1a1a1a; stroke: #1a1a1a; stroke-width: 0.8"/>
      </g>
     </g>
     <g id="text_10">
      <!-- 1.0 -->
      <g style="fill: #1a1a1a" transform="translate(67.41625 178.294693) scale(0.12 -0.12)">
       <use xlink:href="#DejaVuSans-31"/>
       <use xlink:href="#DejaVuSans-2e" x="63.623047"/>
       <use xlink:href="#DejaVuSans-30" x="95.410156"/>
      </g>
     </g>
    </g>
    <g id="ytick_5">
     <g id="line2d_19">
      <path d="M 90 111.503149 
L 648 111.503149 
" clip-path="url(#pd69d85cfde)" style="fill: none; stroke-dasharray: 2.22,0.96; stroke-dashoffset: 0; stroke: #b0b0b0; stroke-opacity: 0.7; stroke-width: 0.6"/>
     </g>
     <g id="line2d_20">
      <g>
       <use xlink:href="#m5025711d88" x="90" y="111.503149" style="fill: #1a1a1a; stroke: #1a1a1a; stroke-width: 0.8"/>
      </g>
     </g>
     <g id="text_11">
      <!-- 1.2 -->
      <g style="fill: #1a1a1a" transform="translate(67.41625 116.062212) scale(0.12 -0.12)">
       <use xlink:href="#DejaVuSans-31"/>
       <use xlink:href="#DejaVuSans-2e" x="63.623047"/>
       <use xlink:href="#DejaVuSans-32" x="95.410156"/>
      </g>
     </g>
    </g>
    <g id="text_12">
     <!-- x(t + 17) -->
     <g style="fill: #1a1a1a" transform="translate(60.920625 245.221875) rotate(-90) scale(0.12 -0.12)">
      <defs>
       <path id="DejaVuSans-20" transform="scale(0.015625)"/>
       <path id="DejaVuSans-2b" d="M 2944 4013 
L 2944 2272 
L 4684 2272 
L 4684 1741 
L 2944 1741 
L 2944 0 
L 2419 0 
L 2419 1741 
L 678 1741 
L 678 2272 
L 2419 2272 
L 2419 4013 
L 2944 4013 
z
" transform="scale(0.015625)"/>
       <path id="DejaVuSans-37" d="M 525 4666 
L 3525 4666 
L 3525 4397 
L 1831 0 
L 1172 0 
L 2766 4134 
L 525 4134 
L 525 4666 
z
" transform="scale(0.015625)"/>
      </defs>
      <use xlink:href="#DejaVuSans-78"/>
      <use xlink:href="#DejaVuSans-28" x="59.179688"/>
      <use xlink:href="#DejaVuSans-74" x="98.193359"/>
      <use xlink:href="#DejaVuSans-20" x="137.402344"/>
      <use xlink:href="#DejaVuSans-2b" x="169.189453"/>
      <use xlink:href="#DejaVuSans-20" x="252.978516"/>
      <use xlink:href="#DejaVuSans-31" x="284.765625"/>
      <use xlink:href="#DejaVuSans-37" x="348.388672"/>
      <use xlink:href="#DejaVuSans-29" x="412.011719"/>
     </g>
    </g>
   </g>
   <g id="line2d_21">
    <path d="M 502.698169 340.599312 
L 462.002379 337.38457 
L 425.376168 325.467015 
L 392.412579 306.116976 
L 362.745348 282.62031 
L 336.04484 258.501008 
L 312.014383 236.20282 
L 290.386972 216.940476 
L 270.922302 201.085085 
L 253.404099 188.550595 
L 237.637716 179.042086 
L 223.447972 172.190114 
L 210.677202 167.617016 
L 199.183509 164.96715 
L 188.839185 163.919023 
L 179.529294 164.188596 
L 171.150392 165.528458 
L 163.60938 167.725179 
L 169.002074 170.595989 
L 188.993644 172.540407 
L 221.453125 171.929677 
L 260.868528 167.609936 
L 301.328396 159.42119 
L 338.733365 148.496834 
L 371.045738 137.179824 
L 397.642985 128.177714 
L 418.669456 123.262153 
L 434.619877 122.702737 
L 446.113986 125.712664 
L 453.785309 131.134925 
L 458.23043 137.8626 
L 459.988652 144.990106 
L 459.536446 151.82823 
L 457.288843 157.873729 
L 453.603866 162.773114 
L 448.788113 166.293165 
L 445.526374 168.299838 
L 446.550867 169.32258 
L 453.797185 170.488629 
L 467.533719 173.283801 
L 485.859207 179.095981 
L 504.843369 188.52715 
L 519.94431 200.936432 
L 528.190111 214.834991 
L 529.128526 228.681767 
L 524.079406 241.289347 
L 514.983622 251.837088 
L 503.698019 259.788541 
L 491.741705 264.850022 
L 480.270827 266.974783 
L 470.129568 266.372929 
L 461.910902 263.48932 
L 456.006054 258.939344 
L 452.639883 253.422678 
L 450.924244 247.645062 
L 448.968209 242.031247 
L 444.279338 236.507464 
L 434.529469 230.411173 
L 418.708786 222.629363 
L 397.892349 212.141374 
L 374.577666 198.868851 
L 351.349849 184.002198 
L 330.200771 169.270651 
L 312.50705 155.990889 
L 299.168573 144.723203 
L 290.677994 135.420013 
L 287.11373 127.693187 
L 288.123333 121.032228 
L 292.960557 114.953099 
L 300.593092 109.09174 
L 309.847239 103.251231 
L 338.222328 86.169591 
L 348.448791 81.087725 
L 361.502692 76.581776 
L 379.09618 72.997383 
L 401.360694 71.160611 
L 426.299344 72.551436 
L 451.011354 78.695682 
L 473.288011 89.997815 
L 492.189432 105.490991 
L 507.795432 123.646361 
L 520.757099 143.105693 
L 531.930786 162.924012 
L 561.758217 220.073374 
L 571.56512 237.786898 
L 598.937258 286.079909 
L 606.495938 300.410631 
L 612.508719 313.799359 
L 615.589885 326.207609 
L 613.256791 337.54834 
L 602.949883 347.624396 
L 583.990678 356.067205 
L 558.001043 362.279301 
L 527.545607 365.359137 
L 494.902787 364.052782 
L 461.657772 356.919975 
L 428.762866 342.966193 
L 396.725627 322.61621 
L 365.790335 298.113291 
L 336.076091 272.632038 
L 307.663569 248.920432 
L 280.633252 228.63611 
L 255.065088 212.44309 
L 231.025457 200.370899 
L 208.56601 192.123132 
L 187.751304 187.26714 
L 168.727351 185.329875 
L 151.824877 185.833453 
L 137.662156 188.292848 
L 127.241433 192.191014 
L 122.07504 196.940183 
L 124.266437 201.829862 
L 136.231643 205.969515 
L 159.638962 208.270299 
L 193.775839 207.557767 
L 234.879219 202.883676 
L 277.623746 193.953734 
L 317.399708 181.501673 
L 351.426439 167.439837 
L 378.590055 154.366557 
L 398.841025 144.34029 
L 412.676564 137.999311 
L 424.072179 133.501963 
L 423.227432 133.064377 
L 419.101824 132.488021 
L 412.562694 131.095758 
L 404.596014 128.525557 
L 396.39363 124.735423 
L 389.449407 119.969211 
L 385.589866 114.675369 
L 386.785132 109.412098 
L 394.625868 104.825027 
L 409.605749 101.781416 
L 430.493947 101.577109 
L 454.082524 105.755691 
L 476.012811 115.093047 
L 492.831765 128.707682 
L 503.468688 144.676772 
L 508.901047 161.204805 
L 511.01294 177.115269 
L 511.746987 191.824704 
L 512.713817 205.19711 
L 515.049324 217.407356 
L 519.360809 228.81339 
L 525.718717 239.825478 
L 533.713985 250.783451 
L 542.594348 261.872021 
L 551.423429 273.099018 
L 559.118191 284.32878 
L 564.223815 295.328404 
L 564.566538 305.77774 
L 557.557012 315.217864 
L 541.893699 322.953813 
L 519.055295 327.978503 
L 492.26732 329.022146 
L 464.541723 324.840848 
L 437.852093 314.785424 
L 413.177174 299.339468 
L 390.745107 280.064865 
L 370.262552 258.93852 
L 351.129054 237.697981 
L 332.656394 217.591087 
L 314.274514 199.430501 
L 295.673558 183.7267 
L 276.840392 170.779623 
L 258.002587 160.717078 
L 239.550837 153.511917 
L 222.022189 149.001798 
L 206.186483 146.90993 
L 193.209513 146.851427 
L 184.78065 148.3144 
L 183.029949 150.62221 
L 190.044032 152.90561 
L 206.911897 154.134874 
L 232.822321 153.269619 
L 265.155259 149.530634 
L 300.594475 142.717301 
L 336.225248 133.51414 
L 369.954345 123.712849 
L 400.418531 115.970747 
L 426.761487 112.723857 
L 448.480069 114.952839 
L 465.359879 122.019414 
L 477.446459 132.441296 
L 485.012135 144.650314 
L 488.521222 157.339683 
L 488.61936 169.526318 
L 486.165238 180.515493 
L 482.293911 189.871823 
L 478.463533 197.435196 
L 476.401456 203.377136 
L 477.852912 208.252804 
L 484.125018 212.973635 
L 510.992514 226.178422 
L 527.434074 235.977804 
L 540.421365 247.592086 
L 545.867989 259.95279 
L 542.128895 271.802008 
L 530.274792 281.973556 
L 512.792198 289.427793 
L 492.311704 293.2291 
L 471.025423 292.636475 
L 450.582475 287.336993 
L 432.148254 277.671572 
L 416.45311 264.616729 
L 403.765635 249.467557 
L 393.798094 233.438098 
L 377.700071 201.877303 
L 368.203925 187.009336 
L 355.549183 172.805763 
L 339.110827 159.327825 
L 319.627993 146.926306 
L 298.893047 136.224175 
L 279.016113 127.790598 
L 261.953451 121.827812 
L 249.449049 118.106914 
L 243.072398 116.06258 
L 244.06652 114.911445 
L 269.169982 111.784207 
L 291.069339 108.349601 
L 316.481913 103.298372 
L 370.257357 90.927687 
L 396.314047 86.487823 
L 421.254902 85.534102 
L 445.081241 89.289309 
L 467.690338 98.106548 
L 488.49375 111.473573 
L 506.44646 128.240881 
L 520.593695 146.985642 
L 530.596203 166.388571 
L 536.837969 185.450244 
L 540.267316 203.524467 
L 542.198334 220.270804 
L 544.117869 235.60481 
L 547.444241 249.660721 
L 553.205757 262.74082 
L 561.679137 275.220312 
L 582.430828 299.434647 
L 589.878652 311.180648 
L 591.478509 322.347698 
L 585.179189 332.518939 
L 570.388367 341.182755 
L 547.965327 347.667354 
L 519.838349 351.012681 
L 488.394215 349.885719 
L 455.846011 342.790291 
L 423.870262 328.849904 
L 393.550949 308.833787 
L 365.459149 285.230301 
L 339.736521 261.015694 
L 316.157882 238.443764 
L 294.216158 218.74581 
L 273.281944 202.407775 
L 252.832811 189.515457 
L 232.662658 179.970721 
L 212.958869 173.579487 
L 194.226265 170.06976 
L 177.164117 169.091652 
L 162.63066 170.220625 
L 151.752816 172.958001 
L 146.141065 176.713506 
L 148.031532 180.76071 
L 159.934035 184.178364 
L 183.318884 185.839997 
L 216.895704 184.567548 
L 256.490295 179.505801 
L 297.110037 170.578605 
L 334.974205 158.839254 
L 395.424187 136.351216 
L 417.050911 130.275146 
L 433.062103 128.68171 
L 443.783329 130.735006 
L 449.670857 135.097545 
L 451.311622 140.436352 
L 449.417782 145.636845 
L 444.825864 149.860759 
L 438.526045 152.559764 
L 431.736904 153.494489 
L 426.003826 152.763536 
L 423.216456 150.821534 
L 425.350975 148.467099 
L 433.842 146.811538 
L 448.817276 147.231113 
L 468.50991 151.15101 
L 489.176469 159.407575 
L 506.233351 171.528752 
L 516.425891 185.904164 
L 519.098863 200.702126 
L 515.654482 214.480823 
L 508.336369 226.286096 
L 499.380578 235.58296 
L 490.656808 242.211508 
L 483.571237 246.369506 
L 479.043686 248.56795 
L 477.475695 249.528655 
L 478.70186 250.035629 
L 481.959548 250.771811 
L 485.909087 252.170313 
L 488.686273 254.304995 
L 487.982441 256.830751 
L 481.406856 258.951651 
L 467.556557 259.408131 
L 447.223414 256.613291 
L 423.108816 249.21172 
L 398.285394 236.995096 
L 375.17178 221.299648 
L 355.368561 204.244702 
L 339.773173 187.616148 
L 328.653856 172.384105 
L 321.678858 158.829981 
L 317.990994 146.854931 
L 316.37942 136.230999 
L 315.528977 126.743774 
L 314.29404 118.246189 
L 311.948069 110.659828 
L 308.367162 103.955384 
L 300.572447 93.142775 
L 299.806707 88.898601 
L 304.49502 85.132568 
L 316.911076 81.425568 
L 337.40433 77.3939 
L 363.733274 73.194691 
L 392.342761 70.075858 
L 420.236982 70.173311 
L 445.788568 75.249801 
L 468.525465 85.640354 
L 488.613482 100.451662 
L 506.435012 118.347033 
L 522.349729 138.079002 
L 536.604336 158.664773 
L 549.330375 179.384229 
L 560.577008 199.728661 
L 570.356845 219.348743 
L 578.715042 238.013684 
L 585.834598 255.583429 
L 592.152078 271.993619 
L 598.370531 287.25045 
L 605.13361 301.425373 
L 612.177736 314.627553 
L 617.409546 326.93396 
L 617.246069 338.301257 
L 608.730312 348.523005 
L 591.300272 357.236883 
L 566.454462 363.905857 
L 536.435172 367.727354 
L 503.335008 367.516379 
L 468.802599 361.734402 
L 434.045936 349.001797 
L 399.918372 329.249334 
L 367.005896 304.592345 
L 335.695659 278.545346 
L 306.222604 254.246391 
L 278.694686 233.518085 
L 253.101518 217.011748 
L 229.323238 204.689023 
L 207.176724 196.200849 
L 186.532859 191.098251 
L 167.464342 188.92129 
L 150.317469 189.215395 
L 135.700033 191.515783 
L 124.512902 195.325227 
L 118.102382 200.085984 
L 118.456291 205.134395 
L 128.155495 209.635798 
L 149.514301 212.53162 
L 182.648845 212.595873 
L 224.010677 208.726851 
L 267.704235 200.436085 
L 308.46547 188.279753 
L 343.236978 174.011426 
L 370.926181 160.147505 
L 405.836239 140.954285 
L 414.395792 136.141237 
L 418.04762 133.426789 
L 417.554262 131.722475 
L 413.695385 130.087228 
L 407.305084 127.839659 
L 399.318967 124.603464 
L 390.850311 120.313375 
L 383.299257 115.176765 
L 378.441547 109.587764 
L 378.333762 104.024092 
L 384.824005 99.005734 
L 398.731675 95.21558 
L 419.123791 93.769494 
L 443.058755 96.253652 
L 466.315332 103.891594 
L 485.285291 116.353714 
L 498.511751 131.932937 
L 506.585587 148.75136 
L 511.139044 165.471516 
L 516.741122 196.191771 
L 520.511394 210.015876 
L 525.940077 223.101968 
L 533.136655 235.767593 
L 541.753262 248.27252 
L 560.461751 273.175624 
L 568.879991 285.438433 
L 575.237934 297.349803 
L 577.663728 308.674581 
L 573.49658 319.085491 
L 560.684015 328.075732 
L 539.778943 334.872768 
L 513.644965 338.417061 
L 485.432243 337.47253 
L 457.384361 330.972217 
L 430.717523 318.584789 
L 405.851467 301.113219 
L 382.66168 280.287002 
L 360.709902 258.112997 
L 339.463453 236.333749 
L 318.486574 216.230614 
L 297.561799 198.647125 
L 276.711887 184.067723 
L 256.141157 172.688239 
L 236.159962 164.479153 
L 217.16277 159.247259 
L 199.698581 156.686876 
L 184.617549 156.406598 
L 173.215594 157.924408 
L 167.270082 160.637072 
L 168.854522 163.782623 
L 179.758727 166.425859 
L 200.538503 167.514903 
L 229.846873 166.053739 
L 264.782627 161.370146 
L 301.979281 153.410072 
L 338.513732 143.042324 
L 372.236525 132.271733 
L 401.732637 123.858973 
L 426.189426 120.042461 
L 445.278386 121.413399 
L 459.049039 127.065409 
L 467.825485 135.469846 
L 472.1205 145.13256 
L 472.590664 154.83992 
L 470.044554 163.686354 
L 465.494089 171.051397 
L 460.217461 176.602061 
L 455.783462 180.334024 
L 453.956603 182.624167 
L 456.407689 184.244273 
L 464.264366 186.294036 
L 477.617303 190.027055 
L 495.009088 196.516593 
L 513.076638 206.159447 
L 527.188952 218.338779 
L 533.591109 231.678445 
L 531.291377 244.659419 
L 521.81019 255.999301 
L 507.711838 264.703792 
L 491.502741 270.041655 
L 475.218749 271.596593 
L 460.378952 269.377689 
L 448.024172 263.870923 
L 438.712993 255.936032 
L 432.452666 246.577059 
L 428.610976 236.701228 
L 425.893265 226.943747 
L 422.45481 217.559426 
L 416.19271 208.367676 
L 405.306582 198.790675 
L 389.130798 188.099585 
L 368.7001 175.949902 
L 305.524983 138.956107 
L 290.923292 129.800741 
L 281.969086 122.616116 
L 279.360693 116.906313 
L 283.08288 112.000744 
L 292.320422 107.254553 
L 305.631116 102.213339 
L 337.897291 90.97442 
L 354.265359 85.413914 
L 370.007457 80.62927 
L 385.426517 77.199665 
L 401.491833 75.663804 
L 419.426021 76.626305 
L 439.806983 80.887734 
L 461.716942 89.291233 
L 483.056022 102.114526 
L 501.863674 118.623804 
L 517.221701 137.442576 
L 529.273832 157.224998 
L 538.851963 177.000658 
L 555.042686 214.583253 
L 563.49927 232.094435 
L 572.705014 248.791168 
L 591.680122 279.94578 
L 599.706311 294.372279 
L 605.459436 307.925899 
L 608.035826 320.498507 
L 606.421241 331.972857 
L 599.27274 342.200736 
L 585.175962 350.94218 
L 563.665027 357.76341 
L 535.970892 361.91069 
L 504.402605 362.214813 
L 471.217806 357.170266 
L 438.04435 345.462527 
L 405.83162 326.993925 
L 374.999955 303.576087 
L 345.625136 278.277546 
L 317.616548 254.008832 
L 290.868366 232.686396 
L 265.355022 215.217617 
L 241.154728 201.815669 
L 218.418676 192.298938 
L 197.328262 186.289325 
L 178.080165 183.325922 
L 160.923008 182.92322 
L 146.25933 184.592978 
L 134.81679 187.838169 
L 127.859773 192.120527 
L 127.34961 196.803097 
L 135.811784 201.078173 
L 155.451389 203.918074 
L 186.432268 204.13807 
L 225.715438 200.668971 
L 268.153468 192.990476 
L 308.863972 181.534599 
L 344.632127 167.917234 
L 373.935815 154.673809 
L 396.417439 144.168635 
L 412.381651 137.462777 
L 422.462713 134.220685 
L 427.433788 133.364501 
L 428.109316 133.678343 
L 425.308315 134.111106 
L 419.864543 133.881811 
L 412.680935 132.509335 
L 404.825974 129.820797 
L 397.65458 125.941635 
L 392.890677 121.25151 
L 392.521636 116.310187 
L 398.341012 111.809836 
L 411.221605 108.641785 
L 430.438714 108.058043 
L 453.281697 111.576037 
L 475.497398 120.138017 
L 493.119713 133.129321 
L 504.368719 148.716755 
L 509.807293 165.015461 
L 511.243531 180.713082 
L 510.717066 195.104895 
L 509.99111 207.96115 
L 510.37575 219.398165 
L 512.678063 229.762377 
L 517.188057 239.509648 
L 523.695309 249.079537 
L 531.562943 258.785824 
L 539.851959 268.753994 
L 547.401249 278.920236 
L 552.715621 289.06893 
L 553.694842 298.85722 
L 547.793445 307.783011 
L 533.430815 315.095081 
L 511.638045 319.710749 
L 485.490293 320.27473 
L 458.149389 315.506966 
L 431.8168 304.850505 
L 407.674689 289.002157 
L 386.108461 269.717313 
L 366.922991 249.014364 
L 333.186196 209.292499 
L 317.132811 191.95288 
L 300.85062 176.858196 
L 284.129122 164.223139 
L 267.075362 154.163668 
L 250.051038 146.696517 
L 233.631286 141.728938 
L 218.658368 139.053618 
L 206.39245 138.341069 
L 198.649718 139.115524 
L 197.703646 140.714948 
L 205.701518 142.265066 
L 223.577617 142.72741 
L 250.163049 141.085833 
L 282.513166 136.667375 
L 317.242139 129.504483 
L 383.875136 112.260599 
L 412.962161 107.031058 
L 438.28333 106.945224 
L 459.4785 112.384414 
L 476.353154 122.360348 
L 488.87922 135.326586 
L 497.21228 149.791817 
L 501.700099 164.560349 
L 502.895392 178.753189 
L 501.596254 191.761673 
L 498.913236 203.213869 
L 496.312931 212.985263 
L 495.537354 221.250297 
L 498.291081 228.529081 
L 505.702996 235.643232 
L 517.71867 243.505944 
L 532.572644 252.767885 
L 546.645099 263.489023 
L 555.417597 275.084489 
L 555.561583 286.58906 
L 546.4374 296.959834 
L 529.70288 305.181611 
L 507.952156 310.227568 
L 483.686887 311.058235 
L 458.912835 306.813501 
L 435.104499 297.210326 
L 413.282907 282.881636 
L 394.071973 265.273542 
L 377.680565 246.102748 
L 363.81606 226.810275 
L 351.605979 208.334861 
L 339.672067 191.176897 
L 326.482453 175.588973 
L 310.945648 161.774191 
L 292.961054 150.013521 
L 273.509786 140.64608 
L 254.210993 133.908346 
L 236.814131 129.77918 
L 223.02219 127.944708 
L 214.557651 127.84461 
L 213.164216 128.724058 
L 220.284711 129.676183 
L 236.393933 129.715247 
L 260.430156 127.933774 
L 289.967543 123.757403 
L 322.126343 117.254306 
L 354.489256 109.419791 
L 385.481564 102.242246 
L 414.263863 98.208913 
L 440.412436 99.261525 
L 463.586585 105.970639 
L 483.314982 117.573975 
L 499.028762 132.59498 
L 510.331239 149.451545 
L 517.257869 166.802226 
L 520.335175 183.654946 
L 520.503089 199.347516 
L 519.027824 213.49905 
L 517.430646 225.985961 
L 517.365115 236.95019 
L 520.353518 246.806668 
L 527.359335 256.187151 
L 538.268209 265.768764 
L 551.410524 276.013278 
L 563.450777 286.95005 
L 570.216651 298.156111 
L 568.450905 308.926699 
L 557.196439 318.446746 
L 537.731968 325.818987 
L 512.534395 329.983051 
L 484.257689 329.682324 
L 455.152109 323.701772 
L 426.881855 311.502742 
L 400.557738 293.880449 
L 376.818694 272.865595 
L 355.872034 250.811345 
L 337.479659 229.545081 
L 320.945525 210.130224 
L 305.209866 193.053827 
L 289.136814 178.508737 
L 271.951753 166.598326 
L 253.605436 157.413661 
L 234.80739 150.997641 
L 216.739844 147.264301 
L 200.77007 145.950781 
L 188.403214 146.618998 
L 181.418043 148.669851 
L 181.922509 151.338631 
L 191.95482 153.681011 
L 212.418561 154.608279 
L 241.979766 153.058039 
L 277.231956 148.326709 
L 314.227721 140.473357 
L 349.901649 130.667648 
L 382.469862 121.234004 
L 411.115334 114.943274 
L 435.514565 113.709036 
L 455.49415 117.825557 
L 470.901326 126.296715 
L 481.66413 137.602089 
L 487.926767 150.251306 
L 490.130184 163.018078 
L 489.009256 174.982905 
L 485.568973 185.510536 
L 481.092124 194.236494 
L 477.162806 201.093702 
L 475.607324 206.372503 
L 478.207836 210.765724 
L 486.144589 215.316306 
L 499.318503 221.18803 
L 515.767473 229.243596 
L 531.592309 239.592429 
L 542.14494 251.484357 
L 544.215361 263.689828 
L 537.309942 274.950061 
L 523.099666 284.14135 
L 504.135024 290.244172 
L 482.916099 292.344902 
L 461.499978 289.799948 
L 441.429109 282.520292 
L 423.769122 271.144252 
L 409.131423 256.876817 
L 397.62853 241.074109 
L 388.773398 224.86663 
L 381.403819 208.992574 
L 373.770267 193.805552 
L 363.920512 179.372434 
L 350.407388 165.647111 
L 333.047333 152.727325 
L 313.098751 141.046497 
L 292.624205 131.241866 
L 273.735287 123.778001 
L 258.316999 118.705745 
L 248.079582 115.669241 
L 244.55563 114.015413 
L 248.824763 112.907572 
L 261.036306 111.449981 
L 280.119491 108.860124 
L 304.052959 104.690765 
L 330.561829 99.056703 
L 357.749701 92.790393 
L 384.378259 87.402935 
L 409.854324 84.719226 
L 434.065723 86.267915 
L 457.089803 92.793401 
L 478.762604 104.152813 
L 498.357067 119.491103 
L 514.80423 137.522413 
L 527.324782 156.873607 
L 535.833436 176.381146 
L 540.927139 195.218453 
L 543.701417 212.88564 
L 545.559808 229.158535 
L 548.004902 244.047332 
L 552.349359 257.75965 
L 559.343414 270.635021 
L 568.794491 283.028971 
L 579.306159 295.172837 
L 588.343562 307.078289 
L 592.845454 318.537278 
L 590.247546 329.190958 
L 579.301113 338.585068 
L 560.245823 346.148858 
L 534.516007 351.090736 
L 504.26868 352.266128 
L 471.807262 348.190543 
L 439.083575 337.518847 
L 407.484198 320.088758 
L 377.847682 297.660372 
L 350.550076 273.228967 
L 325.574281 249.554445 
L 302.572016 228.370817 
L 280.973721 210.466924 
L 260.183003 196.060413 
L 239.8118 185.096655 
L 219.840532 177.399337 
L 200.618203 172.716879 
L 182.746769 170.726214 
L 166.988252 171.032609 
L 154.300076 173.172011 
L 146.010129 176.603399 
L 144.038421 180.677188 
L 150.875171 184.578141 
L 168.776826 187.275956 
L 198.015612 187.579064 
L 235.638987 184.40628 
L 276.622403 177.239549 
L 316.336159 166.551157 
L 351.871464 154.033969 
L 381.905051 142.313374 
L 406.071819 133.850483 
L 424.463404 129.790025 
L 437.375571 129.808566 
L 445.230343 132.748743 
L 448.569663 137.25572 
L 448.055689 142.113565 
L 444.466864 146.361988 
L 438.710749 149.325047 
L 431.877012 150.626645 
L 425.333205 150.214409 
L 420.80765 148.380229 
L 420.299189 145.756215 
L 425.6215 143.287488 
L 437.643613 142.209147 
L 455.573276 143.971989 
L 476.570722 149.847603 
L 496.231895 160.115132 
L 510.428303 173.650528 
L 517.239676 188.599172 
L 517.208574 203.269047 
L 512.276459 216.46655 
L 504.716054 227.470835 
L 496.567072 235.961209 
L 489.440388 241.980806 
L 484.469888 245.901426 
L 482.286471 248.345926 
L 482.977994 250.060223 
L 486.054811 251.757539 
L 490.456566 253.965462 
L 494.597829 256.905327 
L 496.406734 260.423942 
L 493.449586 263.964369 
L 483.593307 266.537475 
L 466.369637 266.724026 
L 443.664157 262.915815 
L 418.587969 254.031844 
L 393.979412 240.378586 
L 371.840745 223.683611 
L 353.381174 206.096453 
L 339.138664 189.214491 
L 329.040856 173.824215 
L 322.464058 160.116381 
L 318.363436 147.98304 
L 315.487721 137.229734 
L 312.640492 127.685567 
L 308.936726 119.241289 
L 304.005134 111.848979 
L 298.102695 105.502222 
L 292.163666 100.197868 
L 287.847309 95.8747 
L 287.534372 92.334268 
L 293.922604 89.173978 
L 308.825371 85.815751 
L 331.728563 81.772542 
L 359.734202 77.210789 
L 389.23647 73.472797 
L 417.555778 72.799957 
L 443.3728 77.057273 
L 466.367542 86.689681 
L 486.721091 100.884407 
L 504.759646 118.325448 
L 520.769882 137.738765 
L 534.935067 158.095918 
L 547.335588 178.63182 
L 557.982203 198.801022 
L 566.8802 218.226569 
L 574.132267 236.659183 
L 580.071303 253.951213 
L 585.372656 270.045095 
L 591.006046 284.971932 
L 597.788485 298.845299 
L 605.440776 311.820657 
L 611.711217 324.002619 
L 612.839899 335.344568 
L 605.698298 345.617253 
L 589.540037 354.435687 
L 565.728538 361.251332 
L 536.471381 365.264133 
L 503.905751 365.304658 
L 469.756847 359.854879 
L 435.308093 347.535328 
L 401.474477 328.221324 
L 368.888332 303.925159 
L 308.960628 253.808958 
L 281.963315 232.958478 
L 256.923707 216.214949 
L 233.651284 203.571785 
L 211.885262 194.709948 
L 191.450153 189.211133 
L 172.424155 186.644648 
L 155.191838 186.578955 
L 140.39901 188.563698 
L 128.965839 192.109041 
L 122.234409 196.661026 
L 122.166429 201.559635 
L 131.308373 205.976482 
L 151.974287 208.862752 
L 184.373321 209.001458 
L 225.129874 205.288564 
L 268.484026 197.214519 
L 309.199259 185.30386 
L 344.175714 171.289926 
L 372.262801 157.705094 
L 393.471573 146.751219 
L 408.337209 139.344377 
L 421.866662 133.171039 
L 421.976861 132.292539 
L 412.700202 130.135083 
L 405.064295 127.687724 
L 396.846932 124.063977 
L 389.43772 119.435127 
L 384.596033 114.193118 
L 384.363355 108.85662 
L 390.591695 104.025753 
L 404.135818 100.482105 
L 424.115819 99.415674 
L 447.624042 102.396178 
L 470.41245 110.512572 
L 488.787457 123.281527 
L 501.212354 138.93147 
L 508.2529 155.590713 
L 511.568062 171.941482 
L 514.328648 201.331685 
L 516.660845 214.217593 
L 520.766263 226.225149 
L 526.84506 237.733058 
L 534.609906 249.079096 
L 552.355237 271.944398 
L 560.458964 283.401999 
L 566.403396 294.641867 
L 568.192322 305.384568 
L 563.192559 315.233111 
L 549.577396 323.583607 
L 528.157612 329.538727 
L 501.905002 331.910067 
L 473.959302 329.408361 
L 446.531064 321.11655 
L 420.818233 307.098451 
L 397.229316 288.60485 
L 375.613345 267.581579 
L 336.166407 225.145557 
L 317.133551 206.181701 
L 298.026523 189.664101 
L 278.777255 175.949092 
L 259.557253 165.192147 
L 240.702496 157.379345 
L 222.681731 152.355863 
L 206.160907 149.853421 
L 192.15304 149.503541 
L 182.16339 150.825285 
L 178.185494 153.190583 
L 182.382078 155.788971 
L 196.291502 157.632104 
L 219.806711 157.655777 
L 250.829527 154.951544 
L 286.095835 149.07553 
L 322.399635 140.362238 
L 389.093467 121.057605 
L 416.801563 115.607124 
L 439.808341 115.429691 
L 457.853001 120.379314 
L 470.958891 129.164174 
L 479.385728 140.196312 
L 483.583547 152.071864 
L 484.170467 163.702807 
L 481.953256 174.300888 
L 477.985494 183.345072 
L 473.626727 190.586965 
L 470.534891 196.100022 
L 470.495179 200.33901 
L 475.0315 204.144766 
L 484.88845 208.627762 
L 499.504903 214.892102 
L 516.540705 223.614704 
L 531.888217 234.661628 
L 541.03134 247.091091 
L 541.328982 259.585207 
L 533.026042 270.870366 
L 518.289535 279.848627 
L 499.783242 285.574434 
L 479.862132 287.284619 
L 460.351351 284.559332 
L 442.573185 277.527765 
L 427.401665 266.922713 
L 415.253468 253.873602 
L 406.005374 239.556954 
L 398.894519 224.913931 
L 392.510404 210.524199 
L 384.990226 196.600835 
L 374.481864 183.071393 
L 359.849793 169.775749 
L 341.318698 156.786924 
L 320.468409 144.637765 
L 299.509663 134.129776 
L 280.578932 125.861654 
L 265.517996 119.95094 
L 255.913016 116.059426 
L 253.044199 113.537006 
L 257.615838 111.567802 
L 269.411217 109.317579 
L 287.201076 106.106148 
L 309.090819 101.596565 
L 333.106841 95.959696 
L 357.670354 89.954651 
L 381.808973 84.847332 
L 405.165266 82.120213 
L 427.860758 83.071099 
L 450.164058 88.509205 
L 471.95267 98.625695 
L 492.332753 112.9445 
L 509.959791 130.384777 
L 523.829477 149.573647 
L 533.744636 169.252359 
L 540.272607 188.498549 
L 544.503941 206.748204 
L 547.807258 223.740476 
L 551.581983 239.458544 
L 556.969124 254.07156 
L 564.5339 267.855498 
L 573.989688 281.084451 
L 584.063085 293.920725 
L 592.630558 306.353413 
L 597.20527 318.209654 
L 595.610169 329.208119 
L 586.487805 338.994558 
L 569.517503 347.115857 
L 545.497862 352.922221 
L 516.241986 355.426623 
L 484.052865 353.240236 
L 451.042039 344.858512 
L 418.756764 329.551762 
L 388.143164 308.381477 
L 359.638812 284.072774 
L 333.271923 259.643937 
L 308.758747 237.26779 
L 285.636339 218.083303 
L 263.444914 202.508317 
L 241.912203 190.568629 
L 221.056504 182.093633 
L 201.167788 176.802773 
L 182.717981 174.339377 
L 166.301336 174.287851 
L 152.677946 176.183159 
L 142.937834 179.506193 
L 138.736726 183.655186 
L 142.404366 187.889215 
L 156.464618 191.263378 
L 182.141525 192.628484 
L 217.654448 190.816041 
L 258.432036 185.042352 
L 299.411144 175.360316 
L 336.946889 162.976137 
L 395.255529 139.765876 
L 415.284227 133.322808 
L 429.500941 131.067402 
L 438.376301 132.072939 
L 442.50862 135.021181 
L 442.595055 138.65143 
L 439.415697 141.939215 
L 433.841343 144.145304 
L 426.881453 144.83135 
L 419.778914 143.876108 
L 414.118792 141.486279 
L 411.828842 138.182419 
L 414.869195 134.761363 
L 424.554496 132.279118 
L 440.796007 132.068561 
L 461.570333 135.587703 
L 482.964926 143.746161 
L 500.505295 156.071969 
L 511.313472 170.876658 
L 515.096891 186.264884 
L 513.410113 200.793564 
L 508.464468 213.569337 
L 502.374765 224.161847 
L 496.859542 232.527406 
L 493.158851 238.950291 
L 492.008016 243.963843 
L 493.610425 248.233587 
L 497.619337 252.413444 
L 503.161527 257.002778 
L 508.90031 262.238315 
L 513.064251 268.04529 
L 513.417458 274.033812 
L 507.514134 279.486876 
L 493.82841 283.309192 
L 473.151999 284.027069 
L 448.317295 280.085652 
L 422.503712 270.599786 
L 398.132008 256.11447 
L 376.700787 238.482665 
L 358.931967 219.855182 
L 344.898832 201.814459 
L 334.124512 185.183962 
L 325.714332 170.240894 
L 318.551884 156.984248 
L 311.540218 145.322529 
L 303.841661 135.174097 
L 295.059104 126.505538 
L 285.317966 119.327076 
L 275.272286 113.654902 
L 259.712936 106.548719 
L 258.508704 104.584288 
L 265.12039 102.94015 
L 281.032827 100.789344 
L 305.331788 97.34532 
L 334.90895 92.363309 
L 366.15635 86.691783 
L 396.419467 82.376975 
L 424.316946 81.850595 
L 449.383782 86.631254 
L 471.621662 96.747539 
L 491.18407 111.176698 
L 508.207954 128.550456 
L 522.749368 147.596828 
L 534.79116 167.296626 
L 544.306172 186.89153 
L 551.359009 205.843524 
L 556.226716 223.791023 
L 559.522028 240.518206 
L 562.280051 255.943578 
L 565.888005 270.126026 
L 571.665318 283.267701 
L 580.022588 295.666726 
L 589.536511 307.584857 
L 596.774555 319.085315 
L 597.657551 329.966144 
L 589.638047 339.820361 
L 572.66809 348.105047 
L 548.463331 354.115543 
L 519.319041 356.878665 
L 487.368958 355.077135 
L 454.32276 347.240143 
L 421.45252 332.487054 
L 389.660755 311.588883 
L 359.55402 287.161628 
L 331.494352 262.419798 
L 305.618457 239.797885 
L 281.827554 220.552421 
L 259.782536 205.061505 
L 238.983305 193.238657 
L 218.990771 184.818401 
L 199.698877 179.491297 
L 181.446403 176.930542 
L 164.916062 176.769907 
L 151.018591 178.581263 
L 140.936048 181.861716 
L 136.300941 186.013349 
L 139.322988 190.3015 
L 152.469457 193.801122 
L 177.217604 195.387138 
L 212.274059 193.880241 
L 253.250516 188.41949 
L 294.754669 178.940278 
L 332.702681 166.541533 
L 364.98674 153.485102 
L 390.972584 142.41467 
L 410.805283 135.084924 
L 424.930171 131.777303 
L 433.86633 131.698775 
L 438.161969 133.635229 
L 438.431434 136.376943 
L 435.392904 138.90773 
L 429.889978 140.476153 
L 422.92566 140.628423 
L 415.732332 139.230748 
L 409.861755 136.474547 
L 407.201229 132.849104 
L 409.729033 129.093027 
L 418.889384 126.180741 
L 434.790658 125.375068 
L 455.58942 128.157253 
L 477.491442 135.618237 
L 496.061971 147.519857 
L 508.357541 162.279835 
L 513.906039 177.981289 
L 514.037769 193.126972 
L 510.789389 206.781578 
L 506.190193 218.483431 
L 501.944826 228.155152 
L 499.313812 236.036787 
L 499.058381 242.606534 
L 501.402965 248.46791 
L 506.026464 254.211259 
L 512.108105 260.278974 
L 518.408883 266.871521 
L 523.294212 273.91549 
L 524.645719 281.072734 
L 519.978635 287.733764 
L 507.462914 292.958384 
L 487.498075 295.423891 
L 462.738371 293.580309 
L 436.399353 286.219619 
L 410.992633 273.290816 
L 388.087179 256.198363 
L 368.457448 237.100638 
L 352.233241 217.906479 
L 339.011883 199.808846 
L 318.158808 168.725182 
L 308.524404 155.906734 
L 298.345877 144.872212 
L 287.286952 135.613234 
L 275.470769 128.145746 
L 263.46457 122.473725 
L 252.290765 118.535518 
L 239.390659 114.93709 
L 242.483248 114.302095 
L 254.830725 113.391317 
L 276.518653 111.248845 
L 305.191058 107.169123 
L 337.227284 101.213704 
L 369.425278 94.633813 
L 399.783862 89.758836 
L 427.377355 89.028892 
L 451.926372 93.763768 
L 473.42918 103.77984 
L 491.939472 117.927666 
L 507.471306 134.78653 
L 519.997937 153.070805 
L 529.51269 171.764978 
L 536.118991 190.123396 
L 540.127261 207.627518 
L 542.155314 223.944311 
L 543.220512 238.905182 
L 544.748331 252.512374 
L 548.342305 264.960211 
L 555.185995 276.623682 
L 565.176146 287.947476 
L 576.213842 299.233807 
L 584.391563 310.458913 
L 585.616035 321.264679 
L 577.673333 331.089177 
L 560.87148 339.25948 
L 537.138655 344.958536 
L 508.858094 347.124683 
L 478.18642 344.435154 
L 446.827147 335.613907 
L 416.0311 320.217126 
L 386.668125 299.422521 
L 359.296881 275.819554 
L 334.200182 252.199592 
L 311.374265 230.553888 
L 290.493152 211.891459 
L 270.927806 196.532393 
L 251.932264 184.452642 
L 232.999566 175.509442 
L 214.169573 169.526654 
L 196.043016 166.282606 
L 179.562527 165.470327 
L 165.856933 166.678092 
L 156.296829 169.387063 
L 152.663139 172.95973 
L 157.174796 176.606867 
L 171.972343 179.353274 
L 197.800276 180.070201 
L 232.683 177.673489 
L 272.276723 171.509702 
L 311.898953 161.802837 
L 348.209386 149.986762 
L 379.51541 138.586429 
L 405.280077 130.234873 
L 425.543729 126.394657 
L 440.54585 126.988552 
L 450.581911 130.956509 
L 456.023768 136.929 
L 457.386356 143.617643 
L 455.360344 149.966154 
L 450.816074 155.190953 
L 444.822964 158.796463 
L 438.704931 160.601204 
L 434.097863 160.773818 
L 432.895226 159.856124 
L 436.915684 158.753712 
L 447.255369 158.691913 
L 463.53853 161.090155 
L 483.359869 167.170044 
L 502.483805 177.24143 
L 516.493449 190.32044 
L 522.935369 204.688555 
L 521.939118 218.709723 
L 515.282913 231.164542 
L 505.264124 241.236068 
L 494.043998 248.455381 
L 483.394439 252.703653 
L 474.629895 254.229369 
L 468.58169 253.610967 
L 465.554258 251.638505 
L 465.264699 249.144793 
L 466.80412 246.83145 
L 468.653405 245.115744 
L 468.757073 244.009755 
L 464.734048 243.03886 
L 454.535099 241.209543 
L 437.640458 237.110779 
L 415.70056 229.382719 
L 391.598203 217.604925 
L 368.077846 202.843763 
L 347.185022 187.047594 
L 330.290146 171.923621 
L 318.179827 158.376571 
L 311.053397 146.592049 
L 308.494024 136.343587 
L 309.531387 127.267182 
L 312.84017 119.037615 
L 320.903953 104.408441 
L 323.78203 97.905876 
L 327.265982 86.521515 
L 330.334642 81.590838 
L 337.210274 77.076082 
L 350.174011 72.910081 
L 369.931132 69.25847 
L 394.692822 66.96 
L 421.190724 67.712902 
L 446.561026 73.236631 
L 469.286055 84.013713 
L 489.054464 99.167302 
L 506.246147 117.286233 
L 521.471719 137.088334 
L 535.276729 157.627697 
L 548.009028 178.25998 
L 559.817009 198.551553 
L 570.724992 218.206101 
L 580.722115 237.020954 
L 589.822134 254.863737 
L 598.09329 271.658162 
L 612.655167 302.014119 
L 618.780706 315.609286 
L 622.636364 328.182295 
L 621.373379 339.697232 
L 612.107382 349.996492 
L 594.028944 358.76195 
L 568.608964 365.47956 
L 538.214652 369.36 
L 504.996842 369.237876 
L 470.542283 363.605634 
L 435.931853 351.095797 
L 401.892958 331.570574 
L 368.922666 307.009953 
L 337.360954 280.859373 
L 307.429878 256.313929 
L 279.257411 235.304435 
L 252.895505 218.568399 
L 228.335622 206.111749 
L 205.529878 197.592638 
L 184.438791 192.542178 
L 165.122608 190.467496 
L 147.845712 190.884599 
L 133.14175 193.311961 
L 121.873033 197.246374 
L 115.363636 202.1295 
L 115.568498 207.299897 
L 125.016522 211.928843 
L 146.001639 214.969247 
L 178.75499 215.207461 
L 219.955166 211.536884 
L 263.82248 203.42756 
L 304.997197 191.357972 
L 340.240396 176.996072 
L 368.314915 162.825445 
L 389.21081 151.048357 
L 403.501527 142.614519 
L 411.973619 137.22457 
L 415.453876 133.927256 
L 414.754189 131.645429 
L 410.682316 129.451845 
L 404.082382 126.684107 
L 395.890991 122.988147 
L 387.217705 118.319461 
L 379.452698 112.896915 
L 374.352454 107.107677 
L 373.952853 101.396645 
L 380.110205 96.220712 
L 393.713509 92.169213 
L 413.960111 90.256024 
L 438.052044 92.043808 
L 461.823117 98.918883 
L 481.579054 110.804889 
L 495.726727 126.114727 
L 504.768308 142.946153 
L 510.299516 159.89907 
L 517.806969 191.562487 
L 522.44982 206.033987 
L 528.649754 219.840765 
L 536.481424 233.258394 
L 545.577686 246.500928 
L 564.869265 272.690144 
L 573.551836 285.47046 
L 580.348182 297.827365 
L 583.557536 309.557458 
L 580.558547 320.38486 
L 569.025684 329.877252 
L 549.087037 337.35912 
L 523.404949 341.875809 
L 495.170414 342.255116 
L 466.73208 337.357539 
L 439.388859 326.572113 
L 413.61704 310.308588 
L 389.341256 290.023455 
L 366.180534 267.709626 
L 343.672608 245.294652 
L 321.4584 224.305367 
L 299.387888 205.7913 
L 277.526273 190.365676 
L 256.087431 178.281368 
L 235.358857 169.518568 
L 215.681753 163.871758 
L 197.518903 161.01911 
L 181.595518 160.560424 
L 169.044766 162.019205 
L 161.468069 164.816243 
L 160.831786 168.232011 
L 169.047419 171.381717 
L 187.139854 173.24219 
L 214.42174 172.779379 
L 248.449832 169.181005 
L 285.881039 162.136262 
L 323.481915 152.135143 
L 389.74836 130.620467 
L 415.624677 124.301927 
L 435.895973 123.016948 
L 450.595476 126.291268 
L 460.067939 132.733554 
L 464.853224 140.816405 
L 465.622665 149.237771 
L 463.175576 157.000427 
L 458.483574 163.40243 
L 452.753661 168.036954 
L 447.470063 170.825375 
L 444.34914 172.061848 
L 445.1255 172.426793 
L 451.161733 172.940874 
L 462.979214 174.854758 
L 479.755983 179.424312 
L 498.832409 187.461015 
L 515.846619 198.791394 
L 526.445902 212.199329 
L 528.60144 226.035597 
L 523.108804 238.82625 
L 512.301939 249.462078 
L 498.743044 257.171422 
L 484.616293 261.512727 
L 471.594522 262.428466 
L 460.855231 260.283178 
L 453.080866 255.800344 
L 448.403322 249.891412 
L 446.329152 243.445665 
L 445.71696 237.14622 
L 444.854595 231.329975 
L 441.644075 225.888929 
L 433.978697 220.227016 
L 420.497216 213.336534 
L 401.490627 204.151436 
L 378.99896 192.264971 
L 355.788771 178.491282 
L 334.33259 164.453843 
L 316.491103 151.580867 
L 303.558761 140.553369 
L 296.27627 131.365496 
L 294.740127 123.609331 
L 298.338825 116.74479 
L 305.85873 110.299065 
L 315.770901 103.988315 
L 346.907509 86.090234 
L 356.034805 81.057689 
L 365.532602 76.773064 
L 377.091313 73.408956 
L 392.499215 71.327176 
L 412.438631 71.321909 
L 435.543845 74.704971 
L 459.091498 82.728694 
L 480.685775 95.577027 
L 499.184284 112.208627 
L 514.596841 131.13514 
L 527.607725 151.088318 
L 539.122917 171.21878 
L 560.521767 210.291595 
L 590.545603 263.539178 
L 598.987642 279.521068 
L 606.175055 294.511105 
L 611.81831 308.46988 
L 615.310472 321.371304 
L 615.319308 333.180228 
L 609.644258 343.808749 
L 596.18455 353.048734 
L 574.631611 360.491766 
L 546.732281 365.446687 
L 514.983262 366.857537 
L 481.51202 363.306882 
L 447.743388 353.351466 
L 414.497495 336.401016 
L 382.199164 313.680791 
L 351.068717 288.114484 
L 321.251314 262.964386 
L 292.876921 240.5925 
L 266.067473 222.173747 
L 240.921848 208.005332 
L 217.506154 197.895178 
L 195.864155 191.430591 
L 176.054812 188.124462 
L 158.225584 187.481284 
L 142.725608 189.015463 
L 130.240002 192.238779 
L 121.928176 196.626047 
L 119.56149 201.564636 
L 125.517676 206.291333 
L 142.217778 209.835791 
L 170.651976 211.037498 
L 208.764908 208.742336 
L 251.65211 202.201368 
L 293.841128 191.512994 
L 331.369725 177.927161 
L 362.266983 163.756988 
L 386.034345 151.496965 
L 402.994019 142.606783 
L 419.384291 134.20643 
L 420.463214 132.701145 
L 417.889645 131.572427 
L 412.482567 130.02104 
L 405.122973 127.542728 
L 396.838543 123.943869 
L 388.90956 119.325725 
L 382.96377 114.023877 
L 380.94792 108.511088 
L 384.79803 103.321728 
L 395.770433 99.096821 
L 413.700064 96.798854 
L 436.490152 97.881045 
L 460.260464 103.807256 
L 480.826519 114.82904 
L 495.739704 129.567171 
L 504.926767 146.056029 
L 509.831204 162.728485 
L 512.356305 178.659224 
L 514.249716 193.458691 
L 516.852152 207.117862 
L 521.009494 219.868659 
L 527.04654 232.052912 
L 534.793427 243.998742 
L 543.68722 255.923765 
L 552.934863 267.89097 
L 561.639958 279.823216 
L 568.727194 291.54903 
L 572.582009 302.834232 
L 570.766646 313.363682 
L 560.825491 322.6668 
L 542.336566 330.020125 
L 517.613511 334.397764 
L 489.953631 334.552388 
L 461.985767 329.325981 
L 435.262124 318.210299 
L 410.436179 301.81814 
L 387.523066 281.766986 
L 366.133743 260.039023 
L 345.69479 238.387979 
L 325.655789 218.109066 
L 305.651693 200.067427 
L 285.576835 184.792905 
L 265.560622 172.552033 
L 245.890697 163.396167 
L 226.959892 157.205563 
L 209.296853 153.732492 
L 193.690974 152.63087 
L 181.355851 153.459423 
L 174.012409 155.656584 
L 173.753028 158.501749 
L 182.52027 161.093086 
L 201.166705 162.389508 
L 228.664376 161.367565 
L 262.299969 157.285788 
L 298.748392 149.983968 
L 335.067784 140.184795 
L 369.085441 129.72915 
L 399.350096 121.318874 
L 424.972941 117.362294 
L 445.506871 118.734599 
L 460.865737 124.709194 
L 471.250409 133.786284 
L 477.076447 144.424587 
L 478.924406 155.350502 
L 477.534518 165.605833 
L 473.848804 174.518552 
L 469.07607 181.690058 
L 464.72913 187.026463 
L 462.554397 190.797212 
L 464.268695 193.670749 
L 471.115831 196.667131 
L 483.364556 200.985792 
L 499.802563 207.676646 
L 517.341793 217.18048 
L 531.44994 229.009895 
L 538.087061 241.938641 
L 535.785034 254.540735 
L 525.762715 265.555114 
L 510.535996 273.947146 
L 492.690358 278.885927 
L 474.362254 279.807436 
L 457.159047 276.569209 
L 442.208057 269.567742 
L 430.177932 259.671876 
L 421.226171 247.969549 
L 414.90078 235.475123 
L 410.080454 222.927804 
L 405.054055 210.698311 
L 397.809548 198.771693 
L 386.585712 186.823035 
L 370.643134 174.469577 
L 350.799418 161.70611 
L 329.111587 149.190025 
L 307.97171 137.94387 
L 275.417667 121.775886 
L 267.132915 116.745807 
L 265.587093 113.014764 
L 271.019184 109.809991 
L 282.76407 106.393678 
L 299.364277 102.236119 
L 318.994805 97.167693 
L 361.002061 85.85082 
L 381.516902 81.312966 
L 401.523675 78.906522 
L 421.56742 79.550098 
L 442.290212 83.970027 
L 463.700789 92.653459 
L 484.696387 105.615829 
L 503.561689 122.138955 
L 519.003388 140.938877 
L 530.683309 160.677644 
L 539.12121 180.323644 
L 545.379995 199.231763 
L 550.755968 217.089924 
L 556.486795 233.839363 
L 563.461055 249.591505 
L 571.963285 264.534504 
L 581.523832 278.83526 
L 590.947217 292.564832 
L 598.559419 305.67448 
L 602.596202 318.019944 
L 601.51661 329.400245 
L 594.102228 339.571812 
L 579.535865 348.213743 
L 557.791629 354.835064 
L 530.074263 358.635761 
L 498.537599 358.393165 
L 465.426029 352.570791 
L 432.470078 339.953299 
L 400.751914 320.743826 
L 370.795041 297.074811 
L 342.698039 272.062983 
L 316.27399 248.390871 
L 291.207271 227.692668 
L 267.217908 210.696087 
L 244.1867 197.561634 
L 222.195408 188.139257 
L 201.486024 182.113894 
L 182.395694 179.082258 
L 165.333 178.594456 
L 150.836254 180.173915 
L 139.729058 183.316779 
L 133.353431 187.466544 
L 133.760384 191.960294 
L 143.527353 195.956214 
L 164.693059 198.390066 
L 196.916741 198.065853 
L 236.621259 193.972957 
L 278.578329 185.740493 
L 318.288041 174.022504 
L 353.009052 160.668586 
L 381.520633 148.317794 
L 403.553536 139.211284 
L 419.359472 134.170663 
L 429.466953 132.66378 
L 434.552489 133.502035 
L 435.370771 135.416459 
L 432.721247 137.328876 
L 427.449127 138.439328 
L 420.48794 138.249092 
L 412.949724 136.570785 
L 406.24661 133.528548 
L 402.16385 129.53169 
L 402.707714 125.220815 
L 409.573504 121.433665 
L 423.383372 119.258076 
L 443.040173 120.095955 
L 465.441226 125.345241 
L 486.159544 135.453925 
L 501.435616 149.315165 
L 509.891204 164.980248 
L 512.418984 180.696901 
L 511.01282 195.303934 
L 507.801395 208.194481 
L 504.593336 219.200123 
L 502.730564 228.49389 
L 503.049683 236.496038 
L 505.865025 243.760404 
L 510.968345 250.842379 
L 524.904477 265.958513 
L 531.25738 274.172663 
L 534.906908 282.556088 
L 533.501375 290.641881 
L 524.695755 297.71328 
L 507.738546 302.718327 
L 484.486466 304.259762 
L 458.208458 300.872095 
L 431.843943 291.693356 
L 407.340803 277.16691 
L 385.71705 259.004508 
L 367.255205 239.324073 
L 351.665011 219.821276 
L 326.055599 184.899637 
L 314.175663 170.166615 
L 301.882081 157.394229 
L 288.818512 146.634678 
L 275.039365 137.937834 
L 260.976259 131.326926 
L 247.41243 126.755495 
L 235.550233 124.064771 
L 227.154322 122.942058 
L 224.568581 122.87335 
L 230.251357 123.104544 
L 245.648591 122.670377 
L 270.016547 120.578546 
L 300.48378 116.182238 
L 333.497497 109.640303 
L 366.213228 102.260952 
L 396.919672 96.393036 
L 424.793898 94.5426 
L 449.508385 98.157826 
L 470.933923 107.151466 
L 488.982954 120.379015 
L 503.571815 136.361367 
L 514.661542 153.741018 
L 522.330068 171.445079 
L 526.843728 188.690998 
L 528.727067 204.941032 
L 528.842324 219.860616 
L 528.454499 233.306087 
L 529.182809 245.346881 
L 532.691833 256.296322 
L 540.066592 266.682358 
L 551.040617 277.085324 
L 563.419399 287.869941 
L 573.262764 298.980705 
L 576.366851 309.959551 
L 570.302348 320.125897 
L 555.215615 328.707833 
L 533.026544 334.826651 
L 506.216322 337.409358 
L 477.062146 335.193465 
L 447.363775 327.039213 
L 418.433932 312.628765 
L 391.174676 293.083955 
L 366.147235 270.715459 
L 343.592603 247.997673 
L 323.394302 226.737509 
L 305.026732 207.908354 
L 287.60427 191.889523 
L 270.153407 178.76787 
L 252.062328 168.539371 
L 233.424142 161.173721 
L 215.007248 156.577057 
L 197.953311 154.531492 
L 183.557207 154.670752 
L 173.292956 156.487128 
L 168.960493 159.334366 
L 172.67763 162.409872 
L 186.356299 164.737656 
L 210.529668 165.217543 
L 243.315877 162.824693 
L 280.838787 156.9708 
L 318.947626 147.925942 
L 354.611322 137.152833 
L 386.197025 127.206232 
L 413.068442 120.765487 
L 435.079872 119.326993 
L 452.238068 122.780932 
L 464.593866 129.970508 
L 472.30472 139.414567 
L 475.736133 149.736774 
L 475.502527 159.823276 
L 472.455575 168.847237 
L 467.679365 176.261407 
L 462.520236 181.810346 
L 458.615404 185.574381 
L 457.810398 188.023473 
L 461.824379 190.033646 
L 471.64422 192.808479 
L 486.816872 197.636826 
L 504.888646 205.423539 
L 521.573962 216.151904 
L 532.378242 228.801913 
L 534.7913 241.890665 
L 528.997355 254.026186 
L 516.936918 264.079071 
L 501.094612 271.148468 
L 483.779222 274.562667 
L 466.859224 273.987993 
L 451.721627 269.56972 
L 439.284437 261.955792 
L 429.976152 252.129301 
L 423.662022 241.135689 
L 419.553698 229.845958 
L 416.181654 218.812067 
L 411.526902 208.188391 
L 403.427402 197.708583 
L 390.365275 186.796407 
L 372.36856 174.944506 
L 351.148306 162.275649 
L 329.192066 149.711487 
L 291.971256 129.107903 
L 280.112418 121.908962 
L 274.385137 116.435354 
L 275.349146 112.036088 
L 282.760752 107.986388 
L 295.533033 103.669849 
L 349.396933 87.542264 
L 367.906164 82.410027 
L 385.727266 78.644842 
L 403.307031 77.001641 
L 421.612088 78.13937 
L 441.493524 82.709864 
L 462.745394 91.330143 
L 483.821641 104.196152 
L 502.77772 120.667546 
L 518.383928 139.461563 
L 530.460075 159.242254 
L 539.641992 178.997852 
L 547.021713 198.110723 
L 553.815042 216.29211 
L 561.055989 233.488601 
L 569.327343 249.784773 
L 578.580543 265.305583 
L 588.109839 280.134338 
L 596.71911 294.269511 
L 603.035167 307.628038 
L 605.791619 320.076002 
L 603.883092 331.454394 
L 596.216137 341.574277 
L 581.755713 350.166982 
L 560.173122 356.782987 
L 532.542536 360.65349 
L 501.015776 360.581583 
L 467.833881 355.036827 
L 434.69408 342.744831 
L 402.632445 323.767703 
L 372.133366 300.112998 
L 315.949785 250.954205 
L 289.913796 230.015185 
L 265.038718 212.890678 
L 241.327119 199.75297 
L 218.918334 190.423611 
L 198.037009 184.544283 
L 178.94988 181.672474 
L 161.973886 181.332377 
L 147.559717 183.036507 
L 136.46144 186.282689 
L 129.968712 190.5248 
L 130.089336 195.115774 
L 139.390604 199.233285 
L 160.010294 201.83168 
L 191.844221 201.718929 
L 231.524732 197.85539 
L 273.806832 189.803155 
L 313.988076 178.121623 
L 349.113055 164.563318 
L 399.877594 141.884479 
L 415.527492 135.957299 
L 425.390002 133.487251 
L 430.20743 133.338216 
L 430.777939 134.275917 
L 427.91928 135.248923 
L 422.473845 135.482278 
L 415.357749 134.502318 
L 407.65644 132.143699 
L 400.74936 128.541356 
L 396.390579 124.092163 
L 396.579719 119.389807 
L 403.060763 115.186915 
L 416.568301 112.463697 
L 436.163944 112.553199 
L 458.907855 116.936223 
L 480.44735 126.319577 
L 496.951361 139.823118 
L 506.894141 155.535214 
L 511.037621 171.635522 
L 511.287624 186.897449 
L 509.714641 200.678877 
L 508.082434 212.793017 
L 507.690983 223.391596 
L 509.334855 232.856752 
L 513.291414 241.682708 
L 519.334306 250.348283 
L 534.685929 268.394022 
L 541.736236 277.863864 
L 546.304404 287.376295 
L 546.154267 296.539355 
L 538.80179 304.766809 
L 523.061316 311.186142 
L 500.409271 314.578202 
L 474.052401 313.513128 
L 447.044308 306.832453 
L 421.442591 294.365953 
L 398.324394 277.277784 
L 378.003056 257.560287 
L 360.224055 237.154612 
L 344.346357 217.446492 
L 329.540911 199.247492 
L 315.004503 182.985239 
L 300.151847 168.889317 
L 284.732972 157.099911 
L 268.847415 147.700643 
L 252.890414 140.705854 
L 237.51948 136.035997 
L 223.718016 133.497717 
L 212.949653 132.76314 
L 207.25951 133.336112 
L 209.04616 134.510378 
L 220.25292 135.360012 
L 241.165339 134.834328 
L 269.830557 132.014568 
L 302.906445 126.492694 
L 337.136744 118.7542 
L 370.196902 110.420949 
L 400.725528 104.027005 
L 428.005281 102.025293 
L 451.651037 105.600171 
L 471.427638 114.366166 
L 487.194809 126.988018 
L 498.928491 141.922025 
L 506.762127 157.825679 
L 511.020064 173.671914 
L 512.252308 188.726989 
L 511.291154 202.500858 
L 509.321336 214.72259 
L 507.896084 225.359452 
L 508.777913 234.666397 
L 513.50803 243.207745 
L 522.770913 251.759641 
L 535.752154 261.046698 
L 549.731092 271.405745 
L 560.456864 282.597664 
L 563.814714 293.917736 
L 557.817895 304.465307 
L 543.113033 313.305938 
L 521.940013 319.458761 
L 496.888379 321.838824 
L 470.21017 319.336467 
L 443.628283 311.175466 
L 418.373558 297.456972 
L 395.268041 279.416866 
L 374.766217 259.01059 
L 356.922996 238.147039 
L 326.982678 199.899589 
L 312.636966 183.639156 
L 297.058028 169.599706 
L 279.68084 157.962082 
L 260.906516 148.922019 
L 241.917218 142.59819 
L 241.917218 142.59819 
" clip-path="url(#pd69d85cfde)" style="fill: none; stroke: #ffaf00; stroke-width: 0.5; stroke-linecap: square"/>
   </g>
   <g id="patch_3">
    <path d="M 90 384.48 
L 90 51.84 
" style="fill: none; stroke: #1a1a1a; stroke-linejoin: miter; stroke-linecap: square"/>
   </g>
   <g id="patch_4">
    <path d="M 90 384.48 
L 648 384.48 
" style="fill: none; stroke: #1a1a1a; stroke-linejoin: miter; stroke-linecap: square"/>
   </g>
   <g id="text_13">
    <!--   -->
    <g style="fill: #333333" transform="translate(263.465 45.84) scale(0.16 -0.16)">
     <defs>
      <path id="DejaVuSans-410" d="M 2188 4044 
L 1331 1722 
L 3047 1722 
L 2188 4044 
z
M 1831 4666 
L 2547 4666 
L 4325 0 
L 3669 0 
L 3244 1197 
L 1141 1197 
L 716 0 
L 50 0 
L 1831 4666 
z
" transform="scale(0.015625)"/>
      <path id="DejaVuSans-442" d="M 188 3500 
L 3541 3500 
L 3541 3041 
L 2147 3041 
L 2147 0 
L 1581 0 
L 1581 3041 
L 188 3041 
L 188 3500 
z
" transform="scale(0.015625)"/>
      <path id="DejaVuSans-440" d="M 1159 525 
L 1159 -1331 
L 581 -1331 
L 581 3500 
L 1159 3500 
L 1159 2969 
Q 1341 3281 1617 3432 
Q 1894 3584 2278 3584 
Q 2916 3584 3314 3078 
Q 3713 2572 3713 1747 
Q 3713 922 3314 415 
Q 2916 -91 2278 -91 
Q 1894 -91 1617 61 
Q 1341 213 1159 525 
z
M 3116 1747 
Q 3116 2381 2855 2742 
Q 2594 3103 2138 3103 
Q 1681 3103 1420 2742 
Q 1159 2381 1159 1747 
Q 1159 1113 1420 752 
Q 1681 391 2138 391 
Q 2594 391 2855 752 
Q 3116 1113 3116 1747 
z
" transform="scale(0.015625)"/>
      <path id="DejaVuSans-430" d="M 2194 1759 
Q 1497 1759 1228 1600 
Q 959 1441 959 1056 
Q 959 750 1161 570 
Q 1363 391 1709 391 
Q 2188 391 2477 730 
Q 2766 1069 2766 1631 
L 2766 1759 
L 2194 1759 
z
M 3341 1997 
L 3341 0 
L 2766 0 
L 2766 531 
Q 2569 213 2275 61 
Q 1981 -91 1556 -91 
Q 1019 -91 701 211 
Q 384 513 384 1019 
Q 384 1609 779 1909 
Q 1175 2209 1959 2209 
L 2766 2209 
L 2766 2266 
Q 2766 2663 2505 2880 
Q 2244 3097 1772 3097 
Q 1472 3097 1187 3025 
Q 903 2953 641 2809 
L 641 3341 
Q 956 3463 1253 3523 
Q 1550 3584 1831 3584 
Q 2591 3584 2966 3190 
Q 3341 2797 3341 1997 
z
" transform="scale(0.015625)"/>
      <path id="DejaVuSans-43a" d="M 581 3500 
L 1153 3500 
L 1153 1856 
L 2775 3500 
L 3481 3500 
L 2144 2147 
L 3653 0 
L 3009 0 
L 1769 1766 
L 1153 1141 
L 1153 0 
L 581 0 
L 581 3500 
z
" transform="scale(0.015625)"/>
      <path id="DejaVuSans-43e" d="M 1959 3097 
Q 1497 3097 1228 2736 
Q 959 2375 959 1747 
Q 959 1119 1226 758 
Q 1494 397 1959 397 
Q 2419 397 2687 759 
Q 2956 1122 2956 1747 
Q 2956 2369 2687 2733 
Q 2419 3097 1959 3097 
z
M 1959 3584 
Q 2709 3584 3137 3096 
Q 3566 2609 3566 1747 
Q 3566 888 3137 398 
Q 2709 -91 1959 -91 
Q 1206 -91 779 398 
Q 353 888 353 1747 
Q 353 2609 779 3096 
Q 1206 3584 1959 3584 
z
" transform="scale(0.015625)"/>
      <path id="DejaVuSans-41c" d="M 628 4666 
L 1569 4666 
L 2759 1491 
L 3956 4666 
L 4897 4666 
L 4897 0 
L 4281 0 
L 4281 4097 
L 3078 897 
L 2444 897 
L 1241 4097 
L 1241 0 
L 628 0 
L 628 4666 
z
" transform="scale(0.015625)"/>
      <path id="DejaVuSans-44d" d="M 353 666 
Q 847 397 1338 397 
Q 1797 397 2125 664 
Q 2453 931 2513 1613 
L 738 1613 
L 738 2072 
L 2494 2072 
Q 2456 2400 2207 2748 
Q 1959 3097 1338 3097 
Q 856 3097 353 2828 
L 353 3366 
Q 844 3584 1363 3584 
Q 2181 3584 2651 3089 
Q 3122 2594 3122 1747 
Q 3122 903 2664 406 
Q 2206 -91 1403 -91 
Q 813 -91 353 134 
L 353 666 
z
" transform="scale(0.015625)"/>
      <path id="DejaVuSans-438" d="M 3578 3500 
L 3578 0 
L 3006 0 
L 3006 2809 
L 1319 0 
L 581 0 
L 581 3500 
L 1153 3500 
L 1153 697 
L 2838 3500 
L 3578 3500 
z
" transform="scale(0.015625)"/>
      <path id="DejaVuSans-2013" d="M 313 1978 
L 2888 1978 
L 2888 1528 
L 313 1528 
L 313 1978 
z
" transform="scale(0.015625)"/>
      <path id="DejaVuSans-413" d="M 628 0 
L 628 4666 
L 3531 4666 
L 3531 4134 
L 1259 4134 
L 1259 0 
L 628 0 
z
" transform="scale(0.015625)"/>
      <path id="DejaVuSans-43b" d="M 238 0 
L 238 478 
Q 806 566 981 959 
Q 1194 1513 1194 2928 
L 1194 3500 
L 3559 3500 
L 3559 0 
L 2984 0 
L 2984 3041 
L 1769 3041 
L 1769 2694 
Q 1769 1344 1494 738 
Q 1200 91 238 0 
z
" transform="scale(0.015625)"/>
      <path id="DejaVuSans-441" d="M 3122 3366 
L 3122 2828 
Q 2878 2963 2633 3030 
Q 2388 3097 2138 3097 
Q 1578 3097 1268 2742 
Q 959 2388 959 1747 
Q 959 1106 1268 751 
Q 1578 397 2138 397 
Q 2388 397 2633 464 
Q 2878 531 3122 666 
L 3122 134 
Q 2881 22 2623 -34 
Q 2366 -91 2075 -91 
Q 1284 -91 818 406 
Q 353 903 353 1747 
Q 353 2603 823 3093 
Q 1294 3584 2113 3584 
Q 2378 3584 2631 3529 
Q 2884 3475 3122 3366 
z
" transform="scale(0.015625)"/>
     </defs>
     <use xlink:href="#DejaVuSans-410"/>
     <use xlink:href="#DejaVuSans-442" x="68.408203"/>
     <use xlink:href="#DejaVuSans-442" x="126.660156"/>
     <use xlink:href="#DejaVuSans-440" x="184.912109"/>
     <use xlink:href="#DejaVuSans-430" x="248.388672"/>
     <use xlink:href="#DejaVuSans-43a" x="309.667969"/>
     <use xlink:href="#DejaVuSans-442" x="370.068359"/>
     <use xlink:href="#DejaVuSans-43e" x="428.320312"/>
     <use xlink:href="#DejaVuSans-440" x="489.501953"/>
     <use xlink:href="#DejaVuSans-20" x="552.978516"/>
     <use xlink:href="#DejaVuSans-41c" x="584.765625"/>
     <use xlink:href="#DejaVuSans-44d" x="671.044922"/>
     <use xlink:href="#DejaVuSans-43a" x="725.927734"/>
     <use xlink:href="#DejaVuSans-43a" x="786.328125"/>
     <use xlink:href="#DejaVuSans-438" x="846.728516"/>
     <use xlink:href="#DejaVuSans-2013" x="911.71875"/>
     <use xlink:href="#DejaVuSans-413" x="961.71875"/>
     <use xlink:href="#DejaVuSans-43b" x="1022.705078"/>
     <use xlink:href="#DejaVuSans-430" x="1086.621094"/>
     <use xlink:href="#DejaVuSans-441" x="1147.900391"/>
     <use xlink:href="#DejaVuSans-441" x="1202.880859"/>
     <use xlink:href="#DejaVuSans-430" x="1257.861328"/>
    </g>
   </g>
  </g>
 </g>
 <defs>
  <clipPath id="pd69d85cfde">
   <rect x="90" y="51.84" width="558" height="332.64"/>
  </clipPath>
 </defs>
</svg>
