<?xml version="1.0" encoding="utf-8" standalone="no"?>
<!DOCTYPE svg PUBLIC "-//W3C//DTD SVG 1.1//EN"
  "http://www.w3.org/Graphics/SVG/1.1/DTD/svg11.dtd">
<svg xmlns:xlink="http://www.w3.org/1999/xlink" width="576pt" height="324pt" viewBox="0 0 576 324" xmlns="http://www.w3.org/2000/svg" version="1.1">
 <metadata>
  <rdf:RDF xmlns:dc="http://purl.org/dc/elements/1.1/" xmlns:cc="http://creativecommons.org/ns#" xmlns:rdf="http://www.w3.org/1999/02/22-rdf-syntax-ns#">
   <cc:Work>
    <dc:type rdf:resource="http://purl.org/dc/dcmitype/StillImage"/>
    <dc:date>2025-12-29T01:51:21.745733</dc:date>
    <dc:format>image/svg+xml</dc:format>
    <dc:creator>
     <cc:Agent>
      <dc:title>Matplotlib v3.7.5, https://matplotlib.org/</dc:title>
     </cc:Agent>
    </dc:creator>
   </cc:Work>
  </rdf:RDF>
 </metadata>
 <defs>
  <style type="text/css">*{stroke-linejoin: round; stroke-linecap: butt}</style>
 </defs>
 <g id="figure_1">
  <g id="patch_1">
   <path d="M 0 324 
L 576 324 
L 576 0 
L 0 0 
z
" style="fill: #ffffff"/>
  </g>
  <g id="axes_1">
   <g id="patch_2">
    <path d="M 38.27 282.04 
L 565.2 282.04 
L 565.2 26.88 
L 38.27 26.88 
z
" style="fill: #ffffff"/>
   </g>
   <g id="matplotlib.axis_1">
    <g id="xtick_1">
     <g id="line2d_1">
      <path d="M 62.221364 282.04 
L 62.221364 26.88 
" clip-path="url(#pe11bd1f2bd)" style="fill: none; stroke: #b0b0b0; stroke-opacity: 0.3; stroke-width: 0.8; stroke-linecap: square"/>
     </g>
     <g id="line2d_2">
      <defs>
       <path id="m4771825af0" d="M 0 0 
L 0 3.5 
" style="stroke: #000000; stroke-width: 0.8"/>
      </defs>
      <g>
       <use xlink:href="#m4771825af0" x="62.221364" y="282.04" style="stroke: #000000; stroke-width: 0.8"/>
      </g>
     </g>
     <g id="text_1">
      <!-- 0.0 -->
      <g transform="translate(54.269801 296.638438) scale(0.1 -0.1)">
       <defs>
        <path id="DejaVuSans-30" d="M 2034 4250 
Q 1547 4250 1301 3770 
Q 1056 3291 1056 2328 
Q 1056 1369 1301 889 
Q 1547 409 2034 409 
Q 2525 409 2770 889 
Q 3016 1369 3016 2328 
Q 3016 3291 2770 3770 
Q 2525 4250 2034 4250 
z
M 2034 4750 
Q 2819 4750 3233 4129 
Q 3647 3509 3647 2328 
Q 3647 1150 3233 529 
Q 2819 -91 2034 -91 
Q 1250 -91 836 529 
Q 422 1150 422 2328 
Q 422 3509 836 4129 
Q 1250 4750 2034 4750 
z
" transform="scale(0.015625)"/>
        <path id="DejaVuSans-2e" d="M 684 794 
L 1344 794 
L 1344 0 
L 684 0 
L 684 794 
z
" transform="scale(0.015625)"/>
       </defs>
       <use xlink:href="#DejaVuSans-30"/>
       <use xlink:href="#DejaVuSans-2e" x="63.623047"/>
       <use xlink:href="#DejaVuSans-30" x="95.410156"/>
      </g>
     </g>
    </g>
    <g id="xtick_2">
     <g id="line2d_3">
      <path d="M 122.099773 282.04 
L 122.099773 26.88 
" clip-path="url(#pe11bd1f2bd)" style="fill: none; stroke: #b0b0b0; stroke-opacity: 0.3; stroke-width: 0.8; stroke-linecap: square"/>
     </g>
     <g id="line2d_4">
      <g>
       <use xlink:href="#m4771825af0" x="122.099773" y="282.04" style="stroke: #000000; stroke-width: 0.8"/>
      </g>
     </g>
     <g id="text_2">
      <!-- 2.5 -->
      <g transform="translate(114.14821 296.638438) scale(0.1 -0.1)">
       <defs>
        <path id="DejaVuSans-32" d="M 1228 531 
L 3431 531 
L 3431 0 
L 469 0 
L 469 531 
Q 828 903 1448 1529 
Q 2069 2156 2228 2338 
Q 2531 2678 2651 2914 
Q 2772 3150 2772 3378 
Q 2772 3750 2511 3984 
Q 2250 4219 1831 4219 
Q 1534 4219 1204 4116 
Q 875 4013 500 3803 
L 500 4441 
Q 881 4594 1212 4672 
Q 1544 4750 1819 4750 
Q 2544 4750 2975 4387 
Q 3406 4025 3406 3419 
Q 3406 3131 3298 2873 
Q 3191 2616 2906 2266 
Q 2828 2175 2409 1742 
Q 1991 1309 1228 531 
z
" transform="scale(0.015625)"/>
        <path id="DejaVuSans-35" d="M 691 4666 
L 3169 4666 
L 3169 4134 
L 1269 4134 
L 1269 2991 
Q 1406 3038 1543 3061 
Q 1681 3084 1819 3084 
Q 2600 3084 3056 2656 
Q 3513 2228 3513 1497 
Q 3513 744 3044 326 
Q 2575 -91 1722 -91 
Q 1428 -91 1123 -41 
Q 819 9 494 109 
L 494 744 
Q 775 591 1075 516 
Q 1375 441 1709 441 
Q 2250 441 2565 725 
Q 2881 1009 2881 1497 
Q 2881 1984 2565 2268 
Q 2250 2553 1709 2553 
Q 1456 2553 1204 2497 
Q 953 2441 691 2322 
L 691 4666 
z
" transform="scale(0.015625)"/>
       </defs>
       <use xlink:href="#DejaVuSans-32"/>
       <use xlink:href="#DejaVuSans-2e" x="63.623047"/>
       <use xlink:href="#DejaVuSans-35" x="95.410156"/>
      </g>
     </g>
    </g>
    <g id="xtick_3">
     <g id="line2d_5">
      <path d="M 181.978182 282.04 
L 181.978182 26.88 
" clip-path="url(#pe11bd1f2bd)" style="fill: none; stroke: #b0b0b0; stroke-opacity: 0.3; stroke-width: 0.8; stroke-linecap: square"/>
     </g>
     <g id="line2d_6">
      <g>
       <use xlink:href="#m4771825af0" x="181.978182" y="282.04" style="stroke: #000000; stroke-width: 0.8"/>
      </g>
     </g>
     <g id="text_3">
      <!-- 5.0 -->
      <g transform="translate(174.026619 296.638438) scale(0.1 -0.1)">
       <use xlink:href="#DejaVuSans-35"/>
       <use xlink:href="#DejaVuSans-2e" x="63.623047"/>
       <use xlink:href="#DejaVuSans-30" x="95.410156"/>
      </g>
     </g>
    </g>
    <g id="xtick_4">
     <g id="line2d_7">
      <path d="M 241.856591 282.04 
L 241.856591 26.88 
" clip-path="url(#pe11bd1f2bd)" style="fill: none; stroke: #b0b0b0; stroke-opacity: 0.3; stroke-width: 0.8; stroke-linecap: square"/>
     </g>
     <g id="line2d_8">
      <g>
       <use xlink:href="#m4771825af0" x="241.856591" y="282.04" style="stroke: #000000; stroke-width: 0.8"/>
      </g>
     </g>
     <g id="text_4">
      <!-- 7.5 -->
      <g transform="translate(233.905028 296.638438) scale(0.1 -0.1)">
       <defs>
        <path id="DejaVuSans-37" d="M 525 4666 
L 3525 4666 
L 3525 4397 
L 1831 0 
L 1172 0 
L 2766 4134 
L 525 4134 
L 525 4666 
z
" transform="scale(0.015625)"/>
       </defs>
       <use xlink:href="#DejaVuSans-37"/>
       <use xlink:href="#DejaVuSans-2e" x="63.623047"/>
       <use xlink:href="#DejaVuSans-35" x="95.410156"/>
      </g>
     </g>
    </g>
    <g id="xtick_5">
     <g id="line2d_9">
      <path d="M 301.735 282.04 
L 301.735 26.88 
" clip-path="url(#pe11bd1f2bd)" style="fill: none; stroke: #b0b0b0; stroke-opacity: 0.3; stroke-width: 0.8; stroke-linecap: square"/>
     </g>
     <g id="line2d_10">
      <g>
       <use xlink:href="#m4771825af0" x="301.735" y="282.04" style="stroke: #000000; stroke-width: 0.8"/>
      </g>
     </g>
     <g id="text_5">
      <!-- 10.0 -->
      <g transform="translate(290.602188 296.638438) scale(0.1 -0.1)">
       <defs>
        <path id="DejaVuSans-31" d="M 794 531 
L 1825 531 
L 1825 4091 
L 703 3866 
L 703 4441 
L 1819 4666 
L 2450 4666 
L 2450 531 
L 3481 531 
L 3481 0 
L 794 0 
L 794 531 
z
" transform="scale(0.015625)"/>
       </defs>
       <use xlink:href="#DejaVuSans-31"/>
       <use xlink:href="#DejaVuSans-30" x="63.623047"/>
       <use xlink:href="#DejaVuSans-2e" x="127.246094"/>
       <use xlink:href="#DejaVuSans-30" x="159.033203"/>
      </g>
     </g>
    </g>
    <g id="xtick_6">
     <g id="line2d_11">
      <path d="M 361.613409 282.04 
L 361.613409 26.88 
" clip-path="url(#pe11bd1f2bd)" style="fill: none; stroke: #b0b0b0; stroke-opacity: 0.3; stroke-width: 0.8; stroke-linecap: square"/>
     </g>
     <g id="line2d_12">
      <g>
       <use xlink:href="#m4771825af0" x="361.613409" y="282.04" style="stroke: #000000; stroke-width: 0.8"/>
      </g>
     </g>
     <g id="text_6">
      <!-- 12.5 -->
      <g transform="translate(350.480597 296.638438) scale(0.1 -0.1)">
       <use xlink:href="#DejaVuSans-31"/>
       <use xlink:href="#DejaVuSans-32" x="63.623047"/>
       <use xlink:href="#DejaVuSans-2e" x="127.246094"/>
       <use xlink:href="#DejaVuSans-35" x="159.033203"/>
      </g>
     </g>
    </g>
    <g id="xtick_7">
     <g id="line2d_13">
      <path d="M 421.491818 282.04 
L 421.491818 26.88 
" clip-path="url(#pe11bd1f2bd)" style="fill: none; stroke: #b0b0b0; stroke-opacity: 0.3; stroke-width: 0.8; stroke-linecap: square"/>
     </g>
     <g id="line2d_14">
      <g>
       <use xlink:href="#m4771825af0" x="421.491818" y="282.04" style="stroke: #000000; stroke-width: 0.8"/>
      </g>
     </g>
     <g id="text_7">
      <!-- 15.0 -->
      <g transform="translate(410.359006 296.638438) scale(0.1 -0.1)">
       <use xlink:href="#DejaVuSans-31"/>
       <use xlink:href="#DejaVuSans-35" x="63.623047"/>
       <use xlink:href="#DejaVuSans-2e" x="127.246094"/>
       <use xlink:href="#DejaVuSans-30" x="159.033203"/>
      </g>
     </g>
    </g>
    <g id="xtick_8">
     <g id="line2d_15">
      <path d="M 481.370227 282.04 
L 481.370227 26.88 
" clip-path="url(#pe11bd1f2bd)" style="fill: none; stroke: #b0b0b0; stroke-opacity: 0.3; stroke-width: 0.8; stroke-linecap: square"/>
     </g>
     <g id="line2d_16">
      <g>
       <use xlink:href="#m4771825af0" x="481.370227" y="282.04" style="stroke: #000000; stroke-width: 0.8"/>
      </g>
     </g>
     <g id="text_8">
      <!-- 17.5 -->
      <g transform="translate(470.237415 296.638438) scale(0.1 -0.1)">
       <use xlink:href="#DejaVuSans-31"/>
       <use xlink:href="#DejaVuSans-37" x="63.623047"/>
       <use xlink:href="#DejaVuSans-2e" x="127.246094"/>
       <use xlink:href="#DejaVuSans-35" x="159.033203"/>
      </g>
     </g>
    </g>
    <g id="xtick_9">
     <g id="line2d_17">
      <path d="M 541.248636 282.04 
L 541.248636 26.88 
" clip-path="url(#pe11bd1f2bd)" style="fill: none; stroke: #b0b0b0; stroke-opacity: 0.3; stroke-width: 0.8; stroke-linecap: square"/>
     </g>
     <g id="line2d_18">
      <g>
       <use xlink:href="#m4771825af0" x="541.248636" y="282.04" style="stroke: #000000; stroke-width: 0.8"/>
      </g>
     </g>
     <g id="text_9">
      <!-- 20.0 -->
      <g transform="translate(530.115824 296.638438) scale(0.1 -0.1)">
       <use xlink:href="#DejaVuSans-32"/>
       <use xlink:href="#DejaVuSans-30" x="63.623047"/>
       <use xlink:href="#DejaVuSans-2e" x="127.246094"/>
       <use xlink:href="#DejaVuSans-30" x="159.033203"/>
      </g>
     </g>
    </g>
    <g id="text_10">
     <!-- Time (min) -->
     <g transform="translate(274.582656 310.316563) scale(0.1 -0.1)">
      <defs>
       <path id="DejaVuSans-54" d="M -19 4666 
L 3928 4666 
L 3928 4134 
L 2272 4134 
L 2272 0 
L 1638 0 
L 1638 4134 
L -19 4134 
L -19 4666 
z
" transform="scale(0.015625)"/>
       <path id="DejaVuSans-69" d="M 603 3500 
L 1178 3500 
L 1178 0 
L 603 0 
L 603 3500 
z
M 603 4863 
L 1178 4863 
L 1178 4134 
L 603 4134 
L 603 4863 
z
" transform="scale(0.015625)"/>
       <path id="DejaVuSans-6d" d="M 3328 2828 
Q 3544 3216 3844 3400 
Q 4144 3584 4550 3584 
Q 5097 3584 5394 3201 
Q 5691 2819 5691 2113 
L 5691 0 
L 5113 0 
L 5113 2094 
Q 5113 2597 4934 2840 
Q 4756 3084 4391 3084 
Q 3944 3084 3684 2787 
Q 3425 2491 3425 1978 
L 3425 0 
L 2847 0 
L 2847 2094 
Q 2847 2600 2669 2842 
Q 2491 3084 2119 3084 
Q 1678 3084 1418 2786 
Q 1159 2488 1159 1978 
L 1159 0 
L 581 0 
L 581 3500 
L 1159 3500 
L 1159 2956 
Q 1356 3278 1631 3431 
Q 1906 3584 2284 3584 
Q 2666 3584 2933 3390 
Q 3200 3197 3328 2828 
z
" transform="scale(0.015625)"/>
       <path id="DejaVuSans-65" d="M 3597 1894 
L 3597 1613 
L 953 1613 
Q 991 1019 1311 708 
Q 1631 397 2203 397 
Q 2534 397 2845 478 
Q 3156 559 3463 722 
L 3463 178 
Q 3153 47 2828 -22 
Q 2503 -91 2169 -91 
Q 1331 -91 842 396 
Q 353 884 353 1716 
Q 353 2575 817 3079 
Q 1281 3584 2069 3584 
Q 2775 3584 3186 3129 
Q 3597 2675 3597 1894 
z
M 3022 2063 
Q 3016 2534 2758 2815 
Q 2500 3097 2075 3097 
Q 1594 3097 1305 2825 
Q 1016 2553 972 2059 
L 3022 2063 
z
" transform="scale(0.015625)"/>
       <path id="DejaVuSans-20" transform="scale(0.015625)"/>
       <path id="DejaVuSans-28" d="M 1984 4856 
Q 1566 4138 1362 3434 
Q 1159 2731 1159 2009 
Q 1159 1288 1364 580 
Q 1569 -128 1984 -844 
L 1484 -844 
Q 1016 -109 783 600 
Q 550 1309 550 2009 
Q 550 2706 781 3412 
Q 1013 4119 1484 4856 
L 1984 4856 
z
" transform="scale(0.015625)"/>
       <path id="DejaVuSans-6e" d="M 3513 2113 
L 3513 0 
L 2938 0 
L 2938 2094 
Q 2938 2591 2744 2837 
Q 2550 3084 2163 3084 
Q 1697 3084 1428 2787 
Q 1159 2491 1159 1978 
L 1159 0 
L 581 0 
L 581 3500 
L 1159 3500 
L 1159 2956 
Q 1366 3272 1645 3428 
Q 1925 3584 2291 3584 
Q 2894 3584 3203 3211 
Q 3513 2838 3513 2113 
z
" transform="scale(0.015625)"/>
       <path id="DejaVuSans-29" d="M 513 4856 
L 1013 4856 
Q 1481 4119 1714 3412 
Q 1947 2706 1947 2009 
Q 1947 1309 1714 600 
Q 1481 -109 1013 -844 
L 513 -844 
Q 928 -128 1133 580 
Q 1338 1288 1338 2009 
Q 1338 2731 1133 3434 
Q 928 4138 513 4856 
z
" transform="scale(0.015625)"/>
      </defs>
      <use xlink:href="#DejaVuSans-54"/>
      <use xlink:href="#DejaVuSans-69" x="57.958984"/>
      <use xlink:href="#DejaVuSans-6d" x="85.742188"/>
      <use xlink:href="#DejaVuSans-65" x="183.154297"/>
      <use xlink:href="#DejaVuSans-20" x="244.677734"/>
      <use xlink:href="#DejaVuSans-28" x="276.464844"/>
      <use xlink:href="#DejaVuSans-6d" x="315.478516"/>
      <use xlink:href="#DejaVuSans-69" x="412.890625"/>
      <use xlink:href="#DejaVuSans-6e" x="440.673828"/>
      <use xlink:href="#DejaVuSans-29" x="504.052734"/>
     </g>
    </g>
   </g>
   <g id="matplotlib.axis_2">
    <g id="ytick_1">
     <g id="line2d_19">
      <path d="M 38.27 261.103681 
L 565.2 261.103681 
" clip-path="url(#pe11bd1f2bd)" style="fill: none; stroke: #b0b0b0; stroke-opacity: 0.3; stroke-width: 0.8; stroke-linecap: square"/>
     </g>
     <g id="line2d_20">
      <defs>
       <path id="ma3ad133df7" d="M 0 0 
L -3.5 0 
" style="stroke: #000000; stroke-width: 0.8"/>
      </defs>
      <g>
       <use xlink:href="#ma3ad133df7" x="38.27" y="261.103681" style="stroke: #000000; stroke-width: 0.8"/>
      </g>
     </g>
     <g id="text_11">
      <!-- 1 -->
      <g transform="translate(24.9075 264.9029) scale(0.1 -0.1)">
       <use xlink:href="#DejaVuSans-31"/>
      </g>
     </g>
    </g>
    <g id="ytick_2">
     <g id="line2d_21">
      <path d="M 38.27 231.062486 
L 565.2 231.062486 
" clip-path="url(#pe11bd1f2bd)" style="fill: none; stroke: #b0b0b0; stroke-opacity: 0.3; stroke-width: 0.8; stroke-linecap: square"/>
     </g>
     <g id="line2d_22">
      <g>
       <use xlink:href="#ma3ad133df7" x="38.27" y="231.062486" style="stroke: #000000; stroke-width: 0.8"/>
      </g>
     </g>
     <g id="text_12">
      <!-- 2 -->
      <g transform="translate(24.9075 234.861704) scale(0.1 -0.1)">
       <use xlink:href="#DejaVuSans-32"/>
      </g>
     </g>
    </g>
    <g id="ytick_3">
     <g id="line2d_23">
      <path d="M 38.27 201.02129 
L 565.2 201.02129 
" clip-path="url(#pe11bd1f2bd)" style="fill: none; stroke: #b0b0b0; stroke-opacity: 0.3; stroke-width: 0.8; stroke-linecap: square"/>
     </g>
     <g id="line2d_24">
      <g>
       <use xlink:href="#ma3ad133df7" x="38.27" y="201.02129" style="stroke: #000000; stroke-width: 0.8"/>
      </g>
     </g>
     <g id="text_13">
      <!-- 3 -->
      <g transform="translate(24.9075 204.820508) scale(0.1 -0.1)">
       <defs>
        <path id="DejaVuSans-33" d="M 2597 2516 
Q 3050 2419 3304 2112 
Q 3559 1806 3559 1356 
Q 3559 666 3084 287 
Q 2609 -91 1734 -91 
Q 1441 -91 1130 -33 
Q 819 25 488 141 
L 488 750 
Q 750 597 1062 519 
Q 1375 441 1716 441 
Q 2309 441 2620 675 
Q 2931 909 2931 1356 
Q 2931 1769 2642 2001 
Q 2353 2234 1838 2234 
L 1294 2234 
L 1294 2753 
L 1863 2753 
Q 2328 2753 2575 2939 
Q 2822 3125 2822 3475 
Q 2822 3834 2567 4026 
Q 2313 4219 1838 4219 
Q 1578 4219 1281 4162 
Q 984 4106 628 3988 
L 628 4550 
Q 988 4650 1302 4700 
Q 1616 4750 1894 4750 
Q 2613 4750 3031 4423 
Q 3450 4097 3450 3541 
Q 3450 3153 3228 2886 
Q 3006 2619 2597 2516 
z
" transform="scale(0.015625)"/>
       </defs>
       <use xlink:href="#DejaVuSans-33"/>
      </g>
     </g>
    </g>
    <g id="ytick_4">
     <g id="line2d_25">
      <path d="M 38.27 170.980094 
L 565.2 170.980094 
" clip-path="url(#pe11bd1f2bd)" style="fill: none; stroke: #b0b0b0; stroke-opacity: 0.3; stroke-width: 0.8; stroke-linecap: square"/>
     </g>
     <g id="line2d_26">
      <g>
       <use xlink:href="#ma3ad133df7" x="38.27" y="170.980094" style="stroke: #000000; stroke-width: 0.8"/>
      </g>
     </g>
     <g id="text_14">
      <!-- 4 -->
      <g transform="translate(24.9075 174.779313) scale(0.1 -0.1)">
       <defs>
        <path id="DejaVuSans-34" d="M 2419 4116 
L 825 1625 
L 2419 1625 
L 2419 4116 
z
M 2253 4666 
L 3047 4666 
L 3047 1625 
L 3713 1625 
L 3713 1100 
L 3047 1100 
L 3047 0 
L 2419 0 
L 2419 1100 
L 313 1100 
L 313 1709 
L 2253 4666 
z
" transform="scale(0.015625)"/>
       </defs>
       <use xlink:href="#DejaVuSans-34"/>
      </g>
     </g>
    </g>
    <g id="ytick_5">
     <g id="line2d_27">
      <path d="M 38.27 140.938898 
L 565.2 140.938898 
" clip-path="url(#pe11bd1f2bd)" style="fill: none; stroke: #b0b0b0; stroke-opacity: 0.3; stroke-width: 0.8; stroke-linecap: square"/>
     </g>
     <g id="line2d_28">
      <g>
       <use xlink:href="#ma3ad133df7" x="38.27" y="140.938898" style="stroke: #000000; stroke-width: 0.8"/>
      </g>
     </g>
     <g id="text_15">
      <!-- 5 -->
      <g transform="translate(24.9075 144.738117) scale(0.1 -0.1)">
       <use xlink:href="#DejaVuSans-35"/>
      </g>
     </g>
    </g>
    <g id="ytick_6">
     <g id="line2d_29">
      <path d="M 38.27 110.897702 
L 565.2 110.897702 
" clip-path="url(#pe11bd1f2bd)" style="fill: none; stroke: #b0b0b0; stroke-opacity: 0.3; stroke-width: 0.8; stroke-linecap: square"/>
     </g>
     <g id="line2d_30">
      <g>
       <use xlink:href="#ma3ad133df7" x="38.27" y="110.897702" style="stroke: #000000; stroke-width: 0.8"/>
      </g>
     </g>
     <g id="text_16">
      <!-- 6 -->
      <g transform="translate(24.9075 114.696921) scale(0.1 -0.1)">
       <defs>
        <path id="DejaVuSans-36" d="M 2113 2584 
Q 1688 2584 1439 2293 
Q 1191 2003 1191 1497 
Q 1191 994 1439 701 
Q 1688 409 2113 409 
Q 2538 409 2786 701 
Q 3034 994 3034 1497 
Q 3034 2003 2786 2293 
Q 2538 2584 2113 2584 
z
M 3366 4563 
L 3366 3988 
Q 3128 4100 2886 4159 
Q 2644 4219 2406 4219 
Q 1781 4219 1451 3797 
Q 1122 3375 1075 2522 
Q 1259 2794 1537 2939 
Q 1816 3084 2150 3084 
Q 2853 3084 3261 2657 
Q 3669 2231 3669 1497 
Q 3669 778 3244 343 
Q 2819 -91 2113 -91 
Q 1303 -91 875 529 
Q 447 1150 447 2328 
Q 447 3434 972 4092 
Q 1497 4750 2381 4750 
Q 2619 4750 2861 4703 
Q 3103 4656 3366 4563 
z
" transform="scale(0.015625)"/>
       </defs>
       <use xlink:href="#DejaVuSans-36"/>
      </g>
     </g>
    </g>
    <g id="ytick_7">
     <g id="line2d_31">
      <path d="M 38.27 80.856507 
L 565.2 80.856507 
" clip-path="url(#pe11bd1f2bd)" style="fill: none; stroke: #b0b0b0; stroke-opacity: 0.3; stroke-width: 0.8; stroke-linecap: square"/>
     </g>
     <g id="line2d_32">
      <g>
       <use xlink:href="#ma3ad133df7" x="38.27" y="80.856507" style="stroke: #000000; stroke-width: 0.8"/>
      </g>
     </g>
     <g id="text_17">
      <!-- 7 -->
      <g transform="translate(24.9075 84.655725) scale(0.1 -0.1)">
       <use xlink:href="#DejaVuSans-37"/>
      </g>
     </g>
    </g>
    <g id="ytick_8">
     <g id="line2d_33">
      <path d="M 38.27 50.815311 
L 565.2 50.815311 
" clip-path="url(#pe11bd1f2bd)" style="fill: none; stroke: #b0b0b0; stroke-opacity: 0.3; stroke-width: 0.8; stroke-linecap: square"/>
     </g>
     <g id="line2d_34">
      <g>
       <use xlink:href="#ma3ad133df7" x="38.27" y="50.815311" style="stroke: #000000; stroke-width: 0.8"/>
      </g>
     </g>
     <g id="text_18">
      <!-- 8 -->
      <g transform="translate(24.9075 54.614529) scale(0.1 -0.1)">
       <defs>
        <path id="DejaVuSans-38" d="M 2034 2216 
Q 1584 2216 1326 1975 
Q 1069 1734 1069 1313 
Q 1069 891 1326 650 
Q 1584 409 2034 409 
Q 2484 409 2743 651 
Q 3003 894 3003 1313 
Q 3003 1734 2745 1975 
Q 2488 2216 2034 2216 
z
M 1403 2484 
Q 997 2584 770 2862 
Q 544 3141 544 3541 
Q 544 4100 942 4425 
Q 1341 4750 2034 4750 
Q 2731 4750 3128 4425 
Q 3525 4100 3525 3541 
Q 3525 3141 3298 2862 
Q 3072 2584 2669 2484 
Q 3125 2378 3379 2068 
Q 3634 1759 3634 1313 
Q 3634 634 3220 271 
Q 2806 -91 2034 -91 
Q 1263 -91 848 271 
Q 434 634 434 1313 
Q 434 1759 690 2068 
Q 947 2378 1403 2484 
z
M 1172 3481 
Q 1172 3119 1398 2916 
Q 1625 2713 2034 2713 
Q 2441 2713 2670 2916 
Q 2900 3119 2900 3481 
Q 2900 3844 2670 4047 
Q 2441 4250 2034 4250 
Q 1625 4250 1398 4047 
Q 1172 3844 1172 3481 
z
" transform="scale(0.015625)"/>
       </defs>
       <use xlink:href="#DejaVuSans-38"/>
      </g>
     </g>
    </g>
    <g id="text_19">
     <!-- Content C -->
     <g transform="translate(18.827813 179.425625) rotate(-90) scale(0.1 -0.1)">
      <defs>
       <path id="DejaVuSans-43" d="M 4122 4306 
L 4122 3641 
Q 3803 3938 3442 4084 
Q 3081 4231 2675 4231 
Q 1875 4231 1450 3742 
Q 1025 3253 1025 2328 
Q 1025 1406 1450 917 
Q 1875 428 2675 428 
Q 3081 428 3442 575 
Q 3803 722 4122 1019 
L 4122 359 
Q 3791 134 3420 21 
Q 3050 -91 2638 -91 
Q 1578 -91 968 557 
Q 359 1206 359 2328 
Q 359 3453 968 4101 
Q 1578 4750 2638 4750 
Q 3056 4750 3426 4639 
Q 3797 4528 4122 4306 
z
" transform="scale(0.015625)"/>
       <path id="DejaVuSans-6f" d="M 1959 3097 
Q 1497 3097 1228 2736 
Q 959 2375 959 1747 
Q 959 1119 1226 758 
Q 1494 397 1959 397 
Q 2419 397 2687 759 
Q 2956 1122 2956 1747 
Q 2956 2369 2687 2733 
Q 2419 3097 1959 3097 
z
M 1959 3584 
Q 2709 3584 3137 3096 
Q 3566 2609 3566 1747 
Q 3566 888 3137 398 
Q 2709 -91 1959 -91 
Q 1206 -91 779 398 
Q 353 888 353 1747 
Q 353 2609 779 3096 
Q 1206 3584 1959 3584 
z
" transform="scale(0.015625)"/>
       <path id="DejaVuSans-74" d="M 1172 4494 
L 1172 3500 
L 2356 3500 
L 2356 3053 
L 1172 3053 
L 1172 1153 
Q 1172 725 1289 603 
Q 1406 481 1766 481 
L 2356 481 
L 2356 0 
L 1766 0 
Q 1100 0 847 248 
Q 594 497 594 1153 
L 594 3053 
L 172 3053 
L 172 3500 
L 594 3500 
L 594 4494 
L 1172 4494 
z
" transform="scale(0.015625)"/>
      </defs>
      <use xlink:href="#DejaVuSans-43"/>
      <use xlink:href="#DejaVuSans-6f" x="69.824219"/>
      <use xlink:href="#DejaVuSans-6e" x="131.005859"/>
      <use xlink:href="#DejaVuSans-74" x="194.384766"/>
      <use xlink:href="#DejaVuSans-65" x="233.59375"/>
      <use xlink:href="#DejaVuSans-6e" x="295.117188"/>
      <use xlink:href="#DejaVuSans-74" x="358.496094"/>
      <use xlink:href="#DejaVuSans-20" x="397.705078"/>
      <use xlink:href="#DejaVuSans-43" x="429.492188"/>
     </g>
    </g>
   </g>
   <g id="line2d_35">
    <path d="M 62.221364 65.835909 
L 64.139391 60.959927 
L 65.577911 57.82199 
L 67.016431 55.111858 
L 68.454952 52.811364 
L 70.372979 50.245827 
L 72.291006 48.107801 
L 74.209033 46.279055 
L 76.606567 44.328944 
L 78.045087 43.393222 
L 79.963114 42.479461 
L 85.717196 40.405451 
L 90.032757 39.447763 
L 91.950784 39.253864 
L 114.008096 38.537996 
L 117.364643 38.869233 
L 123.118725 39.455019 
L 132.70886 39.424157 
L 134.626887 39.537175 
L 137.983435 39.40781 
L 145.655543 39.592738 
L 149.491598 39.543314 
L 153.327652 39.361649 
L 156.204692 39.472232 
L 158.12272 39.655073 
L 168.671869 40.737532 
L 171.069403 40.842796 
L 173.946443 41.185849 
L 176.343977 41.431775 
L 184.975099 42.288417 
L 188.331647 42.836742 
L 190.729181 43.164604 
L 192.647208 43.418246 
L 195.044742 43.639713 
L 206.073397 44.853301 
L 211.347972 44.993952 
L 213.745506 45.228232 
L 217.58156 45.869627 
L 220.458601 46.061925 
L 223.335642 46.162051 
L 226.692189 46.677544 
L 229.089723 46.928199 
L 232.925777 47.139889 
L 237.720845 47.31594 
L 243.474926 47.679724 
L 244.43394 47.759833 
L 249.229008 47.65519 
L 254.503582 47.871237 
L 264.093718 49.275713 
L 267.929772 49.774819 
L 270.327306 50.108346 
L 272.72484 50.240368 
L 275.601881 50.384807 
L 278.958428 50.731298 
L 286.15103 51.767551 
L 288.069057 51.785782 
L 290.466591 51.703106 
L 295.261658 51.87089 
L 304.372287 52.443872 
L 307.249328 52.489353 
L 309.646862 52.277854 
L 311.564889 52.255365 
L 318.757491 53.110939 
L 322.593545 53.906443 
L 324.511572 54.33086 
L 327.868119 55.015839 
L 336.499242 56.962349 
L 339.855789 57.316478 
L 346.568884 57.683546 
L 353.281979 57.913972 
L 359.515567 58.749167 
L 363.351621 59.57935 
L 364.790142 59.883236 
L 368.146689 60.468747 
L 370.544223 61.092533 
L 373.421264 61.909728 
L 375.339291 62.160232 
L 378.695838 62.643591 
L 383.011399 63.435885 
L 384.929426 63.700349 
L 397.396603 65.262591 
L 402.671177 66.330177 
L 415.138353 69.255448 
L 417.535887 69.595723 
L 419.933421 69.958949 
L 423.769475 70.242883 
L 427.126023 70.547331 
L 434.798131 71.286329 
L 439.113692 71.797393 
L 443.429253 72.036418 
L 446.785801 72.710078 
L 455.89643 75.263901 
L 458.77347 75.859097 
L 463.089031 76.871639 
L 465.007058 77.36441 
L 468.363606 78.469642 
L 472.679167 80.309467 
L 476.515221 81.984945 
L 479.871769 83.645031 
L 481.789796 84.698053 
L 485.62585 87.035668 
L 492.818452 91.411209 
L 494.736479 92.529359 
L 498.093026 94.261516 
L 500.49056 95.08921 
L 505.285628 96.99319 
L 508.642175 98.443082 
L 514.396257 101.458614 
L 516.793791 103.096988 
L 519.670831 104.999764 
L 523.506886 107.370315 
L 528.78146 110.19045 
L 533.097021 112.251362 
L 537.412582 114.447992 
L 541.248636 116.754184 
L 541.248636 116.754184 
" clip-path="url(#pe11bd1f2bd)" style="fill: none; stroke: #1f77b4; stroke-width: 2; stroke-linecap: square"/>
   </g>
   <g id="line2d_36">
    <path d="M 62.221364 65.835909 
L 65.098404 72.27416 
L 68.454952 79.372488 
L 71.331992 85.133294 
L 75.168047 92.279622 
L 77.565581 96.363703 
L 82.360648 103.979223 
L 84.278675 106.736728 
L 89.073743 114.01491 
L 91.950784 117.918766 
L 94.827825 121.520236 
L 97.225359 124.294342 
L 101.061413 128.39953 
L 106.335987 133.524228 
L 112.090069 138.362939 
L 116.885137 142.088355 
L 121.200698 144.936621 
L 124.077738 146.724123 
L 125.995765 148.09377 
L 127.913792 149.470276 
L 130.311326 150.968374 
L 139.421955 156.317903 
L 141.819489 157.292059 
L 147.094064 159.310222 
L 160.040747 162.463041 
L 164.356308 163.127558 
L 174.42595 164.767121 
L 180.659538 165.905671 
L 184.016086 166.038826 
L 189.770167 166.018806 
L 197.442275 166.540252 
L 201.757836 167.243363 
L 205.114384 168.035251 
L 206.552904 168.487574 
L 209.429945 169.340945 
L 214.70452 170.872585 
L 216.14304 171.238575 
L 223.335642 173.011852 
L 226.212682 173.742848 
L 231.487257 175.004522 
L 234.364297 175.876416 
L 238.679858 177.578414 
L 240.118379 178.002412 
L 242.515913 178.694351 
L 245.87246 179.628368 
L 247.790487 179.979126 
L 249.708514 180.345648 
L 255.942103 181.815476 
L 257.86013 182.597867 
L 264.573225 185.635207 
L 267.929772 187.345236 
L 269.847799 188.046693 
L 274.16336 189.568574 
L 277.040401 190.900293 
L 280.396948 192.419303 
L 285.192016 194.406138 
L 296.700179 199.947914 
L 301.495247 202.486115 
L 308.208342 206.549459 
L 315.88045 210.632184 
L 325.950092 216.673453 
L 337.458255 222.004994 
L 345.130364 225.40715 
L 350.404938 228.085947 
L 359.995074 233.800889 
L 371.982743 239.692357 
L 375.339291 241.247616 
L 382.531892 244.65603 
L 383.970413 245.112812 
L 385.88844 245.522483 
L 390.683508 246.192317 
L 398.355616 247.368619 
L 402.671177 247.981977 
L 407.466245 249.026831 
L 409.863779 249.763373 
L 413.699833 251.262179 
L 415.138353 251.75557 
L 426.646516 254.347432 
L 429.04405 254.805966 
L 435.757145 255.866399 
L 441.031719 256.111969 
L 444.388267 256.565053 
L 446.306294 257.043001 
L 448.703828 257.667141 
L 450.621855 257.893055 
L 454.457909 258.011145 
L 457.814457 258.204442 
L 468.363606 258.86163 
L 473.63818 259.417503 
L 476.994728 259.841975 
L 491.859438 260.746554 
L 494.736479 261.182245 
L 501.449574 261.861225 
L 507.203655 262.913488 
L 509.601189 263.429132 
L 516.314284 264.578893 
L 517.752804 264.694117 
L 523.986392 264.819369 
L 526.383926 265.044999 
L 529.740474 265.396564 
L 538.851102 265.808895 
L 541.248636 266.024112 
L 541.248636 266.024112 
" clip-path="url(#pe11bd1f2bd)" style="fill: none; stroke: #ff7f0e; stroke-width: 2; stroke-linecap: square"/>
   </g>
   <g id="line2d_37">
    <path d="M 62.221364 65.835909 
L 65.577911 73.293445 
L 69.893472 82.225407 
L 74.209033 90.967529 
L 79.004101 99.828201 
L 83.799169 108.170754 
L 87.155716 113.330943 
L 91.471277 119.412643 
L 94.827825 123.779298 
L 99.622892 129.672687 
L 102.020426 132.320491 
L 105.376974 135.723891 
L 108.254014 138.547928 
L 111.131055 140.996012 
L 113.049082 142.635227 
L 116.40563 145.142667 
L 119.28267 147.031418 
L 122.159711 148.742545 
L 125.995765 150.582567 
L 128.393299 151.709429 
L 132.70886 153.714983 
L 137.024421 155.216637 
L 140.380969 156.433905 
L 153.327652 161.795579 
L 156.684199 162.677062 
L 159.081733 163.22684 
L 163.397294 164.098964 
L 166.274335 164.66407 
L 169.630882 165.160092 
L 172.507923 165.767182 
L 176.343977 166.135814 
L 178.262004 166.352275 
L 185.934113 167.546557 
L 187.85214 167.900635 
L 191.208687 168.520073 
L 196.483262 169.707706 
L 201.757836 171.224749 
L 213.745506 174.4515 
L 216.14304 174.959094 
L 219.020081 175.855027 
L 220.938108 176.572043 
L 228.610216 179.80734 
L 230.528243 180.713541 
L 234.843804 182.273616 
L 240.597886 184.068572 
L 244.43394 185.254876 
L 247.790487 186.377971 
L 250.188021 187.013304 
L 255.462596 188.60412 
L 261.216677 190.425182 
L 265.532238 191.937608 
L 267.929772 192.722287 
L 277.040401 196.419641 
L 280.396948 198.179118 
L 283.273989 199.741343 
L 285.671523 201.041836 
L 290.946097 203.710097 
L 299.097713 208.023197 
L 302.45426 209.999827 
L 305.331301 211.473156 
L 307.249328 212.552684 
L 310.126369 214.031279 
L 314.44193 216.40984 
L 322.593545 220.752108 
L 327.868119 223.703916 
L 331.704174 225.800673 
L 336.499242 228.478572 
L 339.376282 229.940504 
L 344.650857 232.396029 
L 350.884445 236.169068 
L 358.556553 240.1699 
L 363.351621 242.130889 
L 365.749155 242.985711 
L 369.105703 244.189699 
L 377.736825 247.52435 
L 383.970413 250.1282 
L 386.847453 251.479082 
L 390.683508 252.973694 
L 396.917096 254.639086 
L 399.794136 255.496879 
L 410.343286 258.217911 
L 412.740819 258.996308 
L 419.453914 260.419799 
L 422.810462 261.067448 
L 424.728489 261.40695 
L 427.60553 261.658538 
L 438.634186 262.051588 
L 443.90876 263.087526 
L 447.744814 263.51013 
L 455.89643 264.116369 
L 461.171004 264.646045 
L 464.527552 264.800347 
L 467.884099 264.775715 
L 469.802126 264.750034 
L 471.720153 264.832806 
L 474.117687 265.121744 
L 480.830782 265.538408 
L 484.666836 265.723184 
L 488.023384 265.872896 
L 491.859438 266.043238 
L 497.613519 266.565604 
L 499.531547 266.733047 
L 504.326614 267.130765 
L 505.765135 267.39761 
L 507.683162 267.749234 
L 516.793791 269.051171 
L 523.506886 269.540702 
L 525.904419 269.683835 
L 528.301953 269.724326 
L 529.740474 269.750999 
L 536.933075 270.374003 
L 540.76913 270.370454 
L 541.248636 270.348012 
L 541.248636 270.348012 
" clip-path="url(#pe11bd1f2bd)" style="fill: none; stroke: #2ca02c; stroke-width: 2; stroke-linecap: square"/>
   </g>
   <g id="line2d_38">
    <path d="M 62.221364 65.835909 
L 65.577911 73.105815 
L 70.372979 82.522559 
L 74.209033 89.641148 
L 79.963114 99.424479 
L 83.799169 105.288204 
L 89.073743 112.527875 
L 91.950784 116.122516 
L 96.266345 120.729634 
L 100.102399 124.47776 
L 104.41796 128.224273 
L 114.487603 136.64722 
L 117.84415 139.104805 
L 123.118725 142.388535 
L 125.036752 143.403346 
L 127.913792 144.685786 
L 129.83182 145.355587 
L 135.585901 147.012177 
L 138.462942 147.775401 
L 145.176036 149.807359 
L 148.053077 150.814658 
L 153.807159 152.138697 
L 156.204692 152.710713 
L 164.835814 155.116928 
L 169.151375 155.990094 
L 172.507923 156.734731 
L 176.343977 157.522572 
L 180.180031 158.487423 
L 184.016086 159.173102 
L 188.331647 160.202362 
L 197.921782 162.673901 
L 203.196357 163.867695 
L 211.827479 165.6865 
L 214.225013 165.96331 
L 221.897121 166.695094 
L 226.212682 166.856978 
L 228.610216 167.209968 
L 231.966764 167.947145 
L 240.118379 170.152577 
L 242.99542 171.17023 
L 246.351967 172.592554 
L 257.86013 176.931111 
L 260.73717 178.081914 
L 267.929772 180.892616 
L 272.245333 182.787159 
L 276.081387 184.403282 
L 279.437935 186.021413 
L 289.987084 191.302722 
L 295.261658 193.492801 
L 299.577219 195.27981 
L 304.851794 197.4354 
L 309.167355 199.628153 
L 320.675518 205.452056 
L 328.827133 209.294079 
L 332.663187 211.070132 
L 341.773816 214.477622 
L 349.925431 217.939036 
L 353.761486 219.60862 
L 360.47458 223.112617 
L 363.351621 224.619062 
L 364.790142 225.468173 
L 367.187675 226.882264 
L 369.585209 228.213203 
L 373.421264 230.717381 
L 377.257318 232.704828 
L 379.654852 233.572894 
L 383.490906 234.728153 
L 387.806467 236.312569 
L 397.396603 240.161837 
L 400.273643 241.128811 
L 403.630191 242.166753 
L 405.548218 242.636553 
L 408.425258 243.141154 
L 410.343286 243.552138 
L 412.740819 244.026787 
L 415.61786 244.891993 
L 417.05638 245.412975 
L 428.564543 248.776802 
L 433.839118 249.853065 
L 437.675172 250.386543 
L 441.990733 250.573923 
L 443.90876 250.578799 
L 446.306294 250.621267 
L 448.703828 250.527596 
L 454.457909 249.983251 
L 459.732484 249.39331 
L 463.568538 249.55412 
L 467.404592 249.852675 
L 470.76114 249.987746 
L 472.679167 250.104136 
L 474.597194 250.148707 
L 496.654506 252.037104 
L 502.888094 252.984671 
L 506.244641 253.772094 
L 509.121682 254.271408 
L 519.670831 255.875662 
L 523.027379 256.381113 
L 525.424913 256.55349 
L 527.822447 256.771177 
L 539.330609 258.055334 
L 541.248636 258.100459 
L 541.248636 258.100459 
" clip-path="url(#pe11bd1f2bd)" style="fill: none; stroke: #d62728; stroke-width: 2; stroke-linecap: square"/>
   </g>
   <g id="line2d_39">
    <path d="M 62.221364 65.835909 
L 66.536925 75.474816 
L 70.372979 83.718749 
L 74.209033 91.251197 
L 78.045087 98.395176 
L 81.881142 105.021303 
L 85.237689 110.237943 
L 88.594237 114.998556 
L 91.471277 118.809388 
L 96.745852 125.585789 
L 100.102399 129.70112 
L 106.335987 136.945965 
L 110.172042 140.663741 
L 114.008096 143.857515 
L 115.926123 145.242233 
L 125.516259 151.171109 
L 128.393299 152.784202 
L 130.790833 153.876611 
L 133.667874 155.087945 
L 138.462942 157.403987 
L 144.217023 159.707034 
L 146.614557 160.270978 
L 151.409625 161.305195 
L 154.766172 162.299688 
L 159.081733 163.122055 
L 160.99976 163.335001 
L 168.192362 163.745331 
L 171.548909 164.310624 
L 173.946443 164.890983 
L 176.823484 165.520666 
L 185.454606 167.444242 
L 187.85214 168.119192 
L 189.770167 168.539119 
L 192.647208 169.238599 
L 196.003755 169.926051 
L 200.798823 170.559827 
L 212.306986 173.050926 
L 215.663533 173.568823 
L 221.417614 174.774578 
L 224.294655 175.403949 
L 226.692189 175.895323 
L 228.610216 176.338592 
L 232.925777 177.174116 
L 236.761831 178.333064 
L 240.118379 179.322076 
L 242.036406 179.881618 
L 254.024075 184.646432 
L 263.614211 188.086383 
L 268.888786 190.355433 
L 273.204347 192.225436 
L 277.999414 194.722231 
L 286.15103 199.145929 
L 289.02807 200.778313 
L 316.359957 216.318568 
L 319.716504 218.370354 
L 323.552558 220.614111 
L 328.827133 223.781934 
L 336.978748 227.863964 
L 338.417269 228.380545 
L 340.814803 229.180228 
L 343.212336 229.823181 
L 347.048391 231.198967 
L 352.322965 233.411104 
L 356.638526 235.507435 
L 369.585209 241.009276 
L 375.339291 243.061369 
L 378.695838 244.233426 
L 382.531892 245.598956 
L 386.367947 246.772776 
L 401.232657 251.760861 
L 407.945752 253.078193 
L 410.822792 253.466268 
L 416.576874 254.583518 
L 423.769475 256.438367 
L 427.60553 257.088433 
L 431.921091 257.549993 
L 434.798131 257.835208 
L 438.634186 258.503089 
L 444.388267 259.226016 
L 448.703828 259.732975 
L 454.457909 260.634697 
L 457.33495 261.12383 
L 461.171004 262.009559 
L 463.568538 262.526089 
L 465.007058 262.810845 
L 468.843113 263.288126 
L 470.281633 263.515226 
L 472.19966 263.880445 
L 475.556208 264.193651 
L 476.994728 264.322304 
L 479.392262 264.241339 
L 483.228316 263.995155 
L 487.543877 264.012805 
L 490.900425 264.473354 
L 503.847108 266.344797 
L 508.642175 266.395239 
L 511.039709 266.380929 
L 515.834777 266.415966 
L 521.588858 266.644214 
L 523.986392 266.904482 
L 527.34294 267.392656 
L 532.617514 268.260461 
L 536.453569 268.727835 
L 540.289623 269.214932 
L 541.248636 269.419196 
L 541.248636 269.419196 
" clip-path="url(#pe11bd1f2bd)" style="fill: none; stroke: #9467bd; stroke-width: 2; stroke-linecap: square"/>
   </g>
   <g id="line2d_40">
    <path d="M 181.978182 282.04 
L 181.978182 26.88 
" clip-path="url(#pe11bd1f2bd)" style="fill: none; stroke-dasharray: 1.5,2.475; stroke-dashoffset: 0; stroke: #1f77b4; stroke-opacity: 0.5; stroke-width: 1.5"/>
   </g>
   <g id="patch_3">
    <path d="M 38.27 282.04 
L 38.27 26.88 
" style="fill: none; stroke: #000000; stroke-width: 0.8; stroke-linejoin: miter; stroke-linecap: square"/>
   </g>
   <g id="patch_4">
    <path d="M 565.2 282.04 
L 565.2 26.88 
" style="fill: none; stroke: #000000; stroke-width: 0.8; stroke-linejoin: miter; stroke-linecap: square"/>
   </g>
   <g id="patch_5">
    <path d="M 38.27 282.04 
L 565.2 282.04 
" style="fill: none; stroke: #000000; stroke-width: 0.8; stroke-linejoin: miter; stroke-linecap: square"/>
   </g>
   <g id="patch_6">
    <path d="M 38.27 26.88 
L 565.2 26.88 
" style="fill: none; stroke: #000000; stroke-width: 0.8; stroke-linejoin: miter; stroke-linecap: square"/>
   </g>
   <g id="text_20">
    <!-- Content dynamics -->
    <g transform="translate(247.190312 20.88) scale(0.12 -0.12)">
     <defs>
      <path id="DejaVuSans-64" d="M 2906 2969 
L 2906 4863 
L 3481 4863 
L 3481 0 
L 2906 0 
L 2906 525 
Q 2725 213 2448 61 
Q 2172 -91 1784 -91 
Q 1150 -91 751 415 
Q 353 922 353 1747 
Q 353 2572 751 3078 
Q 1150 3584 1784 3584 
Q 2172 3584 2448 3432 
Q 2725 3281 2906 2969 
z
M 947 1747 
Q 947 1113 1208 752 
Q 1469 391 1925 391 
Q 2381 391 2643 752 
Q 2906 1113 2906 1747 
Q 2906 2381 2643 2742 
Q 2381 3103 1925 3103 
Q 1469 3103 1208 2742 
Q 947 2381 947 1747 
z
" transform="scale(0.015625)"/>
      <path id="DejaVuSans-79" d="M 2059 -325 
Q 1816 -950 1584 -1140 
Q 1353 -1331 966 -1331 
L 506 -1331 
L 506 -850 
L 844 -850 
Q 1081 -850 1212 -737 
Q 1344 -625 1503 -206 
L 1606 56 
L 191 3500 
L 800 3500 
L 1894 763 
L 2988 3500 
L 3597 3500 
L 2059 -325 
z
" transform="scale(0.015625)"/>
      <path id="DejaVuSans-61" d="M 2194 1759 
Q 1497 1759 1228 1600 
Q 959 1441 959 1056 
Q 959 750 1161 570 
Q 1363 391 1709 391 
Q 2188 391 2477 730 
Q 2766 1069 2766 1631 
L 2766 1759 
L 2194 1759 
z
M 3341 1997 
L 3341 0 
L 2766 0 
L 2766 531 
Q 2569 213 2275 61 
Q 1981 -91 1556 -91 
Q 1019 -91 701 211 
Q 384 513 384 1019 
Q 384 1609 779 1909 
Q 1175 2209 1959 2209 
L 2766 2209 
L 2766 2266 
Q 2766 2663 2505 2880 
Q 2244 3097 1772 3097 
Q 1472 3097 1187 3025 
Q 903 2953 641 2809 
L 641 3341 
Q 956 3463 1253 3523 
Q 1550 3584 1831 3584 
Q 2591 3584 2966 3190 
Q 3341 2797 3341 1997 
z
" transform="scale(0.015625)"/>
      <path id="DejaVuSans-63" d="M 3122 3366 
L 3122 2828 
Q 2878 2963 2633 3030 
Q 2388 3097 2138 3097 
Q 1578 3097 1268 2742 
Q 959 2388 959 1747 
Q 959 1106 1268 751 
Q 1578 397 2138 397 
Q 2388 397 2633 464 
Q 2878 531 3122 666 
L 3122 134 
Q 2881 22 2623 -34 
Q 2366 -91 2075 -91 
Q 1284 -91 818 406 
Q 353 903 353 1747 
Q 353 2603 823 3093 
Q 1294 3584 2113 3584 
Q 2378 3584 2631 3529 
Q 2884 3475 3122 3366 
z
" transform="scale(0.015625)"/>
      <path id="DejaVuSans-73" d="M 2834 3397 
L 2834 2853 
Q 2591 2978 2328 3040 
Q 2066 3103 1784 3103 
Q 1356 3103 1142 2972 
Q 928 2841 928 2578 
Q 928 2378 1081 2264 
Q 1234 2150 1697 2047 
L 1894 2003 
Q 2506 1872 2764 1633 
Q 3022 1394 3022 966 
Q 3022 478 2636 193 
Q 2250 -91 1575 -91 
Q 1294 -91 989 -36 
Q 684 19 347 128 
L 347 722 
Q 666 556 975 473 
Q 1284 391 1588 391 
Q 1994 391 2212 530 
Q 2431 669 2431 922 
Q 2431 1156 2273 1281 
Q 2116 1406 1581 1522 
L 1381 1569 
Q 847 1681 609 1914 
Q 372 2147 372 2553 
Q 372 3047 722 3315 
Q 1072 3584 1716 3584 
Q 2034 3584 2315 3537 
Q 2597 3491 2834 3397 
z
" transform="scale(0.015625)"/>
     </defs>
     <use xlink:href="#DejaVuSans-43"/>
     <use xlink:href="#DejaVuSans-6f" x="69.824219"/>
     <use xlink:href="#DejaVuSans-6e" x="131.005859"/>
     <use xlink:href="#DejaVuSans-74" x="194.384766"/>
     <use xlink:href="#DejaVuSans-65" x="233.59375"/>
     <use xlink:href="#DejaVuSans-6e" x="295.117188"/>
     <use xlink:href="#DejaVuSans-74" x="358.496094"/>
     <use xlink:href="#DejaVuSans-20" x="397.705078"/>
     <use xlink:href="#DejaVuSans-64" x="429.492188"/>
     <use xlink:href="#DejaVuSans-79" x="492.96875"/>
     <use xlink:href="#DejaVuSans-6e" x="552.148438"/>
     <use xlink:href="#DejaVuSans-61" x="615.527344"/>
     <use xlink:href="#DejaVuSans-6d" x="676.806641"/>
     <use xlink:href="#DejaVuSans-69" x="774.21875"/>
     <use xlink:href="#DejaVuSans-63" x="802.001953"/>
     <use xlink:href="#DejaVuSans-73" x="856.982422"/>
    </g>
   </g>
   <g id="legend_1">
    <g id="patch_7">
     <path d="M 44.101 277.875 
L 138.675134 277.875 
Q 140.341134 277.875 140.341134 276.209 
L 140.341134 203.680731 
Q 140.341134 202.014731 138.675134 202.014731 
L 44.101 202.014731 
Q 42.435 202.014731 42.435 203.680731 
L 42.435 276.209 
Q 42.435 277.875 44.101 277.875 
z
" style="fill: #ffffff; opacity: 0.8; stroke: #cccccc; stroke-linejoin: miter"/>
    </g>
    <g id="line2d_41">
     <path d="M 45.767 208.76073 
L 54.097 208.76073 
L 62.427 208.76073 
" style="fill: none; stroke: #1f77b4; stroke-width: 2; stroke-linecap: square"/>
    </g>
    <g id="text_21">
     <!-- V1 -->
     <g transform="translate(69.091 211.67623) scale(0.0833 -0.0833)">
      <defs>
       <path id="DejaVuSans-56" d="M 1831 0 
L 50 4666 
L 709 4666 
L 2188 738 
L 3669 4666 
L 4325 4666 
L 2547 0 
L 1831 0 
z
" transform="scale(0.015625)"/>
      </defs>
      <use xlink:href="#DejaVuSans-56"/>
      <use xlink:href="#DejaVuSans-31" x="68.408203"/>
     </g>
    </g>
    <g id="line2d_42">
     <path d="M 45.767 220.987608 
L 54.097 220.987608 
L 62.427 220.987608 
" style="fill: none; stroke: #ff7f0e; stroke-width: 2; stroke-linecap: square"/>
    </g>
    <g id="text_22">
     <!-- dlPFC -->
     <g transform="translate(69.091 223.903108) scale(0.0833 -0.0833)">
      <defs>
       <path id="DejaVuSans-6c" d="M 603 4863 
L 1178 4863 
L 1178 0 
L 603 0 
L 603 4863 
z
" transform="scale(0.015625)"/>
       <path id="DejaVuSans-50" d="M 1259 4147 
L 1259 2394 
L 2053 2394 
Q 2494 2394 2734 2622 
Q 2975 2850 2975 3272 
Q 2975 3691 2734 3919 
Q 2494 4147 2053 4147 
L 1259 4147 
z
M 628 4666 
L 2053 4666 
Q 2838 4666 3239 4311 
Q 3641 3956 3641 3272 
Q 3641 2581 3239 2228 
Q 2838 1875 2053 1875 
L 1259 1875 
L 1259 0 
L 628 0 
L 628 4666 
z
" transform="scale(0.015625)"/>
       <path id="DejaVuSans-46" d="M 628 4666 
L 3309 4666 
L 3309 4134 
L 1259 4134 
L 1259 2759 
L 3109 2759 
L 3109 2228 
L 1259 2228 
L 1259 0 
L 628 0 
L 628 4666 
z
" transform="scale(0.015625)"/>
      </defs>
      <use xlink:href="#DejaVuSans-64"/>
      <use xlink:href="#DejaVuSans-6c" x="63.476562"/>
      <use xlink:href="#DejaVuSans-50" x="91.259766"/>
      <use xlink:href="#DejaVuSans-46" x="151.5625"/>
      <use xlink:href="#DejaVuSans-43" x="209.082031"/>
     </g>
    </g>
    <g id="line2d_43">
     <path d="M 45.767 233.214486 
L 54.097 233.214486 
L 62.427 233.214486 
" style="fill: none; stroke: #2ca02c; stroke-width: 2; stroke-linecap: square"/>
    </g>
    <g id="text_23">
     <!-- aINS -->
     <g transform="translate(69.091 236.129986) scale(0.0833 -0.0833)">
      <defs>
       <path id="DejaVuSans-49" d="M 628 4666 
L 1259 4666 
L 1259 0 
L 628 0 
L 628 4666 
z
" transform="scale(0.015625)"/>
       <path id="DejaVuSans-4e" d="M 628 4666 
L 1478 4666 
L 3547 763 
L 3547 4666 
L 4159 4666 
L 4159 0 
L 3309 0 
L 1241 3903 
L 1241 0 
L 628 0 
L 628 4666 
z
" transform="scale(0.015625)"/>
       <path id="DejaVuSans-53" d="M 3425 4513 
L 3425 3897 
Q 3066 4069 2747 4153 
Q 2428 4238 2131 4238 
Q 1616 4238 1336 4038 
Q 1056 3838 1056 3469 
Q 1056 3159 1242 3001 
Q 1428 2844 1947 2747 
L 2328 2669 
Q 3034 2534 3370 2195 
Q 3706 1856 3706 1288 
Q 3706 609 3251 259 
Q 2797 -91 1919 -91 
Q 1588 -91 1214 -16 
Q 841 59 441 206 
L 441 856 
Q 825 641 1194 531 
Q 1563 422 1919 422 
Q 2459 422 2753 634 
Q 3047 847 3047 1241 
Q 3047 1584 2836 1778 
Q 2625 1972 2144 2069 
L 1759 2144 
Q 1053 2284 737 2584 
Q 422 2884 422 3419 
Q 422 4038 858 4394 
Q 1294 4750 2059 4750 
Q 2388 4750 2728 4690 
Q 3069 4631 3425 4513 
z
" transform="scale(0.015625)"/>
      </defs>
      <use xlink:href="#DejaVuSans-61"/>
      <use xlink:href="#DejaVuSans-49" x="61.279297"/>
      <use xlink:href="#DejaVuSans-4e" x="90.771484"/>
      <use xlink:href="#DejaVuSans-53" x="165.576172"/>
     </g>
    </g>
    <g id="line2d_44">
     <path d="M 45.767 245.441364 
L 54.097 245.441364 
L 62.427 245.441364 
" style="fill: none; stroke: #d62728; stroke-width: 2; stroke-linecap: square"/>
    </g>
    <g id="text_24">
     <!-- IPS -->
     <g transform="translate(69.091 248.356864) scale(0.0833 -0.0833)">
      <use xlink:href="#DejaVuSans-49"/>
      <use xlink:href="#DejaVuSans-50" x="29.492188"/>
      <use xlink:href="#DejaVuSans-53" x="89.794922"/>
     </g>
    </g>
    <g id="line2d_45">
     <path d="M 45.767 257.668242 
L 54.097 257.668242 
L 62.427 257.668242 
" style="fill: none; stroke: #9467bd; stroke-width: 2; stroke-linecap: square"/>
    </g>
    <g id="text_25">
     <!-- PCC -->
     <g transform="translate(69.091 260.583742) scale(0.0833 -0.0833)">
      <use xlink:href="#DejaVuSans-50"/>
      <use xlink:href="#DejaVuSans-43" x="60.302734"/>
      <use xlink:href="#DejaVuSans-43" x="130.126953"/>
     </g>
    </g>
    <g id="line2d_46">
     <path d="M 45.767 269.89512 
L 54.097 269.89512 
L 62.427 269.89512 
" style="fill: none; stroke-dasharray: 1.5,2.475; stroke-dashoffset: 0; stroke: #1f77b4; stroke-opacity: 0.5; stroke-width: 1.5"/>
    </g>
    <g id="text_26">
     <!-- Anesthesia start -->
     <g transform="translate(69.091 272.81062) scale(0.0833 -0.0833)">
      <defs>
       <path id="DejaVuSans-41" d="M 2188 4044 
L 1331 1722 
L 3047 1722 
L 2188 4044 
z
M 1831 4666 
L 2547 4666 
L 4325 0 
L 3669 0 
L 3244 1197 
L 1141 1197 
L 716 0 
L 50 0 
L 1831 4666 
z
" transform="scale(0.015625)"/>
       <path id="DejaVuSans-68" d="M 3513 2113 
L 3513 0 
L 2938 0 
L 2938 2094 
Q 2938 2591 2744 2837 
Q 2550 3084 2163 3084 
Q 1697 3084 1428 2787 
Q 1159 2491 1159 1978 
L 1159 0 
L 581 0 
L 581 4863 
L 1159 4863 
L 1159 2956 
Q 1366 3272 1645 3428 
Q 1925 3584 2291 3584 
Q 2894 3584 3203 3211 
Q 3513 2838 3513 2113 
z
" transform="scale(0.015625)"/>
       <path id="DejaVuSans-72" d="M 2631 2963 
Q 2534 3019 2420 3045 
Q 2306 3072 2169 3072 
Q 1681 3072 1420 2755 
Q 1159 2438 1159 1844 
L 1159 0 
L 581 0 
L 581 3500 
L 1159 3500 
L 1159 2956 
Q 1341 3275 1631 3429 
Q 1922 3584 2338 3584 
Q 2397 3584 2469 3576 
Q 2541 3569 2628 3553 
L 2631 2963 
z
" transform="scale(0.015625)"/>
      </defs>
      <use xlink:href="#DejaVuSans-41"/>
      <use xlink:href="#DejaVuSans-6e" x="68.408203"/>
      <use xlink:href="#DejaVuSans-65" x="131.787109"/>
      <use xlink:href="#DejaVuSans-73" x="193.310547"/>
      <use xlink:href="#DejaVuSans-74" x="245.410156"/>
      <use xlink:href="#DejaVuSans-68" x="284.619141"/>
      <use xlink:href="#DejaVuSans-65" x="347.998047"/>
      <use xlink:href="#DejaVuSans-73" x="409.521484"/>
      <use xlink:href="#DejaVuSans-69" x="461.621094"/>
      <use xlink:href="#DejaVuSans-61" x="489.404297"/>
      <use xlink:href="#DejaVuSans-20" x="550.683594"/>
      <use xlink:href="#DejaVuSans-73" x="582.470703"/>
      <use xlink:href="#DejaVuSans-74" x="634.570312"/>
      <use xlink:href="#DejaVuSans-61" x="673.779297"/>
      <use xlink:href="#DejaVuSans-72" x="735.058594"/>
      <use xlink:href="#DejaVuSans-74" x="776.171875"/>
     </g>
    </g>
   </g>
  </g>
 </g>
 <defs>
  <clipPath id="pe11bd1f2bd">
   <rect x="38.27" y="26.88" width="526.93" height="255.16"/>
  </clipPath>
 </defs>
</svg>
