<?xml version="1.0" encoding="utf-8" standalone="no"?>
<!DOCTYPE svg PUBLIC "-//W3C//DTD SVG 1.1//EN"
  "http://www.w3.org/Graphics/SVG/1.1/DTD/svg11.dtd">
<svg xmlns:xlink="http://www.w3.org/1999/xlink" width="710.766pt" height="567.838125pt" viewBox="0 0 710.766 567.838125" xmlns="http://www.w3.org/2000/svg" version="1.1">
 <metadata>
  <rdf:RDF xmlns:dc="http://purl.org/dc/elements/1.1/" xmlns:cc="http://creativecommons.org/ns#" xmlns:rdf="http://www.w3.org/1999/02/22-rdf-syntax-ns#">
   <cc:Work>
    <dc:type rdf:resource="http://purl.org/dc/dcmitype/StillImage"/>
    <dc:date>2025-12-26T16:04:49.415728</dc:date>
    <dc:format>image/svg+xml</dc:format>
    <dc:creator>
     <cc:Agent>
      <dc:title>Matplotlib v3.7.5, https://matplotlib.org/</dc:title>
     </cc:Agent>
    </dc:creator>
   </cc:Work>
  </rdf:RDF>
 </metadata>
 <defs>
  <style type="text/css">*{stroke-linejoin: round; stroke-linecap: butt}</style>
 </defs>
 <g id="figure_1">
  <g id="patch_1">
   <path d="M 0 567.838125 
L 710.766 567.838125 
L 710.766 0 
L 0 0 
z
" style="fill: #ffffff"/>
  </g>
  <g id="patch_2">
   <path d="M 7.2 560.638125 
L 545.52 560.638125 
L 545.52 22.318125 
L 7.2 22.318125 
z
" style="fill: #ffffff"/>
  </g>
  <g id="pane3d_1">
   <g id="patch_3">
    <path d="M 46.207069 428.900127 
L 225.584512 313.332145 
L 223.750505 86.712636 
L 37.961359 183.800876 
" style="fill: #f2f2f2; opacity: 0.5; stroke: #f2f2f2; stroke-linejoin: miter"/>
   </g>
  </g>
  <g id="pane3d_2">
   <g id="patch_4">
    <path d="M 225.584512 313.332145 
L 511.811266 377.455624 
L 519.41665 140.509741 
L 223.750505 86.712636 
" style="fill: #e6e6e6; opacity: 0.5; stroke: #e6e6e6; stroke-linejoin: miter"/>
   </g>
  </g>
  <g id="pane3d_3">
   <g id="patch_5">
    <path d="M 46.207069 428.900127 
L 350.983004 506.3109 
L 511.811266 377.455624 
L 225.584512 313.332145 
" style="fill: #ececec; opacity: 0.5; stroke: #ececec; stroke-linejoin: miter"/>
   </g>
  </g>
  <g id="axis3d_1">
   <g id="line2d_1">
    <path d="M 46.207069 428.900127 
L 350.983004 506.3109 
" style="fill: none; stroke: #000000; stroke-width: 0.8; stroke-linecap: square"/>
   </g>
   <g id="text_1">
    <!-- Level (L) -->
    <g transform="translate(154.06562 497.374888) rotate(-345.748667) scale(0.11 -0.11)">
     <defs>
      <path id="DejaVuSans-4c" d="M 628 4666 
L 1259 4666 
L 1259 531 
L 3531 531 
L 3531 0 
L 628 0 
L 628 4666 
z
" transform="scale(0.015625)"/>
      <path id="DejaVuSans-65" d="M 3597 1894 
L 3597 1613 
L 953 1613 
Q 991 1019 1311 708 
Q 1631 397 2203 397 
Q 2534 397 2845 478 
Q 3156 559 3463 722 
L 3463 178 
Q 3153 47 2828 -22 
Q 2503 -91 2169 -91 
Q 1331 -91 842 396 
Q 353 884 353 1716 
Q 353 2575 817 3079 
Q 1281 3584 2069 3584 
Q 2775 3584 3186 3129 
Q 3597 2675 3597 1894 
z
M 3022 2063 
Q 3016 2534 2758 2815 
Q 2500 3097 2075 3097 
Q 1594 3097 1305 2825 
Q 1016 2553 972 2059 
L 3022 2063 
z
" transform="scale(0.015625)"/>
      <path id="DejaVuSans-76" d="M 191 3500 
L 800 3500 
L 1894 563 
L 2988 3500 
L 3597 3500 
L 2284 0 
L 1503 0 
L 191 3500 
z
" transform="scale(0.015625)"/>
      <path id="DejaVuSans-6c" d="M 603 4863 
L 1178 4863 
L 1178 0 
L 603 0 
L 603 4863 
z
" transform="scale(0.015625)"/>
      <path id="DejaVuSans-20" transform="scale(0.015625)"/>
      <path id="DejaVuSans-28" d="M 1984 4856 
Q 1566 4138 1362 3434 
Q 1159 2731 1159 2009 
Q 1159 1288 1364 580 
Q 1569 -128 1984 -844 
L 1484 -844 
Q 1016 -109 783 600 
Q 550 1309 550 2009 
Q 550 2706 781 3412 
Q 1013 4119 1484 4856 
L 1984 4856 
z
" transform="scale(0.015625)"/>
      <path id="DejaVuSans-29" d="M 513 4856 
L 1013 4856 
Q 1481 4119 1714 3412 
Q 1947 2706 1947 2009 
Q 1947 1309 1714 600 
Q 1481 -109 1013 -844 
L 513 -844 
Q 928 -128 1133 580 
Q 1338 1288 1338 2009 
Q 1338 2731 1133 3434 
Q 928 4138 513 4856 
z
" transform="scale(0.015625)"/>
     </defs>
     <use xlink:href="#DejaVuSans-4c"/>
     <use xlink:href="#DejaVuSans-65" x="53.962891"/>
     <use xlink:href="#DejaVuSans-76" x="115.486328"/>
     <use xlink:href="#DejaVuSans-65" x="174.666016"/>
     <use xlink:href="#DejaVuSans-6c" x="236.189453"/>
     <use xlink:href="#DejaVuSans-20" x="263.972656"/>
     <use xlink:href="#DejaVuSans-28" x="295.759766"/>
     <use xlink:href="#DejaVuSans-4c" x="334.773438"/>
     <use xlink:href="#DejaVuSans-29" x="390.486328"/>
    </g>
   </g>
   <g id="Line3DCollection_1">
    <path d="M 51.97139 430.364221 
L 231.025259 314.551038 
L 229.361409 87.733552 
" style="fill: none; stroke: #b0b0b0; stroke-width: 0.8"/>
    <path d="M 107.966307 444.586505 
L 283.82206 326.379123 
L 283.828049 97.643877 
" style="fill: none; stroke: #b0b0b0; stroke-width: 0.8"/>
    <path d="M 165.179307 459.118172 
L 337.66475 338.44152 
L 339.408478 107.756858 
" style="fill: none; stroke: #b0b0b0; stroke-width: 0.8"/>
    <path d="M 223.650572 473.96943 
L 392.584719 350.74526 
L 396.137215 118.078776 
" style="fill: none; stroke: #b0b0b0; stroke-width: 0.8"/>
    <path d="M 283.422073 489.150937 
L 448.614625 363.297659 
L 454.050217 128.616174 
" style="fill: none; stroke: #b0b0b0; stroke-width: 0.8"/>
    <path d="M 344.537669 504.673834 
L 505.788458 376.106333 
L 513.184959 139.375871 
" style="fill: none; stroke: #b0b0b0; stroke-width: 0.8"/>
   </g>
   <g id="xtick_1">
    <g id="line2d_2">
     <path d="M 53.540173 429.349522 
L 48.82658 432.398304 
" style="fill: none; stroke: #000000; stroke-width: 0.8; stroke-linecap: square"/>
    </g>
    <g id="text_2">
     <!-- 0 -->
     <g transform="translate(41.040142 452.93186) scale(0.1 -0.1)">
      <defs>
       <path id="DejaVuSans-30" d="M 2034 4250 
Q 1547 4250 1301 3770 
Q 1056 3291 1056 2328 
Q 1056 1369 1301 889 
Q 1547 409 2034 409 
Q 2525 409 2770 889 
Q 3016 1369 3016 2328 
Q 3016 3291 2770 3770 
Q 2525 4250 2034 4250 
z
M 2034 4750 
Q 2819 4750 3233 4129 
Q 3647 3509 3647 2328 
Q 3647 1150 3233 529 
Q 2819 -91 2034 -91 
Q 1250 -91 836 529 
Q 422 1150 422 2328 
Q 422 3509 836 4129 
Q 1250 4750 2034 4750 
z
" transform="scale(0.015625)"/>
      </defs>
      <use xlink:href="#DejaVuSans-30"/>
     </g>
    </g>
   </g>
   <g id="xtick_2">
    <g id="line2d_3">
     <path d="M 109.50851 443.549861 
L 104.874705 446.66463 
" style="fill: none; stroke: #000000; stroke-width: 0.8; stroke-linecap: square"/>
    </g>
    <g id="text_3">
     <!-- 2 -->
     <g transform="translate(97.096758 467.352532) scale(0.1 -0.1)">
      <defs>
       <path id="DejaVuSans-32" d="M 1228 531 
L 3431 531 
L 3431 0 
L 469 0 
L 469 531 
Q 828 903 1448 1529 
Q 2069 2156 2228 2338 
Q 2531 2678 2651 2914 
Q 2772 3150 2772 3378 
Q 2772 3750 2511 3984 
Q 2250 4219 1831 4219 
Q 1534 4219 1204 4116 
Q 875 4013 500 3803 
L 500 4441 
Q 881 4594 1212 4672 
Q 1544 4750 1819 4750 
Q 2544 4750 2975 4387 
Q 3406 4025 3406 3419 
Q 3406 3131 3298 2873 
Q 3191 2616 2906 2266 
Q 2828 2175 2409 1742 
Q 1991 1309 1228 531 
z
" transform="scale(0.015625)"/>
      </defs>
      <use xlink:href="#DejaVuSans-32"/>
     </g>
    </g>
   </g>
   <g id="xtick_3">
    <g id="line2d_4">
     <path d="M 166.693396 458.058864 
L 162.143986 461.241785 
" style="fill: none; stroke: #000000; stroke-width: 0.8; stroke-linecap: square"/>
    </g>
    <g id="text_4">
     <!-- 4 -->
     <g transform="translate(154.375998 482.087725) scale(0.1 -0.1)">
      <defs>
       <path id="DejaVuSans-34" d="M 2419 4116 
L 825 1625 
L 2419 1625 
L 2419 4116 
z
M 2253 4666 
L 3047 4666 
L 3047 1625 
L 3713 1625 
L 3713 1100 
L 3047 1100 
L 3047 0 
L 2419 0 
L 2419 1100 
L 313 1100 
L 313 1709 
L 2253 4666 
z
" transform="scale(0.015625)"/>
      </defs>
      <use xlink:href="#DejaVuSans-34"/>
     </g>
    </g>
   </g>
   <g id="xtick_4">
    <g id="line2d_5">
     <path d="M 225.134932 472.886706 
L 220.674773 476.140041 
" style="fill: none; stroke: #000000; stroke-width: 0.8; stroke-linecap: square"/>
    </g>
    <g id="text_5">
     <!-- 6 -->
     <g transform="translate(212.918301 497.147844) scale(0.1 -0.1)">
      <defs>
       <path id="DejaVuSans-36" d="M 2113 2584 
Q 1688 2584 1439 2293 
Q 1191 2003 1191 1497 
Q 1191 994 1439 701 
Q 1688 409 2113 409 
Q 2538 409 2786 701 
Q 3034 994 3034 1497 
Q 3034 2003 2786 2293 
Q 2538 2584 2113 2584 
z
M 3366 4563 
L 3366 3988 
Q 3128 4100 2886 4159 
Q 2644 4219 2406 4219 
Q 1781 4219 1451 3797 
Q 1122 3375 1075 2522 
Q 1259 2794 1537 2939 
Q 1816 3084 2150 3084 
Q 2853 3084 3261 2657 
Q 3669 2231 3669 1497 
Q 3669 778 3244 343 
Q 2819 -91 2113 -91 
Q 1303 -91 875 529 
Q 447 1150 447 2328 
Q 447 3434 972 4092 
Q 1497 4750 2381 4750 
Q 2619 4750 2861 4703 
Q 3103 4656 3366 4563 
z
" transform="scale(0.015625)"/>
      </defs>
      <use xlink:href="#DejaVuSans-36"/>
     </g>
    </g>
   </g>
   <g id="xtick_5">
    <g id="line2d_6">
     <path d="M 284.875001 488.044012 
L 280.509212 491.370124 
" style="fill: none; stroke: #000000; stroke-width: 0.8; stroke-linecap: square"/>
    </g>
    <g id="text_6">
     <!-- 8 -->
     <g transform="translate(272.76591 512.543756) scale(0.1 -0.1)">
      <defs>
       <path id="DejaVuSans-38" d="M 2034 2216 
Q 1584 2216 1326 1975 
Q 1069 1734 1069 1313 
Q 1069 891 1326 650 
Q 1584 409 2034 409 
Q 2484 409 2743 651 
Q 3003 894 3003 1313 
Q 3003 1734 2745 1975 
Q 2488 2216 2034 2216 
z
M 1403 2484 
Q 997 2584 770 2862 
Q 544 3141 544 3541 
Q 544 4100 942 4425 
Q 1341 4750 2034 4750 
Q 2731 4750 3128 4425 
Q 3525 4100 3525 3541 
Q 3525 3141 3298 2862 
Q 3072 2584 2669 2484 
Q 3125 2378 3379 2068 
Q 3634 1759 3634 1313 
Q 3634 634 3220 271 
Q 2806 -91 2034 -91 
Q 1263 -91 848 271 
Q 434 634 434 1313 
Q 434 1759 690 2068 
Q 947 2378 1403 2484 
z
M 1172 3481 
Q 1172 3119 1398 2916 
Q 1625 2713 2034 2713 
Q 2441 2713 2670 2916 
Q 2900 3119 2900 3481 
Q 2900 3844 2670 4047 
Q 2441 4250 2034 4250 
Q 1625 4250 1398 4047 
Q 1172 3844 1172 3481 
z
" transform="scale(0.015625)"/>
      </defs>
      <use xlink:href="#DejaVuSans-38"/>
     </g>
    </g>
   </g>
   <g id="xtick_6">
    <g id="line2d_7">
     <path d="M 345.957368 503.541888 
L 341.691347 506.943246 
" style="fill: none; stroke: #000000; stroke-width: 0.8; stroke-linecap: square"/>
    </g>
    <g id="text_7">
     <!-- 10 -->
     <g transform="translate(330.781725 528.286818) scale(0.1 -0.1)">
      <defs>
       <path id="DejaVuSans-31" d="M 794 531 
L 1825 531 
L 1825 4091 
L 703 3866 
L 703 4441 
L 1819 4666 
L 2450 4666 
L 2450 531 
L 3481 531 
L 3481 0 
L 794 0 
L 794 531 
z
" transform="scale(0.015625)"/>
      </defs>
      <use xlink:href="#DejaVuSans-31"/>
      <use xlink:href="#DejaVuSans-30" x="63.623047"/>
     </g>
    </g>
   </g>
  </g>
  <g id="axis3d_2">
   <g id="line2d_8">
    <path d="M 511.811266 377.455624 
L 350.983004 506.3109 
" style="fill: none; stroke: #000000; stroke-width: 0.8; stroke-linecap: square"/>
   </g>
   <g id="text_8">
    <!-- Content (C) -->
    <g transform="translate(439.794285 488.915395) rotate(-38.701636) scale(0.11 -0.11)">
     <defs>
      <path id="DejaVuSans-43" d="M 4122 4306 
L 4122 3641 
Q 3803 3938 3442 4084 
Q 3081 4231 2675 4231 
Q 1875 4231 1450 3742 
Q 1025 3253 1025 2328 
Q 1025 1406 1450 917 
Q 1875 428 2675 428 
Q 3081 428 3442 575 
Q 3803 722 4122 1019 
L 4122 359 
Q 3791 134 3420 21 
Q 3050 -91 2638 -91 
Q 1578 -91 968 557 
Q 359 1206 359 2328 
Q 359 3453 968 4101 
Q 1578 4750 2638 4750 
Q 3056 4750 3426 4639 
Q 3797 4528 4122 4306 
z
" transform="scale(0.015625)"/>
      <path id="DejaVuSans-6f" d="M 1959 3097 
Q 1497 3097 1228 2736 
Q 959 2375 959 1747 
Q 959 1119 1226 758 
Q 1494 397 1959 397 
Q 2419 397 2687 759 
Q 2956 1122 2956 1747 
Q 2956 2369 2687 2733 
Q 2419 3097 1959 3097 
z
M 1959 3584 
Q 2709 3584 3137 3096 
Q 3566 2609 3566 1747 
Q 3566 888 3137 398 
Q 2709 -91 1959 -91 
Q 1206 -91 779 398 
Q 353 888 353 1747 
Q 353 2609 779 3096 
Q 1206 3584 1959 3584 
z
" transform="scale(0.015625)"/>
      <path id="DejaVuSans-6e" d="M 3513 2113 
L 3513 0 
L 2938 0 
L 2938 2094 
Q 2938 2591 2744 2837 
Q 2550 3084 2163 3084 
Q 1697 3084 1428 2787 
Q 1159 2491 1159 1978 
L 1159 0 
L 581 0 
L 581 3500 
L 1159 3500 
L 1159 2956 
Q 1366 3272 1645 3428 
Q 1925 3584 2291 3584 
Q 2894 3584 3203 3211 
Q 3513 2838 3513 2113 
z
" transform="scale(0.015625)"/>
      <path id="DejaVuSans-74" d="M 1172 4494 
L 1172 3500 
L 2356 3500 
L 2356 3053 
L 1172 3053 
L 1172 1153 
Q 1172 725 1289 603 
Q 1406 481 1766 481 
L 2356 481 
L 2356 0 
L 1766 0 
Q 1100 0 847 248 
Q 594 497 594 1153 
L 594 3053 
L 172 3053 
L 172 3500 
L 594 3500 
L 594 4494 
L 1172 4494 
z
" transform="scale(0.015625)"/>
     </defs>
     <use xlink:href="#DejaVuSans-43"/>
     <use xlink:href="#DejaVuSans-6f" x="69.824219"/>
     <use xlink:href="#DejaVuSans-6e" x="131.005859"/>
     <use xlink:href="#DejaVuSans-74" x="194.384766"/>
     <use xlink:href="#DejaVuSans-65" x="233.59375"/>
     <use xlink:href="#DejaVuSans-6e" x="295.117188"/>
     <use xlink:href="#DejaVuSans-74" x="358.496094"/>
     <use xlink:href="#DejaVuSans-20" x="397.705078"/>
     <use xlink:href="#DejaVuSans-28" x="429.492188"/>
     <use xlink:href="#DejaVuSans-43" x="468.505859"/>
     <use xlink:href="#DejaVuSans-29" x="538.330078"/>
    </g>
   </g>
   <g id="Line3DCollection_2">
    <path d="M 42.037864 181.670608 
L 50.131223 426.371902 
L 354.519026 503.477847 
" style="fill: none; stroke: #b0b0b0; stroke-width: 0.8"/>
    <path d="M 80.365798 161.641495 
L 87.05228 402.584674 
L 387.749436 476.85371 
" style="fill: none; stroke: #b0b0b0; stroke-width: 0.8"/>
    <path d="M 117.289211 142.346347 
L 122.664086 379.640961 
L 419.735104 451.226858 
" style="fill: none; stroke: #b0b0b0; stroke-width: 0.8"/>
    <path d="M 152.883915 123.745545 
L 157.035069 357.496677 
L 450.544683 426.542286 
" style="fill: none; stroke: #b0b0b0; stroke-width: 0.8"/>
    <path d="M 187.220364 105.802271 
L 190.228969 336.110755 
L 480.241867 402.748963 
" style="fill: none; stroke: #b0b0b0; stroke-width: 0.8"/>
    <path d="M 220.364119 88.482267 
L 222.305235 315.444894 
L 508.885833 379.799475 
" style="fill: none; stroke: #b0b0b0; stroke-width: 0.8"/>
   </g>
   <g id="xtick_7">
    <g id="line2d_9">
     <path d="M 351.942651 502.825213 
L 359.679018 504.78495 
" style="fill: none; stroke: #000000; stroke-width: 0.8; stroke-linecap: square"/>
    </g>
    <g id="text_9">
     <!-- 0 -->
     <g transform="translate(364.462505 524.592725) scale(0.1 -0.1)">
      <use xlink:href="#DejaVuSans-30"/>
     </g>
    </g>
   </g>
   <g id="xtick_8">
    <g id="line2d_10">
     <path d="M 385.206961 476.225746 
L 392.841395 478.111371 
" style="fill: none; stroke: #000000; stroke-width: 0.8; stroke-linecap: square"/>
    </g>
    <g id="text_10">
     <!-- 2 -->
     <g transform="translate(397.473026 497.685654) scale(0.1 -0.1)">
      <use xlink:href="#DejaVuSans-32"/>
     </g>
    </g>
   </g>
   <g id="xtick_9">
    <g id="line2d_11">
     <path d="M 417.225822 450.62219 
L 424.760459 452.437829 
" style="fill: none; stroke: #000000; stroke-width: 0.8; stroke-linecap: square"/>
    </g>
    <g id="text_11">
     <!-- 4 -->
     <g transform="translate(429.245915 471.787383) scale(0.1 -0.1)">
      <use xlink:href="#DejaVuSans-34"/>
     </g>
    </g>
   </g>
   <g id="xtick_10">
    <g id="line2d_12">
     <path d="M 448.067892 425.959643 
L 455.504842 427.709121 
" style="fill: none; stroke: #000000; stroke-width: 0.8; stroke-linecap: square"/>
    </g>
    <g id="text_12">
     <!-- 6 -->
     <g transform="translate(459.849493 446.842224) scale(0.1 -0.1)">
      <use xlink:href="#DejaVuSans-36"/>
     </g>
    </g>
   </g>
   <g id="xtick_11">
    <g id="line2d_13">
     <path d="M 477.796878 402.187162 
L 485.13822 403.874031 
" style="fill: none; stroke: #000000; stroke-width: 0.8; stroke-linecap: square"/>
    </g>
    <g id="text_13">
     <!-- 8 -->
     <g transform="translate(489.347145 422.798513) scale(0.1 -0.1)">
      <use xlink:href="#DejaVuSans-38"/>
     </g>
    </g>
   </g>
   <g id="xtick_12">
    <g id="line2d_14">
     <path d="M 506.471968 379.257418 
L 513.719746 380.88498 
" style="fill: none; stroke: #000000; stroke-width: 0.8; stroke-linecap: square"/>
    </g>
    <g id="text_14">
     <!-- 10 -->
     <g transform="translate(514.616503 399.608253) scale(0.1 -0.1)">
      <use xlink:href="#DejaVuSans-31"/>
      <use xlink:href="#DejaVuSans-30" x="63.623047"/>
     </g>
    </g>
   </g>
  </g>
  <g id="axis3d_3">
   <g id="line2d_15">
    <path d="M 511.811266 377.455624 
L 519.41665 140.509741 
" style="fill: none; stroke: #000000; stroke-width: 0.8; stroke-linecap: square"/>
   </g>
   <g id="text_15">
    <!-- Self / Metacognition (S) -->
    <g transform="translate(556.919155 321.240333) rotate(-88.161577) scale(0.11 -0.11)">
     <defs>
      <path id="DejaVuSans-53" d="M 3425 4513 
L 3425 3897 
Q 3066 4069 2747 4153 
Q 2428 4238 2131 4238 
Q 1616 4238 1336 4038 
Q 1056 3838 1056 3469 
Q 1056 3159 1242 3001 
Q 1428 2844 1947 2747 
L 2328 2669 
Q 3034 2534 3370 2195 
Q 3706 1856 3706 1288 
Q 3706 609 3251 259 
Q 2797 -91 1919 -91 
Q 1588 -91 1214 -16 
Q 841 59 441 206 
L 441 856 
Q 825 641 1194 531 
Q 1563 422 1919 422 
Q 2459 422 2753 634 
Q 3047 847 3047 1241 
Q 3047 1584 2836 1778 
Q 2625 1972 2144 2069 
L 1759 2144 
Q 1053 2284 737 2584 
Q 422 2884 422 3419 
Q 422 4038 858 4394 
Q 1294 4750 2059 4750 
Q 2388 4750 2728 4690 
Q 3069 4631 3425 4513 
z
" transform="scale(0.015625)"/>
      <path id="DejaVuSans-66" d="M 2375 4863 
L 2375 4384 
L 1825 4384 
Q 1516 4384 1395 4259 
Q 1275 4134 1275 3809 
L 1275 3500 
L 2222 3500 
L 2222 3053 
L 1275 3053 
L 1275 0 
L 697 0 
L 697 3053 
L 147 3053 
L 147 3500 
L 697 3500 
L 697 3744 
Q 697 4328 969 4595 
Q 1241 4863 1831 4863 
L 2375 4863 
z
" transform="scale(0.015625)"/>
      <path id="DejaVuSans-2f" d="M 1625 4666 
L 2156 4666 
L 531 -594 
L 0 -594 
L 1625 4666 
z
" transform="scale(0.015625)"/>
      <path id="DejaVuSans-4d" d="M 628 4666 
L 1569 4666 
L 2759 1491 
L 3956 4666 
L 4897 4666 
L 4897 0 
L 4281 0 
L 4281 4097 
L 3078 897 
L 2444 897 
L 1241 4097 
L 1241 0 
L 628 0 
L 628 4666 
z
" transform="scale(0.015625)"/>
      <path id="DejaVuSans-61" d="M 2194 1759 
Q 1497 1759 1228 1600 
Q 959 1441 959 1056 
Q 959 750 1161 570 
Q 1363 391 1709 391 
Q 2188 391 2477 730 
Q 2766 1069 2766 1631 
L 2766 1759 
L 2194 1759 
z
M 3341 1997 
L 3341 0 
L 2766 0 
L 2766 531 
Q 2569 213 2275 61 
Q 1981 -91 1556 -91 
Q 1019 -91 701 211 
Q 384 513 384 1019 
Q 384 1609 779 1909 
Q 1175 2209 1959 2209 
L 2766 2209 
L 2766 2266 
Q 2766 2663 2505 2880 
Q 2244 3097 1772 3097 
Q 1472 3097 1187 3025 
Q 903 2953 641 2809 
L 641 3341 
Q 956 3463 1253 3523 
Q 1550 3584 1831 3584 
Q 2591 3584 2966 3190 
Q 3341 2797 3341 1997 
z
" transform="scale(0.015625)"/>
      <path id="DejaVuSans-63" d="M 3122 3366 
L 3122 2828 
Q 2878 2963 2633 3030 
Q 2388 3097 2138 3097 
Q 1578 3097 1268 2742 
Q 959 2388 959 1747 
Q 959 1106 1268 751 
Q 1578 397 2138 397 
Q 2388 397 2633 464 
Q 2878 531 3122 666 
L 3122 134 
Q 2881 22 2623 -34 
Q 2366 -91 2075 -91 
Q 1284 -91 818 406 
Q 353 903 353 1747 
Q 353 2603 823 3093 
Q 1294 3584 2113 3584 
Q 2378 3584 2631 3529 
Q 2884 3475 3122 3366 
z
" transform="scale(0.015625)"/>
      <path id="DejaVuSans-67" d="M 2906 1791 
Q 2906 2416 2648 2759 
Q 2391 3103 1925 3103 
Q 1463 3103 1205 2759 
Q 947 2416 947 1791 
Q 947 1169 1205 825 
Q 1463 481 1925 481 
Q 2391 481 2648 825 
Q 2906 1169 2906 1791 
z
M 3481 434 
Q 3481 -459 3084 -895 
Q 2688 -1331 1869 -1331 
Q 1566 -1331 1297 -1286 
Q 1028 -1241 775 -1147 
L 775 -588 
Q 1028 -725 1275 -790 
Q 1522 -856 1778 -856 
Q 2344 -856 2625 -561 
Q 2906 -266 2906 331 
L 2906 616 
Q 2728 306 2450 153 
Q 2172 0 1784 0 
Q 1141 0 747 490 
Q 353 981 353 1791 
Q 353 2603 747 3093 
Q 1141 3584 1784 3584 
Q 2172 3584 2450 3431 
Q 2728 3278 2906 2969 
L 2906 3500 
L 3481 3500 
L 3481 434 
z
" transform="scale(0.015625)"/>
      <path id="DejaVuSans-69" d="M 603 3500 
L 1178 3500 
L 1178 0 
L 603 0 
L 603 3500 
z
M 603 4863 
L 1178 4863 
L 1178 4134 
L 603 4134 
L 603 4863 
z
" transform="scale(0.015625)"/>
     </defs>
     <use xlink:href="#DejaVuSans-53"/>
     <use xlink:href="#DejaVuSans-65" x="63.476562"/>
     <use xlink:href="#DejaVuSans-6c" x="125"/>
     <use xlink:href="#DejaVuSans-66" x="152.783203"/>
     <use xlink:href="#DejaVuSans-20" x="187.988281"/>
     <use xlink:href="#DejaVuSans-2f" x="219.775391"/>
     <use xlink:href="#DejaVuSans-20" x="253.466797"/>
     <use xlink:href="#DejaVuSans-4d" x="285.253906"/>
     <use xlink:href="#DejaVuSans-65" x="371.533203"/>
     <use xlink:href="#DejaVuSans-74" x="433.056641"/>
     <use xlink:href="#DejaVuSans-61" x="472.265625"/>
     <use xlink:href="#DejaVuSans-63" x="533.544922"/>
     <use xlink:href="#DejaVuSans-6f" x="588.525391"/>
     <use xlink:href="#DejaVuSans-67" x="649.707031"/>
     <use xlink:href="#DejaVuSans-6e" x="713.183594"/>
     <use xlink:href="#DejaVuSans-69" x="776.5625"/>
     <use xlink:href="#DejaVuSans-74" x="804.345703"/>
     <use xlink:href="#DejaVuSans-69" x="843.554688"/>
     <use xlink:href="#DejaVuSans-6f" x="871.337891"/>
     <use xlink:href="#DejaVuSans-6e" x="932.519531"/>
     <use xlink:href="#DejaVuSans-20" x="995.898438"/>
     <use xlink:href="#DejaVuSans-28" x="1027.685547"/>
     <use xlink:href="#DejaVuSans-53" x="1066.699219"/>
     <use xlink:href="#DejaVuSans-29" x="1130.175781"/>
    </g>
   </g>
   <g id="Line3DCollection_3">
    <path d="M 511.958563 372.866605 
L 225.548933 308.935871 
L 46.047583 424.159489 
" style="fill: none; stroke: #b0b0b0; stroke-width: 0.8"/>
    <path d="M 513.382343 328.508684 
L 225.205147 266.455828 
L 44.505544 378.323212 
" style="fill: none; stroke: #b0b0b0; stroke-width: 0.8"/>
    <path d="M 514.823992 283.594079 
L 224.857267 223.469946 
L 42.943357 331.888054 
" style="fill: none; stroke: #b0b0b0; stroke-width: 0.8"/>
    <path d="M 516.283848 238.112244 
L 224.505219 179.969134 
L 41.360625 284.842202 
" style="fill: none; stroke: #b0b0b0; stroke-width: 0.8"/>
    <path d="M 517.762257 192.052364 
L 224.14893 135.944087 
L 39.75694 237.173528 
" style="fill: none; stroke: #b0b0b0; stroke-width: 0.8"/>
    <path d="M 519.259577 145.403349 
L 223.78832 91.385268 
L 38.131882 188.869583 
" style="fill: none; stroke: #b0b0b0; stroke-width: 0.8"/>
   </g>
   <g id="xtick_13">
    <g id="line2d_16">
     <path d="M 509.546283 372.328149 
L 516.789294 373.944893 
" style="fill: none; stroke: #000000; stroke-width: 0.8; stroke-linecap: square"/>
    </g>
    <g id="text_16">
     <!-- 0 -->
     <g transform="translate(527.112965 378.446441) scale(0.1 -0.1)">
      <use xlink:href="#DejaVuSans-30"/>
     </g>
    </g>
   </g>
   <g id="xtick_14">
    <g id="line2d_17">
     <path d="M 510.954418 327.985882 
L 518.244446 329.555635 
" style="fill: none; stroke: #000000; stroke-width: 0.8; stroke-linecap: square"/>
    </g>
    <g id="text_17">
     <!-- 2 -->
     <g transform="translate(528.648612 334.147216) scale(0.1 -0.1)">
      <use xlink:href="#DejaVuSans-32"/>
     </g>
    </g>
   </g>
   <g id="xtick_15">
    <g id="line2d_18">
     <path d="M 512.380217 283.087366 
L 519.717875 284.608818 
" style="fill: none; stroke: #000000; stroke-width: 0.8; stroke-linecap: square"/>
    </g>
    <g id="text_18">
     <!-- 4 -->
     <g transform="translate(530.2035 289.292942) scale(0.1 -0.1)">
      <use xlink:href="#DejaVuSans-34"/>
     </g>
    </g>
   </g>
   <g id="xtick_16">
    <g id="line2d_19">
     <path d="M 513.824014 237.622069 
L 521.209929 239.09387 
" style="fill: none; stroke: #000000; stroke-width: 0.8; stroke-linecap: square"/>
    </g>
    <g id="text_19">
     <!-- 6 -->
     <g transform="translate(531.777993 243.87312) scale(0.1 -0.1)">
      <use xlink:href="#DejaVuSans-36"/>
     </g>
    </g>
   </g>
   <g id="xtick_17">
    <g id="line2d_20">
     <path d="M 515.286153 191.579191 
L 522.720962 192.999952 
" style="fill: none; stroke: #000000; stroke-width: 0.8; stroke-linecap: square"/>
    </g>
    <g id="text_20">
     <!-- 8 -->
     <g transform="translate(533.372463 197.876988) scale(0.1 -0.1)">
      <use xlink:href="#DejaVuSans-38"/>
     </g>
    </g>
   </g>
   <g id="xtick_18">
    <g id="line2d_21">
     <path d="M 516.766986 144.947654 
L 524.25134 146.315944 
" style="fill: none; stroke: #000000; stroke-width: 0.8; stroke-linecap: square"/>
    </g>
    <g id="text_21">
     <!-- 10 -->
     <g transform="translate(531.806045 151.293505) scale(0.1 -0.1)">
      <use xlink:href="#DejaVuSans-31"/>
      <use xlink:href="#DejaVuSans-30" x="63.623047"/>
     </g>
    </g>
   </g>
  </g>
  <g id="axes_1">
   <g id="line2d_22">
    <path d="M 411.729018 218.040246 
L 358.207405 262.647396 
L 289.725703 339.007616 
L 267.014529 364.331611 
L 175.710379 397.074772 
" clip-path="url(#p1d9a7c63ef)" style="fill: none; stroke: #1f77b4; stroke-linecap: square"/>
    <defs>
     <path id="m1ddbfbe81f" d="M 0 2 
C 0.530406 2 1.03916 1.789267 1.414214 1.414214 
C 1.789267 1.03916 2 0.530406 2 0 
C 2 -0.530406 1.789267 -1.03916 1.414214 -1.414214 
C 1.03916 -1.789267 0.530406 -2 0 -2 
C -0.530406 -2 -1.03916 -1.789267 -1.414214 -1.414214 
C -1.789267 -1.03916 -2 -0.530406 -2 0 
C -2 0.530406 -1.789267 1.03916 -1.414214 1.414214 
C -1.03916 1.789267 -0.530406 2 0 2 
z
" style="stroke: #1f77b4"/>
    </defs>
    <g clip-path="url(#p1d9a7c63ef)">
     <use xlink:href="#m1ddbfbe81f" x="411.729018" y="218.040246" style="fill: #1f77b4; stroke: #1f77b4"/>
     <use xlink:href="#m1ddbfbe81f" x="358.207405" y="262.647396" style="fill: #1f77b4; stroke: #1f77b4"/>
     <use xlink:href="#m1ddbfbe81f" x="289.725703" y="339.007616" style="fill: #1f77b4; stroke: #1f77b4"/>
     <use xlink:href="#m1ddbfbe81f" x="267.014529" y="364.331611" style="fill: #1f77b4; stroke: #1f77b4"/>
     <use xlink:href="#m1ddbfbe81f" x="175.710379" y="397.074772" style="fill: #1f77b4; stroke: #1f77b4"/>
    </g>
   </g>
   <g id="line2d_23">
    <path d="M 175.710379 397.074772 
L 404.209587 276.847625 
" clip-path="url(#p1d9a7c63ef)" style="fill: none; stroke: #ff7f0e; stroke-linecap: square"/>
    <defs>
     <path id="mc41e9ca9a7" d="M 0 2 
C 0.530406 2 1.03916 1.789267 1.414214 1.414214 
C 1.789267 1.03916 2 0.530406 2 0 
C 2 -0.530406 1.789267 -1.03916 1.414214 -1.414214 
C 1.03916 -1.789267 0.530406 -2 0 -2 
C -0.530406 -2 -1.03916 -1.789267 -1.414214 -1.414214 
C -1.789267 -1.03916 -2 -0.530406 -2 0 
C -2 0.530406 -1.789267 1.03916 -1.414214 1.414214 
C -1.03916 1.789267 -0.530406 2 0 2 
z
" style="stroke: #ff7f0e"/>
    </defs>
    <g clip-path="url(#p1d9a7c63ef)">
     <use xlink:href="#mc41e9ca9a7" x="175.710379" y="397.074772" style="fill: #ff7f0e; stroke: #ff7f0e"/>
     <use xlink:href="#mc41e9ca9a7" x="404.209587" y="276.847625" style="fill: #ff7f0e; stroke: #ff7f0e"/>
    </g>
   </g>
   <g id="line2d_24">
    <path d="M 404.209587 276.847625 
L 411.729018 218.040246 
" clip-path="url(#p1d9a7c63ef)" style="fill: none; stroke: #2ca02c; stroke-linecap: square"/>
    <defs>
     <path id="m28bfc2fced" d="M 0 2 
C 0.530406 2 1.03916 1.789267 1.414214 1.414214 
C 1.789267 1.03916 2 0.530406 2 0 
C 2 -0.530406 1.789267 -1.03916 1.414214 -1.414214 
C 1.03916 -1.789267 0.530406 -2 0 -2 
C -0.530406 -2 -1.03916 -1.789267 -1.414214 -1.414214 
C -1.789267 -1.03916 -2 -0.530406 -2 0 
C -2 0.530406 -1.789267 1.03916 -1.414214 1.414214 
C -1.03916 1.789267 -0.530406 2 0 2 
z
" style="stroke: #2ca02c"/>
    </defs>
    <g clip-path="url(#p1d9a7c63ef)">
     <use xlink:href="#m28bfc2fced" x="404.209587" y="276.847625" style="fill: #2ca02c; stroke: #2ca02c"/>
     <use xlink:href="#m28bfc2fced" x="411.729018" y="218.040246" style="fill: #2ca02c; stroke: #2ca02c"/>
    </g>
   </g>
   <g id="line2d_25">
    <path d="M 411.729018 218.040246 
L 254.986452 278.007533 
L 124.776971 404.122022 
" clip-path="url(#p1d9a7c63ef)" style="fill: none; stroke: #d62728; stroke-linecap: square"/>
    <defs>
     <path id="m5e99a20a55" d="M 0 2 
C 0.530406 2 1.03916 1.789267 1.414214 1.414214 
C 1.789267 1.03916 2 0.530406 2 0 
C 2 -0.530406 1.789267 -1.03916 1.414214 -1.414214 
C 1.03916 -1.789267 0.530406 -2 0 -2 
C -0.530406 -2 -1.03916 -1.789267 -1.414214 -1.414214 
C -1.789267 -1.03916 -2 -0.530406 -2 0 
C -2 0.530406 -1.789267 1.03916 -1.414214 1.414214 
C -1.03916 1.789267 -0.530406 2 0 2 
z
" style="stroke: #d62728"/>
    </defs>
    <g clip-path="url(#p1d9a7c63ef)">
     <use xlink:href="#m5e99a20a55" x="411.729018" y="218.040246" style="fill: #d62728; stroke: #d62728"/>
     <use xlink:href="#m5e99a20a55" x="254.986452" y="278.007533" style="fill: #d62728; stroke: #d62728"/>
     <use xlink:href="#m5e99a20a55" x="124.776971" y="404.122022" style="fill: #d62728; stroke: #d62728"/>
    </g>
   </g>
   <g id="line2d_26">
    <path d="M 411.729018 218.040246 
L 489.840985 326.331622 
L 411.729018 218.040246 
" clip-path="url(#p1d9a7c63ef)" style="fill: none; stroke: #9467bd; stroke-linecap: square"/>
    <defs>
     <path id="m682bc0666f" d="M 0 2 
C 0.530406 2 1.03916 1.789267 1.414214 1.414214 
C 1.789267 1.03916 2 0.530406 2 0 
C 2 -0.530406 1.789267 -1.03916 1.414214 -1.414214 
C 1.03916 -1.789267 0.530406 -2 0 -2 
C -0.530406 -2 -1.03916 -1.789267 -1.414214 -1.414214 
C -1.789267 -1.03916 -2 -0.530406 -2 0 
C -2 0.530406 -1.789267 1.03916 -1.414214 1.414214 
C -1.03916 1.789267 -0.530406 2 0 2 
z
" style="stroke: #9467bd"/>
    </defs>
    <g clip-path="url(#p1d9a7c63ef)">
     <use xlink:href="#m682bc0666f" x="411.729018" y="218.040246" style="fill: #9467bd; stroke: #9467bd"/>
     <use xlink:href="#m682bc0666f" x="489.840985" y="326.331622" style="fill: #9467bd; stroke: #9467bd"/>
     <use xlink:href="#m682bc0666f" x="411.729018" y="218.040246" style="fill: #9467bd; stroke: #9467bd"/>
    </g>
   </g>
   <g id="line2d_27">
    <path d="M 411.729018 218.040246 
L 403.926866 188.88162 
" clip-path="url(#p1d9a7c63ef)" style="fill: none; stroke: #8c564b; stroke-linecap: square"/>
    <defs>
     <path id="m1f4179ea7c" d="M 0 2 
C 0.530406 2 1.03916 1.789267 1.414214 1.414214 
C 1.789267 1.03916 2 0.530406 2 0 
C 2 -0.530406 1.789267 -1.03916 1.414214 -1.414214 
C 1.03916 -1.789267 0.530406 -2 0 -2 
C -0.530406 -2 -1.03916 -1.789267 -1.414214 -1.414214 
C -1.789267 -1.03916 -2 -0.530406 -2 0 
C -2 0.530406 -1.789267 1.03916 -1.414214 1.414214 
C -1.03916 1.789267 -0.530406 2 0 2 
z
" style="stroke: #8c564b"/>
    </defs>
    <g clip-path="url(#p1d9a7c63ef)">
     <use xlink:href="#m1f4179ea7c" x="411.729018" y="218.040246" style="fill: #8c564b; stroke: #8c564b"/>
     <use xlink:href="#m1f4179ea7c" x="403.926866" y="188.88162" style="fill: #8c564b; stroke: #8c564b"/>
    </g>
   </g>
   <g id="Path3DCollection_1">
    <defs>
     <path id="C0_0_a4f9e1efce" d="M 0 3.872983 
C 1.027127 3.872983 2.012324 3.464901 2.738613 2.738613 
C 3.464901 2.012324 3.872983 1.027127 3.872983 -0 
C 3.872983 -1.027127 3.464901 -2.012324 2.738613 -2.738613 
C 2.012324 -3.464901 1.027127 -3.872983 0 -3.872983 
C -1.027127 -3.872983 -2.012324 -3.464901 -2.738613 -2.738613 
C -3.464901 -2.012324 -3.872983 -1.027127 -3.872983 0 
C -3.872983 1.027127 -3.464901 2.012324 -2.738613 2.738613 
C -2.012324 3.464901 -1.027127 3.872983 0 3.872983 
z
"/>
    </defs>
    <g clip-path="url(#p1d9a7c63ef)">
     <use xlink:href="#C0_0_a4f9e1efce" x="489.840985" y="326.331622" style="fill: #1f77b4; fill-opacity: 0.3; stroke: #1f77b4; stroke-opacity: 0.3"/>
    </g>
    <g clip-path="url(#p1d9a7c63ef)">
     <use xlink:href="#C0_0_a4f9e1efce" x="404.209587" y="276.847625" style="fill: #1f77b4; fill-opacity: 0.328151; stroke: #1f77b4; stroke-opacity: 0.328151"/>
    </g>
    <g clip-path="url(#p1d9a7c63ef)">
     <use xlink:href="#C0_0_a4f9e1efce" x="447.960221" y="263.230785" style="fill: #1f77b4; fill-opacity: 0.463414; stroke: #1f77b4; stroke-opacity: 0.463414"/>
    </g>
    <g clip-path="url(#p1d9a7c63ef)">
     <use xlink:href="#C0_0_a4f9e1efce" x="417.500035" y="316.197011" style="fill: #1f77b4; fill-opacity: 0.464711; stroke: #1f77b4; stroke-opacity: 0.464711"/>
    </g>
    <g clip-path="url(#p1d9a7c63ef)">
     <use xlink:href="#C0_0_a4f9e1efce" x="254.986452" y="278.007533" style="fill: #1f77b4; fill-opacity: 0.623095; stroke: #1f77b4; stroke-opacity: 0.623095"/>
    </g>
    <g clip-path="url(#p1d9a7c63ef)">
     <use xlink:href="#C0_0_a4f9e1efce" x="124.776971" y="404.122022" style="fill: #1f77b4; fill-opacity: 0.678954; stroke: #1f77b4; stroke-opacity: 0.678954"/>
    </g>
    <g clip-path="url(#p1d9a7c63ef)">
     <use xlink:href="#C0_0_a4f9e1efce" x="267.014529" y="364.331611" style="fill: #1f77b4; fill-opacity: 0.68426; stroke: #1f77b4; stroke-opacity: 0.68426"/>
    </g>
    <g clip-path="url(#p1d9a7c63ef)">
     <use xlink:href="#C0_0_a4f9e1efce" x="244.297971" y="378.199236" style="fill: #1f77b4; fill-opacity: 0.688498; stroke: #1f77b4; stroke-opacity: 0.688498"/>
    </g>
    <g clip-path="url(#p1d9a7c63ef)">
     <use xlink:href="#C0_0_a4f9e1efce" x="411.729018" y="218.040246" style="fill: #1f77b4; fill-opacity: 0.702513; stroke: #1f77b4; stroke-opacity: 0.702513"/>
    </g>
    <g clip-path="url(#p1d9a7c63ef)">
     <use xlink:href="#C0_0_a4f9e1efce" x="78.92416" y="420.540054" style="fill: #1f77b4; fill-opacity: 0.707847; stroke: #1f77b4; stroke-opacity: 0.707847"/>
    </g>
    <g clip-path="url(#p1d9a7c63ef)">
     <use xlink:href="#C0_0_a4f9e1efce" x="457.364239" y="178.654857" style="fill: #1f77b4; fill-opacity: 0.714462; stroke: #1f77b4; stroke-opacity: 0.714462"/>
    </g>
    <g clip-path="url(#p1d9a7c63ef)">
     <use xlink:href="#C0_0_a4f9e1efce" x="175.710379" y="397.074772" style="fill: #1f77b4; fill-opacity: 0.742227; stroke: #1f77b4; stroke-opacity: 0.742227"/>
    </g>
    <g clip-path="url(#p1d9a7c63ef)">
     <use xlink:href="#C0_0_a4f9e1efce" x="129.993242" y="424.967982" style="fill: #1f77b4; fill-opacity: 0.750784; stroke: #1f77b4; stroke-opacity: 0.750784"/>
    </g>
    <g clip-path="url(#p1d9a7c63ef)">
     <use xlink:href="#C0_0_a4f9e1efce" x="403.926866" y="188.88162" style="fill: #1f77b4; stroke: #1f77b4"/>
    </g>
   </g>
   <g id="text_22">
    <!-- Coma -->
    <g transform="translate(82.57421 418.314967) scale(0.1 -0.1)">
     <defs>
      <path id="DejaVuSans-6d" d="M 3328 2828 
Q 3544 3216 3844 3400 
Q 4144 3584 4550 3584 
Q 5097 3584 5394 3201 
Q 5691 2819 5691 2113 
L 5691 0 
L 5113 0 
L 5113 2094 
Q 5113 2597 4934 2840 
Q 4756 3084 4391 3084 
Q 3944 3084 3684 2787 
Q 3425 2491 3425 1978 
L 3425 0 
L 2847 0 
L 2847 2094 
Q 2847 2600 2669 2842 
Q 2491 3084 2119 3084 
Q 1678 3084 1418 2786 
Q 1159 2488 1159 1978 
L 1159 0 
L 581 0 
L 581 3500 
L 1159 3500 
L 1159 2956 
Q 1356 3278 1631 3431 
Q 1906 3584 2284 3584 
Q 2666 3584 2933 3390 
Q 3200 3197 3328 2828 
z
" transform="scale(0.015625)"/>
     </defs>
     <use xlink:href="#DejaVuSans-43"/>
     <use xlink:href="#DejaVuSans-6f" x="69.824219"/>
     <use xlink:href="#DejaVuSans-6d" x="131.005859"/>
     <use xlink:href="#DejaVuSans-61" x="228.417969"/>
    </g>
   </g>
   <g id="text_23">
    <!-- Vegetative -->
    <g transform="translate(133.65287 422.735148) scale(0.1 -0.1)">
     <defs>
      <path id="DejaVuSans-56" d="M 1831 0 
L 50 4666 
L 709 4666 
L 2188 738 
L 3669 4666 
L 4325 4666 
L 2547 0 
L 1831 0 
z
" transform="scale(0.015625)"/>
     </defs>
     <use xlink:href="#DejaVuSans-56"/>
     <use xlink:href="#DejaVuSans-65" x="60.658203"/>
     <use xlink:href="#DejaVuSans-67" x="122.181641"/>
     <use xlink:href="#DejaVuSans-65" x="185.658203"/>
     <use xlink:href="#DejaVuSans-74" x="247.181641"/>
     <use xlink:href="#DejaVuSans-61" x="286.390625"/>
     <use xlink:href="#DejaVuSans-74" x="347.669922"/>
     <use xlink:href="#DejaVuSans-69" x="386.878906"/>
     <use xlink:href="#DejaVuSans-76" x="414.662109"/>
     <use xlink:href="#DejaVuSans-65" x="473.841797"/>
    </g>
   </g>
   <g id="text_24">
    <!-- MCS -->
    <g transform="translate(247.933639 375.979794) scale(0.1 -0.1)">
     <use xlink:href="#DejaVuSans-4d"/>
     <use xlink:href="#DejaVuSans-43" x="86.279297"/>
     <use xlink:href="#DejaVuSans-53" x="156.103516"/>
    </g>
   </g>
   <g id="text_25">
    <!-- N3 (SWS) -->
    <g transform="translate(179.365103 394.844931) scale(0.1 -0.1)">
     <defs>
      <path id="DejaVuSans-4e" d="M 628 4666 
L 1478 4666 
L 3547 763 
L 3547 4666 
L 4159 4666 
L 4159 0 
L 3309 0 
L 1241 3903 
L 1241 0 
L 628 0 
L 628 4666 
z
" transform="scale(0.015625)"/>
      <path id="DejaVuSans-33" d="M 2597 2516 
Q 3050 2419 3304 2112 
Q 3559 1806 3559 1356 
Q 3559 666 3084 287 
Q 2609 -91 1734 -91 
Q 1441 -91 1130 -33 
Q 819 25 488 141 
L 488 750 
Q 750 597 1062 519 
Q 1375 441 1716 441 
Q 2309 441 2620 675 
Q 2931 909 2931 1356 
Q 2931 1769 2642 2001 
Q 2353 2234 1838 2234 
L 1294 2234 
L 1294 2753 
L 1863 2753 
Q 2328 2753 2575 2939 
Q 2822 3125 2822 3475 
Q 2822 3834 2567 4026 
Q 2313 4219 1838 4219 
Q 1578 4219 1281 4162 
Q 984 4106 628 3988 
L 628 4550 
Q 988 4650 1302 4700 
Q 1616 4750 1894 4750 
Q 2613 4750 3031 4423 
Q 3450 4097 3450 3541 
Q 3450 3153 3228 2886 
Q 3006 2619 2597 2516 
z
" transform="scale(0.015625)"/>
      <path id="DejaVuSans-57" d="M 213 4666 
L 850 4666 
L 1831 722 
L 2809 4666 
L 3519 4666 
L 4500 722 
L 5478 4666 
L 6119 4666 
L 4947 0 
L 4153 0 
L 3169 4050 
L 2175 0 
L 1381 0 
L 213 4666 
z
" transform="scale(0.015625)"/>
     </defs>
     <use xlink:href="#DejaVuSans-4e"/>
     <use xlink:href="#DejaVuSans-33" x="74.804688"/>
     <use xlink:href="#DejaVuSans-20" x="138.427734"/>
     <use xlink:href="#DejaVuSans-28" x="170.214844"/>
     <use xlink:href="#DejaVuSans-53" x="209.228516"/>
     <use xlink:href="#DejaVuSans-57" x="272.705078"/>
     <use xlink:href="#DejaVuSans-53" x="371.582031"/>
     <use xlink:href="#DejaVuSans-29" x="435.058594"/>
    </g>
   </g>
   <g id="text_26">
    <!-- N2 -->
    <g transform="translate(270.647771 362.11365) scale(0.1 -0.1)">
     <use xlink:href="#DejaVuSans-4e"/>
     <use xlink:href="#DejaVuSans-32" x="74.804688"/>
    </g>
   </g>
   <g id="text_27">
    <!-- REM -->
    <g transform="translate(407.733828 274.696398) scale(0.1 -0.1)">
     <defs>
      <path id="DejaVuSans-52" d="M 2841 2188 
Q 3044 2119 3236 1894 
Q 3428 1669 3622 1275 
L 4263 0 
L 3584 0 
L 2988 1197 
Q 2756 1666 2539 1819 
Q 2322 1972 1947 1972 
L 1259 1972 
L 1259 0 
L 628 0 
L 628 4666 
L 2053 4666 
Q 2853 4666 3247 4331 
Q 3641 3997 3641 3322 
Q 3641 2881 3436 2590 
Q 3231 2300 2841 2188 
z
M 1259 4147 
L 1259 2491 
L 2053 2491 
Q 2509 2491 2742 2702 
Q 2975 2913 2975 3322 
Q 2975 3731 2742 3939 
Q 2509 4147 2053 4147 
L 1259 4147 
z
" transform="scale(0.015625)"/>
      <path id="DejaVuSans-45" d="M 628 4666 
L 3578 4666 
L 3578 4134 
L 1259 4134 
L 1259 2753 
L 3481 2753 
L 3481 2222 
L 1259 2222 
L 1259 531 
L 3634 531 
L 3634 0 
L 628 0 
L 628 4666 
z
" transform="scale(0.015625)"/>
     </defs>
     <use xlink:href="#DejaVuSans-52"/>
     <use xlink:href="#DejaVuSans-45" x="69.482422"/>
     <use xlink:href="#DejaVuSans-4d" x="132.666016"/>
    </g>
   </g>
   <g id="text_28">
    <!-- Deep Anesthesia -->
    <g transform="translate(128.416285 401.902864) scale(0.1 -0.1)">
     <defs>
      <path id="DejaVuSans-44" d="M 1259 4147 
L 1259 519 
L 2022 519 
Q 2988 519 3436 956 
Q 3884 1394 3884 2338 
Q 3884 3275 3436 3711 
Q 2988 4147 2022 4147 
L 1259 4147 
z
M 628 4666 
L 1925 4666 
Q 3281 4666 3915 4102 
Q 4550 3538 4550 2338 
Q 4550 1131 3912 565 
Q 3275 0 1925 0 
L 628 0 
L 628 4666 
z
" transform="scale(0.015625)"/>
      <path id="DejaVuSans-70" d="M 1159 525 
L 1159 -1331 
L 581 -1331 
L 581 3500 
L 1159 3500 
L 1159 2969 
Q 1341 3281 1617 3432 
Q 1894 3584 2278 3584 
Q 2916 3584 3314 3078 
Q 3713 2572 3713 1747 
Q 3713 922 3314 415 
Q 2916 -91 2278 -91 
Q 1894 -91 1617 61 
Q 1341 213 1159 525 
z
M 3116 1747 
Q 3116 2381 2855 2742 
Q 2594 3103 2138 3103 
Q 1681 3103 1420 2742 
Q 1159 2381 1159 1747 
Q 1159 1113 1420 752 
Q 1681 391 2138 391 
Q 2594 391 2855 752 
Q 3116 1113 3116 1747 
z
" transform="scale(0.015625)"/>
      <path id="DejaVuSans-41" d="M 2188 4044 
L 1331 1722 
L 3047 1722 
L 2188 4044 
z
M 1831 4666 
L 2547 4666 
L 4325 0 
L 3669 0 
L 3244 1197 
L 1141 1197 
L 716 0 
L 50 0 
L 1831 4666 
z
" transform="scale(0.015625)"/>
      <path id="DejaVuSans-73" d="M 2834 3397 
L 2834 2853 
Q 2591 2978 2328 3040 
Q 2066 3103 1784 3103 
Q 1356 3103 1142 2972 
Q 928 2841 928 2578 
Q 928 2378 1081 2264 
Q 1234 2150 1697 2047 
L 1894 2003 
Q 2506 1872 2764 1633 
Q 3022 1394 3022 966 
Q 3022 478 2636 193 
Q 2250 -91 1575 -91 
Q 1294 -91 989 -36 
Q 684 19 347 128 
L 347 722 
Q 666 556 975 473 
Q 1284 391 1588 391 
Q 1994 391 2212 530 
Q 2431 669 2431 922 
Q 2431 1156 2273 1281 
Q 2116 1406 1581 1522 
L 1381 1569 
Q 847 1681 609 1914 
Q 372 2147 372 2553 
Q 372 3047 722 3315 
Q 1072 3584 1716 3584 
Q 2034 3584 2315 3537 
Q 2597 3491 2834 3397 
z
" transform="scale(0.015625)"/>
      <path id="DejaVuSans-68" d="M 3513 2113 
L 3513 0 
L 2938 0 
L 2938 2094 
Q 2938 2591 2744 2837 
Q 2550 3084 2163 3084 
Q 1697 3084 1428 2787 
Q 1159 2491 1159 1978 
L 1159 0 
L 581 0 
L 581 4863 
L 1159 4863 
L 1159 2956 
Q 1366 3272 1645 3428 
Q 1925 3584 2291 3584 
Q 2894 3584 3203 3211 
Q 3513 2838 3513 2113 
z
" transform="scale(0.015625)"/>
     </defs>
     <use xlink:href="#DejaVuSans-44"/>
     <use xlink:href="#DejaVuSans-65" x="77.001953"/>
     <use xlink:href="#DejaVuSans-65" x="138.525391"/>
     <use xlink:href="#DejaVuSans-70" x="200.048828"/>
     <use xlink:href="#DejaVuSans-20" x="263.525391"/>
     <use xlink:href="#DejaVuSans-41" x="295.3125"/>
     <use xlink:href="#DejaVuSans-6e" x="363.720703"/>
     <use xlink:href="#DejaVuSans-65" x="427.099609"/>
     <use xlink:href="#DejaVuSans-73" x="488.623047"/>
     <use xlink:href="#DejaVuSans-74" x="540.722656"/>
     <use xlink:href="#DejaVuSans-68" x="579.931641"/>
     <use xlink:href="#DejaVuSans-65" x="643.310547"/>
     <use xlink:href="#DejaVuSans-73" x="704.833984"/>
     <use xlink:href="#DejaVuSans-69" x="756.933594"/>
     <use xlink:href="#DejaVuSans-61" x="784.716797"/>
    </g>
   </g>
   <g id="text_29">
    <!-- Light Sedation -->
    <g transform="translate(258.602835 275.80484) scale(0.1 -0.1)">
     <defs>
      <path id="DejaVuSans-64" d="M 2906 2969 
L 2906 4863 
L 3481 4863 
L 3481 0 
L 2906 0 
L 2906 525 
Q 2725 213 2448 61 
Q 2172 -91 1784 -91 
Q 1150 -91 751 415 
Q 353 922 353 1747 
Q 353 2572 751 3078 
Q 1150 3584 1784 3584 
Q 2172 3584 2448 3432 
Q 2725 3281 2906 2969 
z
M 947 1747 
Q 947 1113 1208 752 
Q 1469 391 1925 391 
Q 2381 391 2643 752 
Q 2906 1113 2906 1747 
Q 2906 2381 2643 2742 
Q 2381 3103 1925 3103 
Q 1469 3103 1208 2742 
Q 947 2381 947 1747 
z
" transform="scale(0.015625)"/>
     </defs>
     <use xlink:href="#DejaVuSans-4c"/>
     <use xlink:href="#DejaVuSans-69" x="55.712891"/>
     <use xlink:href="#DejaVuSans-67" x="83.496094"/>
     <use xlink:href="#DejaVuSans-68" x="146.972656"/>
     <use xlink:href="#DejaVuSans-74" x="210.351562"/>
     <use xlink:href="#DejaVuSans-20" x="249.560547"/>
     <use xlink:href="#DejaVuSans-53" x="281.347656"/>
     <use xlink:href="#DejaVuSans-65" x="344.824219"/>
     <use xlink:href="#DejaVuSans-64" x="406.347656"/>
     <use xlink:href="#DejaVuSans-61" x="469.824219"/>
     <use xlink:href="#DejaVuSans-74" x="531.103516"/>
     <use xlink:href="#DejaVuSans-69" x="570.3125"/>
     <use xlink:href="#DejaVuSans-6f" x="598.095703"/>
     <use xlink:href="#DejaVuSans-6e" x="659.277344"/>
    </g>
   </g>
   <g id="text_30">
    <!-- Wake (resting) -->
    <g transform="translate(415.359746 215.826918) scale(0.1 -0.1)">
     <defs>
      <path id="DejaVuSans-6b" d="M 581 4863 
L 1159 4863 
L 1159 1991 
L 2875 3500 
L 3609 3500 
L 1753 1863 
L 3688 0 
L 2938 0 
L 1159 1709 
L 1159 0 
L 581 0 
L 581 4863 
z
" transform="scale(0.015625)"/>
      <path id="DejaVuSans-72" d="M 2631 2963 
Q 2534 3019 2420 3045 
Q 2306 3072 2169 3072 
Q 1681 3072 1420 2755 
Q 1159 2438 1159 1844 
L 1159 0 
L 581 0 
L 581 3500 
L 1159 3500 
L 1159 2956 
Q 1341 3275 1631 3429 
Q 1922 3584 2338 3584 
Q 2397 3584 2469 3576 
Q 2541 3569 2628 3553 
L 2631 2963 
z
" transform="scale(0.015625)"/>
     </defs>
     <use xlink:href="#DejaVuSans-57"/>
     <use xlink:href="#DejaVuSans-61" x="92.501953"/>
     <use xlink:href="#DejaVuSans-6b" x="153.78125"/>
     <use xlink:href="#DejaVuSans-65" x="208.066406"/>
     <use xlink:href="#DejaVuSans-20" x="269.589844"/>
     <use xlink:href="#DejaVuSans-28" x="301.376953"/>
     <use xlink:href="#DejaVuSans-72" x="340.390625"/>
     <use xlink:href="#DejaVuSans-65" x="379.253906"/>
     <use xlink:href="#DejaVuSans-73" x="440.777344"/>
     <use xlink:href="#DejaVuSans-74" x="492.876953"/>
     <use xlink:href="#DejaVuSans-69" x="532.085938"/>
     <use xlink:href="#DejaVuSans-6e" x="559.869141"/>
     <use xlink:href="#DejaVuSans-67" x="623.248047"/>
     <use xlink:href="#DejaVuSans-29" x="686.724609"/>
    </g>
   </g>
   <g id="text_31">
    <!-- Wake (task) -->
    <g transform="translate(460.995937 176.441556) scale(0.1 -0.1)">
     <use xlink:href="#DejaVuSans-57"/>
     <use xlink:href="#DejaVuSans-61" x="92.501953"/>
     <use xlink:href="#DejaVuSans-6b" x="153.78125"/>
     <use xlink:href="#DejaVuSans-65" x="208.066406"/>
     <use xlink:href="#DejaVuSans-20" x="269.589844"/>
     <use xlink:href="#DejaVuSans-28" x="301.376953"/>
     <use xlink:href="#DejaVuSans-74" x="340.390625"/>
     <use xlink:href="#DejaVuSans-61" x="379.599609"/>
     <use xlink:href="#DejaVuSans-73" x="440.878906"/>
     <use xlink:href="#DejaVuSans-6b" x="492.978516"/>
     <use xlink:href="#DejaVuSans-29" x="550.888672"/>
    </g>
   </g>
   <g id="text_32">
    <!-- Depersonalization -->
    <g transform="translate(421.06257 314.01992) scale(0.1 -0.1)">
     <defs>
      <path id="DejaVuSans-7a" d="M 353 3500 
L 3084 3500 
L 3084 2975 
L 922 459 
L 3084 459 
L 3084 0 
L 275 0 
L 275 525 
L 2438 3041 
L 353 3041 
L 353 3500 
z
" transform="scale(0.015625)"/>
     </defs>
     <use xlink:href="#DejaVuSans-44"/>
     <use xlink:href="#DejaVuSans-65" x="77.001953"/>
     <use xlink:href="#DejaVuSans-70" x="138.525391"/>
     <use xlink:href="#DejaVuSans-65" x="202.001953"/>
     <use xlink:href="#DejaVuSans-72" x="263.525391"/>
     <use xlink:href="#DejaVuSans-73" x="304.638672"/>
     <use xlink:href="#DejaVuSans-6f" x="356.738281"/>
     <use xlink:href="#DejaVuSans-6e" x="417.919922"/>
     <use xlink:href="#DejaVuSans-61" x="481.298828"/>
     <use xlink:href="#DejaVuSans-6c" x="542.578125"/>
     <use xlink:href="#DejaVuSans-69" x="570.361328"/>
     <use xlink:href="#DejaVuSans-7a" x="598.144531"/>
     <use xlink:href="#DejaVuSans-61" x="650.634766"/>
     <use xlink:href="#DejaVuSans-74" x="711.914062"/>
     <use xlink:href="#DejaVuSans-69" x="751.123047"/>
     <use xlink:href="#DejaVuSans-6f" x="778.90625"/>
     <use xlink:href="#DejaVuSans-6e" x="840.087891"/>
    </g>
   </g>
   <g id="text_33">
    <!-- Psychedelics -->
    <g transform="translate(493.352756 324.182741) scale(0.1 -0.1)">
     <defs>
      <path id="DejaVuSans-50" d="M 1259 4147 
L 1259 2394 
L 2053 2394 
Q 2494 2394 2734 2622 
Q 2975 2850 2975 3272 
Q 2975 3691 2734 3919 
Q 2494 4147 2053 4147 
L 1259 4147 
z
M 628 4666 
L 2053 4666 
Q 2838 4666 3239 4311 
Q 3641 3956 3641 3272 
Q 3641 2581 3239 2228 
Q 2838 1875 2053 1875 
L 1259 1875 
L 1259 0 
L 628 0 
L 628 4666 
z
" transform="scale(0.015625)"/>
      <path id="DejaVuSans-79" d="M 2059 -325 
Q 1816 -950 1584 -1140 
Q 1353 -1331 966 -1331 
L 506 -1331 
L 506 -850 
L 844 -850 
Q 1081 -850 1212 -737 
Q 1344 -625 1503 -206 
L 1606 56 
L 191 3500 
L 800 3500 
L 1894 763 
L 2988 3500 
L 3597 3500 
L 2059 -325 
z
" transform="scale(0.015625)"/>
     </defs>
     <use xlink:href="#DejaVuSans-50"/>
     <use xlink:href="#DejaVuSans-73" x="58.552734"/>
     <use xlink:href="#DejaVuSans-79" x="110.652344"/>
     <use xlink:href="#DejaVuSans-63" x="169.832031"/>
     <use xlink:href="#DejaVuSans-68" x="224.8125"/>
     <use xlink:href="#DejaVuSans-65" x="288.191406"/>
     <use xlink:href="#DejaVuSans-64" x="349.714844"/>
     <use xlink:href="#DejaVuSans-65" x="413.191406"/>
     <use xlink:href="#DejaVuSans-6c" x="474.714844"/>
     <use xlink:href="#DejaVuSans-69" x="502.498047"/>
     <use xlink:href="#DejaVuSans-63" x="530.28125"/>
     <use xlink:href="#DejaVuSans-73" x="585.261719"/>
    </g>
   </g>
   <g id="text_34">
    <!-- Meditation (vipassana) -->
    <g transform="translate(407.64295 186.618113) scale(0.1 -0.1)">
     <use xlink:href="#DejaVuSans-4d"/>
     <use xlink:href="#DejaVuSans-65" x="86.279297"/>
     <use xlink:href="#DejaVuSans-64" x="147.802734"/>
     <use xlink:href="#DejaVuSans-69" x="211.279297"/>
     <use xlink:href="#DejaVuSans-74" x="239.0625"/>
     <use xlink:href="#DejaVuSans-61" x="278.271484"/>
     <use xlink:href="#DejaVuSans-74" x="339.550781"/>
     <use xlink:href="#DejaVuSans-69" x="378.759766"/>
     <use xlink:href="#DejaVuSans-6f" x="406.542969"/>
     <use xlink:href="#DejaVuSans-6e" x="467.724609"/>
     <use xlink:href="#DejaVuSans-20" x="531.103516"/>
     <use xlink:href="#DejaVuSans-28" x="562.890625"/>
     <use xlink:href="#DejaVuSans-76" x="601.904297"/>
     <use xlink:href="#DejaVuSans-69" x="661.083984"/>
     <use xlink:href="#DejaVuSans-70" x="688.867188"/>
     <use xlink:href="#DejaVuSans-61" x="752.34375"/>
     <use xlink:href="#DejaVuSans-73" x="813.623047"/>
     <use xlink:href="#DejaVuSans-73" x="865.722656"/>
     <use xlink:href="#DejaVuSans-61" x="917.822266"/>
     <use xlink:href="#DejaVuSans-6e" x="979.101562"/>
     <use xlink:href="#DejaVuSans-61" x="1042.480469"/>
     <use xlink:href="#DejaVuSans-29" x="1103.759766"/>
    </g>
   </g>
   <g id="text_35">
    <!-- Flow -->
    <g transform="translate(451.520788 261.056698) scale(0.1 -0.1)">
     <defs>
      <path id="DejaVuSans-46" d="M 628 4666 
L 3309 4666 
L 3309 4134 
L 1259 4134 
L 1259 2759 
L 3109 2759 
L 3109 2228 
L 1259 2228 
L 1259 0 
L 628 0 
L 628 4666 
z
" transform="scale(0.015625)"/>
      <path id="DejaVuSans-77" d="M 269 3500 
L 844 3500 
L 1563 769 
L 2278 3500 
L 2956 3500 
L 3675 769 
L 4391 3500 
L 4966 3500 
L 4050 0 
L 3372 0 
L 2619 2869 
L 1863 0 
L 1184 0 
L 269 3500 
z
" transform="scale(0.015625)"/>
     </defs>
     <use xlink:href="#DejaVuSans-46"/>
     <use xlink:href="#DejaVuSans-6c" x="57.519531"/>
     <use xlink:href="#DejaVuSans-6f" x="85.302734"/>
     <use xlink:href="#DejaVuSans-77" x="146.484375"/>
    </g>
   </g>
   <g id="text_36">
    <!-- 3D   (L  , C  , S  /) -->
    <g transform="translate(23.925 16.318125) scale(0.12 -0.12)">
     <defs>
      <path id="DejaVuSans-43a" d="M 581 3500 
L 1153 3500 
L 1153 1856 
L 2775 3500 
L 3481 3500 
L 2144 2147 
L 3653 0 
L 3009 0 
L 1769 1766 
L 1153 1141 
L 1153 0 
L 581 0 
L 581 3500 
z
" transform="scale(0.015625)"/>
      <path id="DejaVuSans-430" d="M 2194 1759 
Q 1497 1759 1228 1600 
Q 959 1441 959 1056 
Q 959 750 1161 570 
Q 1363 391 1709 391 
Q 2188 391 2477 730 
Q 2766 1069 2766 1631 
L 2766 1759 
L 2194 1759 
z
M 3341 1997 
L 3341 0 
L 2766 0 
L 2766 531 
Q 2569 213 2275 61 
Q 1981 -91 1556 -91 
Q 1019 -91 701 211 
Q 384 513 384 1019 
Q 384 1609 779 1909 
Q 1175 2209 1959 2209 
L 2766 2209 
L 2766 2266 
Q 2766 2663 2505 2880 
Q 2244 3097 1772 3097 
Q 1472 3097 1187 3025 
Q 903 2953 641 2809 
L 641 3341 
Q 956 3463 1253 3523 
Q 1550 3584 1831 3584 
Q 2591 3584 2966 3190 
Q 3341 2797 3341 1997 
z
" transform="scale(0.015625)"/>
      <path id="DejaVuSans-440" d="M 1159 525 
L 1159 -1331 
L 581 -1331 
L 581 3500 
L 1159 3500 
L 1159 2969 
Q 1341 3281 1617 3432 
Q 1894 3584 2278 3584 
Q 2916 3584 3314 3078 
Q 3713 2572 3713 1747 
Q 3713 922 3314 415 
Q 2916 -91 2278 -91 
Q 1894 -91 1617 61 
Q 1341 213 1159 525 
z
M 3116 1747 
Q 3116 2381 2855 2742 
Q 2594 3103 2138 3103 
Q 1681 3103 1420 2742 
Q 1159 2381 1159 1747 
Q 1159 1113 1420 752 
Q 1681 391 2138 391 
Q 2594 391 2855 752 
Q 3116 1113 3116 1747 
z
" transform="scale(0.015625)"/>
      <path id="DejaVuSans-442" d="M 188 3500 
L 3541 3500 
L 3541 3041 
L 2147 3041 
L 2147 0 
L 1581 0 
L 1581 3041 
L 188 3041 
L 188 3500 
z
" transform="scale(0.015625)"/>
      <path id="DejaVuSans-441" d="M 3122 3366 
L 3122 2828 
Q 2878 2963 2633 3030 
Q 2388 3097 2138 3097 
Q 1578 3097 1268 2742 
Q 959 2388 959 1747 
Q 959 1106 1268 751 
Q 1578 397 2138 397 
Q 2388 397 2633 464 
Q 2878 531 3122 666 
L 3122 134 
Q 2881 22 2623 -34 
Q 2366 -91 2075 -91 
Q 1284 -91 818 406 
Q 353 903 353 1747 
Q 353 2603 823 3093 
Q 1294 3584 2113 3584 
Q 2378 3584 2631 3529 
Q 2884 3475 3122 3366 
z
" transform="scale(0.015625)"/>
      <path id="DejaVuSans-43e" d="M 1959 3097 
Q 1497 3097 1228 2736 
Q 959 2375 959 1747 
Q 959 1119 1226 758 
Q 1494 397 1959 397 
Q 2419 397 2687 759 
Q 2956 1122 2956 1747 
Q 2956 2369 2687 2733 
Q 2419 3097 1959 3097 
z
M 1959 3584 
Q 2709 3584 3137 3096 
Q 3566 2609 3566 1747 
Q 3566 888 3137 398 
Q 2709 -91 1959 -91 
Q 1206 -91 779 398 
Q 353 888 353 1747 
Q 353 2609 779 3096 
Q 1206 3584 1959 3584 
z
" transform="scale(0.015625)"/>
      <path id="DejaVuSans-437" d="M 2206 1888 
Q 2594 1813 2809 1584 
Q 3025 1356 3025 1019 
Q 3025 478 2622 193 
Q 2219 -91 1475 -91 
Q 1225 -91 961 -47 
Q 697 -3 416 84 
L 416 619 
Q 638 503 903 445 
Q 1169 388 1459 388 
Q 1931 388 2195 563 
Q 2459 738 2459 1019 
Q 2459 1294 2225 1461 
Q 1991 1628 1563 1628 
L 1100 1628 
L 1100 2103 
L 1584 2103 
Q 1947 2103 2158 2242 
Q 2369 2381 2369 2600 
Q 2369 2800 2151 2944 
Q 1934 3088 1563 3088 
Q 1341 3088 1089 3047 
Q 838 3006 534 2916 
L 534 3438 
Q 841 3513 1106 3550 
Q 1372 3588 1609 3588 
Q 2222 3588 2576 3342 
Q 2931 3097 2931 2656 
Q 2931 2366 2743 2164 
Q 2556 1963 2206 1888 
z
" transform="scale(0.015625)"/>
      <path id="DejaVuSans-43d" d="M 581 3500 
L 1159 3500 
L 1159 2072 
L 3025 2072 
L 3025 3500 
L 3603 3500 
L 3603 0 
L 3025 0 
L 3025 1613 
L 1159 1613 
L 1159 0 
L 581 0 
L 581 3500 
z
" transform="scale(0.015625)"/>
      <path id="DejaVuSans-438" d="M 3578 3500 
L 3578 0 
L 3006 0 
L 3006 2809 
L 1319 0 
L 581 0 
L 581 3500 
L 1153 3500 
L 1153 697 
L 2838 3500 
L 3578 3500 
z
" transform="scale(0.015625)"/>
      <path id="DejaVuSans-44f" d="M 1181 2491 
Q 1181 2231 1381 2084 
Q 1581 1938 1953 1938 
L 2728 1938 
L 2728 3041 
L 1953 3041 
Q 1581 3041 1381 2897 
Q 1181 2753 1181 2491 
z
M 363 0 
L 1431 1534 
Q 1069 1616 828 1830 
Q 588 2044 588 2491 
Q 588 2997 923 3248 
Q 1259 3500 1938 3500 
L 3306 3500 
L 3306 0 
L 2728 0 
L 2728 1478 
L 2013 1478 
L 981 0 
L 363 0 
z
" transform="scale(0.015625)"/>
      <path id="DejaVuSans-2014" d="M 313 1978 
L 6088 1978 
L 6088 1528 
L 313 1528 
L 313 1978 
z
" transform="scale(0.015625)"/>
      <path id="DejaVuSans-443" d="M 2059 -325 
Q 1816 -950 1584 -1140 
Q 1353 -1331 966 -1331 
L 506 -1331 
L 506 -850 
L 844 -850 
Q 1081 -850 1212 -737 
Q 1344 -625 1503 -206 
L 1606 56 
L 191 3500 
L 800 3500 
L 1894 763 
L 2988 3500 
L 3597 3500 
L 2059 -325 
z
" transform="scale(0.015625)"/>
      <path id="DejaVuSans-432" d="M 1156 1613 
L 1156 459 
L 1975 459 
Q 2369 459 2575 607 
Q 2781 756 2781 1038 
Q 2781 1319 2575 1466 
Q 2369 1613 1975 1613 
L 1156 1613 
z
M 1156 3041 
L 1156 2072 
L 1913 2072 
Q 2238 2072 2444 2201 
Q 2650 2331 2650 2563 
Q 2650 2794 2444 2917 
Q 2238 3041 1913 3041 
L 1156 3041 
z
M 581 3500 
L 1950 3500 
Q 2566 3500 2897 3275 
Q 3228 3050 3228 2634 
Q 3228 2313 3059 2123 
Q 2891 1934 2559 1888 
Q 2956 1813 3175 1575 
Q 3394 1338 3394 981 
Q 3394 513 3033 256 
Q 2672 0 2003 0 
L 581 0 
L 581 3500 
z
" transform="scale(0.015625)"/>
      <path id="DejaVuSans-435" d="M 3597 1894 
L 3597 1613 
L 953 1613 
Q 991 1019 1311 708 
Q 1631 397 2203 397 
Q 2534 397 2845 478 
Q 3156 559 3463 722 
L 3463 178 
Q 3153 47 2828 -22 
Q 2503 -91 2169 -91 
Q 1331 -91 842 396 
Q 353 884 353 1716 
Q 353 2575 817 3079 
Q 1281 3584 2069 3584 
Q 2775 3584 3186 3129 
Q 3597 2675 3597 1894 
z
M 3022 2063 
Q 3016 2534 2758 2815 
Q 2500 3097 2075 3097 
Q 1594 3097 1305 2825 
Q 1016 2553 972 2059 
L 3022 2063 
z
" transform="scale(0.015625)"/>
      <path id="DejaVuSans-44c" d="M 2781 1038 
Q 2781 1319 2576 1466 
Q 2372 1613 1978 1613 
L 1159 1613 
L 1159 459 
L 1978 459 
Q 2372 459 2576 607 
Q 2781 756 2781 1038 
z
M 581 3500 
L 1159 3500 
L 1159 2072 
L 2003 2072 
Q 2672 2072 3033 1817 
Q 3394 1563 3394 1038 
Q 3394 513 3033 256 
Q 2672 0 2003 0 
L 581 0 
L 581 3500 
z
" transform="scale(0.015625)"/>
      <path id="DejaVuSans-2c" d="M 750 794 
L 1409 794 
L 1409 256 
L 897 -744 
L 494 -744 
L 750 256 
L 750 794 
z
" transform="scale(0.015625)"/>
      <path id="DejaVuSans-434" d="M 1384 459 
L 3053 459 
L 3053 3041 
L 1844 3041 
L 1844 2603 
Q 1844 1316 1475 628 
L 1384 459 
z
M 550 459 
Q 834 584 959 850 
Q 1266 1509 1266 2838 
L 1266 3500 
L 3631 3500 
L 3631 459 
L 4091 459 
L 4091 -884 
L 3631 -884 
L 3631 0 
L 794 0 
L 794 -884 
L 334 -884 
L 334 459 
L 550 459 
z
" transform="scale(0.015625)"/>
      <path id="DejaVuSans-436" d="M 2597 3500 
L 3169 3500 
L 3169 1856 
L 4697 3500 
L 5366 3500 
L 4109 2153 
L 5547 0 
L 4931 0 
L 3753 1769 
L 3169 1141 
L 3169 0 
L 2597 0 
L 2597 1141 
L 2013 1769 
L 834 0 
L 219 0 
L 1656 2153 
L 400 3500 
L 1069 3500 
L 2597 1856 
L 2597 3500 
z
" transform="scale(0.015625)"/>
      <path id="DejaVuSans-43c" d="M 581 3500 
L 1422 3500 
L 2416 1156 
L 3413 3500 
L 4247 3500 
L 4247 0 
L 3669 0 
L 3669 2950 
L 2703 672 
L 2128 672 
L 1159 2950 
L 1159 0 
L 581 0 
L 581 3500 
z
" transform="scale(0.015625)"/>
      <path id="DejaVuSans-433" d="M 581 0 
L 581 3500 
L 3050 3500 
L 3050 3041 
L 1159 3041 
L 1159 0 
L 581 0 
z
" transform="scale(0.015625)"/>
      <path id="DejaVuSans-446" d="M 3603 0 
L 581 0 
L 581 3500 
L 1159 3500 
L 1159 459 
L 3025 459 
L 3025 3500 
L 3603 3500 
L 3603 459 
L 4063 459 
L 4063 -884 
L 3603 -884 
L 3603 0 
z
" transform="scale(0.015625)"/>
     </defs>
     <use xlink:href="#DejaVuSans-33"/>
     <use xlink:href="#DejaVuSans-44" x="63.623047"/>
     <use xlink:href="#DejaVuSans-20" x="140.625"/>
     <use xlink:href="#DejaVuSans-43a" x="172.412109"/>
     <use xlink:href="#DejaVuSans-430" x="232.8125"/>
     <use xlink:href="#DejaVuSans-440" x="294.091797"/>
     <use xlink:href="#DejaVuSans-442" x="357.568359"/>
     <use xlink:href="#DejaVuSans-430" x="415.820312"/>
     <use xlink:href="#DejaVuSans-20" x="477.099609"/>
     <use xlink:href="#DejaVuSans-441" x="508.886719"/>
     <use xlink:href="#DejaVuSans-43e" x="563.867188"/>
     <use xlink:href="#DejaVuSans-437" x="625.048828"/>
     <use xlink:href="#DejaVuSans-43d" x="678.222656"/>
     <use xlink:href="#DejaVuSans-430" x="743.603516"/>
     <use xlink:href="#DejaVuSans-43d" x="804.882812"/>
     <use xlink:href="#DejaVuSans-438" x="870.263672"/>
     <use xlink:href="#DejaVuSans-44f" x="935.253906"/>
     <use xlink:href="#DejaVuSans-20" x="995.410156"/>
     <use xlink:href="#DejaVuSans-28" x="1027.197266"/>
     <use xlink:href="#DejaVuSans-4c" x="1066.210938"/>
     <use xlink:href="#DejaVuSans-20" x="1121.923828"/>
     <use xlink:href="#DejaVuSans-2014" x="1153.710938"/>
     <use xlink:href="#DejaVuSans-20" x="1253.710938"/>
     <use xlink:href="#DejaVuSans-443" x="1285.498047"/>
     <use xlink:href="#DejaVuSans-440" x="1344.677734"/>
     <use xlink:href="#DejaVuSans-43e" x="1408.154297"/>
     <use xlink:href="#DejaVuSans-432" x="1469.335938"/>
     <use xlink:href="#DejaVuSans-435" x="1528.271484"/>
     <use xlink:href="#DejaVuSans-43d" x="1589.794922"/>
     <use xlink:href="#DejaVuSans-44c" x="1655.175781"/>
     <use xlink:href="#DejaVuSans-2c" x="1714.111328"/>
     <use xlink:href="#DejaVuSans-20" x="1745.898438"/>
     <use xlink:href="#DejaVuSans-43" x="1777.685547"/>
     <use xlink:href="#DejaVuSans-20" x="1847.509766"/>
     <use xlink:href="#DejaVuSans-2014" x="1879.296875"/>
     <use xlink:href="#DejaVuSans-20" x="1979.296875"/>
     <use xlink:href="#DejaVuSans-441" x="2011.083984"/>
     <use xlink:href="#DejaVuSans-43e" x="2066.064453"/>
     <use xlink:href="#DejaVuSans-434" x="2127.246094"/>
     <use xlink:href="#DejaVuSans-435" x="2196.386719"/>
     <use xlink:href="#DejaVuSans-440" x="2257.910156"/>
     <use xlink:href="#DejaVuSans-436" x="2321.386719"/>
     <use xlink:href="#DejaVuSans-430" x="2411.474609"/>
     <use xlink:href="#DejaVuSans-43d" x="2472.753906"/>
     <use xlink:href="#DejaVuSans-438" x="2538.134766"/>
     <use xlink:href="#DejaVuSans-435" x="2603.125"/>
     <use xlink:href="#DejaVuSans-2c" x="2664.648438"/>
     <use xlink:href="#DejaVuSans-20" x="2696.435547"/>
     <use xlink:href="#DejaVuSans-53" x="2728.222656"/>
     <use xlink:href="#DejaVuSans-20" x="2791.699219"/>
     <use xlink:href="#DejaVuSans-2014" x="2823.486328"/>
     <use xlink:href="#DejaVuSans-20" x="2923.486328"/>
     <use xlink:href="#DejaVuSans-441" x="2955.273438"/>
     <use xlink:href="#DejaVuSans-430" x="3010.253906"/>
     <use xlink:href="#DejaVuSans-43c" x="3071.533203"/>
     <use xlink:href="#DejaVuSans-43e" x="3146.972656"/>
     <use xlink:href="#DejaVuSans-441" x="3208.154297"/>
     <use xlink:href="#DejaVuSans-442" x="3263.134766"/>
     <use xlink:href="#DejaVuSans-44c" x="3321.386719"/>
     <use xlink:href="#DejaVuSans-2f" x="3380.322266"/>
     <use xlink:href="#DejaVuSans-43c" x="3414.013672"/>
     <use xlink:href="#DejaVuSans-435" x="3489.453125"/>
     <use xlink:href="#DejaVuSans-442" x="3550.976562"/>
     <use xlink:href="#DejaVuSans-430" x="3609.228516"/>
     <use xlink:href="#DejaVuSans-43a" x="3670.507812"/>
     <use xlink:href="#DejaVuSans-43e" x="3730.908203"/>
     <use xlink:href="#DejaVuSans-433" x="3792.089844"/>
     <use xlink:href="#DejaVuSans-43d" x="3844.628906"/>
     <use xlink:href="#DejaVuSans-438" x="3910.009766"/>
     <use xlink:href="#DejaVuSans-446" x="3975"/>
     <use xlink:href="#DejaVuSans-438" x="4043.066406"/>
     <use xlink:href="#DejaVuSans-44f" x="4108.056641"/>
     <use xlink:href="#DejaVuSans-29" x="4168.212891"/>
    </g>
   </g>
   <g id="legend_1">
    <g id="patch_6">
     <path d="M 578.736 108.78 
L 701.766 108.78 
Q 703.566 108.78 703.566 106.98 
L 703.566 28.618125 
Q 703.566 26.818125 701.766 26.818125 
L 578.736 26.818125 
Q 576.936 26.818125 576.936 28.618125 
L 576.936 106.98 
Q 576.936 108.78 578.736 108.78 
z
" style="fill: #ffffff; opacity: 0.8; stroke: #cccccc; stroke-linejoin: miter"/>
    </g>
    <g id="line2d_28">
     <path d="M 580.536 34.106719 
L 589.536 34.106719 
L 598.536 34.106719 
" style="fill: none; stroke: #1f77b4; stroke-linecap: square"/>
     <g>
      <use xlink:href="#m1ddbfbe81f" x="589.536" y="34.106719" style="fill: #1f77b4; stroke: #1f77b4"/>
     </g>
    </g>
    <g id="text_37">
     <!-- Sleep onset -->
     <g transform="translate(605.736 37.256719) scale(0.09 -0.09)">
      <use xlink:href="#DejaVuSans-53"/>
      <use xlink:href="#DejaVuSans-6c" x="63.476562"/>
      <use xlink:href="#DejaVuSans-65" x="91.259766"/>
      <use xlink:href="#DejaVuSans-65" x="152.783203"/>
      <use xlink:href="#DejaVuSans-70" x="214.306641"/>
      <use xlink:href="#DejaVuSans-20" x="277.783203"/>
      <use xlink:href="#DejaVuSans-6f" x="309.570312"/>
      <use xlink:href="#DejaVuSans-6e" x="370.751953"/>
      <use xlink:href="#DejaVuSans-73" x="434.130859"/>
      <use xlink:href="#DejaVuSans-65" x="486.230469"/>
      <use xlink:href="#DejaVuSans-74" x="547.753906"/>
     </g>
    </g>
    <g id="line2d_29">
     <path d="M 580.536 47.317031 
L 589.536 47.317031 
L 598.536 47.317031 
" style="fill: none; stroke: #ff7f0e; stroke-linecap: square"/>
     <g>
      <use xlink:href="#mc41e9ca9a7" x="589.536" y="47.317031" style="fill: #ff7f0e; stroke: #ff7f0e"/>
     </g>
    </g>
    <g id="text_38">
     <!-- REM intrusion -->
     <g transform="translate(605.736 50.467031) scale(0.09 -0.09)">
      <defs>
       <path id="DejaVuSans-75" d="M 544 1381 
L 544 3500 
L 1119 3500 
L 1119 1403 
Q 1119 906 1312 657 
Q 1506 409 1894 409 
Q 2359 409 2629 706 
Q 2900 1003 2900 1516 
L 2900 3500 
L 3475 3500 
L 3475 0 
L 2900 0 
L 2900 538 
Q 2691 219 2414 64 
Q 2138 -91 1772 -91 
Q 1169 -91 856 284 
Q 544 659 544 1381 
z
M 1991 3584 
L 1991 3584 
z
" transform="scale(0.015625)"/>
      </defs>
      <use xlink:href="#DejaVuSans-52"/>
      <use xlink:href="#DejaVuSans-45" x="69.482422"/>
      <use xlink:href="#DejaVuSans-4d" x="132.666016"/>
      <use xlink:href="#DejaVuSans-20" x="218.945312"/>
      <use xlink:href="#DejaVuSans-69" x="250.732422"/>
      <use xlink:href="#DejaVuSans-6e" x="278.515625"/>
      <use xlink:href="#DejaVuSans-74" x="341.894531"/>
      <use xlink:href="#DejaVuSans-72" x="381.103516"/>
      <use xlink:href="#DejaVuSans-75" x="422.216797"/>
      <use xlink:href="#DejaVuSans-73" x="485.595703"/>
      <use xlink:href="#DejaVuSans-69" x="537.695312"/>
      <use xlink:href="#DejaVuSans-6f" x="565.478516"/>
      <use xlink:href="#DejaVuSans-6e" x="626.660156"/>
     </g>
    </g>
    <g id="line2d_30">
     <path d="M 580.536 60.527344 
L 589.536 60.527344 
L 598.536 60.527344 
" style="fill: none; stroke: #2ca02c; stroke-linecap: square"/>
     <g>
      <use xlink:href="#m28bfc2fced" x="589.536" y="60.527344" style="fill: #2ca02c; stroke: #2ca02c"/>
     </g>
    </g>
    <g id="text_39">
     <!-- Wake from REM -->
     <g transform="translate(605.736 63.677344) scale(0.09 -0.09)">
      <use xlink:href="#DejaVuSans-57"/>
      <use xlink:href="#DejaVuSans-61" x="92.501953"/>
      <use xlink:href="#DejaVuSans-6b" x="153.78125"/>
      <use xlink:href="#DejaVuSans-65" x="208.066406"/>
      <use xlink:href="#DejaVuSans-20" x="269.589844"/>
      <use xlink:href="#DejaVuSans-66" x="301.376953"/>
      <use xlink:href="#DejaVuSans-72" x="336.582031"/>
      <use xlink:href="#DejaVuSans-6f" x="375.445312"/>
      <use xlink:href="#DejaVuSans-6d" x="436.626953"/>
      <use xlink:href="#DejaVuSans-20" x="534.039062"/>
      <use xlink:href="#DejaVuSans-52" x="565.826172"/>
      <use xlink:href="#DejaVuSans-45" x="635.308594"/>
      <use xlink:href="#DejaVuSans-4d" x="698.492188"/>
     </g>
    </g>
    <g id="line2d_31">
     <path d="M 580.536 73.737656 
L 589.536 73.737656 
L 598.536 73.737656 
" style="fill: none; stroke: #d62728; stroke-linecap: square"/>
     <g>
      <use xlink:href="#m5e99a20a55" x="589.536" y="73.737656" style="fill: #d62728; stroke: #d62728"/>
     </g>
    </g>
    <g id="text_40">
     <!-- Anesthesia induction -->
     <g transform="translate(605.736 76.887656) scale(0.09 -0.09)">
      <use xlink:href="#DejaVuSans-41"/>
      <use xlink:href="#DejaVuSans-6e" x="68.408203"/>
      <use xlink:href="#DejaVuSans-65" x="131.787109"/>
      <use xlink:href="#DejaVuSans-73" x="193.310547"/>
      <use xlink:href="#DejaVuSans-74" x="245.410156"/>
      <use xlink:href="#DejaVuSans-68" x="284.619141"/>
      <use xlink:href="#DejaVuSans-65" x="347.998047"/>
      <use xlink:href="#DejaVuSans-73" x="409.521484"/>
      <use xlink:href="#DejaVuSans-69" x="461.621094"/>
      <use xlink:href="#DejaVuSans-61" x="489.404297"/>
      <use xlink:href="#DejaVuSans-20" x="550.683594"/>
      <use xlink:href="#DejaVuSans-69" x="582.470703"/>
      <use xlink:href="#DejaVuSans-6e" x="610.253906"/>
      <use xlink:href="#DejaVuSans-64" x="673.632812"/>
      <use xlink:href="#DejaVuSans-75" x="737.109375"/>
      <use xlink:href="#DejaVuSans-63" x="800.488281"/>
      <use xlink:href="#DejaVuSans-74" x="855.46875"/>
      <use xlink:href="#DejaVuSans-69" x="894.677734"/>
      <use xlink:href="#DejaVuSans-6f" x="922.460938"/>
      <use xlink:href="#DejaVuSans-6e" x="983.642578"/>
     </g>
    </g>
    <g id="line2d_32">
     <path d="M 580.536 86.947969 
L 589.536 86.947969 
L 598.536 86.947969 
" style="fill: none; stroke: #9467bd; stroke-linecap: square"/>
     <g>
      <use xlink:href="#m682bc0666f" x="589.536" y="86.947969" style="fill: #9467bd; stroke: #9467bd"/>
     </g>
    </g>
    <g id="text_41">
     <!-- Psychedelic session -->
     <g transform="translate(605.736 90.097969) scale(0.09 -0.09)">
      <use xlink:href="#DejaVuSans-50"/>
      <use xlink:href="#DejaVuSans-73" x="58.552734"/>
      <use xlink:href="#DejaVuSans-79" x="110.652344"/>
      <use xlink:href="#DejaVuSans-63" x="169.832031"/>
      <use xlink:href="#DejaVuSans-68" x="224.8125"/>
      <use xlink:href="#DejaVuSans-65" x="288.191406"/>
      <use xlink:href="#DejaVuSans-64" x="349.714844"/>
      <use xlink:href="#DejaVuSans-65" x="413.191406"/>
      <use xlink:href="#DejaVuSans-6c" x="474.714844"/>
      <use xlink:href="#DejaVuSans-69" x="502.498047"/>
      <use xlink:href="#DejaVuSans-63" x="530.28125"/>
      <use xlink:href="#DejaVuSans-20" x="585.261719"/>
      <use xlink:href="#DejaVuSans-73" x="617.048828"/>
      <use xlink:href="#DejaVuSans-65" x="669.148438"/>
      <use xlink:href="#DejaVuSans-73" x="730.671875"/>
      <use xlink:href="#DejaVuSans-73" x="782.771484"/>
      <use xlink:href="#DejaVuSans-69" x="834.871094"/>
      <use xlink:href="#DejaVuSans-6f" x="862.654297"/>
      <use xlink:href="#DejaVuSans-6e" x="923.835938"/>
     </g>
    </g>
    <g id="line2d_33">
     <path d="M 580.536 100.158281 
L 589.536 100.158281 
L 598.536 100.158281 
" style="fill: none; stroke: #8c564b; stroke-linecap: square"/>
     <g>
      <use xlink:href="#m1f4179ea7c" x="589.536" y="100.158281" style="fill: #8c564b; stroke: #8c564b"/>
     </g>
    </g>
    <g id="text_42">
     <!-- Meditation (entry) -->
     <g transform="translate(605.736 103.308281) scale(0.09 -0.09)">
      <use xlink:href="#DejaVuSans-4d"/>
      <use xlink:href="#DejaVuSans-65" x="86.279297"/>
      <use xlink:href="#DejaVuSans-64" x="147.802734"/>
      <use xlink:href="#DejaVuSans-69" x="211.279297"/>
      <use xlink:href="#DejaVuSans-74" x="239.0625"/>
      <use xlink:href="#DejaVuSans-61" x="278.271484"/>
      <use xlink:href="#DejaVuSans-74" x="339.550781"/>
      <use xlink:href="#DejaVuSans-69" x="378.759766"/>
      <use xlink:href="#DejaVuSans-6f" x="406.542969"/>
      <use xlink:href="#DejaVuSans-6e" x="467.724609"/>
      <use xlink:href="#DejaVuSans-20" x="531.103516"/>
      <use xlink:href="#DejaVuSans-28" x="562.890625"/>
      <use xlink:href="#DejaVuSans-65" x="601.904297"/>
      <use xlink:href="#DejaVuSans-6e" x="663.427734"/>
      <use xlink:href="#DejaVuSans-74" x="726.806641"/>
      <use xlink:href="#DejaVuSans-72" x="766.015625"/>
      <use xlink:href="#DejaVuSans-79" x="807.128906"/>
      <use xlink:href="#DejaVuSans-29" x="866.308594"/>
     </g>
    </g>
   </g>
  </g>
 </g>
 <defs>
  <clipPath id="p1d9a7c63ef">
   <rect x="7.2" y="22.318125" width="538.32" height="538.32"/>
  </clipPath>
 </defs>
</svg>
